<?xml version="1.0" encoding="UTF-8"?>
<svg width="60px" height="60px" viewBox="0 0 60 60" version="1.1" xmlns="http://www.w3.org/2000/svg" xmlns:xlink="http://www.w3.org/1999/xlink">
    <!-- Generator: Sketch 47.1 (45422) - http://www.bohemiancoding.com/sketch -->
    <title>accelerometer</title>
    <desc>Created with Sketch.</desc>
    <defs></defs>
    <g id="e4" stroke="none" stroke-width="1" fill="none" fill-rule="evenodd">
        <g id="E4-consumer" transform="translate(-1095.000000, -1414.000000)" fill-rule="nonzero" fill="#C51A4A">
            <g id="accelerometer" transform="translate(1095.000000, 1414.000000)">
                <path d="M20.47,1.56 C8.97815595,5.42456527 0.942153781,15.8264069 0.104150686,27.9216579 C-0.733852409,40.0169088 5.79089984,51.4275726 16.64,56.84 C23.7547528,60.4066954 32.0006048,60.979224 39.54,58.43 C40.100907,58.2424356 40.519142,57.7698786 40.6371599,57.1903367 C40.7551778,56.6107948 40.5550489,56.0123141 40.1121599,55.6203367 C39.6692708,55.2283592 39.050907,55.1024356 38.49,55.29 C28.2570327,58.7244749 16.9628175,55.6547799 9.87621344,47.512957 C2.78960934,39.3711341 1.30698548,27.7614765 6.12,18.1 C12.7805541,4.95562295 28.835623,-0.300554083 41.98,6.36 C55.124377,13.0205541 60.3805541,29.075623 53.72,42.22 L33.84,30.36 L33.84,12.75 L37.3,16.27 C37.7144281,16.6915734 38.3222822,16.8600286 38.8945895,16.71191 C39.4668968,16.5637915 39.9167103,16.121602 40.0745895,15.55191 C40.2324688,14.982218 40.0744281,14.3715734 39.66,13.95 L33.37,7.55 L33.37,7.55 L33.22,7.42 L33.13,7.34 C33.0417079,7.28111148 32.9479402,7.23087876 32.85,7.19 L32.85,7.19 L32.65,7.13 L32.54,7.13 L32.43,7.13 L32.21,7.13 L32.21,7.13 C31.7685374,7.08879318 31.3299201,7.23379064 31,7.53 L24.6,13.82 C23.948304,14.4606503 23.9393497,15.508304 24.58,16.16 C25.2206503,16.811696 26.268304,16.8206503 26.92,16.18 L30.51,12.65 L30.51,29.89 L15.12,39 L16.4,33.92 C16.6236753,33.033583 16.086417,32.1336754 15.2,31.91 C14.313583,31.6863247 13.4136753,32.223583 13.19,33.11 L10.95,42 L10.95,42 C10.95,42 10.95,42 10.95,42.07 C10.943716,42.1532149 10.943716,42.2367851 10.95,42.32 C10.95,42.37 10.95,42.42 10.95,42.47 C10.9457467,42.5887103 10.962678,42.707229 11,42.82 C11,42.82 11,43 11,43 C11.037158,43.1009754 11.0840452,43.1980989 11.14,43.29 L11.14,43.29 L11.14,43.35 C11.1848703,43.4203641 11.2350142,43.4872226 11.29,43.55 L11.39,43.64 L11.53,43.76 L11.65,43.84 L11.8,43.93 L12,44 L12.14,44.05 L20.43,46.29 C20.9998386,46.4436242 21.6083488,46.2815736 22.0263106,45.864891 C22.4442723,45.4482083 22.6081874,44.8401978 22.4563106,44.2698909 C22.3044337,43.6995841 21.8598386,43.2536242 21.29,43.1 L16.79,41.89 L31.79,33 L53.22,45.8 L53.34,45.85 L53.5,45.97 C53.8778296,46.1918939 54.3284028,46.2543917 54.7523628,46.1437118 C55.1763228,46.033032 55.538849,45.7582649 55.76,45.38 L56.07,44.84 C62.2168311,34.0323731 61.0600657,20.553119 53.1616919,10.9508264 C45.2633181,1.34853378 32.2603566,-2.38662177 20.47,1.56 Z" id="Shape"></path>
            </g>
        </g>
    </g>
</svg>