<svg id="Layer_1" data-name="Layer 1" xmlns="http://www.w3.org/2000/svg" viewBox="0 0 60 60"><defs><style>.cls-1{fill:#fff;}</style></defs><title>api</title><path class="cls-1" d="M53,9.38H32A2.62,2.62,0,0,0,29.38,12V48A2.62,2.62,0,0,0,32,50.63H53A2.63,2.63,0,0,0,55.63,48V12A2.62,2.62,0,0,0,53,9.38ZM32,10.63H53A1.37,1.37,0,0,1,54.38,12v2.38H30.63V12A1.37,1.37,0,0,1,32,10.63Zm-1.37,5H54.38V44.25H30.63ZM53,49.38H32A1.37,1.37,0,0,1,30.63,48V45.75H54.38V48A1.38,1.38,0,0,1,53,49.38Z"/><path class="cls-1" d="M23.13,24.66V22a2.62,2.62,0,0,0-2.63-2.62H9.5A2.62,2.62,0,0,0,6.88,22v2.66l-2,3.18a3,3,0,0,0-.46,1.59V40.57a3,3,0,0,0,.46,1.59l2,3.18V48A2.62,2.62,0,0,0,9.5,50.63h11A2.63,2.63,0,0,0,23.13,48V45.34l2-3.18a3,3,0,0,0,.47-1.59V29.43a3,3,0,0,0-.47-1.59Zm-15,1.42A4.12,4.12,0,0,1,10,25.63a4.38,4.38,0,1,1,0,8.75,4.13,4.13,0,0,1-1.87-.46ZM5.63,40.57V29.43a1.78,1.78,0,0,1,.26-.92l1-1.53V43l-1-1.53A1.78,1.78,0,0,1,5.63,40.57ZM21.88,48a1.38,1.38,0,0,1-1.38,1.38H9.5A1.37,1.37,0,0,1,8.13,48V35.28a5.44,5.44,0,0,0,1.87.35,5.63,5.63,0,1,0,0-11.25,5.43,5.43,0,0,0-1.87.34V22A1.37,1.37,0,0,1,9.5,20.63h11A1.37,1.37,0,0,1,21.88,22V48Zm2.5-7.43a1.79,1.79,0,0,1-.27.92l-1,1.53V27l1,1.53a1.79,1.79,0,0,1,.27.92Z"/><circle class="cls-1" cx="18" cy="30" r="0.63"/><path class="cls-1" d="M36.74,24.9,33.88,34h1.47L36,31.8h2.88L39.5,34H41l-2.85-9.1Zm-.47,5.8,1.15-4,1.15,4Z"/><path class="cls-1" d="M44.89,25H42v9h1.34V30.63h1.55c2.31,0,3.11-1.33,3.11-2.81S47.2,25,44.89,25ZM45,29.41H43.34V26.24H45a1.43,1.43,0,0,1,1.59,1.58A1.43,1.43,0,0,1,45,29.41Z"/><rect class="cls-1" x="49.15" y="25" width="1.34" height="9"/></svg>