<svg id="Layer_1" data-name="Layer 1" xmlns="http://www.w3.org/2000/svg" viewBox="0 0 60 60"><defs><style>.cls-1{fill:#fff;}</style></defs><title>clinical_quality </title><path class="cls-1" d="M45,44.37H38a13.1,13.1,0,0,0-.53-24l2.63-2.56a.63.63,0,0,0,0-.89l-1.06-1.08,1.35-1.31a.67.67,0,0,0,.18-.44.62.62,0,0,0-.17-.45l-4-4.09A.68.68,0,0,0,36,9.37a.57.57,0,0,0-.44.18l-1.34,1.31L33.17,9.77a.63.63,0,0,0-.88,0L21.55,20.23a.63.63,0,0,0,0,.89L22.6,22.2l-1.34,1.31a.63.63,0,0,0-.19.44.62.62,0,0,0,.17.45l4,4.09a.64.64,0,0,0,.45.18.6.6,0,0,0,.43-.17l1.35-1.31,1.06,1.09a.63.63,0,0,0,.44.18h0a.64.64,0,0,0,.44-.17l7.12-6.94A11.84,11.84,0,0,1,35.43,44,5.63,5.63,0,0,0,30,39.37,5.48,5.48,0,0,0,25.38,42a11.7,11.7,0,0,1-4.32-6.34H25a.62.62,0,0,0,.62-.62.63.63,0,0,0-.62-.63H15a.63.63,0,0,0-.62.63.62.62,0,0,0,.62.62h4.77a13,13,0,0,0,5,7.48,6.27,6.27,0,0,0-.34,1.27H15a.63.63,0,0,0-.62.63v5a.62.62,0,0,0,.62.62H45a.62.62,0,0,0,.62-.62V45A.63.63,0,0,0,45,44.37ZM36,10.88l3.12,3.2-.9.87-3.11-3.19ZM25.69,27.17,22.58,24l.89-.87,3.11,3.19ZM29,27l-1.06-1.09h0l-4-4.09h0l-1.06-1.09,9.84-9.6,1.07,1.09h0L35,13.46l3.8,3.9-2.89,2.82Zm1,13.66a4.41,4.41,0,0,1,4.24,3.75H25.75a4.85,4.85,0,0,1,.38-1.21h0A4.32,4.32,0,0,1,30,40.62Zm14.38,8.75H15.62V45.62H44.38Z"/></svg>