<?xml version="1.0" encoding="UTF-8"?>
<svg width="61px" height="60px" viewBox="0 0 61 60" version="1.1" xmlns="http://www.w3.org/2000/svg" xmlns:xlink="http://www.w3.org/1999/xlink">
    <!-- Generator: Sketch 47.1 (45422) - http://www.bohemiancoding.com/sketch -->
    <title>clock</title>
    <desc>Created with Sketch.</desc>
    <defs></defs>
    <g id="e4" stroke="none" stroke-width="1" fill="none" fill-rule="evenodd">
        <g id="E4-consumer" transform="translate(-1095.000000, -1623.000000)" fill-rule="nonzero" fill="#C31C4A">
            <g id="clock" transform="translate(1095.000000, 1622.000000)">
                <path d="M27.71,1.09 C27.1222981,1.1418035 26.606876,1.50320715 26.3578882,2.03807368 C26.1089004,2.57294021 26.1641741,3.20001067 26.5028882,3.68307369 C26.8416023,4.16613671 27.4122981,4.43180352 28,4.38 C40.7260111,3.39706347 52.3667599,11.5620118 55.7758052,23.8622529 C59.1848505,36.1624941 53.407894,49.1548068 41.9915015,54.863003 C30.575109,60.5711993 16.715085,57.3973768 8.92031923,47.2899959 C1.12555345,37.182615 1.57804412,22.971047 10,13.38 L28.83,32.17 C29.4703552,32.7923787 30.4896448,32.7923787 31.13,32.17 L44.7,19.46 C45.286158,18.8188212 45.2788251,17.8341517 44.6831828,17.2017738 C44.0875406,16.5693959 43.1050702,16.503217 42.43,17.05 L30,28.7 L11.12,9.79 C10.8231771,9.48928722 10.4223016,9.31390421 10,9.3 L10,9.3 C9.55536414,9.30086745 9.12989746,9.48114994 8.82,9.8 L8.39,10.24 C0.0790585615,18.909982 -2.26021409,31.7010139 2.4442104,42.7512956 C7.14863489,53.8015773 17.9900049,60.9812284 30,61 C30.76,61 31.54,61 32.31,60.91 C43.0804597,60.1969741 52.6375626,53.7528612 57.3364775,44.0352789 C62.0353925,34.3176966 61.1516288,22.8249263 55.0222311,13.9400126 C48.8928333,5.05509898 38.4628476,0.147940401 27.71,1.09 Z" id="Shape"></path>
            </g>
        </g>
    </g>
</svg>