<svg id="Layer_1" data-name="Layer 1" xmlns="http://www.w3.org/2000/svg" viewBox="0 0 60 60"><defs><style>.cls-1{fill:#fff;}</style></defs><title>data</title><path class="cls-1" d="M47,9.37H13A3.64,3.64,0,0,0,9.37,13V37A3.63,3.63,0,0,0,13,40.62H24.37v8.75H20a.64.64,0,0,0-.63.63.63.63,0,0,0,.63.62H40a.62.62,0,0,0,.62-.62.63.63,0,0,0-.62-.63H35.62V40.62H47A3.62,3.62,0,0,0,50.62,37V13A3.63,3.63,0,0,0,47,9.37ZM13,10.62H47A2.38,2.38,0,0,1,49.37,13V33.49l-6.76-6.77a3.13,3.13,0,1,0-5.22,0L35,29.12l-4.5-4.5a.47.47,0,0,0-.1-.1l-2.79-2.8a3.13,3.13,0,1,0-5.22,0L10.62,33.49V13A2.39,2.39,0,0,1,13,10.62ZM26.33,21.33h0a1.92,1.92,0,0,1-2.64,0h0A1.88,1.88,0,0,1,25,18.12a1.89,1.89,0,0,1,1.33,3.21Zm-3,1.28a3.16,3.16,0,0,0,3.44,0l7.84,7.83a.63.63,0,0,0,.88,0l2.84-2.83a3.16,3.16,0,0,0,3.44,0l6.77,6.76h-37Zm18,3.72h0a1.92,1.92,0,0,1-2.64,0h0A1.88,1.88,0,0,1,40,23.12a1.89,1.89,0,0,1,1.33,3.21Zm-7,23H25.62V40.62h8.75ZM47,39.37H13A2.38,2.38,0,0,1,10.62,37V35.62H49.37V37A2.37,2.37,0,0,1,47,39.37Z"/></svg>