<?xml version="1.0" encoding="UTF-8"?>
<svg width="312px" height="70px" viewBox="0 0 312 70" version="1.1" xmlns="http://www.w3.org/2000/svg" xmlns:xlink="http://www.w3.org/1999/xlink">
    <!-- Generator: Sketch 47.1 (45422) - http://www.bohemiancoding.com/sketch -->
    <title>e4_logo-sm</title>
    <desc>Created with Sketch.</desc>
    <defs></defs>
    <g id="e4" stroke="none" stroke-width="1" fill="none" fill-rule="evenodd">
        <g id="E4-consumer-mobile" transform="translate(-32.000000, -130.000000)" fill="#BC204B">
            <g id="e4_logo-sm" transform="translate(32.000000, 130.000000)">
                <g id="Group-12" transform="translate(92.000000, 51.000000)">
                    <g id="Group-16" transform="translate(0.000000, 0.000000)">
                        <g id="Group-8" transform="translate(0.000000, 0.757897)">
                            <path d="M1.41332381,5.85894331 L0,5.85894331 L0,5.45736255 L1.41332381,5.29412741 L1.41332381,3.68557337 C1.41332381,2.24471648 2.31071365,1.51369076 4.08016228,1.51369076 C4.3137295,1.51369076 4.86430741,1.54380932 5.01890134,1.57429971 L5.08185646,1.5873139 L5.08185646,2.14506496 L4.99059017,2.12981976 C4.82482077,2.10267588 4.40127064,2.07218549 4.08016228,2.07218549 C2.69254204,2.07218549 2.01791647,2.59944615 2.01791647,3.68557337 L2.01791647,5.30007675 L4.56070728,5.30007675 L4.56070728,5.85894331 L2.01791647,5.85894331 L2.01791647,12.8821446 L1.41332381,12.8821446 L1.41332381,5.85894331 Z" id="Fill-8"></path>
                            <path d="M4.92937186,1.72751173 L4.92937186,2.12251205 C4.75592966,2.0928045 4.33786169,2.064564 4.03433784,2.064564 C2.82241047,2.064564 1.95700616,2.47386795 1.95700616,3.73295437 L1.95700616,5.40354531 L4.42386012,5.40354531 L4.42386012,5.79854562 L1.95700616,5.79854562 L1.95700616,12.7270052 L1.52340066,12.7270052 L1.52340066,5.79854562 L0.152845939,5.79854562 L0.152845939,5.54951571 L1.52340066,5.38850815 L1.52340066,3.73295437 C1.52340066,2.4159199 2.30280654,1.66883016 4.03433784,1.66883016 C4.25114059,1.66883016 4.78447536,1.69780419 4.92937186,1.72751173 Z M2.03108043,2.08766987 C1.5924162,2.46286515 1.37055472,3.01703922 1.37055472,3.73295437 L1.37055472,5.25060647 L0.134779043,5.39547659 L0,5.41161402 L0,5.9547853 L1.37055472,5.9547853 L1.37055472,12.8821446 L2.1098521,12.8821446 L2.1098521,5.9547853 L4.57742873,5.9547853 L4.57742873,5.24840591 L2.1098521,5.24840591 L2.1098521,3.73295437 C2.1098521,2.70089227 2.72087451,2.2197034 4.03433784,2.2197034 C4.34183641,2.2197034 4.74689621,2.2497777 4.90371687,2.27581765 L5.08185646,2.30552519 L5.08185646,1.59951256 L4.95900157,1.57457289 C4.79423148,1.54156451 4.24427517,1.51369076 4.03433784,1.51369076 C3.15158931,1.51369076 2.47733276,1.70660642 2.03108043,2.08766987 Z" id="Fill-9"></path>
                            <path d="M6.2111579,12.8821446 L6.2111579,5.00113928 L6.5701751,5.00113928 L6.76501673,5.5627155 C7.4647263,5.14336918 8.59488254,4.92422691 9.3813546,4.92422691 C9.64425991,4.92422691 9.88397869,4.94007318 10.0949013,4.97176571 L10.1637129,4.98104157 L10.1637129,5.5627155 L10.0724627,5.5491882 C9.86864566,5.51981463 9.63603243,5.50396836 9.3813546,5.50396836 C8.335717,5.50396836 7.48417307,5.7053319 6.84766548,6.10032907 L6.84766548,12.8821446 L6.2111579,12.8821446" id="Fill-10"></path>
                            <path d="M9.33615796,5.08404423 C9.5803604,5.08404423 9.80981719,5.0995715 10.0108616,5.12986862 L10.0108616,5.53774362 C9.80981719,5.50782521 9.5803604,5.49343408 9.33615796,5.49343408 C8.33057617,5.49343408 7.46957374,5.68960794 6.82184384,6.11301022 L6.82184384,12.7219486 L6.36293026,12.7219486 L6.36293026,5.15978703 L6.57872034,5.15978703 L6.77976477,5.7505809 C7.41167006,5.32604248 8.51795389,5.08404423 9.33615796,5.08404423 M9.33615796,4.92422691 C8.59851552,4.92422691 7.54977572,5.1264602 6.86140535,5.51502078 L6.72222075,5.10600964 L6.68589608,4.999591 L6.2111579,4.999591 L6.2111579,12.8821446 L6.9750548,12.8821446 L6.9750548,6.20276544 C7.57135473,5.83844255 8.36510258,5.6532514 9.33615796,5.6532514 C9.5774832,5.6532514 9.79686979,5.66764253 9.99036156,5.69680351 L10.1637129,5.7236922 L10.1637129,4.99125929 L10.0324406,4.97080874 C9.8263611,4.93975419 9.59222886,4.92422691 9.33615796,4.92422691" id="Fill-11"></path>
                            <path d="M14.3985933,12.8821446 C11.8207935,12.8821446 11.2930144,11.2920922 11.2930144,8.90280297 C11.2930144,6.51504489 11.8207935,4.92422691 14.3985933,4.92422691 C16.9760251,4.92422691 17.5041723,6.51504489 17.5041723,8.90280297 C17.5041723,11.2920922 16.9760251,12.8821446 14.3985933,12.8821446 M14.3985933,5.4991568 C12.0949884,5.4991568 11.9043401,7.10911359 11.9043401,8.90280297 C11.9043401,10.6972579 12.0949884,12.3068319 14.3985933,12.3068319 C16.7021983,12.3068319 16.8928465,10.6972579 16.8928465,8.90280297 C16.8928465,7.10911359 16.7021983,5.4991568 14.3985933,5.4991568" id="Fill-12"></path>
                            <path d="M14.3987728,5.0825449 C16.9082228,5.0825449 17.3526719,6.70136514 17.3526719,8.90318575 C17.3526719,11.1050064 16.9082228,12.7238266 14.3987728,12.7238266 C11.8893229,12.7238266 11.4445148,11.1050064 11.4445148,8.90318575 C11.4445148,6.70136514 11.8893229,5.0825449 14.3987728,5.0825449 M14.3987728,12.3194029 C16.6497387,12.3194029 16.9082228,10.7909965 16.9082228,8.90318575 C16.9082228,7.01537499 16.6497387,5.48809407 14.3987728,5.48809407 C12.147807,5.48809407 11.8893229,7.01537499 11.8893229,8.90318575 C11.8893229,10.7909965 12.147807,12.3194029 14.3987728,12.3194029 M14.3987728,4.92422691 C11.6688933,4.92422691 11.2930144,6.83642314 11.2930144,8.90318575 C11.2930144,10.9699484 11.6688933,12.8821446 14.3987728,12.8821446 C17.1286523,12.8821446 17.5041723,10.9699484 17.5041723,8.90318575 C17.5041723,6.83642314 17.1286523,4.92422691 14.3987728,4.92422691 M14.3987728,12.1599594 C13.407917,12.1599594 12.7832471,11.8673338 12.4317805,11.239314 C12.08893,10.6274263 12.0422593,9.75442633 12.0422593,8.90318575 C12.0422593,8.05194517 12.08893,7.1793204 12.4317805,6.56743262 C12.7832471,5.93903774 13.407917,5.64641207 14.3987728,5.64641207 C15.3896286,5.64641207 16.0142985,5.93903774 16.3657651,6.56743262 C16.7082566,7.1793204 16.7552863,8.05194517 16.7552863,8.90318575 C16.7552863,9.75442633 16.7082566,10.6274263 16.3657651,11.239314 C16.0142985,11.8673338 15.3896286,12.1599594 14.3987728,12.1599594" id="Fill-13"></path>
                            <path d="M28.7971866,9.96642536 L28.7971866,7.01206913 C28.7971866,5.50937928 28.1830286,4.92422691 26.6038184,4.92422691 C26.5978953,4.92422691 26.5919017,4.92424185 26.5858383,4.92427257 C26.5779941,4.92424212 26.5701266,4.92422691 26.5622359,4.92422691 C26.0798064,4.92422691 25.1292553,5.02231384 24.0657093,5.66461282 C23.7314939,5.15372761 23.132034,4.92422691 22.1517667,4.92422691 C22.1473422,4.92422691 22.1429147,4.92423418 22.1384843,4.92424869 C22.1329997,4.92423417 22.1275029,4.92422691 22.1219938,4.92422691 C21.3488628,4.92422691 20.4867393,5.14670377 19.8570414,5.50020724 L19.7194417,5.10600964 L19.6834888,4.999591 L19.1981244,4.999591 L19.1981244,12.8821446 L19.9773489,12.8821446 L19.9773489,6.20276544 C20.6057912,5.81761328 21.2621154,5.6532514 22.1517667,5.6532514 C23.2274193,5.6532514 23.6085936,5.85775697 23.6085936,7.00526044 L23.6085936,12.8821446 L24.3878181,12.8821446 L24.3878181,7.05070613 C24.3878181,6.78333403 24.3658061,6.53451892 24.3210484,6.31032022 C25.0353374,5.86192282 25.7507271,5.6532514 26.5622359,5.6532514 C27.6367879,5.6532514 28.0179622,5.85775697 28.0179622,7.00526044 L28.0179622,12.8821446 L28.7971866,12.8821446 L28.7971866,9.96642536 Z" id="Combined-Shape"></path>
                            <path d="M64.5517866,4.94978904 C64.3257063,4.95797296 63.8772763,4.97322483 63.4172811,5.02902435 C62.5454168,5.13467143 61.585881,5.29872201 61.1728927,5.43598882 C60.6069456,5.65397892 60.4177992,5.8641571 60.4177992,6.45972393 L60.4177992,15.9850733 C60.4177992,16.125688 60.5468814,16.2376591 60.6793212,16.2153393 C60.8177301,16.1907875 62.3469436,15.9389457 62.4853525,15.9147659 C62.6315959,15.8905861 62.7405323,15.7607592 62.7405323,15.6074965 L62.7405323,13.0113311 C63.2695454,13.1512018 63.902645,13.2397371 64.6267737,13.2397371 C67.4635971,13.2397371 67.8859122,11.2845221 67.8859122,9.10238899 C67.8859122,6.74058149 67.537838,4.84860591 64.5517866,4.94978904 L64.5517866,4.94978904 Z M63.9179409,11.6751187 C63.2687993,11.6751187 62.7405323,11.5400838 62.7405323,11.5400838 L62.7416515,6.72532962 C62.7558282,6.71937768 63.1494169,6.55197913 64.0682881,6.52965932 C65.1102723,6.50399155 65.5172915,6.74058149 65.5172915,9.04249751 C65.5172915,11.2845221 65.140864,11.6751187 63.9179409,11.6751187 L63.9179409,11.6751187 Z M115.332567,2.32646781 C116.158544,2.32646781 116.902445,2.67837675 117.421386,3.23934788 L117.425489,3.23525592 L119.068862,4.8727857 C119.1196,4.92449326 119.189737,4.95611298 119.266962,4.95611298 C119.341203,4.95611298 119.408356,4.92560925 119.459093,4.87910965 L119.460213,4.87910965 L120.706639,3.63626844 L120.706639,3.63515245 C120.760734,3.58456089 120.79431,3.51239351 120.79431,3.4331582 C120.79431,3.35615487 120.7626,3.28621948 120.711862,3.23525592 L119.068862,1.59698214 L119.070728,1.59400616 C118.129472,0.612678682 116.802836,8.65085781e-13 115.332567,8.65085781e-13 C112.474479,8.65085781e-13 110.157715,2.31009995 110.157715,5.16071121 C110.157715,6.73872151 110.86804,8.14858927 111.988369,9.09420506 C110.86804,10.0409368 110.157715,11.4511766 110.157715,13.0284429 C110.157715,15.8783102 112.474479,18.1895261 115.332567,18.1895261 C116.802836,18.1895261 118.129472,17.5764754 119.070728,16.59552 L119.068862,16.592544 L120.711862,14.9542702 C120.7626,14.9033066 120.79431,14.8333712 120.79431,14.7563679 C120.79431,14.6760166 120.760734,14.6053372 120.706639,14.5543737 L120.706639,14.5532577 L119.460213,13.3107885 L119.459093,13.3107885 C119.408356,13.2628009 119.341203,13.2334131 119.266962,13.2334131 C119.189737,13.2334131 119.1196,13.2650329 119.068862,13.3156244 L117.425489,14.9542702 L117.421386,14.9490622 C116.902445,15.5111494 116.158544,15.8630583 115.332567,15.8630583 C113.763435,15.8630583 112.490894,14.5938053 112.490894,13.0284429 C112.490894,12.2636176 112.794946,11.5705876 113.289637,11.061324 L113.333286,11.0166844 C113.356789,10.9943646 113.380293,10.9713008 113.404542,10.948609 L113.404542,10.946749 L115.056869,9.29917528 C115.056869,9.29917528 115.059107,9.29619931 115.060972,9.29396733 C115.068061,9.28689939 115.075149,9.27871546 115.082237,9.27090353 C115.08746,9.26457958 115.09231,9.25937163 115.096414,9.25230369 C115.103502,9.24449176 115.107606,9.23519184 115.112829,9.22514793 C115.116933,9.21919598 115.122156,9.21212804 115.12514,9.20394411 C115.129244,9.19576018 115.13111,9.18571627 115.134094,9.17641635 C115.137452,9.16711643 115.140063,9.1589325 115.142302,9.15000458 C115.145286,9.13772868 115.145286,9.1247088 115.146405,9.1124329 C115.147152,9.10536497 115.148271,9.09941302 115.148271,9.09308907 L115.148271,9.09234508 C115.148271,9.08825311 115.148271,9.08527714 115.148271,9.08081318 C115.146405,9.06556131 115.145286,9.04956545 115.142302,9.03542957 C115.140063,9.02724564 115.137452,9.01906171 115.135213,9.01087779 C115.132229,9.00083387 115.129244,8.99078996 115.12514,8.98149004 C115.122156,8.9744221 115.116933,8.96735416 115.113948,8.96140222 C115.107606,8.95098631 115.103502,8.94094239 115.096414,8.93201447 C115.09231,8.92569053 115.08746,8.92085457 115.083357,8.91564661 C115.076268,8.90671869 115.068061,8.89853476 115.060972,8.89035083 L115.056869,8.88625887 L113.235541,7.07017063 C112.773681,6.567231 112.490894,5.89726481 112.490894,5.16071121 C112.490894,3.59534879 113.763435,2.32646781 115.332567,2.32646781 L115.332567,2.32646781 Z M55.4902922,4.95722897 C54.165521,4.95722897 52.7971006,5.36158946 52.5262519,5.46723654 C52.1196057,5.16703515 51.4570336,4.95722897 50.5239858,4.95722897 C49.5950418,4.95722897 47.7188733,5.23994652 47.0943544,5.44677672 C46.5295265,5.66402284 46.3414993,5.87420101 46.3414993,6.46753586 L46.3414993,12.7687892 C46.3414993,12.901592 46.4317822,12.9931032 46.5825025,12.9931032 L48.4180063,12.9931032 C48.5683535,12.9931032 48.6590095,12.901592 48.6590095,12.7687892 L48.6590095,6.72532962 C48.6590095,6.72532962 49.531993,6.53077531 50.2535102,6.53077531 C50.9455548,6.53077531 51.2768409,6.77182922 51.2768409,7.59766205 L51.2768409,12.7687892 C51.2768409,12.901592 51.3827927,12.9931032 51.5323937,12.9931032 L53.3690168,12.9931032 C53.5040681,12.9931032 53.5947241,12.901592 53.5947241,12.7687892 L53.5947241,6.72346964 C53.5947241,6.72346964 54.42182,6.53077531 55.1291605,6.53077531 C55.8208321,6.53077531 56.2125555,6.77182922 56.2125555,7.59766205 L56.2125555,12.7687892 C56.2125555,12.901592 56.3173881,12.9931032 56.4681083,12.9931032 L58.3036122,12.9931032 C58.4543324,12.9931032 58.5446153,12.901592 58.5446153,12.7687892 L58.5446153,7.28220879 C58.5446153,5.40734506 57.3858602,4.95722897 55.4902922,4.95722897 L55.4902922,4.95722897 Z M126.481761,9.0901131 C126.481761,9.08602113 126.480642,9.08192917 126.479522,9.07895319 C126.479522,9.06370133 126.477657,9.04882146 126.474673,9.0324536 C126.472434,9.02426967 126.46945,9.01720173 126.467584,9.00790181 C126.4646,8.99897389 126.461615,8.98855798 126.457511,8.97851407 C126.454154,8.97144613 126.449304,8.96549418 126.446319,8.95805424 C126.441096,8.94912632 126.435873,8.93908241 126.429904,8.92978249 C126.4258,8.92383054 126.420577,8.91862259 126.415728,8.91267064 C126.408266,8.90448671 126.401178,8.89630278 126.393343,8.88811885 C126.391105,8.88625887 126.390359,8.88514288 126.38924,8.88328289 L122.741735,5.24701446 L122.740616,5.24627046 C122.690625,5.20163085 122.62683,5.17410309 122.554454,5.17410309 C122.481332,5.17410309 122.414926,5.20237484 122.365308,5.24701446 L122.364189,5.24627046 L121.110674,6.49617961 C121.060682,6.54677117 121.029344,6.61782256 121.029344,6.69482589 C121.029344,6.76699326 121.056579,6.83097671 121.101347,6.88045228 L121.100601,6.88156827 L121.110674,6.89272817 L121.111793,6.89272817 L123.315517,9.0901131 L121.111793,11.287498 C121.110674,11.288614 121.110674,11.288614 121.110674,11.288614 L121.100601,11.2986579 L121.101347,11.2997739 C121.056579,11.3507375 121.029344,11.4143489 121.029344,11.4854003 C121.029344,11.5635196 121.060682,11.633455 121.110674,11.6844186 L122.364189,12.9343277 L122.365308,12.9332117 C122.414926,12.9785953 122.481332,13.0072391 122.554454,13.0072391 C122.62683,13.0072391 122.690625,12.9797113 122.740616,12.9350717 L122.741735,12.9343277 C122.748824,12.9280038 122.754793,12.9209358 122.761135,12.9149839 L126.38924,9.2973153 C126.390359,9.29619931 126.392224,9.29396733 126.393343,9.29322334 C126.401178,9.28503941 126.408266,9.27685548 126.415728,9.26755556 C126.419831,9.2627196 126.4258,9.25676765 126.429904,9.25044371 C126.435873,9.24151578 126.441096,9.23221586 126.446319,9.22291595 C126.449304,9.21584801 126.454154,9.20878007 126.457511,9.20171213 C126.461615,9.19278421 126.4646,9.18348429 126.466465,9.17418437 C126.46945,9.16525645 126.472434,9.15632852 126.474673,9.14814459 C126.477657,9.13475271 126.477657,9.12247682 126.479522,9.11057292 C126.479522,9.10350498 126.481761,9.09718104 126.481761,9.09122909 L126.480642,9.0901131 L126.481761,9.0901131 Z M93.0961098,6.54863116 C93.8094194,6.54863116 94.4779607,6.70189383 94.826781,6.79117305 C95.0110775,6.83916064 95.1006143,6.77592119 95.1453827,6.6248905 C95.1453827,6.6248905 95.3192332,5.7949657 95.3416174,5.68634264 C95.3651208,5.57883558 95.3811629,5.46537656 95.1606785,5.35377753 C94.7973085,5.17001112 93.6732489,4.95983295 92.5499355,4.95983295 C89.5441114,4.95983295 88.7241038,6.33770899 88.7241038,9.10722495 C88.7241038,11.861861 89.5441114,13.2386211 92.5499355,13.2386211 C93.6732489,13.2386211 94.7902202,13.0306749 95.1606785,12.8461645 C95.3274408,12.7617212 95.3722092,12.6847179 95.3416174,12.5273633 C95.3173679,12.3975364 95.1453827,11.6040673 95.1453827,11.6040673 C95.114791,11.4530366 94.9916779,11.3879372 94.826781,11.4236488 C94.4779607,11.5140441 93.8094194,11.6650747 93.0961098,11.6650747 C91.5325739,11.6650747 91.0774286,10.9843207 91.0774286,9.09234508 C91.0774286,7.21524937 91.5325739,6.54863116 93.0961098,6.54863116 L93.0961098,6.54863116 Z M41.0629335,4.953881 C38.1406771,4.953881 37.2669474,6.19969819 37.2669474,9.12954476 C37.2669474,12.1479266 38.5171046,13.2293212 41.4535377,13.2293212 C42.7346597,13.2293212 43.7732862,12.9291198 44.2556656,12.7334495 C44.3877323,12.6795099 44.4425736,12.5333152 44.4060128,12.3893525 L44.1922437,11.5099521 C44.1530714,11.3626414 44.0307044,11.3079578 43.8456618,11.3578054 C43.435658,11.4701484 42.7059333,11.6821866 41.8463803,11.6821866 C41.1077019,11.6821866 40.59585,11.5765395 40.2183033,11.3514815 C39.7818115,11.0665319 39.5714001,10.7053231 39.5714001,10.0762765 L44.4354853,10.0762765 C44.722376,10.0762765 44.79699,9.91296996 44.79699,9.68493594 L44.79699,8.96437819 C44.79699,7.64230167 44.6167972,6.65130227 44.0594308,5.97464014 C43.4875147,5.299838 42.5533477,4.953881 41.0629335,4.953881 L41.0629335,4.953881 Z M39.5702809,8.67422071 C39.5702809,8.67422071 39.5755039,8.08051386 39.6516101,7.50466286 C39.7534582,6.74355747 40.2690408,6.48464771 41.0487568,6.48390372 C41.8280998,6.48464771 42.3425632,6.74355747 42.4444113,7.50466286 C42.5216368,8.08051386 42.5261136,8.67422071 42.5261136,8.67422071 L39.5702809,8.67422071 Z M86.755414,5.22283467 L84.9333407,5.22283467 C84.780382,5.22283467 84.6919645,5.31211389 84.6919645,5.46314458 L84.6919645,12.7527933 C84.6919645,12.900848 84.7796359,12.9931032 84.9322215,12.9931032 L86.755414,12.9931032 C86.9079996,12.9931032 86.9945518,12.8975001 86.9945518,12.7527933 L86.9945518,5.46202859 C86.9945518,5.31322988 86.9020305,5.22283467 86.755414,5.22283467 L86.755414,5.22283467 Z M86.5662676,1.30273269 L85.1213679,1.30273269 C84.8203005,1.30273269 84.6919645,1.48538311 84.6919645,1.80381234 L84.6919645,3.47184586 C84.6919645,3.7902751 84.8203005,3.90001415 85.1213679,3.90001415 L86.5662676,3.90001415 C86.867335,3.90001415 86.995671,3.7902751 86.995671,3.47184586 L86.995671,1.80381234 C86.995671,1.48538311 86.867335,1.30273269 86.5662676,1.30273269 L86.5662676,1.30273269 Z M82.8941407,11.6680507 C82.8628028,11.517764 82.7557317,11.4548966 82.6113537,11.4772164 C82.3826619,11.522972 82.0069805,11.5910474 81.577577,11.5910474 C80.8094261,11.5910474 80.6139375,11.2562503 80.6139375,10.6718434 L80.6139375,6.71416972 L82.6165767,6.71416972 C82.7557317,6.71416972 82.8575798,6.61670657 82.8575798,6.48911167 L82.8575798,5.45012469 C82.8575798,5.31620586 82.751628,5.22581064 82.6165767,5.22581064 L80.6090876,5.22581064 L80.6090876,2.83275541 C80.6090876,2.70478852 80.4979128,2.57496165 80.3393581,2.6032334 C80.19498,2.62778519 78.5661569,2.91385071 78.5661569,2.91385071 C78.3706683,2.95849032 78.3087387,3.05372149 78.3087387,3.26389967 L78.3087387,10.7793504 C78.3087387,12.5660509 79.1988834,13.2282052 80.9907381,13.2282052 C81.9987729,13.2282052 82.7161863,13.0094711 82.9269708,12.9484636 L82.927717,12.9484636 C83.0478455,12.9097759 83.114998,12.8004089 83.0926139,12.6664901 C83.072095,12.5467071 82.927717,11.8283813 82.8941407,11.6680507 L82.8941407,11.6680507 Z M75.4111049,5.39320919 C74.9164142,5.11011964 74.1796012,4.95983295 73.1286633,4.95983295 C71.5211052,4.95983295 70.1090357,5.36493743 69.7784957,5.49885627 C69.635983,5.55763176 69.5841263,5.66290685 69.6113604,5.78901375 C69.6337446,5.88833689 69.8411715,6.84102062 69.8411715,6.84102062 C69.8564673,6.91393199 69.9195162,6.96080358 69.9941301,6.96080358 C70.0713556,6.96080358 71.6658563,6.53151931 72.6321073,6.53151931 C73.1286633,6.53151931 73.4890488,6.57727491 73.6994603,6.681806 C74.0139582,6.83097671 74.0658149,7.08653849 74.0658149,7.49015499 L74.0687994,7.89488747 L71.4457451,8.31487183 C70.3489196,8.4792944 69.117789,8.7329962 69.117789,10.6513835 C69.117789,13.0020311 71.0379797,13.2315532 72.7805891,13.2315532 C73.1540321,13.2315532 73.8143658,13.2256012 74.9164142,13.0020311 C75.9554139,12.792225 76.372506,12.5325712 76.372506,11.4448527 L76.372506,7.32610441 C76.372506,6.48687969 76.1628407,5.79794167 75.4111049,5.39320919 L75.4111049,5.39320919 Z M74.0687994,11.5958833 C73.8736839,11.6557748 73.3983929,11.7595619 72.8428918,11.7595619 C72.2426223,11.7595619 71.4297031,11.6691667 71.4297031,10.6212518 C71.4297031,9.72213561 71.8620911,9.64810825 72.4675835,9.5275813 L74.0687994,9.2738795 L74.0687994,11.5958833 Z M102.697809,5.39320919 C102.201253,5.10825966 101.464813,4.95797296 100.411637,4.95797296 C98.8029599,4.95797296 97.3897711,5.36382144 97.0592312,5.49885627 C96.9155993,5.55651577 96.8637426,5.66216285 96.8913498,5.78789776 C96.9137339,5.8875929 97.1211608,6.84102062 97.1211608,6.84176461 C97.1364567,6.91504798 97.1995055,6.96266356 97.2748656,6.96154757 C97.3513449,6.96154757 98.947711,6.5326353 99.9162004,6.5326353 C100.411637,6.5326353 100.772769,6.5780189 100.983553,6.68255 C101.298797,6.8317207 101.344685,7.08765448 101.344685,7.49238697 L101.344685,7.89711945 L98.7279728,8.31710381 C97.6300281,8.48264237 96.3970322,8.73708816 96.3970322,10.6565915 C96.3970322,13.0102151 98.3198343,13.2386211 100.063563,13.2386211 C100.438125,13.2386211 101.099578,13.2334131 102.201253,13.0102151 C103.242118,12.8004089 103.66033,12.5396392 103.66033,11.4511766 L103.66033,7.3268484 C103.66033,6.48799568 103.449545,5.79794167 102.697809,5.39320919 L102.697809,5.39320919 Z M101.359981,11.6010913 C101.163373,11.6609828 100.682113,11.7655139 100.125866,11.7655139 C99.524477,11.7655139 98.6832044,11.6762347 98.6832044,10.6260878 C98.6832044,9.72622758 99.1450649,9.65220022 99.7501843,9.53130127 L101.359981,9.27685548 L101.359981,11.6010913 L101.359981,11.6010913 Z" id="Fill-16"></path>
                        </g>
                    </g>
                </g>
                <path d="M23.9825961,18.3049096 L6.33502538,18.3049096 L6.33502538,6.5374677 L25.7926033,6.5374677 L25.7926033,0.682170543 L0,0.682170543 L0,43.3178295 L25.7926033,43.3178295 L25.7926033,37.4625323 L6.33502538,37.4625323 L6.33502538,24.1602067 L23.9825961,24.1602067 L23.9825961,18.3049096 Z M55.3749094,0 L55.3749094,26.9457364 L60.6352429,26.9457364 L60.6352429,32.9147287 L55.3749094,32.9147287 L55.3749094,43.3178295 L49.1530094,43.3178295 L49.1530094,32.9147287 L30.3741842,32.9147287 L30.3741842,28.7080103 L50.4539521,0 L55.3749094,0 Z M37.9535896,27.0594315 L49.1530094,26.9457364 L49.2661349,10.630491 L37.9535896,27.0594315 Z M93.3850616,22.3979328 L99.2675852,43.8294574 L104.641044,43.8294574 L112.050761,14.8940568 L105.602611,14.8940568 L101.756345,34.4496124 L96.2697607,14.8940568 L90.5003626,14.8940568 L85.0137781,34.4496124 L81.1675127,14.8940568 L74.7193619,14.8940568 L82.129079,43.8294574 L87.5025381,43.8294574 L93.3850616,22.3979328 Z M132.865845,14.5529716 C132.073967,14.3824289 131.055838,14.2118863 129.86802,14.2118863 C126.191443,14.2118863 123.02393,15.4625323 120.931109,17.1679587 L119.91298,14.8940568 L116.17984,14.8940568 L116.17984,43.3178295 L122.514866,43.3178295 L122.514866,21.374677 C123.928934,20.4651163 126.417694,19.6692506 129.754895,19.6692506 C131.055838,19.6692506 132.187092,19.7829457 132.865845,20.0103359 L132.865845,14.5529716 Z M144.913706,43.7157623 C145.592458,43.7157623 146.158086,43.6020672 146.158086,43.6020672 L146.158086,38.4289406 C144.348078,38.4289406 143.782451,37.8604651 143.782451,36.2687339 L143.782451,14.8940568 L137.447426,14.8940568 L137.447426,36.3255814 C137.447426,41.2144703 139.766497,43.7157623 144.913706,43.7157623 Z M136.485859,6.48062016 C136.485859,8.75452196 138.352429,10.630491 140.614938,10.630491 C142.877447,10.630491 144.744017,8.75452196 144.744017,6.48062016 C144.744017,4.20671835 142.877447,2.33074935 140.614938,2.33074935 C138.352429,2.33074935 136.485859,4.20671835 136.485859,6.48062016 Z M156.848441,23.0801034 C156.848441,20.5219638 158.941262,19.5555556 162.278463,19.5555556 C165.841914,19.5555556 168.500363,20.2377261 170.93256,21.1472868 L170.93256,15.6330749 C168.726613,14.6666667 166.011603,14.2118863 162.165337,14.2118863 C153.850616,14.2118863 150.683104,18.3617571 150.683104,23.250646 C150.683104,28.1395349 152.775925,30.8113695 161.316896,31.5503876 C165.106599,31.8914729 166.011603,32.9715762 166.011603,35.0749354 C166.011603,37.5762274 163.805656,38.5994832 159.280638,38.5994832 C155.717186,38.5994832 152.719362,37.6899225 150.852792,37.0077519 L150.852792,42.4651163 C152.775925,43.2609819 156.282814,44 160.185642,44 C169.235678,44 172.233503,39.7364341 172.233503,34.8475452 C172.233503,29.5607235 170.027556,27.002584 161.543147,26.2635659 C157.86657,25.9224806 156.848441,25.0697674 156.848441,23.0801034 Z M193.95359,38.372093 C193.274837,38.4857881 192.426396,38.5994832 191.46483,38.5994832 C188.240754,38.5994832 186.826686,37.2351421 186.826686,34.3927649 L186.826686,20.2945736 L194.80203,20.2945736 L194.80203,14.8940568 L186.826686,14.8940568 L186.826686,6.31007752 L180.491661,8.12919897 L180.491661,14.8940568 L175.344453,16.372093 L175.344453,20.2945736 L180.491661,20.2945736 L180.491661,35.1317829 C180.491661,41.2713178 184.168238,44 190.446701,44 C191.408267,44 192.992023,43.8294574 193.95359,43.6020672 L193.95359,38.372093 Z M213.128354,14.2118863 C221.386512,14.2118863 224.440899,19.8397933 224.440899,29.1059432 C224.440899,38.4289406 221.386512,44 213.128354,44 C209.338651,44 206.453952,42.8630491 203.965192,41.0439276 L202.947063,43.3178295 L199.213923,43.3178295 L199.213923,0.682170543 L205.548949,0.682170543 L205.548949,16.4289406 C207.585207,15.121447 210.300218,14.2118863 213.128354,14.2118863 Z M211.657723,19.6124031 C208.659898,19.6124031 206.680203,20.6356589 205.548949,21.2609819 L205.548949,36.9509044 C206.680203,37.5762274 208.659898,38.5994832 211.657723,38.5994832 C217.20087,38.5994832 218.049311,34.3927649 218.049311,29.1059432 C218.049311,23.875969 217.20087,19.6124031 211.657723,19.6124031 Z M245.538796,23.7054264 C245.538796,20.8062016 244.181291,19.6692506 239.995649,19.6692506 C236.319072,19.6692506 233.321247,20.5219638 231.171864,21.374677 L231.171864,15.8604651 C233.37781,14.8940568 237.11095,14.2118863 240.448151,14.2118863 C249.724438,14.2118863 251.873822,18.3049096 251.873822,24.3307494 L251.873822,43.3178295 L248.140682,43.3178295 L247.122553,41.0439276 C244.860044,42.9198966 241.692531,44 238.581581,44 C231.284989,44 228.852792,39.4521964 228.852792,34.9043928 C228.852792,28.7648579 232.812183,26.1498708 239.203771,25.6382429 L245.538796,25.126615 L245.538796,23.7054264 Z M245.538796,29.503876 L239.59971,30.1860465 C236.771574,30.5271318 235.131255,31.6072351 235.131255,34.5633075 C235.131255,36.7235142 236.036258,38.7700258 239.486584,38.7700258 C242.031907,38.7700258 243.785352,38.0310078 245.538796,36.8940568 L245.538796,29.503876 Z M281.569253,43.3178295 L281.569253,23.250646 C281.569253,17.7932817 279.02393,14.2118863 271.840464,14.2118863 C268.786077,14.2118863 265.562001,15.1782946 262.677302,17.1679587 L261.659173,14.8940568 L257.926033,14.8940568 L257.926033,43.3178295 L264.261059,43.3178295 L264.261059,21.2609819 C265.788252,20.4082687 267.824511,19.6124031 270.765772,19.6124031 C273.763597,19.6124031 275.234228,20.9198966 275.234228,23.8191214 L275.234228,43.3178295 L281.569253,43.3178295 Z M298.085569,14.2118863 C300.913706,14.2118863 303.628716,15.121447 305.664975,16.4289406 L305.664975,0.682170543 L312,0.682170543 L312,43.3178295 L308.26686,43.3178295 L307.248731,41.0439276 C304.759971,42.8630491 301.875272,44 298.085569,44 C289.827411,44 286.773024,38.4289406 286.773024,29.1059432 C286.773024,19.8397933 289.827411,14.2118863 298.085569,14.2118863 Z M299.5562,19.6124031 C294.013053,19.6124031 293.164612,23.875969 293.164612,29.1059432 C293.164612,34.3927649 294.013053,38.5994832 299.5562,38.5994832 C302.554025,38.5994832 304.53372,37.5762274 305.664975,36.9509044 L305.664975,21.2609819 C304.53372,20.6356589 302.554025,19.6124031 299.5562,19.6124031 Z" id="E4-wristband"></path>
            </g>
        </g>
    </g>
</svg>