<?xml version="1.0" encoding="UTF-8"?>
<svg width="413px" height="92px" viewBox="0 0 413 92" version="1.1" xmlns="http://www.w3.org/2000/svg" xmlns:xlink="http://www.w3.org/1999/xlink">
    <!-- Generator: Sketch 47.1 (45422) - http://www.bohemiancoding.com/sketch -->
    <title>e4_logo-lg</title>
    <desc>Created with Sketch.</desc>
    <defs></defs>
    <g id="e4" stroke="none" stroke-width="1" fill="none" fill-rule="evenodd">
        <g id="E4-consumer" transform="translate(-825.000000, -247.000000)" fill="#BC204B">
            <g id="e4_logo-lg" transform="translate(825.000000, 247.000000)">
                <g id="Group-12" transform="translate(0.691887, 67.000000)">
                    <g id="Group-16" transform="translate(0.000000, 0.000000)">
                        <g id="Group-8" transform="translate(0.000000, 0.997233)">
                            <path d="M1.8695937,7.70913594 L0,7.70913594 L0,7.1807402 L1.8695937,6.96595712 L1.8695937,4.84943864 C1.8695937,2.95357432 3.05669208,1.99169837 5.39738003,1.99169837 C5.70635084,1.99169837 6.43467437,2.03132805 6.63917658,2.07144699 L6.72245579,2.08857093 L6.72245579,2.82245389 L6.60172557,2.80239442 C6.38244007,2.76667879 5.82215329,2.72655985 5.39738003,2.72655985 C3.5617879,2.72655985 2.66936982,3.42032388 2.66936982,4.84943864 L2.66936982,6.9737852 L6.0330616,6.9737852 L6.0330616,7.70913594 L2.66936982,7.70913594 L2.66936982,16.9501902 L1.8695937,16.9501902 L1.8695937,7.70913594 Z" id="Fill-8"></path>
                            <path d="M6.52074388,2.27304175 L6.52074388,2.79277901 C6.29130853,2.75369014 5.73827374,2.71653158 5.33676187,2.71653158 C3.73358235,2.71653158 2.58879555,3.2550894 2.58879555,4.91178207 L2.58879555,7.10992803 L5.85203543,7.10992803 L5.85203543,7.62966529 L2.58879555,7.62966529 L2.58879555,16.7460595 L2.01520717,16.7460595 L2.01520717,7.62966529 L0.202189903,7.62966529 L0.202189903,7.30199436 L2.01520717,7.09014231 L2.01520717,4.91178207 C2.01520717,3.17884197 3.04623228,2.19582916 5.33676187,2.19582916 C5.62355606,2.19582916 6.32906977,2.23395288 6.52074388,2.27304175 Z M2.68678356,2.74693404 C2.10650332,3.24061204 1.81301727,3.96978845 1.81301727,4.91178207 L1.81301727,6.90869272 L0.178290388,7.0993113 L0,7.12054477 L0,7.83524382 L1.81301727,7.83524382 L1.81301727,16.9501902 L2.79098545,16.9501902 L2.79098545,7.83524382 L6.05518131,7.83524382 L6.05518131,6.90579725 L2.79098545,6.90579725 L2.79098545,4.91178207 C2.79098545,3.55380562 3.59926707,2.92066237 5.33676187,2.92066237 C5.74353163,2.92066237 6.27935877,2.96023382 6.48680657,2.99449691 L6.72245579,3.03358578 L6.72245579,2.10462179 L6.55993909,2.07180644 C6.3419755,2.02837436 5.61447424,1.99169837 5.33676187,1.99169837 C4.16903153,1.99169837 3.2771016,2.24553477 2.68678356,2.74693404 Z" id="Fill-9"></path>
                            <path d="M8.21633486,16.9501902 L8.21633486,6.58044642 L8.69125526,6.58044642 L8.94899851,7.3193625 C9.87459857,6.76759103 11.3696084,6.47924594 12.4099809,6.47924594 C12.7577611,6.47924594 13.0748694,6.50009629 13.3538852,6.54179699 L13.4449116,6.55400207 L13.4449116,7.3193625 L13.3242027,7.30156342 C13.0545864,7.26291399 12.7468775,7.24206364 12.4099809,7.24206364 C11.0267752,7.24206364 9.90032343,7.50701565 9.05832914,8.02674878 L9.05832914,16.9501902 L8.21633486,16.9501902" id="Fill-10"></path>
                            <path d="M12.3501932,6.68953188 C12.6732327,6.68953188 12.976766,6.7099625 13.2427146,6.74982714 L13.2427146,7.28650477 C12.976766,7.24713844 12.6732327,7.22820274 12.3501932,7.22820274 C11.0199748,7.22820274 9.88101093,7.48632624 9.02417137,8.04343449 L9.02417137,16.739406 L8.41710459,16.739406 L8.41710459,6.78919346 L8.70255919,6.78919346 L8.96850773,7.56655382 C9.80441394,7.00795064 11.2678445,6.68953188 12.3501932,6.68953188 M12.3501932,6.47924594 C11.3744142,6.47924594 9.98710489,6.74534236 9.07650472,7.25660629 L8.8923865,6.71843374 L8.84433498,6.57840921 L8.21633486,6.57840921 L8.21633486,16.9501902 L9.22684414,16.9501902 L9.22684414,8.16153347 C10.0156503,7.68216125 11.0656475,7.43848868 12.3501932,7.43848868 C12.6694266,7.43848868 12.9596388,7.45742438 13.2155964,7.49579409 L13.4449116,7.53117395 L13.4449116,6.56744644 L13.27126,6.54053781 C12.9986509,6.49967656 12.6889327,6.47924594 12.3501932,6.47924594" id="Fill-11"></path>
                            <path d="M19.0469581,16.9501902 C15.6369552,16.9501902 14.9387907,14.858016 14.9387907,11.7142144 C14.9387907,8.57242749 15.6369552,6.47924594 19.0469581,6.47924594 C22.4564741,6.47924594 23.1551255,8.57242749 23.1551255,11.7142144 C23.1551255,14.858016 22.4564741,16.9501902 19.0469581,16.9501902 M19.0469581,7.23573263 C15.9996696,7.23573263 15.7474735,9.35409683 15.7474735,11.7142144 C15.7474735,14.0753393 15.9996696,16.1931999 19.0469581,16.1931999 C22.0942465,16.1931999 22.3464426,14.0753393 22.3464426,11.7142144 C22.3464426,9.35409683 22.0942465,7.23573263 19.0469581,7.23573263" id="Fill-12"></path>
                            <path d="M19.0471955,6.68755908 C22.3667829,6.68755908 22.9547155,8.81758571 22.9547155,11.7147181 C22.9547155,14.6118505 22.3667829,16.7418771 19.0471955,16.7418771 C15.7276082,16.7418771 15.1392006,14.6118505 15.1392006,11.7147181 C15.1392006,8.81758571 15.7276082,6.68755908 19.0471955,6.68755908 M19.0471955,16.2097407 C22.0248511,16.2097407 22.3667829,14.1986796 22.3667829,11.7147181 C22.3667829,9.23075657 22.0248511,7.22117641 19.0471955,7.22117641 C16.0695399,7.22117641 15.7276082,9.23075657 15.7276082,11.7147181 C15.7276082,14.1986796 16.0695399,16.2097407 19.0471955,16.2097407 M19.0471955,6.47924594 C15.4360164,6.47924594 14.9387907,8.9952936 14.9387907,11.7147181 C14.9387907,14.4341426 15.4360164,16.9501902 19.0471955,16.9501902 C22.6583747,16.9501902 23.1551255,14.4341426 23.1551255,11.7147181 C23.1551255,8.9952936 22.6583747,6.47924594 19.0471955,6.47924594 M19.0471955,15.9999466 C17.7364572,15.9999466 16.9101221,15.6149128 16.4451899,14.7885711 C15.9916555,13.9834556 15.9299178,12.8347715 15.9299178,11.7147181 C15.9299178,10.5946647 15.9916555,9.44647421 16.4451899,8.64135871 C16.9101221,7.81452334 17.7364572,7.42948956 19.0471955,7.42948956 C20.3579339,7.42948956 21.1842689,7.81452334 21.6492011,8.64135871 C22.1022607,9.44647421 22.1644733,10.5946647 22.1644733,11.7147181 C22.1644733,12.8347715 22.1022607,13.9834556 21.6492011,14.7885711 C21.1842689,15.6149128 20.3579339,15.9999466 19.0471955,15.9999466" id="Fill-13"></path>
                            <path d="M38.0939162,13.1137176 L38.0939162,9.22640675 C38.0939162,7.24918327 37.2814867,6.47924594 35.1924527,6.47924594 C35.1846174,6.47924594 35.1766888,6.4792656 35.168668,6.47930601 C35.1582913,6.47926595 35.147884,6.47924594 35.1374459,6.47924594 C34.4992715,6.47924594 33.2418495,6.60830769 31.834954,7.45343792 C31.3928423,6.78122053 30.599856,6.47924594 29.3031244,6.47924594 C29.2972715,6.47924594 29.2914147,6.47925549 29.285554,6.47927459 C29.2782989,6.47925548 29.2710275,6.47924594 29.2637399,6.47924594 C28.2410154,6.47924594 27.1005685,6.77197865 26.2675823,7.23711478 L26.0855607,6.71843374 L26.0380009,6.57840921 L25.3959441,6.57840921 L25.3959441,16.9501902 L26.4267292,16.9501902 L26.4267292,8.16153347 C27.2580545,7.65475432 28.1262629,7.43848868 29.3031244,7.43848868 C30.726035,7.43848868 31.2302655,7.70757496 31.2302655,9.21744795 L31.2302655,16.9501902 L32.2610507,16.9501902 L32.2610507,9.2772449 C32.2610507,8.92543951 32.2319324,8.59805121 32.1727254,8.30305292 C33.1176117,7.71305634 34.063954,7.43848868 35.1374459,7.43848868 C36.5589005,7.43848868 37.0631311,7.70757496 37.0631311,9.21744795 L37.0631311,16.9501902 L38.0939162,16.9501902 L38.0939162,13.1137176 Z" id="Combined-Shape"></path>
                            <path d="M85.3913398,6.51288031 C85.0922729,6.52364864 84.4990741,6.54371688 83.8905766,6.6171373 C82.7372442,6.75614662 81.4679371,6.97200264 80.9216218,7.15261686 C80.1729675,7.43944595 79.922758,7.71599618 79.922758,8.49963675 L79.922758,21.0329911 C79.922758,21.2180106 80.0935124,21.3653409 80.2687084,21.3359727 C80.4518005,21.3036677 82.474697,20.9722969 82.6577892,20.9404814 C82.851245,20.9086659 82.9953499,20.737841 82.9953499,20.5361796 L82.9953499,17.1201725 C83.6951467,17.304213 84.5326328,17.4207067 85.4905353,17.4207067 C89.2431836,17.4207067 89.8018366,14.8480553 89.8018366,11.9768276 C89.8018366,8.86918617 89.341392,6.37974462 85.3913398,6.51288031 L85.3913398,6.51288031 Z M84.5528667,15.3619982 C83.6941597,15.3619982 82.9953499,15.1843208 82.9953499,15.1843208 L82.9968304,8.84911793 C83.0155838,8.84128642 83.5362366,8.62102517 84.7517511,8.591657 C86.1301239,8.55788361 86.6685431,8.86918617 86.6685431,11.898023 C86.6685431,14.8480553 86.1705917,15.3619982 84.5528667,15.3619982 L84.5528667,15.3619982 Z M152.565916,3.06114185 C153.658546,3.06114185 154.642605,3.52417994 155.329077,4.26229985 L155.334506,4.25691568 L157.508416,6.41156014 C157.575534,6.47959639 157.668313,6.52120129 157.77047,6.52120129 C157.868678,6.52120129 157.95751,6.4810648 158.024627,6.41988112 L158.026108,6.41988112 L159.674924,4.78456373 L159.674924,4.78309533 C159.746483,4.71652748 159.790899,4.62157041 159.790899,4.51731342 C159.790899,4.41599325 159.748951,4.32397299 159.681833,4.25691568 L157.508416,2.10129229 L157.510884,2.09737653 C156.265759,0.80615616 154.510838,8.65085781e-13 152.565916,8.65085781e-13 C148.785137,8.65085781e-13 145.720442,3.0396052 145.720442,6.79040948 C145.720442,8.86673883 146.660084,10.721828 148.142094,11.9660593 C146.660084,13.211759 145.720442,15.0673376 145.720442,17.142688 C145.720442,20.8925134 148.785137,23.933587 152.565916,23.933587 C154.510838,23.933587 156.265759,23.1269414 157.510884,21.8362105 L157.508416,21.8322947 L159.681833,19.6766713 C159.748951,19.609614 159.790899,19.5175937 159.790899,19.4162736 C159.790899,19.3105482 159.746483,19.217549 159.674924,19.1504917 L159.674924,19.1490233 L158.026108,17.5141953 L158.024627,17.5141953 C157.95751,17.4510538 157.868678,17.4123857 157.77047,17.4123857 C157.668313,17.4123857 157.575534,17.4539906 157.508416,17.5205584 L155.334506,19.6766713 L155.329077,19.6698187 C154.642605,20.4094071 153.658546,20.8724451 152.565916,20.8724451 C150.490214,20.8724451 148.806852,19.2023754 148.806852,17.142688 C148.806852,16.1363389 149.209062,15.2244573 149.863456,14.5543737 L149.921197,14.4956373 C149.952288,14.4662692 149.983379,14.4359221 150.015457,14.4060644 L150.015457,14.4036171 L152.201212,12.235757 C152.201212,12.235757 152.204173,12.2318412 152.206641,12.2289044 C152.216017,12.2196045 152.225394,12.2088361 152.234771,12.1985573 C152.24168,12.1902363 152.248096,12.1833837 152.253524,12.1740838 C152.262901,12.1638049 152.268329,12.1515682 152.275239,12.1383525 C152.280667,12.130521 152.287576,12.1212211 152.291524,12.1104528 C152.296953,12.0996844 152.299421,12.0864688 152.303369,12.074232 C152.30781,12.0619953 152.311265,12.051227 152.314226,12.0394797 C152.318174,12.0233272 152.318174,12.0061958 152.319654,11.9900433 C152.320641,11.9807434 152.322122,11.9729119 152.322122,11.9645909 L152.322122,11.9636119 C152.322122,11.9582278 152.322122,11.954312 152.322122,11.9484384 C152.319654,11.9283701 152.318174,11.907323 152.314226,11.8887231 C152.311265,11.8779548 152.30781,11.8671865 152.304849,11.8564181 C152.300901,11.8432025 152.296953,11.8299868 152.291524,11.8177501 C152.287576,11.8084501 152.280667,11.7991502 152.276719,11.7913187 C152.268329,11.7776136 152.262901,11.7643979 152.253524,11.7526506 C152.248096,11.7443296 152.24168,11.7379665 152.236251,11.731114 C152.226875,11.7193667 152.216017,11.7085984 152.206641,11.69783 L152.201212,11.6924459 L149.791897,9.30285609 C149.180932,8.64109342 148.806852,7.75955896 148.806852,6.79040948 C148.806852,4.7307221 150.490214,3.06114185 152.565916,3.06114185 L152.565916,3.06114185 Z M73.404481,6.5226697 C71.6520278,6.5226697 69.8418339,7.05472298 69.4835458,7.1937323 C68.9456202,6.79873046 68.0691468,6.5226697 66.8348789,6.5226697 C65.6060396,6.5226697 63.1241789,6.89466647 62.2980436,7.16681148 C61.5508698,7.45266163 61.3021408,7.72921186 61.3021408,8.50991561 L61.3021408,16.8010384 C61.3021408,16.975779 61.4215702,17.0961884 61.6209482,17.0961884 L64.0490162,17.0961884 C64.2479007,17.0961884 64.3678235,16.975779 64.3678235,16.8010384 L64.3678235,8.84911793 C64.3678235,8.84911793 65.5226364,8.59312541 66.4770843,8.59312541 C67.3925449,8.59312541 67.8307816,8.91030161 67.8307816,9.99692375 L67.8307816,16.8010384 C67.8307816,16.975779 67.9709384,17.0961884 68.1688358,17.0961884 L70.5983844,17.0961884 C70.7770349,17.0961884 70.8969578,16.975779 70.8969578,16.8010384 L70.8969578,8.84667058 C70.8969578,8.84667058 71.991069,8.59312541 72.9267635,8.59312541 C73.8417306,8.59312541 74.3599159,8.91030161 74.3599159,9.99692375 L74.3599159,16.8010384 C74.3599159,16.975779 74.4985921,17.0961884 74.6979701,17.0961884 L77.1260381,17.0961884 C77.3254161,17.0961884 77.4448455,16.975779 77.4448455,16.8010384 L77.4448455,9.58185367 C77.4448455,7.11492772 75.9120041,6.5226697 73.404481,6.5226697 L73.404481,6.5226697 Z M167.314455,11.9606751 C167.314455,11.955291 167.312975,11.9499068 167.311494,11.945991 C167.311494,11.9259228 167.309027,11.906344 167.305079,11.8848074 C167.302118,11.874039 167.29817,11.8647391 167.295702,11.8525024 C167.291754,11.8407551 167.287806,11.82705 167.282377,11.8138343 C167.277936,11.8045344 167.27152,11.7967029 167.267572,11.7869135 C167.260663,11.7751662 167.253754,11.7619505 167.245857,11.7497138 C167.240429,11.7418823 167.23352,11.7350297 167.227104,11.7271982 C167.217234,11.7164299 167.207857,11.7056616 167.197494,11.6948932 C167.194532,11.6924459 167.193545,11.6909775 167.192065,11.6885301 L162.36702,6.90396639 L162.365539,6.90298745 C162.299409,6.84425112 162.215019,6.80803038 162.119278,6.80803038 C162.02255,6.80803038 161.934705,6.84523006 161.869069,6.90396639 L161.867588,6.90298745 L160.209395,8.54760475 C160.143265,8.6141726 160.10181,8.70766126 160.10181,8.80898143 C160.10181,8.9039385 160.137836,8.98812725 160.197057,9.05322668 L160.19607,9.05469509 L160.209395,9.06937917 L160.210876,9.06937917 L163.126038,11.9606751 L160.210876,14.8519711 C160.209395,14.8534395 160.209395,14.8534395 160.209395,14.8534395 L160.19607,14.8666552 L160.197057,14.8681236 C160.137836,14.9351809 160.10181,15.0188802 160.10181,15.1123688 C160.10181,15.2151574 160.143265,15.3071777 160.209395,15.374235 L161.867588,17.0188523 L161.869069,17.0173839 C161.934705,17.0770991 162.02255,17.1147883 162.119278,17.1147883 C162.215019,17.1147883 162.299409,17.0785675 162.365539,17.0198312 L162.36702,17.0188523 C162.376397,17.0105313 162.384293,17.0012314 162.392682,16.9933999 L167.192065,12.2333096 C167.193545,12.2318412 167.196013,12.2289044 167.197494,12.2279254 C167.207857,12.2171571 167.217234,12.2063888 167.227104,12.194152 C167.232533,12.1877889 167.240429,12.1799574 167.245857,12.1716365 C167.253754,12.1598892 167.260663,12.1476525 167.267572,12.1354157 C167.27152,12.1261158 167.277936,12.1168159 167.282377,12.107516 C167.287806,12.0957687 167.291754,12.083532 167.294221,12.0712952 C167.29817,12.059548 167.302118,12.0478007 167.305079,12.0370324 C167.309027,12.0194115 167.309027,12.003259 167.311494,11.9875959 C167.311494,11.978296 167.314455,11.969975 167.314455,11.9621435 L167.312975,11.9606751 L167.314455,11.9606751 Z M123.150759,8.61661994 C124.09435,8.61661994 124.97872,8.81828135 125.440151,8.93575402 C125.683945,8.99889557 125.802387,8.91568577 125.861609,8.71696118 C125.861609,8.71696118 126.091584,7.62495487 126.121195,7.48202979 C126.152286,7.34057313 126.173507,7.19128495 125.881842,7.04444412 C125.401164,6.80264622 123.914219,6.52609599 122.428261,6.52609599 C118.452053,6.52609599 117.367318,8.33909077 117.367318,11.9831907 C117.367318,15.6077119 118.452053,17.4192383 122.428261,17.4192383 C123.914219,17.4192383 125.391787,17.1456249 125.881842,16.902848 C126.102441,16.7917385 126.161663,16.6904183 126.121195,16.4833727 C126.089117,16.3125479 125.861609,15.2685096 125.861609,15.2685096 C125.821141,15.069785 125.658283,14.9841278 125.440151,15.0311169 C124.97872,15.150058 124.09435,15.3487826 123.150759,15.3487826 C121.08246,15.3487826 120.480378,14.4530535 120.480378,11.9636119 C120.480378,9.49374917 121.08246,8.61661994 123.150759,8.61661994 L123.150759,8.61661994 Z M54.3194711,6.51826447 C50.453809,6.51826447 49.2980092,8.15749761 49.2980092,12.0125589 C49.2980092,15.9841139 50.9517604,17.4070015 54.8361758,17.4070015 C56.5308884,17.4070015 57.9048196,17.0119997 58.5429277,16.7545388 C58.7176302,16.6835657 58.7901761,16.4912042 58.7418121,16.3017796 L58.459031,15.1446738 C58.4072125,14.9508439 58.2453413,14.8788919 58.0005605,14.9444808 C57.4581932,15.0923006 56.4928881,15.3712982 55.3558416,15.3712982 C54.3786923,15.3712982 53.7015969,15.2322888 53.202165,14.9361598 C52.6247585,14.5612262 52.346419,14.0859514 52.346419,13.2582586 L58.7807994,13.2582586 C59.1603084,13.2582586 59.2590104,13.0433815 59.2590104,12.7433368 L59.2590104,11.7952345 C59.2590104,10.0556601 59.0206452,8.75171351 58.2833416,7.86136861 C57.5267911,6.97347105 56.2910426,6.51826447 54.3194711,6.51826447 L54.3194711,6.51826447 Z M52.3449385,11.4134483 C52.3449385,11.4134483 52.3518476,10.6322551 52.4525236,9.87455639 C52.5872518,8.87310193 53.2692823,8.5324312 54.3007177,8.53145226 C55.3316596,8.5324312 56.0122096,8.87310193 56.1469378,9.87455639 C56.2490943,10.6322551 56.2550164,11.4134483 56.2550164,11.4134483 L52.3449385,11.4134483 Z M114.763067,6.87215088 L112.352766,6.87215088 C112.150427,6.87215088 112.033465,6.98962354 112.033465,7.18834813 L112.033465,16.7799912 C112.033465,16.9748 112.14944,17.0961884 112.351285,17.0961884 L114.763067,17.0961884 C114.964913,17.0961884 115.079407,16.9703948 115.079407,16.7799912 L115.079407,7.18687972 C115.079407,6.99109195 114.957017,6.87215088 114.763067,6.87215088 L114.763067,6.87215088 Z M114.512858,1.71412196 L112.601495,1.71412196 C112.203232,1.71412196 112.033465,1.95445146 112.033465,2.37343729 L112.033465,4.56821824 C112.033465,4.98720408 112.203232,5.13159756 112.601495,5.13159756 L114.512858,5.13159756 C114.91112,5.13159756 115.080888,4.98720408 115.080888,4.56821824 L115.080888,2.37343729 C115.080888,1.95445146 114.91112,1.71412196 114.512858,1.71412196 L114.512858,1.71412196 Z M109.655241,15.3526983 C109.613786,15.1549527 109.472149,15.0722323 109.281161,15.1016005 C108.978639,15.1618052 108.481675,15.2513781 107.913645,15.2513781 C106.897509,15.2513781 106.638909,14.8108557 106.638909,14.0418992 L106.638909,8.83443384 L109.28807,8.83443384 C109.472149,8.83443384 109.606877,8.70619285 109.606877,8.53830484 L109.606877,7.1712167 C109.606877,6.9950077 109.46672,6.87606663 109.28807,6.87606663 L106.632494,6.87606663 L106.632494,3.72730975 C106.632494,3.55893227 106.485428,3.38810743 106.275686,3.42530711 C106.084698,3.45761209 103.930034,3.83401409 103.930034,3.83401409 C103.671435,3.89275042 103.589513,4.0180546 103.589513,4.29460483 L103.589513,14.1833558 C103.589513,16.5342775 104.767027,17.4055331 107.137354,17.4055331 C108.470818,17.4055331 109.419837,17.1177251 109.69867,17.0374521 L109.699657,17.0374521 C109.858567,16.9865473 109.947399,16.8426433 109.917788,16.6664343 C109.890645,16.5088251 109.699657,15.5636596 109.655241,15.3526983 L109.655241,15.3526983 Z M99.7564222,7.09632788 C99.1020283,6.72384164 98.1273465,6.52609599 96.7371294,6.52609599 C94.6105958,6.52609599 92.7426613,7.0591282 92.3054117,7.2353372 C92.116891,7.31267337 92.0482931,7.45119322 92.0843193,7.61712336 C92.1139299,7.7478117 92.3883213,9.00134292 92.3883213,9.00134292 C92.4085552,9.09727893 92.4919584,9.15895208 92.5906603,9.15895208 C92.6928169,9.15895208 94.8020776,8.59410435 96.0802679,8.59410435 C96.7371294,8.59410435 97.2138599,8.65430909 97.4921994,8.79185 C97.9082281,8.98812725 97.976826,9.32439275 97.976826,9.85546709 L97.9807741,10.3880098 L94.5109069,10.9406208 C93.0599881,11.1569663 91.4314059,11.4907845 91.4314059,14.0149784 C91.4314059,17.1079357 93.9715007,17.4099384 96.2766848,17.4099384 C96.7706881,17.4099384 97.6442004,17.4021068 99.1020283,17.1079357 C100.476453,16.831875 101.028197,16.4902253 101.028197,15.0590167 L101.028197,9.63961107 C101.028197,8.53536802 100.750844,7.62887062 99.7564222,7.09632788 L99.7564222,7.09632788 Z M97.9807741,15.2577412 C97.7226684,15.3365458 97.093937,15.4731078 96.359101,15.4731078 C95.5650437,15.4731078 94.4896859,15.3541667 94.4896859,13.9753313 C94.4896859,12.7922837 95.0616638,12.6948793 95.8626301,12.5362912 L97.9807741,12.202473 L97.9807741,15.2577412 Z M135.85222,7.09632788 C135.195359,6.72139429 134.221171,6.52364864 132.827993,6.52364864 C130.699978,6.52364864 128.830563,7.05765979 128.393314,7.2353372 C128.203312,7.31120496 128.134715,7.45021428 128.171234,7.61565495 C128.200845,7.74683276 128.475236,9.00134292 128.475236,9.00232186 C128.49547,9.09874734 128.578873,9.16139943 128.678562,9.15993102 C128.779732,9.15993102 130.89146,8.59557276 132.172612,8.59557276 C132.827993,8.59557276 133.30571,8.65528803 133.584543,8.79282894 C134.001559,8.98910619 134.06226,9.32586116 134.06226,9.8584039 L134.06226,10.3909466 L130.600783,10.9435576 C129.148384,11.1613715 127.517334,11.4961686 127.517334,14.0218309 C127.517334,17.118704 130.060883,17.4192383 132.367548,17.4192383 C132.863032,17.4192383 133.738025,17.4123857 135.195359,17.118704 C136.572251,16.8426433 137.125476,16.4995252 137.125476,15.0673376 L137.125476,9.64059 C137.125476,8.53683643 136.846643,7.62887062 135.85222,7.09632788 L135.85222,7.09632788 Z M134.082494,15.2645938 C133.822415,15.3433984 133.185787,15.4809393 132.449964,15.4809393 C131.654426,15.4809393 130.541562,15.3634666 130.541562,13.9816944 C130.541562,12.7976679 131.152527,12.7002634 131.953,12.5411859 L134.082494,12.2063888 L134.082494,15.2645938 L134.082494,15.2645938 Z" id="Fill-16"></path>
                        </g>
                    </g>
                </g>
                <path d="M31.7461929,24.129199 L8.3857868,24.129199 L8.3857868,8.61757106 L34.142132,8.61757106 L34.142132,0.899224806 L0,0.899224806 L0,57.1007752 L34.142132,57.1007752 L34.142132,49.3824289 L8.3857868,49.3824289 L8.3857868,31.8475452 L31.7461929,31.8475452 L31.7461929,24.129199 Z M73.3007614,0 L73.3007614,35.5193798 L80.2639594,35.5193798 L80.2639594,43.3875969 L73.3007614,43.3875969 L73.3007614,57.1007752 L65.0647208,57.1007752 L65.0647208,43.3875969 L40.2068528,43.3875969 L40.2068528,37.8423773 L66.786802,0 L73.3007614,0 Z M50.2398477,35.6692506 L65.0647208,35.5193798 L65.214467,14.0129199 L50.2398477,35.6692506 Z M123.615482,29.5245478 L131.402284,57.7751938 L138.515228,57.7751938 L148.323604,19.6330749 L139.788071,19.6330749 L134.696701,45.4108527 L127.43401,19.6330749 L119.796954,19.6330749 L112.534264,45.4108527 L107.442893,19.6330749 L98.9073604,19.6330749 L108.715736,57.7751938 L115.82868,57.7751938 L123.615482,29.5245478 Z M175.876904,19.1834625 C174.82868,18.9586563 173.480964,18.7338501 171.908629,18.7338501 C167.041878,18.7338501 162.848985,20.3824289 160.07868,22.630491 L158.730964,19.6330749 L153.78934,19.6330749 L153.78934,57.1007752 L162.175127,57.1007752 L162.175127,28.1757106 C164.046954,26.9767442 167.341371,25.9276486 171.758883,25.9276486 C173.480964,25.9276486 174.978426,26.0775194 175.876904,26.377261 L175.876904,19.1834625 Z M191.824873,57.625323 C192.72335,57.625323 193.472081,57.4754522 193.472081,57.4754522 L193.472081,50.6563307 C191.076142,50.6563307 190.327411,49.9069767 190.327411,47.8087855 L190.327411,19.6330749 L181.941624,19.6330749 L181.941624,47.8837209 C181.941624,54.3281654 185.011421,57.625323 191.824873,57.625323 Z M180.668782,8.54263566 C180.668782,11.5400517 183.139594,14.0129199 186.134518,14.0129199 C189.129442,14.0129199 191.600254,11.5400517 191.600254,8.54263566 C191.600254,5.54521964 189.129442,3.07235142 186.134518,3.07235142 C183.139594,3.07235142 180.668782,5.54521964 180.668782,8.54263566 Z M207.623096,30.4237726 C207.623096,27.0516796 210.393401,25.7777778 214.810914,25.7777778 C219.527919,25.7777778 223.046954,26.6770026 226.266497,27.875969 L226.266497,20.6072351 C223.346447,19.3333333 219.752538,18.7338501 214.661168,18.7338501 C203.654822,18.7338501 199.461929,24.2041344 199.461929,30.6485788 C199.461929,37.0930233 202.232234,40.6149871 213.538071,41.5891473 C218.554569,42.0387597 219.752538,43.4625323 219.752538,46.2351421 C219.752538,49.5322997 216.832487,50.881137 210.84264,50.881137 C206.125635,50.881137 202.15736,49.6821705 199.686548,48.7829457 L199.686548,55.9767442 C202.232234,57.0258398 206.874365,58 212.040609,58 C224.020305,58 227.988579,52.379845 227.988579,45.9354005 C227.988579,38.9664083 225.068528,35.5943152 213.837563,34.620155 C208.970812,34.1705426 207.623096,33.0465116 207.623096,30.4237726 Z M256.739848,50.5813953 C255.841371,50.7312661 254.718274,50.881137 253.445431,50.881137 C249.177665,50.881137 247.305838,49.0826873 247.305838,45.3359173 L247.305838,26.751938 L257.862944,26.751938 L257.862944,19.6330749 L247.305838,19.6330749 L247.305838,8.31782946 L238.920051,10.7157623 L238.920051,19.6330749 L232.106599,21.5813953 L232.106599,26.751938 L238.920051,26.751938 L238.920051,46.3100775 C238.920051,54.4031008 243.786802,58 252.097716,58 C253.370558,58 255.467005,57.7751938 256.739848,57.4754522 L256.739848,50.5813953 Z M282.121827,18.7338501 C293.053299,18.7338501 297.096447,26.1524548 297.096447,38.3669251 C297.096447,50.6563307 293.053299,58 282.121827,58 C277.10533,58 273.286802,56.501292 269.992386,54.1033592 L268.64467,57.1007752 L263.703046,57.1007752 L263.703046,0.899224806 L272.088832,0.899224806 L272.088832,21.6563307 C274.784264,19.9328165 278.378173,18.7338501 282.121827,18.7338501 Z M280.175127,25.8527132 C276.206853,25.8527132 273.586294,27.2015504 272.088832,28.0258398 L272.088832,48.7080103 C273.586294,49.5322997 276.206853,50.881137 280.175127,50.881137 C287.51269,50.881137 288.635787,45.3359173 288.635787,38.3669251 C288.635787,31.4728682 287.51269,25.8527132 280.175127,25.8527132 Z M325.024112,31.248062 C325.024112,27.4263566 323.227157,25.9276486 317.686548,25.9276486 C312.819797,25.9276486 308.851523,27.0516796 306.006345,28.1757106 L306.006345,20.9069767 C308.926396,19.6330749 313.86802,18.7338501 318.285533,18.7338501 C330.564721,18.7338501 333.409898,24.129199 333.409898,32.0723514 L333.409898,57.1007752 L328.468274,57.1007752 L327.120558,54.1033592 C324.125635,56.5762274 319.932741,58 315.814721,58 C306.156091,58 302.936548,52.005168 302.936548,46.0103359 C302.936548,37.9173127 308.177665,34.4702842 316.638325,33.7958656 L325.024112,33.121447 L325.024112,31.248062 Z M325.024112,38.8914729 L317.162437,39.7906977 C313.418782,40.2403101 311.247462,41.6640827 311.247462,45.5607235 C311.247462,48.4082687 312.445431,51.1059432 317.01269,51.1059432 C320.38198,51.1059432 322.703046,50.1317829 325.024112,48.6330749 L325.024112,38.8914729 Z M372.718274,57.1007752 L372.718274,30.6485788 C372.718274,23.4547804 369.348985,18.7338501 359.840102,18.7338501 C355.796954,18.7338501 351.529188,20.0077519 347.71066,22.630491 L346.362944,19.6330749 L341.42132,19.6330749 L341.42132,57.1007752 L349.807107,57.1007752 L349.807107,28.0258398 C351.82868,26.9018088 354.524112,25.8527132 358.417513,25.8527132 C362.385787,25.8527132 364.332487,27.5762274 364.332487,31.3979328 L364.332487,57.1007752 L372.718274,57.1007752 Z M394.581218,18.7338501 C398.324873,18.7338501 401.918782,19.9328165 404.614213,21.6563307 L404.614213,0.899224806 L413,0.899224806 L413,57.1007752 L408.058376,57.1007752 L406.71066,54.1033592 C403.416244,56.501292 399.597716,58 394.581218,58 C383.649746,58 379.606599,50.6563307 379.606599,38.3669251 C379.606599,26.1524548 383.649746,18.7338501 394.581218,18.7338501 Z M396.527919,25.8527132 C389.190355,25.8527132 388.067259,31.4728682 388.067259,38.3669251 C388.067259,45.3359173 389.190355,50.881137 396.527919,50.881137 C400.496193,50.881137 403.116751,49.5322997 404.614213,48.7080103 L404.614213,28.0258398 C403.116751,27.2015504 400.496193,25.8527132 396.527919,25.8527132 Z" id="E4-wristband"></path>
            </g>
        </g>
    </g>
</svg>