<?xml version="1.0" encoding="UTF-8"?>
<svg width="58px" height="60px" viewBox="0 0 58 60" version="1.1" xmlns="http://www.w3.org/2000/svg" xmlns:xlink="http://www.w3.org/1999/xlink">
    <!-- Generator: Sketch 47.1 (45422) - http://www.bohemiancoding.com/sketch -->
    <title>eda</title>
    <desc>Created with Sketch.</desc>
    <defs></defs>
    <g id="e4" stroke="none" stroke-width="1" fill="none" fill-rule="evenodd">
        <g id="E4-consumer" transform="translate(-1095.000000, -1205.000000)" fill-rule="nonzero" fill="#C51A4A">
            <g id="eda" transform="translate(1095.000000, 1204.000000)">
                <path d="M27.49,43.49 C25.9328863,43.4918252 24.4392953,42.8727947 23.34,41.77 C22.9219992,41.3519993 22.7587514,40.7427499 22.9117503,40.1717503 C23.0647491,39.6007506 23.5107506,39.1547491 24.0817503,39.0017503 C24.6527499,38.8487514 25.2619993,39.0119992 25.68,39.43 C26.6960439,40.3988899 28.2939561,40.3988899 29.31,39.43 C29.7280007,39.0119993 30.3372501,38.8487514 30.9082497,39.0017503 C31.4792494,39.1547492 31.9252508,39.6007506 32.0782497,40.1717503 C32.2312486,40.7427499 32.0680007,41.3519993 31.65,41.77 C30.5482607,42.8752572 29.0505777,43.4944915 27.49,43.49 Z" id="Shape"></path>
                <circle id="Oval" cx="18.43" cy="33.4" r="2.6"></circle>
                <circle id="Oval" cx="36.61" cy="33.4" r="2.6"></circle>
                <path d="M27.71,61 C16.17477,60.9710168 5.67781832,54.3307229 0.71,43.92 C0.317877844,43.0915729 0.671572895,42.1021222 1.50000001,41.71 C2.32842713,41.3178779 3.31787782,41.6715729 3.71,42.5 C8.79889158,53.1296058 20.2548784,59.1656597 31.8995758,57.3528278 C43.5442733,55.5399958 52.6232076,46.3070909 54.2399741,34.6335566 C55.8567406,22.9600222 49.6289042,11.6071533 38.9152299,6.69772128 C28.2015557,1.78828931 15.5362902,4.48358696 7.75,13.33 L7.62,13.5 C9.89,17.87 12.38,23.12 12.38,25.2 C12.3799999,28.6186425 9.6086425,31.3899997 6.19,31.3899997 C2.7713575,31.3899997 1.44085005e-07,28.6186425 0,25.2 C0.133589091,23.9425242 0.422455909,22.7064429 0.86,21.52 C1.01421748,20.9294943 1.48179607,20.4723438 2.07562933,20.331482 C2.6694626,20.1906203 3.29255129,20.3890561 3.69555998,20.8473835 C4.09856867,21.3057109 4.21566821,21.9490646 4,22.52 C3.68732959,23.3838682 3.45305102,24.2741267 3.3,25.18 C3.30000002,26.7733415 4.59165851,28.065 6.185,28.065 C7.77834149,28.065 9.06999998,26.7733415 9.07,25.18 C9.07,24.28 7.55,20.43 4.22,14.12 C3.92513788,13.5645256 3.971675,12.8897374 4.34,12.38 L5.11,11.31 L5.21,11.18 C16.1507609,-1.26849826 35.1115017,-2.49076089 47.56,8.45 C60.0084983,19.3907609 61.2307609,38.3515017 50.29,50.8 C45.0533545,56.795834 37.6354149,60.4471888 29.69,60.94 C29.03,60.98 28.37,61 27.71,61 Z" id="Shape"></path>
            </g>
        </g>
    </g>
</svg>