<?xml version="1.0" encoding="UTF-8"?>
<svg width="36px" height="44px" viewBox="0 0 36 44" version="1.1" xmlns="http://www.w3.org/2000/svg" xmlns:xlink="http://www.w3.org/1999/xlink">
    <!-- Generator: Sketch 47.1 (45422) - http://www.bohemiancoding.com/sketch -->
    <title>macos</title>
    <desc>Created with Sketch.</desc>
    <defs>
        <polygon id="path-1" points="0 33.451531 0 0.0469333333 35.9458696 0.0469333333 35.9458696 33.451531"></polygon>
    </defs>
    <g id="e4" stroke="none" stroke-width="1" fill="none" fill-rule="evenodd">
        <g id="E4-consumer-mobile" transform="translate(-127.000000, -3962.000000)">
            <g id="macos" transform="translate(127.000000, 3962.000000)">
                <path d="M19.8332837,3.82728473 C22.7303783,0.018647619 26.7581046,7.22495896e-06 26.7581046,7.22495896e-06 C26.7581046,7.22495896e-06 27.3570664,3.58084138 24.4790946,7.03032578 C21.4059839,10.7136099 17.9128974,10.1109038 17.9128974,10.1109038 C17.9128974,10.1109038 17.2570744,7.21412874 19.8332837,3.82728473" id="Fill-1" fill="#9B9B9B"></path>
                <g id="Group-5" transform="translate(0.000000, 10.528860)">
                    <mask id="mask-2" fill="white">
                        <use xlink:href="#path-1"></use>
                    </mask>
                    <g id="Clip-4"></g>
                    <path d="M18.2813867,2.09044072 C19.7718736,2.09044072 22.537934,0.0469333333 26.138441,0.0469333333 C32.3360909,0.0469333333 34.7741674,4.44570509 34.7741674,4.44570509 C34.7741674,4.44570509 30.0055799,6.87748177 30.0055799,12.7782502 C30.0055799,19.4348939 35.9458696,21.7288184 35.9458696,21.7288184 C35.9458696,21.7288184 31.7933384,33.3869399 26.1845095,33.3869399 C23.6083002,33.3869399 21.6056282,31.6552617 18.8912137,31.6552617 C16.1251533,31.6552617 13.380099,33.451531 11.5923404,33.451531 C6.47056177,33.451531 -2.17303823e-05,22.3927921 -2.17303823e-05,13.5034916 C-2.17303823e-05,4.75746207 5.47697626,0.169468637 10.6140386,0.169468637 C13.9536362,0.169468637 16.5452016,2.09044072 18.2813867,2.09044072" id="Fill-3" fill="#9B9B9B" mask="url(#mask-2)"></path>
                </g>
            </g>
        </g>
    </g>
</svg>