<?xml version="1.0" encoding="UTF-8"?>
<svg width="62px" height="61px" viewBox="0 0 62 61" version="1.1" xmlns="http://www.w3.org/2000/svg" xmlns:xlink="http://www.w3.org/1999/xlink">
    <!-- Generator: Sketch 47.1 (45422) - http://www.bohemiancoding.com/sketch -->
    <title>mark_button</title>
    <desc>Created with Sketch.</desc>
    <defs></defs>
    <g id="e4" stroke="none" stroke-width="1" fill="none" fill-rule="evenodd">
        <g id="E4-consumer" transform="translate(-135.000000, -1413.000000)" fill-rule="nonzero" fill="#C31C4A">
            <g id="mark_button" transform="translate(135.000000, 1413.000000)">
                <path d="M36.9,60.6 C36.1,60.6 35.4,60.1 35.3,59.3 C35.1,58.4 35.7,57.5 36.6,57.3 C49,54.6 58,43.5 58,30.9 C58,16 45.9,3.9 31,3.9 C16.1,3.9 4,16 4,30.9 C4,41.4 10.2,51 19.6,55.3 L19.6,33.5 C19.6,33.5 19.6,33.5 19.6,33.5 L19.6,15.9 C19.6,15 20.3,14.2 21.3,14.2 L46.1,14.2 C46.8,14.2 47.4,14.6 47.6,15.2 C47.9,15.8 47.7,16.5 47.3,17 L40,24.8 L47.3,32.3 C47.8,32.8 47.9,33.5 47.6,34.1 C47.3,34.7 46.7,35.1 46.1,35.1 L22.9,35.1 L22.9,57.7 C22.9,58.2 22.7,58.7 22.3,59 C21.8,59.4 21.2,59.5 20.7,59.3 C8.7,55 0.7,43.5 0.7,30.8 C0.7,14.2 14.3,0.6 31,0.6 C47.7,0.6 61.3,14.2 61.3,30.9 C61.3,45.1 51.2,57.6 37.2,60.6 C37.1,60.6 37,60.6 36.9,60.6 Z M23,17.6 L23,31.8 L42.2,31.8 L36.5,26 C35.9,25.4 35.9,24.3 36.5,23.7 L42.2,17.7 L23,17.7 L23,17.6 Z" id="Shape"></path>
            </g>
        </g>
    </g>
</svg>