<svg id="Layer_1" data-name="Layer 1" xmlns="http://www.w3.org/2000/svg" viewBox="0 0 60 60"><defs><style>.cls-1{fill:#fff;}</style></defs><title>monitoring</title><path class="cls-1" d="M46.58,27.14a.46.46,0,1,0,.45.45A.45.45,0,0,0,46.58,27.14Z"/><path class="cls-1" d="M53.68,40.13H50.5V38.89L52,36.6a2.34,2.34,0,0,0,.36-1.26V27.18A2.34,2.34,0,0,0,52,25.92L50.5,23.63V22.52h3.18a.63.63,0,0,0,0-1.25H50.45a2.1,2.1,0,0,0-2-1.63H40.34a2.09,2.09,0,0,0-2.05,1.69.6.6,0,0,0-.27-.06h-.6c-1.72,0-2.54-.92-3.68-2.18-1.78-2-4.22-4.68-11.55-4.68H15.32a2.7,2.7,0,0,0-2,.85,2.58,2.58,0,0,0-.71,2,4.4,4.4,0,0,0,1.13,2.94H10.49A3.57,3.57,0,0,0,6.83,24a3.32,3.32,0,0,0,1.11,2.56A3.23,3.23,0,0,0,5.7,29.71a3.7,3.7,0,0,0,1.59,3.21,3.24,3.24,0,0,0-1.53,2.83,3.57,3.57,0,0,0,3.62,3.8,3.65,3.65,0,0,0-.76,2.24,3.57,3.57,0,0,0,3,3.74.55.55,0,0,0,.26.06H22.71a16.36,16.36,0,0,0,9.06-2.41,11,11,0,0,1,6.05-1.8h.23a.6.6,0,0,0,.27-.07,2.1,2.1,0,0,0,2,1.58h8.07a2.09,2.09,0,0,0,2-1.51h3.27a.63.63,0,0,0,0-1.25Zm-2.6-13v8.16a1,1,0,0,1-.17.59l-.41.64V26l.41.64A1,1,0,0,1,51.08,27.18ZM38.25,30.75v5.82l-.41-.64a1.12,1.12,0,0,1-.17-.59V27.18a1.12,1.12,0,0,1,.17-.59l.41-.64Zm1.25-5.91a3,3,0,1,1,1.21,5.8,2.88,2.88,0,0,1-1.21-.3ZM37.82,40.13a12.14,12.14,0,0,0-6.65,2,15.18,15.18,0,0,1-8.46,2.25H12.28a2.33,2.33,0,0,1-2.41-2.55,2.15,2.15,0,0,1,2-2.23.62.62,0,0,0,.63-.62.64.64,0,0,0-.62-.63H9.42A2.33,2.33,0,0,1,7,35.75c0-1.44,1.05-2.23,3-2.23a.62.62,0,0,0,.63-.61.63.63,0,0,0-.61-.64l-.63,0A2.32,2.32,0,0,1,7,29.71c0-1.43,1-2.22,2.87-2.22h1.23a.62.62,0,0,0,.62-.62.61.61,0,0,0-.61-.63h-.12c-1.82,0-2.86-.86-2.86-2.28a2.33,2.33,0,0,1,2.41-2.55H21.17a.63.63,0,0,0,0-1.25H17.32c-2.87,0-3.34-1.61-3.43-3a1.37,1.37,0,0,1,.38-1,1.44,1.44,0,0,1,1.05-.46h6.87c6.77,0,8.91,2.37,10.62,4.27,1.2,1.33,2.33,2.59,4.61,2.59H38a.59.59,0,0,0,.23-.05v1.16l-1.46,2.29a2.32,2.32,0,0,0-.37,1.26v8.16a2.32,2.32,0,0,0,.37,1.26l1.46,2.29v1.28a.65.65,0,0,0-.2,0Zm11.43.66a.85.85,0,0,1-.84.85H40.34a.85.85,0,0,1-.84-.85V31.7a4.13,4.13,0,0,0,1.21.19,4.3,4.3,0,0,0,0-8.59,4.13,4.13,0,0,0-1.21.19V21.73a.84.84,0,0,1,.84-.84h8.07a.84.84,0,0,1,.84.84V40.79Z"/></svg>