<?xml version="1.0" encoding="UTF-8"?>
<svg width="60px" height="60px" viewBox="0 0 60 60" version="1.1" xmlns="http://www.w3.org/2000/svg" xmlns:xlink="http://www.w3.org/1999/xlink">
    <!-- Generator: Sketch 47.1 (45422) - http://www.bohemiancoding.com/sketch -->
    <title>ppg</title>
    <desc>Created with Sketch.</desc>
    <defs></defs>
    <g id="e4" stroke="none" stroke-width="1" fill="none" fill-rule="evenodd">
        <g id="E4-consumer" transform="translate(-135.000000, -1205.000000)" fill-rule="nonzero" fill="#C31C4A">
            <g id="ppg" transform="translate(135.000000, 1205.000000)">
                <path d="M30,0 C13.5,0 0,13.5 0,30 C0,30.6 0,31.3 0.1,31.9 C0.1,32.8 0.9,33.6 1.8,33.6 L12.5,33.6 C12.7,33.8 12.8,34 13,34.1 C13,34.1 13.1,34.2 13.1,34.2 L28.4,49.5 C28.4,49.5 28.4,49.5 28.4,49.5 C28.5,49.6 28.6,49.7 28.7,49.7 C28.7,49.7 28.8,49.8 28.8,49.8 C28.8,49.8 28.9,49.9 29,49.9 C29.1,49.9 29.2,50 29.2,50 C29.3,50 29.3,50.1 29.4,50.1 C29.4,50.1 29.4,50.1 29.4,50.1 C29.5,50.1 29.6,50.2 29.8,50.2 C29.8,50.2 29.9,50.2 29.9,50.2 C29.9,50.2 29.9,50.2 29.9,50.2 C30,50.2 30.1,50.2 30.1,50.2 C30.1,50.2 30.2,50.2 30.2,50.2 C30.3,50.2 30.3,50.2 30.4,50.2 C30.5,50.2 30.6,50.2 30.8,50.1 C30.9,50.1 31,50 31.1,50 C31.1,50 31.2,50 31.2,49.9 C31.2,49.9 31.3,49.9 31.3,49.9 C31.3,49.9 31.4,49.8 31.5,49.8 C31.5,49.8 31.6,49.7 31.6,49.7 C31.6,49.7 31.7,49.7 31.7,49.6 C31.7,49.6 31.8,49.5 31.8,49.5 L42.5,38.8 C43.1,38.2 43.1,37.1 42.5,36.5 C41.9,35.9 40.8,35.9 40.2,36.5 L30.2,46.5 L15.8,32.2 L20.2,27.6 L28.8,36.6 C29.1,36.9 29.5,37.1 30,37.1 C30,37.1 30,37.1 30,37.1 C30.4,37.1 30.9,36.9 31.2,36.6 L34.4,33.4 L46.8,33.4 C46.8,33.4 46.8,33.4 46.8,33.4 C46.8,33.4 46.8,33.4 46.8,33.4 C47.4,33.4 47.9,33.1 48.2,32.6 C49.3,31.2 50.1,29.6 50.5,27.9 C50.5,27.9 50.5,27.9 50.5,27.9 C50.8,27 51,26 51,25 C51,18.1 45.3,12.4 38.4,12.4 C34.9,12.4 32,14.5 30.1,16.4 C28.2,14.5 25.2,12.4 21.8,12.4 C14.7,12.4 9,18 9,25 C9,26 9.1,27.1 9.4,28.1 C9.6,28.8 9.9,29.6 10.2,30.2 L3.3,30.2 C3.3,30.1 3.3,30 3.3,30 C3.3,15.3 15.3,3.3 30,3.3 C44.7,3.3 56.7,15.3 56.7,30 C56.7,44.7 44.7,56.7 30,56.7 C20.6,56.7 12.1,51.9 7.2,43.9 C6.7,43.1 5.7,42.9 4.9,43.3 C4.1,43.8 3.9,44.8 4.3,45.6 C9.9,54.6 19.4,60 30,60 C46.5,60 60,46.5 60,30 C60,13.5 46.5,0 30,0 Z M21.7,15.7 C24.7,15.7 27.4,18.4 28.8,19.9 C29.4,20.6 30.7,20.6 31.3,19.9 C32.6,18.3 35.3,15.7 38.4,15.7 C43.5,15.7 47.7,19.9 47.7,25 C47.7,25.7 47.6,26.5 47.4,27.3 C47.4,27.3 47.4,27.3 47.4,27.3 C47.1,28.4 46.7,29.4 46,30.3 L33.7,30.3 C33.3,30.3 32.8,30.5 32.5,30.8 L30,33.2 L21.4,24.2 C21.1,23.9 20.7,23.7 20.2,23.7 L20.2,23.7 C19.7,23.7 19.3,23.9 19,24.2 L13.7,29.8 C13.2,29 12.9,28.2 12.7,27.4 C12.5,26.6 12.4,25.8 12.4,25.1 C12.4,19.8 16.5,15.7 21.7,15.7 Z" id="Shape"></path>
            </g>
        </g>
    </g>
</svg>