<svg xmlns="http://www.w3.org/2000/svg" viewBox="0 0 236.13 66.25"><defs><style>.cls-1{fill:#fff;}</style></defs><title>sdk</title><g id="Layer_2" data-name="Layer 2"><g id="Layer_1-2" data-name="Layer 1"><circle class="cls-1" cx="122.13" cy="22.29" r="1.35"/><circle class="cls-1" cx="200.94" cy="61.56" r="1.35"/><circle class="cls-1" cx="33.13" cy="45.27" r="1.35"/><path class="cls-1" d="M131.06,11.36a.48.48,0,0,0,.06-.24V5a4.68,4.68,0,0,0-4.5-4.84h-22A4.68,4.68,0,0,0,100.12,5v5.52l-4.54,7.1a5.52,5.52,0,0,0-.87,3V44.7a5.51,5.51,0,0,0,.87,3l4.61,7.21a.48.48,0,0,0-.07.24v6.16a4.68,4.68,0,0,0,4.5,4.83h22a4.67,4.67,0,0,0,4.5-4.83V55.77l4.55-7.1a5.52,5.52,0,0,0,.87-3V21.55a5.51,5.51,0,0,0-.87-3Zm-29.94,1.91A10.16,10.16,0,0,1,106,12a10.33,10.33,0,1,1,0,20.66,10.14,10.14,0,0,1-4.92-1.3ZM95.71,44.7V20.57a4.66,4.66,0,0,1,.71-2.46l3.7-5.78v40.6l-3.7-5.78A4.63,4.63,0,0,1,95.71,44.7Zm34.41,16.59a3.68,3.68,0,0,1-3.5,3.83h-22a3.68,3.68,0,0,1-3.5-3.83V55.13a.55.55,0,0,0-.07-.25h0l0-.08a.2.2,0,0,0,0-.1.11.11,0,0,0,0,0V32.43A11,11,0,0,0,106,33.62,11.33,11.33,0,1,0,106,11a11,11,0,0,0-4.92,1.19V5a3.69,3.69,0,0,1,3.5-3.84h22A3.68,3.68,0,0,1,130.12,5v6.16a.57.57,0,0,0,.08.25h0l0,.08a.2.2,0,0,0,0,.1l0,0V61.29Zm5.42-15.61a4.66,4.66,0,0,1-.71,2.46l-3.71,5.78V13.32l3.71,5.78a4.63,4.63,0,0,1,.71,2.45Z"/><path class="cls-1" d="M60.62,0h-55A5.62,5.62,0,0,0,0,5.62v40a5.63,5.63,0,0,0,5.62,5.63H24.38V65h-7.5a.63.63,0,1,0,0,1.25h32.5a.63.63,0,0,0,0-1.25h-7.5V51.25H60.62a5.63,5.63,0,0,0,5.63-5.63v-40A5.63,5.63,0,0,0,60.62,0Zm-20,65h-15V51.25h15Zm20-15h-55a4.38,4.38,0,0,1-4.37-4.38V41.25H65v4.37A4.38,4.38,0,0,1,60.62,50ZM65,40H1.25V5.62A4.37,4.37,0,0,1,5.62,1.25h55A4.38,4.38,0,0,1,65,5.62Z"/><path class="cls-1" d="M231.62,5.12h-9.87v-.5a4.51,4.51,0,0,0-4.5-4.5H184.62a4.51,4.51,0,0,0-4.5,4.5v.53l-.12,0H169.62a4.51,4.51,0,0,0-4.5,4.5v47a4.5,4.5,0,0,0,4.5,4.5H180l.12,0v.52a4.5,4.5,0,0,0,4.5,4.5h32.63a4.5,4.5,0,0,0,4.5-4.5v-.5h9.87a4.49,4.49,0,0,0,4.5-4.5v-47A4.5,4.5,0,0,0,231.62,5.12ZM201.35,57H181.12V9.25h39.63V57ZM166.12,13H180a.27.27,0,0,0,.12,0V53.28a.27.27,0,0,0-.12,0H166.12Zm55.63,0h13.37V53.25H221.75Zm13.37-3.38V12H221.75V6.12h9.87A3.51,3.51,0,0,1,235.12,9.62Zm-50.5-8.5h32.63a3.51,3.51,0,0,1,3.5,3.5V8.25H181.12V4.62A3.52,3.52,0,0,1,184.62,1.12Zm-15,5H180l.12,0V12a.27.27,0,0,0-.12,0H166.12V9.62A3.52,3.52,0,0,1,169.62,6.12Zm10.38,54H169.62a3.51,3.51,0,0,1-3.5-3.5V54.25H180a.27.27,0,0,0,.12,0v5.93Zm40.75,1.5a3.5,3.5,0,0,1-3.5,3.5H184.62a3.51,3.51,0,0,1-3.5-3.5V58h39.63v3.62Zm10.87-1.5h-9.87V54.25h13.37v2.37A3.5,3.5,0,0,1,231.62,60.12Z"/><path class="cls-1" d="M80.89,47.58C78.07,46,73.3,41.23,73.3,33.12s4.78-12.9,7.61-14.45a.62.62,0,0,0-.61-1.09c-3.06,1.68-8.24,6.84-8.25,15.54S77.22,47,80.28,48.67a.67.67,0,0,0,.3.08.63.63,0,0,0,.55-.32A.62.62,0,0,0,80.89,47.58Z"/><path class="cls-1" d="M86,27.78a.61.61,0,0,0,.16-.86.63.63,0,0,0-.87-.17c-.46.32-2.78,2.11-2.79,6.38,0,4.61,2.8,6.39,2.83,6.4a.56.56,0,0,0,.3.08.62.62,0,0,0,.54-.3.64.64,0,0,0-.2-.85s-2.22-1.52-2.22-5.33S85.75,27.94,86,27.78Z"/><path class="cls-1" d="M83.41,43s-4.89-2.78-4.89-9.89,4.69-9.77,4.89-9.88a.62.62,0,0,0,.24-.85.61.61,0,0,0-.84-.24c-.23.12-5.54,3.13-5.54,11s5.31,10.86,5.54,11a.54.54,0,0,0,.3.08.65.65,0,0,0,.55-.32A.63.63,0,0,0,83.41,43Z"/><path class="cls-1" d="M151,17.58a.62.62,0,1,0-.61,1.09C153.18,20.23,158,25,158,33.13s-4.78,12.9-7.61,14.45a.62.62,0,0,0,.31,1.17.56.56,0,0,0,.3-.08c3.06-1.68,8.24-6.84,8.25-15.54S154,19.26,151,17.58Z"/><path class="cls-1" d="M145.94,26.72a.62.62,0,0,0-.84.22.64.64,0,0,0,.2.85s2.22,1.52,2.22,5.33-2,5.19-2.25,5.35a.61.61,0,0,0-.16.86.63.63,0,0,0,.52.28.66.66,0,0,0,.35-.11c.46-.32,2.78-2.11,2.79-6.38C148.77,28.51,146,26.73,145.94,26.72Z"/><path class="cls-1" d="M154,33.13c0-7.85-5.31-10.86-5.54-11a.62.62,0,0,0-.85.24.63.63,0,0,0,.25.85s4.89,2.78,4.89,9.89S148,42.9,147.84,43a.62.62,0,0,0-.24.85.6.6,0,0,0,.54.32.54.54,0,0,0,.3-.08C148.67,44,154,41,154,33.13Z"/></g></g></svg>