<?xml version="1.0" encoding="UTF-8"?>
<svg width="1000px" height="166px" viewBox="0 0 1000 166" version="1.1" xmlns="http://www.w3.org/2000/svg" xmlns:xlink="http://www.w3.org/1999/xlink">
    <!-- Generator: Sketch 47.1 (45422) - http://www.bohemiancoding.com/sketch -->
    <title>system_streaming-lg</title>
    <desc>Created with Sketch.</desc>
    <defs></defs>
    <g id="e4" stroke="none" stroke-width="1" fill="none" fill-rule="evenodd">
        <g id="E4-consumer" transform="translate(-220.000000, -3466.000000)" fill="#4A4A4A">
            <g id="system_streaming-lg" transform="translate(220.000000, 3466.000000)">
                <path d="M45.4695545,56.9850746 C46.8804455,56.9850746 48.0240099,58.1297313 48.0240099,59.5407313 C48.0240099,60.9504925 46.8804455,62.0951493 45.4695545,62.0951493 C44.0574257,62.0951493 42.915099,60.9504925 42.915099,59.5407313 C42.915099,58.1297313 44.0574257,56.9850746 45.4695545,56.9850746 Z" id="Fill-1"></path>
                <g id="Group-5" transform="translate(0.000000, 19.820896)">
                    <path d="M165.700371,92.6007463 C149.477599,92.6007463 136.278342,79.4025075 136.278342,63.1791045 C136.278342,46.9557015 149.477599,33.7574627 165.700371,33.7574627 C181.923144,33.7574627 195.121163,46.9557015 195.121163,63.1791045 C195.121163,79.4025075 181.923144,92.6007463 165.700371,92.6007463 L165.700371,92.6007463 Z M81.7597772,85.943403 C81.7597772,87.5290746 81.3080446,89.0726269 80.4528465,90.4080597 L74.0147277,100.469642 L74.0147277,25.8885672 L80.4528465,35.9513881 C81.3080446,37.2855821 81.7597772,38.8291343 81.7597772,40.414806 L81.7597772,85.943403 Z M71.5394802,116.323881 C71.5394802,120.149313 68.4268564,123.261194 64.6013614,123.261194 L19.6335396,123.261194 C15.8080446,123.261194 12.6954208,120.149313 12.6954208,116.323881 L12.6954208,104.698925 L12.6954208,60.3434776 L12.6954208,54.3303134 C14.8860149,55.2978209 17.1719059,55.7921045 19.5209158,55.7921045 C29.0964109,55.7921045 36.8860149,48.0012537 36.8860149,38.4265224 C36.8860149,28.8505522 29.0964109,21.0597015 19.5209158,21.0597015 C17.1719059,21.0597015 14.8860149,21.5539851 12.6954208,22.5214925 L12.6954208,21.6592836 L12.6954208,10.0343284 C12.6954208,6.20889552 15.8080446,3.09701493 19.6335396,3.09701493 L64.6013614,3.09701493 C68.4268564,3.09701493 71.5394802,6.20889552 71.5394802,10.0343284 L71.5394802,21.6592836 L71.5394802,104.698925 L71.5394802,116.323881 Z M2.47512376,85.943403 L2.47512376,40.414806 C2.47512376,38.8303731 2.92685644,37.2855821 3.78081683,35.9501493 L10.2201733,25.8885672 L10.2201733,60.3434776 L10.2201733,100.469642 L3.78081683,90.4080597 C2.92685644,89.0726269 2.47512376,87.5278358 2.47512376,85.943403 L2.47512376,85.943403 Z M12.6954208,25.2964179 C14.8736386,24.146806 17.162005,23.5373134 19.5209158,23.5373134 C27.7313119,23.5373134 34.4107673,30.2169552 34.4107673,38.4265224 C34.4107673,46.6360896 27.7313119,53.3144925 19.5209158,53.3144925 C17.162005,53.3144925 14.8736386,52.705 12.6954208,51.5553881 L12.6954208,25.2964179 Z M165.700371,31.2798507 C148.527104,31.2798507 134.4875,44.9240597 133.834035,61.9402985 L84.2350248,61.9402985 L84.2350248,40.414806 C84.2350248,38.3546716 83.6471535,36.3490448 82.537005,34.6134776 L74.0147277,21.2975522 L74.0147277,10.0343284 C74.0147277,4.84249254 69.7919554,0.619402985 64.6013614,0.619402985 L19.6335396,0.619402985 C14.4429455,0.619402985 10.2201733,4.84249254 10.2201733,10.0343284 L10.2201733,21.2975522 L1.69665842,34.6134776 C0.586509901,36.3490448 -0.000123762376,38.3559104 -0.000123762376,40.414806 L-0.000123762376,85.943403 C-0.000123762376,88.0022985 0.586509901,90.0091642 1.69665842,91.7447313 L10.2201733,105.060657 L10.2201733,116.323881 C10.2201733,121.515716 14.4429455,125.738806 19.6335396,125.738806 L64.6013614,125.738806 C69.7919554,125.738806 74.0147277,121.515716 74.0147277,116.323881 L74.0147277,105.060657 L82.537005,91.7459701 C83.6471535,90.0091642 84.2350248,88.0035373 84.2350248,85.943403 L84.2350248,64.4179104 L133.834035,64.4179104 C134.4875,81.4341493 148.527104,95.0783582 165.700371,95.0783582 C183.288243,95.0783582 197.596411,80.7676716 197.596411,63.1791045 C197.596411,45.5905373 183.288243,31.2798507 165.700371,31.2798507 L165.700371,31.2798507 Z" id="Fill-3"></path>
                </g>
                <path d="M166.937995,80.2514612 L166.937995,70.3149985 L172.553094,75.2826104 L166.937995,80.2514612 Z M166.937995,95.684506 L166.937995,85.7480433 L172.553094,90.716894 L166.937995,95.684506 Z M175.65953,75.2826104 C175.65953,74.9270731 175.507302,74.5901179 175.241213,74.3547448 L166.519678,66.6394612 C166.153342,66.314894 165.632302,66.2393269 165.191708,66.4375358 C164.747401,66.6382224 164.462748,67.0792373 164.462748,67.5673269 L164.462748,80.2514612 L157.798144,74.3547448 C157.287005,73.9038194 156.504827,73.9496552 156.051856,74.4625209 C155.598886,74.9741478 155.647153,75.7583119 156.15953,76.2104761 L163.831559,83.0003716 L156.15953,89.7890284 C155.647153,90.2411925 155.598886,91.0253567 156.051856,91.5369836 C156.295668,91.8144761 156.637252,91.9557 156.978837,91.9557 C157.269678,91.9557 157.562995,91.8528791 157.798144,91.6447597 L164.462748,85.7480433 L164.462748,98.4334164 C164.462748,98.9202672 164.747401,99.3625209 165.191708,99.5632075 C165.355074,99.6350582 165.527104,99.6722224 165.700371,99.6722224 C165.996163,99.6722224 166.28948,99.5656851 166.519678,99.3612821 L175.241213,91.6447597 C175.507302,91.4106254 175.65953,91.0724313 175.65953,90.716894 C175.65953,90.3625955 175.507302,90.0244015 175.241213,89.7890284 L167.569183,83.0003716 L175.241213,76.2104761 C175.507302,75.9763418 175.65953,75.636909 175.65953,75.2826104 L175.65953,75.2826104 Z" id="Fill-6"></path>
                <path d="M643.726485,116.19009 L541.527228,116.19009 C525.303218,116.19009 512.105198,102.991851 512.105198,86.7684478 C512.105198,70.5450448 525.303218,57.346806 541.527228,57.346806 C541.699257,57.346806 541.865099,57.359194 542.033416,57.3715821 C542.190594,57.3814925 542.347772,57.391403 542.506188,57.3963582 C543.105198,57.4347612 543.639851,56.9974627 543.759901,56.4040746 C548.431931,33.2631791 568.983911,16.466209 592.627475,16.466209 C616.269802,16.466209 636.821782,33.2631791 641.493812,56.4040746 C641.613861,56.9974627 642.164604,57.4335224 642.747525,57.3963582 C642.905941,57.391403 643.064356,57.3814925 643.221535,57.3715821 C643.389851,57.359194 643.555693,57.346806 643.726485,57.346806 C659.949257,57.346806 673.148515,70.5450448 673.148515,86.7684478 C673.148515,102.991851 659.949257,116.19009 643.726485,116.19009 M643.726485,54.869194 L643.699257,54.869194 C638.392327,31.1175672 617.086634,13.988597 592.627475,13.988597 C568.168317,13.988597 546.860149,31.1175672 541.554455,54.869194 L541.527228,54.869194 C525.455446,54.869194 512.127475,66.821194 509.949257,82.303791 L509.949257,81.761194 L468.211634,81.761194 L468.211634,83 L468.211634,84.238806 L509.738861,84.238806 C509.674505,85.075 509.62995,85.9173881 509.62995,86.7684478 C509.62995,104.357015 523.939356,118.667701 541.527228,118.667701 L643.726485,118.667701 C661.315594,118.667701 675.623762,104.357015 675.623762,86.7684478 C675.623762,69.1798806 661.315594,54.869194 643.726485,54.869194" id="Fill-8"></path>
                <path d="M616.422649,94.8206866 C616.422649,95.5045075 615.868193,96.0594925 615.185025,96.0594925 L570.630569,96.0594925 C569.947401,96.0594925 569.392946,95.5045075 569.392946,94.8206866 L569.392946,68.8057612 C569.392946,68.1219403 569.947401,67.5669552 570.630569,67.5669552 L574.343441,67.5669552 L611.472153,67.5669552 L615.185025,67.5669552 C615.868193,67.5669552 616.422649,68.1219403 616.422649,68.8057612 L616.422649,94.8206866 Z M575.581064,53.9400896 C575.581064,44.3765075 583.353342,36.596806 592.907797,36.596806 C602.462252,36.596806 610.23453,44.3765075 610.23453,53.9400896 L610.23453,65.0893433 L575.581064,65.0893433 L575.581064,53.9400896 Z M615.185025,65.0893433 L612.709777,65.0893433 L612.709777,53.9400896 C612.709777,43.0113433 603.826114,34.119194 592.907797,34.119194 C581.98948,34.119194 573.105817,43.0113433 573.105817,53.9400896 L573.105817,65.0893433 L570.630569,65.0893433 C568.58354,65.0893433 566.917698,66.7567761 566.917698,68.8057612 L566.917698,94.8206866 C566.917698,96.8696716 568.58354,98.5371045 570.630569,98.5371045 L615.185025,98.5371045 C617.232054,98.5371045 618.897896,96.8696716 618.897896,94.8206866 L618.897896,68.8057612 C618.897896,66.7567761 617.232054,65.0893433 615.185025,65.0893433 L615.185025,65.0893433 Z" id="Fill-10"></path>
                <path d="M592.907797,79.801403 C591.495668,79.801403 590.353342,80.9460597 590.353342,82.3570597 C590.353342,83.7668209 591.495668,84.9114776 592.907797,84.9114776 C594.318688,84.9114776 595.462252,83.7668209 595.462252,82.3570597 C595.462252,80.9460597 594.318688,79.801403 592.907797,79.801403" id="Fill-12"></path>
                <path d="M750.176609,112.421642 C733.953837,112.421642 720.755817,99.223403 720.755817,83 C720.755817,66.776597 733.953837,53.5783582 750.176609,53.5783582 C766.399381,53.5783582 779.598639,66.776597 779.598639,83 C779.598639,99.223403 766.399381,112.421642 750.176609,112.421642 M750.176609,51.1007463 C733.003342,51.1007463 718.964975,64.7449552 718.31151,81.761194 L675.603589,81.761194 L675.603589,84.238806 L718.31151,84.238806 C718.964975,101.255045 733.003342,114.899254 750.176609,114.899254 C767.349876,114.899254 781.38948,101.255045 782.042946,84.238806 L833.412995,84.238806 L833.412995,81.761194 L782.042946,81.761194 C781.38948,64.7449552 767.349876,51.1007463 750.176609,51.1007463" id="Fill-14"></path>
                <path d="M750.1875,68.1343284 L750.167698,68.1343284 C739.189975,68.1417612 732.656559,74.7148657 730.526609,78.5985224 C730.198639,79.1993433 730.41646,79.9512985 731.016708,80.2820597 C731.206064,80.3848806 731.410272,80.4344328 731.610767,80.4344328 C732.048886,80.4344328 732.472153,80.2015373 732.697401,79.7914925 C734.564975,76.3847761 740.347153,70.6193731 750.170173,70.6119403 L750.1875,70.6119403 C760.001856,70.6119403 765.785272,76.3649552 767.656559,79.7667164 C767.988243,80.3650597 768.737005,80.5818507 769.33849,80.2535672 C769.936262,79.9240448 770.155322,79.1696119 769.824876,78.5712687 C767.691213,74.693806 761.154084,68.1343284 750.1875,68.1343284" id="Fill-16"></path>
                <path d="M750.188738,81.0559418 L750.177599,81.0559418 C744.66646,81.0596582 742.318688,84.1058821 741.904084,84.7153746 C741.519183,85.281509 741.66646,86.0520463 742.230817,86.4373149 C742.443688,86.5822552 742.686262,86.6516284 742.926361,86.6516284 C743.322401,86.6516284 743.712252,86.4608522 743.951114,86.1090313 C744.129332,85.8451657 745.824876,83.5372701 750.180074,83.5335537 L750.188738,83.5335537 C754.620668,83.5335537 756.331064,85.9789567 756.401609,86.0842552 C756.777847,86.6380015 757.534035,86.8002851 758.097153,86.4385537 C758.66151,86.0780612 758.840965,85.3397328 758.496906,84.7649269 C758.474629,84.7277627 756.202351,81.0559418 750.188738,81.0559418" id="Fill-18"></path>
                <path d="M750.175371,74.5956925 C740.197649,74.5956925 736.341213,81.4078866 736.181559,81.6977672 C735.852351,82.2973493 736.071411,83.0505433 736.670421,83.3800657 C736.85854,83.4841254 737.062748,83.5336776 737.26448,83.5336776 C737.701361,83.5336776 738.125866,83.3020209 738.349876,82.8907373 C738.481064,82.6590806 741.713738,77.0733045 750.175371,77.0733045 C758.705074,77.0733045 761.96745,82.8325134 762.000866,82.8907373 C762.328837,83.4903194 763.083787,83.7083493 763.680322,83.3800657 C764.279332,83.0505433 764.498391,82.2973493 764.169183,81.6977672 C764.00953,81.4078866 760.153094,74.5956925 750.175371,74.5956925" id="Fill-20"></path>
                <path d="M750.176609,87.9552239 C748.765718,87.9552239 747.622153,89.0998806 747.622153,90.5108806 C747.622153,91.9206418 748.765718,93.0652985 750.176609,93.0652985 C751.588738,93.0652985 752.731064,91.9206418 752.731064,90.5108806 C752.731064,89.0998806 751.588738,87.9552239 750.176609,87.9552239" id="Fill-22"></path>
                <path d="M436.313243,112.421642 C420.09047,112.421642 406.89245,99.223403 406.89245,83 C406.89245,66.776597 420.09047,53.5783582 436.313243,53.5783582 C452.536015,53.5783582 465.735272,66.776597 465.735272,83 C465.735272,99.223403 452.536015,112.421642 436.313243,112.421642 L436.313243,112.421642 Z M345.652351,163.522388 L258.304579,163.522388 C254.89245,163.522388 252.11646,160.743746 252.11646,157.328358 L252.11646,145.559701 L351.84047,145.559701 L351.84047,157.328358 C351.84047,160.743746 349.06448,163.522388 345.652351,163.522388 L345.652351,163.522388 Z M258.304579,2.47761194 L345.652351,2.47761194 C349.06448,2.47761194 351.84047,5.25625373 351.84047,8.67164179 L351.84047,20.4402985 L252.11646,20.4402985 L252.11646,8.67164179 C252.11646,5.25625373 254.89245,2.47761194 258.304579,2.47761194 L258.304579,2.47761194 Z M252.11646,143.08209 L351.84047,143.08209 L351.84047,22.9179104 L252.11646,22.9179104 L252.11646,143.08209 Z M436.313243,51.1007463 C419.141213,51.1007463 405.102847,64.7449552 404.448144,81.761194 L354.315718,81.761194 L354.315718,8.67164179 C354.315718,3.89108955 350.428342,0 345.652351,0 L258.304579,0 C253.528589,0 249.641213,3.89108955 249.641213,8.67164179 L249.641213,81.761194 L197.596658,81.761194 L197.596658,83 L197.596658,84.238806 L249.641213,84.238806 L249.641213,157.328358 C249.641213,162.10891 253.528589,166 258.304579,166 L345.652351,166 C350.428342,166 354.315718,162.10891 354.315718,157.328358 L354.315718,84.238806 L404.448144,84.238806 C405.102847,101.255045 419.141213,114.899254 436.313243,114.899254 C453.902351,114.899254 468.21052,100.588567 468.21052,83 C468.21052,65.4114328 453.902351,51.1007463 436.313243,51.1007463 L436.313243,51.1007463 Z" id="Fill-24"></path>
                <path d="M436.325371,68.1343284 L436.305569,68.1343284 C425.327847,68.1417612 418.794431,74.7148657 416.66448,78.5985224 C416.33651,79.1993433 416.554332,79.9512985 417.154579,80.2820597 C417.343936,80.3848806 417.548144,80.4344328 417.748639,80.4344328 C418.186757,80.4344328 418.610025,80.2015373 418.835272,79.7914925 C420.702847,76.3847761 426.485025,70.6193731 436.308045,70.6119403 L436.325371,70.6119403 C446.139728,70.6119403 451.923144,76.3649552 453.794431,79.7667164 C454.126114,80.3650597 454.874876,80.5818507 455.476361,80.2535672 C456.074134,79.9240448 456.293193,79.1696119 455.962748,78.5712687 C453.829084,74.693806 447.291955,68.1343284 436.325371,68.1343284" id="Fill-26"></path>
                <path d="M436.326609,81.0559418 L436.31547,81.0559418 C430.804332,81.0596582 428.456559,84.1058821 428.041955,84.7153746 C427.657054,85.281509 427.804332,86.0520463 428.368688,86.4373149 C428.581559,86.5822552 428.824134,86.6516284 429.064233,86.6516284 C429.460272,86.6516284 429.850124,86.4608522 430.088985,86.1090313 C430.267203,85.8451657 431.962748,83.5372701 436.317946,83.5335537 L436.326609,83.5335537 C440.75854,83.5335537 442.468936,85.9789567 442.53948,86.0842552 C442.915718,86.6380015 443.671906,86.8002851 444.235025,86.4385537 C444.799381,86.0780612 444.978837,85.3397328 444.634777,84.7649269 C444.6125,84.7277627 442.340223,81.0559418 436.326609,81.0559418" id="Fill-28"></path>
                <path d="M436.313243,74.5956925 C426.33552,74.5956925 422.479084,81.4078866 422.319431,81.6977672 C421.990223,82.2973493 422.209282,83.0505433 422.808292,83.3800657 C422.996411,83.4841254 423.200619,83.5336776 423.402351,83.5336776 C423.839233,83.5336776 424.263738,83.3020209 424.487748,82.8907373 C424.618936,82.6590806 427.851609,77.0733045 436.313243,77.0733045 C444.842946,77.0733045 448.105322,82.8325134 448.138738,82.8907373 C448.466708,83.4903194 449.221658,83.7083493 449.818193,83.3800657 C450.417203,83.0505433 450.636262,82.2973493 450.307054,81.6977672 C450.147401,81.4078866 446.290965,74.5956925 436.313243,74.5956925" id="Fill-30"></path>
                <path d="M436.31448,87.9552239 C434.902351,87.9552239 433.760025,89.0998806 433.760025,90.5108806 C433.760025,91.9206418 434.902351,93.0652985 436.31448,93.0652985 C437.725371,93.0652985 438.868936,91.9206418 438.868936,90.5108806 C438.868936,89.0998806 437.725371,87.9552239 436.31448,87.9552239" id="Fill-32"></path>
                <path d="M300.137252,152.911519 C299.158292,153.92734 299.189233,155.545221 300.206559,156.523878 C301.223886,157.502534 302.84146,157.471564 303.819183,156.454504 C304.798144,155.437445 304.765965,153.819564 303.749876,152.842146 C302.733787,151.86349 301.116213,151.89446 300.137252,152.911519" id="Fill-34"></path>
                <path d="M344.367698,103.211615 L316.153589,103.211615 C314.625124,103.211615 313.231559,104.170451 312.685767,105.600033 L307.772401,118.4576 L290.154827,90.6625104 C289.912252,90.2809582 289.480322,90.0753164 289.029827,90.0901821 C288.579332,90.1199134 288.180817,90.3924507 287.987748,90.8012567 L282.646163,102.240391 C282.444431,102.673973 282.002599,102.955182 281.524876,102.955182 L260.141213,102.955182 C259.458045,102.955182 258.903589,103.508928 258.903589,104.193988 C258.903589,104.879048 259.458045,105.432794 260.141213,105.432794 L281.524876,105.432794 C282.96052,105.432794 284.281064,104.591645 284.888738,103.28966 L289.273639,93.8982716 L307.002599,121.868033 C307.230322,122.227287 307.626361,122.4416 308.047153,122.4416 C308.089233,122.4416 308.130074,122.439122 308.170916,122.436645 C308.6375,122.388331 309.036015,122.083585 309.203094,121.646287 L314.998886,106.48454 C315.179579,106.008839 315.643688,105.689227 316.153589,105.689227 L344.367698,105.689227 C345.052104,105.689227 345.605322,105.135481 345.605322,104.450421 C345.605322,103.765361 345.052104,103.211615 344.367698,103.211615" id="Fill-36"></path>
                <path d="M259.051485,66.3015149 C266.665347,66.3015149 270.478465,62.9988582 274.167822,59.8064552 C277.666584,56.7763358 280.972277,51.4358433 287.665347,51.4358433 C294.357178,51.4358433 297.662871,56.7763358 301.161634,59.8052164 C304.85099,62.9988582 308.664109,67.5403209 316.279208,67.5403209 C323.896782,67.5403209 327.711139,62.9988582 331.399257,59.8052164 C334.899257,56.7763358 338.20495,53.9134552 344.89802,53.9134552 C345.582426,53.9134552 346.135644,53.359709 346.135644,52.6746493 C346.135644,51.9908284 345.582426,51.4358433 344.89802,51.4358433 C337.282921,51.4358433 333.468564,54.7385 329.779208,57.930903 C326.279208,60.9610224 322.973515,65.062709 316.279208,65.062709 C309.586139,65.062709 306.280446,60.9610224 302.781683,57.930903 C299.093564,54.7385 295.279208,48.9582313 287.665347,48.9582313 C280.050248,48.9582313 276.237129,54.7385 272.547772,57.9321418 C269.04901,60.9610224 265.743317,63.823903 259.051485,63.823903 C258.367079,63.823903 257.813861,64.3788881 257.813861,65.062709 C257.813861,65.7477687 258.367079,66.3015149 259.051485,66.3015149" id="Fill-38"></path>
                <path d="M347.462995,33.412703 C348.441955,32.3956433 348.411015,30.7777627 347.393688,29.799106 C346.376361,28.8216881 344.758787,28.8514194 343.779827,29.8697179 C342.802104,30.8855388 342.834282,32.5034194 343.850371,33.4820761 C344.86646,34.4607328 346.484035,34.4285239 347.462995,33.412703" id="Fill-40"></path>
                <polygon id="Fill-42" points="320.840842 34.1542522 317.35198 34.1542522 317.35198 28.0741925 316.152723 28.0741925 316.152723 35.1217597 320.840842 35.1217597"></polygon>
                <polygon id="Fill-44" points="323.007426 35.1213881 324.206683 35.1213881 324.206683 28.0738209 323.007426 28.0738209"></polygon>
                <polygon id="Fill-46" points="330.139975 35.2067418 332.688243 28.073697 331.381312 28.073697 329.529827 33.806891 327.677104 28.073697 326.371411 28.073697 328.919678 35.2067418"></polygon>
                <polygon id="Fill-47" points="339.564728 34.1542522 335.881559 34.1542522 335.881559 31.9553716 339.221906 31.9553716 339.221906 30.9866254 335.881559 30.9866254 335.881559 29.0417 339.564728 29.0417 339.564728 28.0741925 334.68354 28.0741925 334.68354 35.1217597 339.564728 35.1217597"></polygon>
                <path d="M916.691337,116.215485 C918.102228,116.215485 919.245792,115.070828 919.245792,113.659828 C919.245792,112.248828 918.102228,111.10541 916.691337,111.10541 C915.279208,111.10541 914.136881,112.248828 914.136881,113.659828 C914.136881,115.070828 915.279208,116.215485 916.691337,116.215485" id="Fill-48"></path>
                <path d="M997.213119,102.201493 L836.169802,102.201493 L836.169802,8.67164179 C836.169802,5.25625373 838.945792,2.47761194 842.357921,2.47761194 L991.025,2.47761194 C994.437129,2.47761194 997.213119,5.25625373 997.213119,8.67164179 L997.213119,102.201493 Z M997.213119,116.447761 C997.213119,119.863149 994.437129,122.641791 991.025,122.641791 L937.131436,122.641791 L896.251485,122.641791 L842.357921,122.641791 C838.945792,122.641791 836.169802,119.863149 836.169802,116.447761 L836.169802,104.679104 L997.213119,104.679104 L997.213119,116.447761 Z M897.489109,163.522388 L935.893812,163.522388 L935.893812,125.119403 L897.489109,125.119403 L897.489109,163.522388 Z M991.025,0 L842.357921,0 C837.581931,0 833.694554,3.89108955 833.694554,8.67164179 L833.694554,116.447761 C833.694554,121.228313 837.581931,125.119403 842.357921,125.119403 L895.013861,125.119403 L895.013861,163.522388 L875.812129,163.522388 C875.127723,163.522388 874.574505,164.076134 874.574505,164.761194 C874.574505,165.446254 875.127723,166 875.812129,166 L896.251485,166 L937.131436,166 L957.57203,166 C958.255198,166 958.809653,165.446254 958.809653,164.761194 C958.809653,164.076134 958.255198,163.522388 957.57203,163.522388 L938.369059,163.522388 L938.369059,125.119403 L991.025,125.119403 C995.80099,125.119403 999.688366,121.228313 999.688366,116.447761 L999.688366,8.67164179 C999.688366,3.89108955 995.80099,0 991.025,0 L991.025,0 Z" id="Fill-49"></path>
                <path d="M991.163985,70.0324269 L973.26547,70.0324269 C972.871906,70.0324269 972.501856,70.2194866 972.267946,70.5378597 L968.431312,75.7693373 L960.610767,63.9238746 C960.395421,63.5980687 960.037748,63.3924269 959.645421,63.3701284 C959.23453,63.340397 958.874381,63.5163075 958.625619,63.8185761 L953.493193,70.0324269 L945.524134,70.0324269 L943.108292,70.0324269 L931.349629,70.0324269 C930.956064,70.0324269 930.586015,70.2194866 930.352104,70.5378597 L922.26547,81.5632328 L906.796411,58.1312179 C906.579827,57.8041731 906.222153,57.5985313 905.831064,57.5762328 C905.420173,57.562606 905.060025,57.7236507 904.811262,58.0246806 L894.891708,70.0324269 L884.329827,70.0324269 L879.439975,70.0324269 L874.271658,70.0324269 C873.876856,70.0324269 873.508045,70.2194866 873.274134,70.5378597 L869.4375,75.7693373 L861.616955,63.9238746 C861.400371,63.5980687 861.042698,63.3924269 860.651609,63.3701284 C860.232054,63.340397 859.881807,63.5163075 859.631807,63.8185761 L854.498144,70.0324269 L842.558787,70.0324269 C841.874381,70.0324269 841.321163,70.5861731 841.321163,71.2712328 C841.321163,71.9562925 841.874381,72.5100388 842.558787,72.5100388 L855.081064,72.5100388 C855.449876,72.5100388 855.800124,72.3452776 856.034035,72.061591 L860.473391,66.6864119 L868.352104,78.618591 C868.573639,78.9555463 868.948639,79.1624269 869.353342,79.1735761 L869.384282,79.1735761 C869.777847,79.1735761 870.147896,78.9865164 870.380569,78.6681433 L874.899134,72.5100388 L879.439975,72.5100388 L884.329827,72.5100388 L895.474629,72.5100388 C895.842203,72.5100388 896.193688,72.3452776 896.427599,72.061591 L905.652847,60.8925164 L921.180074,84.4112478 C921.402847,84.7494418 921.777847,84.9563224 922.18255,84.9674716 L922.212252,84.9674716 C922.604579,84.9674716 922.975866,84.7791731 923.209777,84.4608 L931.977104,72.5100388 L943.108292,72.5100388 L945.524134,72.5100388 L954.074876,72.5100388 C954.443688,72.5100388 954.793936,72.3452776 955.029084,72.061591 L959.468441,66.6864119 L967.345916,78.618591 C967.568688,78.9555463 967.94245,79.1624269 968.347153,79.1735761 L968.378094,79.1735761 C968.770421,79.1735761 969.141708,78.9865164 969.375619,78.6681433 L973.892946,72.5100388 L991.163985,72.5100388 C991.848391,72.5100388 992.401609,71.9562925 992.401609,71.2712328 C992.401609,70.5861731 991.848391,70.0324269 991.163985,70.0324269" id="Fill-50"></path>
                <path d="M842.366337,29.7095403 C849.285891,29.7095403 852.719059,33.1435104 856.355198,36.779406 C860.186881,40.6122716 864.149752,44.5752119 872.094059,44.5752119 C880.226485,44.5752119 884.186881,37.9723761 888.018564,31.5863313 C891.653465,25.5236149 895.089109,19.7990925 901.819307,19.7990925 C908.55198,19.7990925 911.986386,25.5248537 915.622525,31.5863313 C919.454208,37.9723761 923.415842,44.5752119 931.548267,44.5752119 C939.493812,44.5752119 943.456683,40.6122716 947.288366,36.779406 C950.924505,33.1435104 954.358911,29.7095403 961.279703,29.7095403 C968.200495,29.7095403 971.634901,33.1435104 975.27104,36.779406 C979.102723,40.6122716 983.066832,44.5752119 991.011139,44.5752119 C991.695545,44.5752119 992.248762,44.0214657 992.248762,43.336406 C992.248762,42.6513463 991.695545,42.0976 991.011139,42.0976 C984.091584,42.0976 980.655941,38.6636299 977.02104,35.0277343 C973.188119,31.1948687 969.225248,27.2319284 961.279703,27.2319284 C953.334158,27.2319284 949.371287,31.1948687 945.538366,35.0277343 C941.903465,38.6636299 938.467822,42.0976 931.548267,42.0976 C924.816832,42.0976 921.382426,36.3730776 917.74505,30.3103612 C913.914604,23.9243164 909.951733,17.3214806 901.819307,17.3214806 C893.688119,17.3214806 889.727723,23.9243164 885.89604,30.3103612 C882.258663,36.3718388 878.825495,42.0976 872.094059,42.0976 C865.174505,42.0976 861.740099,38.6636299 858.105198,35.0277343 C854.272277,31.1948687 850.310644,27.2319284 842.366337,27.2319284 C841.681931,27.2319284 841.128713,27.7856746 841.128713,28.4707343 C841.128713,29.155794 841.681931,29.7095403 842.366337,29.7095403" id="Fill-51"></path>
            </g>
        </g>
    </g>
</svg>