<?xml version="1.0" encoding="UTF-8"?>
<svg width="345px" height="237px" viewBox="0 0 345 237" version="1.1" xmlns="http://www.w3.org/2000/svg" xmlns:xlink="http://www.w3.org/1999/xlink">
    <!-- Generator: Sketch 47.1 (45422) - http://www.bohemiancoding.com/sketch -->
    <title>system_recording-sm</title>
    <desc>Created with Sketch.</desc>
    <defs></defs>
    <g id="e4" stroke="none" stroke-width="1" fill="none" fill-rule="evenodd">
        <g id="E4-consumer-mobile" transform="translate(-15.000000, -3175.000000)" fill-rule="nonzero" fill="#5F5F5F">
            <g id="system_recording-sm" transform="translate(15.000000, 3175.000000)">
                <path d="M20.8724605,107.34623 C20.6244262,107.34623 20.3763919,107.34623 20.1208414,107.34623 L19.3692224,107.34623 C8.94747158,107.702178 0.682936894,116.253802 0.682936894,126.681629 C0.682936894,137.109457 8.94747158,145.661081 19.3692224,146.017029 L20.1208414,146.017029 L20.8724605,146.017029 C31.2942113,145.661081 39.558746,137.109457 39.558746,126.681629 C39.558746,116.253802 31.2942113,107.702178 20.8724605,107.34623 L20.8724605,107.34623 Z M20.8724605,144.513791 L20.1208414,144.513791 L19.3692224,144.513791 C9.83884751,144.076162 2.33711272,136.222047 2.33711272,126.681629 C2.33711272,117.141212 9.83884751,109.287097 19.3692224,108.849468 C19.6172567,108.849468 19.8728072,108.849468 20.1208414,108.849468 C20.3688757,108.849468 20.6244262,108.849468 20.8724605,108.849468 C30.4742245,109.190957 38.0816905,117.073795 38.0816905,126.681629 C38.0816905,136.289464 30.4742245,144.172302 20.8724605,144.513791 L20.8724605,144.513791 Z" id="Shape"></path>
                <path d="M8.84655599,125.12202 C9.12198975,125.122772 9.37577306,124.972809 9.50798073,124.731178 C10.6429255,122.664226 14.1529863,119.169197 20.1208414,119.161681 L20.1208414,119.161681 C26.0811803,119.161681 29.5912412,122.65671 30.7337021,124.716146 C30.867966,124.951107 31.1173814,125.096592 31.3879961,125.097797 C31.6586107,125.099002 31.9093118,124.955744 32.0456627,124.721987 C32.1820136,124.488231 32.1832993,124.199488 32.0490354,123.964527 C30.7487345,121.611959 26.7877022,117.628378 20.1208414,117.628378 L20.1208414,117.628378 C13.4539806,117.628378 9.48543216,121.619475 8.19264743,123.979559 C8.09587994,124.153965 8.07240097,124.359681 8.12738094,124.551406 C8.18236091,124.743131 8.311291,124.905142 8.48577885,125.001761 C8.5937408,125.072111 8.71797644,125.113523 8.84655599,125.12202 Z" id="Shape"></path>
                <path d="M15.7163539,128.895147 C15.966362,128.895524 16.2001933,128.771565 16.3401977,128.564435 C16.4529406,128.406595 17.4826586,127.008584 20.0982929,127.001068 L20.0982929,127.001068 C22.789089,127.001068 23.856388,128.504306 23.856388,128.549403 C24.0701685,128.914697 24.5396018,129.037524 24.9048965,128.823744 C25.2701913,128.609963 25.393018,128.14053 25.1792375,127.775235 C25.1792375,127.775235 23.7812261,125.520378 20.1283576,125.520378 L20.1283576,125.520378 C16.7836529,125.520378 15.3555768,127.376877 15.1075425,127.775235 C14.8730396,128.117706 14.9605278,128.585431 15.3029635,128.819986 C15.4308132,128.883829 15.5742138,128.909901 15.7163539,128.895147 Z" id="Shape"></path>
                <path d="M12.281455,127.023616 C12.5568887,127.024368 12.810672,126.874405 12.9428797,126.632774 C13.0180416,126.497483 14.9872835,123.107681 20.1208414,123.107681 C25.2543994,123.107681 27.2837708,126.602709 27.3063194,126.632774 C27.4405832,126.867736 27.6899986,127.013221 27.9606133,127.014426 C28.231228,127.015631 28.4819291,126.872373 28.61828,126.638616 C28.7546309,126.404859 28.7559165,126.116117 28.6216527,125.881155 C28.5239422,125.708283 26.1788908,121.574378 20.1208414,121.574378 C14.0627921,121.574378 11.7177407,125.708283 11.6275464,125.881155 C11.5307789,126.055561 11.5072999,126.261277 11.5622799,126.453002 C11.6172599,126.644727 11.74619,126.806738 11.9206778,126.903357 C12.0286398,126.973707 12.1528754,127.015119 12.281455,127.023616 Z" id="Shape"></path>
                <circle id="Oval" cx="20.1208414" cy="131.232683" r="1.5483352"></circle>
                <path d="M196.367988,170.993329 L195.616369,170.993329 L194.86475,170.993329 C184.442999,171.349278 176.178464,179.900901 176.178464,190.328729 C176.178464,200.756557 184.442999,209.30818 194.86475,209.664128 C195.112784,209.664128 195.360818,209.664128 195.616369,209.664128 L196.367988,209.664128 C206.789739,209.30818 215.054273,200.756557 215.054273,190.328729 C215.054273,179.900901 206.789739,171.349278 196.367988,170.993329 L196.367988,170.993329 Z M196.367988,208.16089 L195.616369,208.16089 C195.360818,208.16089 195.112784,208.16089 194.86475,208.16089 C185.262986,207.819401 177.65552,199.936564 177.65552,190.328729 C177.65552,180.720894 185.262986,172.838057 194.86475,172.496567 L195.616369,172.496567 L196.367988,172.496567 C205.898363,172.934197 213.400098,180.788311 213.400098,190.328729 C213.400098,199.869146 205.898363,207.723261 196.367988,208.16089 Z" id="Shape"></path>
                <path d="M184.342083,188.776636 C184.614822,188.774649 184.865081,188.625069 184.995992,188.385794 C186.130937,186.318841 189.640998,182.816297 195.608853,182.816297 L195.608853,182.816297 C201.569192,182.816297 205.079252,186.303809 206.214197,188.370761 C206.421751,188.733981 206.884454,188.860172 207.247673,188.652618 C207.610892,188.445065 207.737084,187.982362 207.52953,187.619142 C206.236746,185.266575 202.268197,181.29051 195.608853,181.29051 L195.608853,181.29051 C188.941992,181.29051 184.973443,185.281607 183.680659,187.634175 C183.584483,187.809494 183.562135,188.015912 183.618559,188.207753 C183.674982,188.399595 183.805527,188.561044 183.981306,188.656377 C184.087779,188.729761 184.212874,188.77146 184.342083,188.776636 L184.342083,188.776636 Z" id="Shape"></path>
                <path d="M191.211881,192.542247 C191.460483,192.544318 191.694026,192.423326 191.835725,192.219051 C191.940952,192.053695 192.97067,190.655683 195.59382,190.655683 L195.59382,190.655683 C198.284616,190.655683 199.351915,192.158921 199.351915,192.204018 C199.580908,192.542375 200.038243,192.635845 200.381633,192.414472 C200.721554,192.195904 200.827801,191.747674 200.622152,191.399786 C200.622152,191.399786 199.231656,189.144929 195.578788,189.144929 L195.578788,189.144929 C192.226567,189.144929 190.806007,190.993912 190.550457,191.399786 C190.438576,191.565163 190.397095,191.768261 190.435168,191.964265 C190.47324,192.160269 190.587737,192.333069 190.753394,192.444536 C190.891898,192.525152 191.052543,192.559388 191.211881,192.542247 Z" id="Shape"></path>
                <path d="M187.769466,190.655683 C188.0449,190.656435 188.298683,190.506472 188.430891,190.264841 C188.513569,190.122034 190.475295,186.732232 195.616369,186.732232 C200.757443,186.732232 202.771782,190.22726 202.794331,190.264841 C202.89095,190.439329 203.05296,190.568259 203.244685,190.623239 C203.436411,190.678219 203.642127,190.65474 203.816532,190.557973 C204.175462,190.356959 204.306103,189.904741 204.109664,189.543287 C204.011953,189.362898 201.674418,185.228994 195.616369,185.228994 C189.558319,185.228994 187.213268,189.362898 187.115558,189.543287 C186.919118,189.904741 187.049759,190.356959 187.408689,190.557973 C187.518802,190.620402 187.642898,190.654012 187.769466,190.655683 Z" id="Shape"></path>
                <circle id="Oval" cx="195.616369" cy="194.887298" r="1.5483352"></circle>
                <path d="M129.278473,208.040631 L67.2323222,208.040631 C56.5432983,208.040631 47.8781322,199.375465 47.8781322,188.686441 C47.8781322,177.997417 56.5432983,169.332251 67.2323222,169.332251 L67.2323222,169.332251 C70.500697,154.830138 83.3820288,144.528814 98.2478815,144.528814 C113.113734,144.528814 125.995066,154.830138 129.263441,169.332251 L129.263441,169.332251 C139.952465,169.332251 148.617631,177.997417 148.617631,188.686441 C148.617631,199.375465 139.952465,208.040631 129.263441,208.040631 L129.278473,208.040631 Z M67.2097737,170.835489 C57.3509651,170.835489 49.3588217,178.827633 49.3588217,188.686441 C49.3588217,198.54525 57.3509651,206.537393 67.2097737,206.537393 L129.278473,206.537393 C139.137282,206.537393 147.129425,198.54525 147.129425,188.686441 C147.129425,178.827633 139.137282,170.835489 129.278473,170.835489 L128.970309,170.835489 L128.684694,170.835489 C128.321842,170.842807 128.005587,170.589803 127.933075,170.234194 C125.075343,156.10647 112.657979,145.949379 98.2441234,145.949379 C83.8302678,145.949379 71.4129042,156.10647 68.5551717,170.234194 C68.4826603,170.589803 68.1664049,170.842807 67.8035527,170.835489 L67.5104213,170.835489 L67.2097737,170.835489 Z" id="Shape"></path>
                <path d="M111.630458,195.826822 L84.5721733,195.826822 C83.3268501,195.826822 82.3173162,194.817288 82.3173162,193.571965 L82.3173162,177.787965 C82.3173162,176.542642 83.3268501,175.533108 84.5721733,175.533108 L111.630458,175.533108 C112.875782,175.533108 113.885315,176.542642 113.885315,177.787965 L113.885315,193.571965 C113.885315,194.16999 113.647751,194.743522 113.224883,195.16639 C112.802015,195.589258 112.228484,195.826822 111.630458,195.826822 L111.630458,195.826822 Z M84.5721733,177.036346 C84.1570655,177.036346 83.8205542,177.372858 83.8205542,177.787965 L83.8205542,193.571965 C83.8205542,193.987073 84.1570655,194.323584 84.5721733,194.323584 L111.630458,194.323584 C112.045566,194.323584 112.382077,193.987073 112.382077,193.571965 L112.382077,177.787965 C112.382077,177.372858 112.045566,177.036346 111.630458,177.036346 L84.5721733,177.036346 Z" id="Shape"></path>
                <path d="M109.375601,177.036346 L86.8270304,177.036346 C86.4119226,177.036346 86.0754113,176.699835 86.0754113,176.284727 L86.0754113,168.768537 C86.0754113,162.126813 91.4595922,156.742633 98.1013158,156.742633 C104.743039,156.742633 110.12722,162.126813 110.12722,168.768537 L110.12722,176.284727 C110.12722,176.699835 109.790709,177.036346 109.375601,177.036346 Z M87.5786494,175.533108 L108.623982,175.533108 L108.623982,168.768537 C108.623982,162.957029 103.912824,158.245871 98.1013158,158.245871 C92.2898076,158.245871 87.5786494,162.957029 87.5786494,168.768537 L87.5786494,175.533108 Z" id="Shape"></path>
                <circle id="Oval" cx="98.1013158" cy="186.010678" r="1.5483352"></circle>
                <path d="M294.506885,203.455755 C293.651763,203.455755 292.958549,204.148969 292.958549,205.00409 C292.958549,205.859212 293.651763,206.552426 294.506885,206.552426 C295.362007,206.552426 296.05522,205.859212 296.05522,205.00409 C296.05522,204.593446 295.892092,204.199621 295.601723,203.909252 C295.311354,203.618883 294.917529,203.455755 294.506885,203.455755 L294.506885,203.455755 Z" id="Shape"></path>
                <path d="M339.649124,136.043044 L249.364646,136.043044 C246.458892,136.043044 244.103312,138.398624 244.103312,141.304378 L244.103312,206.695233 C244.103312,209.600987 246.458892,211.956567 249.364646,211.956567 L281.338519,211.956567 L281.338519,235.256756 L269.680908,235.256756 C269.2658,235.256756 268.929289,235.593268 268.929289,236.008375 C268.929289,236.423483 269.2658,236.759995 269.680908,236.759995 L319.332861,236.759995 C319.747969,236.759995 320.08448,236.423483 320.08448,236.008375 C320.08448,235.593268 319.747969,235.256756 319.332861,235.256756 L307.67525,235.256756 L307.67525,211.956567 L339.649124,211.956567 C342.554878,211.956567 344.910457,209.600987 344.910457,206.695233 L344.910457,141.304378 C344.910457,139.908985 344.356139,138.570745 343.369448,137.584053 C342.382757,136.597362 341.044516,136.043044 339.649124,136.043044 L339.649124,136.043044 Z M249.364646,137.546283 L339.649124,137.546283 C341.724662,137.546283 343.407219,139.228839 343.407219,141.304378 L343.407219,198.051614 L245.60655,198.051614 L245.60655,141.304378 C245.60655,139.228839 247.289107,137.546283 249.364646,137.546283 Z M306.172012,235.256756 L282.871822,235.256756 L282.871822,211.956567 L306.172012,211.956567 L306.172012,235.256756 Z M339.649124,210.453328 L249.364646,210.453328 C247.289107,210.453328 245.60655,208.770772 245.60655,206.695233 L245.60655,199.554853 L343.407219,199.554853 L343.407219,206.695233 C343.407219,208.770772 341.724662,210.453328 339.649124,210.453328 Z" id="Shape"></path>
                <path d="M339.731802,178.532068 L328.86339,178.532068 C328.625483,178.533834 328.402458,178.648134 328.262095,178.840232 L325.932076,182.012064 L321.181844,174.826586 C321.051114,174.627256 320.83358,174.501755 320.595581,174.488358 C320.355089,174.475764 320.123125,174.579169 319.971737,174.766457 L316.860035,178.524552 L303.406054,178.524552 C303.168146,178.526318 302.945122,178.640618 302.804759,178.832716 L297.88917,185.522125 L288.493932,171.301493 C288.361695,171.104792 288.144424,170.98199 287.907701,170.970154 C287.670978,170.958318 287.44254,171.058835 287.291342,171.241364 L281.27839,178.524552 L268.741384,178.524552 C268.503476,178.526318 268.280452,178.640618 268.140089,178.832716 L265.81007,182.004548 L261.059838,174.81907 C260.929108,174.61974 260.711574,174.494239 260.473575,174.480842 C260.23568,174.470682 260.007041,174.573848 259.857247,174.758941 L256.738028,178.517036 L249.484905,178.517036 C249.069797,178.517036 248.733286,178.853547 248.733286,179.268655 C248.733286,179.683763 249.069797,180.020274 249.484905,180.020274 L257.091289,180.020274 C257.314845,180.020637 257.52696,179.921466 257.670036,179.749691 L260.368348,176.487664 L265.148645,183.725756 C265.283953,183.931391 265.511378,184.057738 265.757457,184.063984 L265.757457,184.063984 C265.995365,184.062218 266.218389,183.947918 266.358752,183.75582 L269.102161,179.997725 L281.601586,179.997725 C281.825142,179.998088 282.037257,179.898918 282.180333,179.727142 L287.779894,172.962571 L297.212713,187.243333 C297.348021,187.448968 297.575446,187.575315 297.821525,187.581561 L297.821525,187.581561 C298.062083,187.582185 298.288407,187.467627 298.430336,187.273398 L303.751799,180.020274 L317.183231,180.020274 C317.406786,180.020637 317.618902,179.921466 317.761977,179.749691 L320.452774,176.487664 L325.240587,183.725756 C325.375894,183.931391 325.603319,184.057738 325.849398,184.063984 L325.849398,184.063984 C326.089957,184.064608 326.31628,183.95005 326.45821,183.75582 L329.201619,179.997725 L339.731802,179.997725 C340.146909,179.997725 340.483421,179.661214 340.483421,179.246106 C340.483421,178.830999 340.146909,178.494487 339.731802,178.494487 L339.731802,178.532068 Z" id="Shape"></path>
                <path d="M249.372162,154.081901 C253.573712,154.081901 255.655697,156.163886 257.865457,158.373646 C260.18796,160.696149 262.600657,163.10133 267.418535,163.10133 C272.364188,163.10133 274.769369,159.0952 277.091872,155.224362 C279.301632,151.541429 281.383616,148.068949 285.472424,148.068949 C289.561231,148.068949 291.628184,151.526396 293.883041,155.20933 C296.205544,159.080168 298.610725,163.086297 303.548862,163.086297 C308.486999,163.086297 310.786953,160.681116 313.109456,158.358613 C315.319216,156.148854 317.408716,154.066869 321.610267,154.066869 C325.811817,154.066869 327.893802,156.148854 330.103562,158.358613 C332.433581,160.681116 334.838762,163.086297 339.664156,163.086297 C340.079264,163.086297 340.415775,162.749786 340.415775,162.334678 C340.415775,161.91957 340.079264,161.583059 339.664156,161.583059 C335.462606,161.583059 333.373105,159.501074 331.170861,157.298831 C328.840842,154.968812 326.435661,152.563631 321.610267,152.563631 C316.784873,152.563631 314.379692,154.968812 312.049673,157.298831 C309.839913,159.501074 307.757928,161.583059 303.548862,161.583059 C299.46757,161.583059 297.378069,158.110579 295.168309,154.435162 C292.845807,150.556808 290.433109,146.550679 285.494972,146.550679 C280.556835,146.550679 278.099041,150.556808 275.844184,154.435162 C273.634424,158.110579 271.544923,161.583059 267.456116,161.583059 C263.254565,161.583059 261.172581,159.501074 258.962821,157.298831 C256.640318,154.968812 254.227621,152.563631 249.409743,152.563631 C248.994635,152.563631 248.658124,152.900142 248.658124,153.31525 C248.658124,153.730358 248.994635,154.066869 249.409743,154.066869 L249.372162,154.081901 Z" id="Shape"></path>
                <path d="M299.36986,49.3888865 C298.954752,49.3888865 298.618241,49.0523752 298.618241,48.6372674 L298.618241,27.2762546 C298.618241,26.8611469 298.954752,26.5246356 299.36986,26.5246356 C299.784967,26.5246356 300.121479,26.8611469 300.121479,27.2762546 L300.121479,48.6372674 C300.121479,49.0523752 299.784967,49.3888865 299.36986,49.3888865 Z" id="Shape"></path>
                <path d="M336.477291,76.3043639 C336.333631,76.3016105 336.193389,76.2600573 336.071417,76.1841049 C335.723242,75.9595889 335.622391,75.4956725 335.845931,75.1468706 L341.107264,66.8790613 C341.607411,66.0658067 341.867932,65.1279304 341.858883,64.1732328 L341.858883,36.5437172 C341.867932,35.5890196 341.607411,34.6511433 341.107264,33.8378887 L335.845931,25.5700794 C335.622391,25.2212776 335.723242,24.7573612 336.071417,24.5328451 C336.420612,24.3158016 336.879397,24.4196144 337.101135,24.765847 L342.362468,33.0336564 C343.036337,34.0829885 343.393817,35.3041591 343.392186,36.5512334 L343.392186,64.1732328 C343.393817,65.4203072 343.036337,66.6414778 342.362468,67.6908099 L337.101135,75.9586192 C336.964593,76.1714773 336.730162,76.3014029 336.477291,76.3043639 Z" id="Shape"></path>
                <path d="M299.36986,76.3043639 C299.112849,76.3023032 298.874711,76.1690593 298.7385,75.951103 L293.477167,67.6832937 C292.803298,66.6339616 292.445818,65.412791 292.447448,64.1657166 L292.447448,36.5437172 C292.445818,35.2966429 292.803298,34.0754723 293.477167,33.0261402 L298.7385,24.7583309 C298.960238,24.4120982 299.419023,24.3082854 299.768218,24.525329 C300.116392,24.749845 300.217244,25.2137614 299.993704,25.5625632 L294.73237,33.8303725 C294.219015,34.6396705 293.945388,35.5778214 293.94317,36.5362011 L293.94317,64.1732328 C293.945388,65.1316124 294.219015,66.0697634 294.73237,66.8790613 L299.993704,75.1468706 C300.217244,75.4956725 300.116392,75.9595889 299.768218,76.1841049 C299.649395,76.2608817 299.511317,76.3025657 299.36986,76.3043639 L299.36986,76.3043639 Z" id="Shape"></path>
                <path d="M336.477291,76.3043639 C336.062184,76.3043639 335.725672,75.9678526 335.725672,75.5527449 L335.725672,25.1942699 C335.725672,24.7791622 336.062184,24.4426509 336.477291,24.4426509 C336.892399,24.4426509 337.22891,24.7791622 337.22891,25.1942699 L337.22891,75.5527449 C337.22891,75.9678526 336.892399,76.3043639 336.477291,76.3043639 Z" id="Shape"></path>
                <path d="M299.36986,76.3043639 C298.954752,76.3043639 298.618241,75.9678526 298.618241,75.5527449 L298.618241,25.1942699 C298.618241,24.7791622 298.954752,24.4426509 299.36986,24.4426509 C299.784967,24.4426509 300.121479,24.7791622 300.121479,25.1942699 L300.121479,75.5527449 C300.121479,75.9678526 299.784967,76.3043639 299.36986,76.3043639 Z" id="Shape"></path>
                <path d="M331.524122,88.315236 L304.315513,88.315236 C301.166566,88.3069493 298.61823,85.751889 298.618241,82.6029314 L298.618241,75.5527449 C298.618241,75.1376372 298.954752,74.8011259 299.36986,74.8011259 C299.784967,74.8011259 300.121479,75.1376372 300.121479,75.5527449 L300.121479,82.6029314 C300.121475,84.9246026 302.001362,86.8078521 304.323029,86.811998 L331.531638,86.811998 C333.853306,86.8078521 335.733192,84.9246026 335.733188,82.6029314 L335.733188,75.5527449 C335.733188,75.1376372 336.0697,74.8011259 336.484807,74.8011259 C336.899915,74.8011259 337.236426,75.1376372 337.236426,75.5527449 L337.236426,82.6029314 C337.236426,85.7577502 334.678941,88.315236 331.524122,88.315236 L331.524122,88.315236 Z" id="Shape"></path>
                <path d="M336.477291,25.9158242 C336.062184,25.9158242 335.725672,25.5793129 335.725672,25.1642051 L335.725672,18.1140186 C335.725676,15.7923474 333.845789,13.9090979 331.524122,13.9049521 L304.315513,13.9049521 C301.993845,13.9090979 300.113959,15.7923474 300.113963,18.1140186 L300.113963,25.1642051 C300.113963,25.5793129 299.777451,25.9158242 299.362344,25.9158242 C298.947236,25.9158242 298.610725,25.5793129 298.610725,25.1642051 L298.610725,18.1140186 C298.610714,14.9650611 301.15905,12.4100007 304.307997,12.401714 L331.516606,12.401714 C334.665552,12.4100007 337.213889,14.9650611 337.213878,18.1140186 L337.213878,25.1642051 C337.21396,25.5735125 336.886517,25.907638 336.477291,25.9158242 Z" id="Shape"></path>
                <path d="M304.247867,45.8487608 C302.395444,45.8405511 300.578918,45.3371138 298.986534,44.3906199 C298.813854,44.2901826 298.68826,44.1251352 298.637491,43.9319293 C298.586721,43.7387233 298.614953,43.5332546 298.715951,43.3609019 C298.816388,43.1882218 298.981436,43.062628 299.174642,43.0118586 C299.367848,42.9610891 299.573316,42.989321 299.745669,43.090319 C301.108488,43.9070957 302.666555,44.3407576 304.255383,44.3455228 C309.236676,44.3455227 313.274812,40.3073871 313.274812,35.3260944 C313.274812,30.3448018 309.236676,26.3066662 304.255383,26.3066661 C302.666555,26.3114313 301.108488,26.7450931 299.745669,27.5618698 C299.573316,27.6628679 299.367848,27.6910997 299.174642,27.6403303 C298.981436,27.5895608 298.816388,27.4639671 298.715951,27.291287 C298.614953,27.1189342 298.586721,26.9134655 298.637491,26.7202596 C298.68826,26.5270536 298.813854,26.3620062 298.986534,26.2615689 C300.577459,25.3116615 302.394938,24.8079604 304.247867,24.803428 C310.059375,24.803428 314.770534,29.5145862 314.770534,35.3260944 C314.770534,41.1376026 310.059375,45.8487608 304.247867,45.8487608 L304.247867,45.8487608 Z" id="Shape"></path>
                <circle id="Oval" cx="319.949189" cy="36.1228106" r="1.5483352"></circle>
                <circle id="Oval" cx="319.949189" cy="36.1228106" r="1.5483352"></circle>
                <path d="M220.464894,69.712665 C212.632102,69.7339582 205.558731,65.0319854 202.546485,57.8015318 C199.53424,50.5710782 201.17709,42.2378812 206.708187,36.6917071 C212.239284,31.1455331 220.567979,29.4800047 227.806605,32.4725566 C235.045232,35.4651085 239.766442,42.5256542 239.766471,50.358475 C239.770645,61.0286949 231.135086,69.6877936 220.464894,69.712665 L220.464894,69.712665 Z M220.464894,32.5075231 C213.240108,32.4862289 206.714873,36.8219467 203.9353,43.4906764 C201.155727,50.1594061 202.669964,57.8460324 207.771136,62.9622839 C212.872308,68.0785353 220.554431,69.615455 227.231336,66.855578 C233.908242,64.0957009 238.263201,57.5832922 238.263233,50.358475 C238.263275,40.5201768 230.303149,32.5365201 220.464894,32.5075231 Z" id="Shape"></path>
                <ellipse id="Oval" cx="220.284505" cy="60.5504291" rx="1.36794663" ry="1.37546283"></ellipse>
                <ellipse id="Oval" cx="225.793873" cy="43.9621971" rx="1.36794663" ry="1.37546283"></ellipse>
                <ellipse id="Oval" cx="215.128399" cy="45.3301437" rx="1.36794663" ry="1.37546283"></ellipse>
                <path d="M220.276989,61.3020481 C219.861881,61.3020481 219.52537,60.9655368 219.52537,60.5504291 L219.52537,41.9027609 C219.52537,41.4876532 219.861881,41.1511419 220.276989,41.1511419 C220.692097,41.1511419 221.028608,41.4876532 221.028608,41.9027609 L221.028608,60.5504291 C221.028608,60.9655368 220.692097,61.3020481 220.276989,61.3020481 Z" id="Shape"></path>
                <path d="M220.276989,58.1527644 C220.07981,58.1519341 219.890853,58.0736521 219.750856,57.9347948 L214.963043,53.1544978 C214.566538,52.7560302 214.349429,52.2132567 214.361747,51.6512598 L214.361747,46.2020218 C214.361747,45.7869141 214.698259,45.4504028 215.113366,45.4504028 C215.528474,45.4504028 215.864985,45.7869141 215.864985,46.2020218 L215.864985,51.6813245 C215.865178,51.8352034 215.924358,51.9831528 216.030342,52.094715 L220.795606,56.875012 C221.087027,57.1681716 221.087027,57.6416353 220.795606,57.9347948 C220.657467,58.0718456 220.471559,58.1499808 220.276989,58.1527644 Z" id="Shape"></path>
                <path d="M220.389732,55.3041282 C220.085744,55.3028537 219.812454,55.1185932 219.69729,54.8372619 C219.582125,54.5559306 219.647763,54.2329276 219.863599,54.0188597 L224.876898,48.9830122 C224.988768,48.8778651 225.051468,48.7306569 225.04977,48.5771379 L225.04977,44.6236218 C225.04977,44.2085141 225.386281,43.8720028 225.801389,43.8720028 C226.216497,43.8720028 226.553008,44.2085141 226.553008,44.6236218 L226.553008,48.5771379 C226.56247,49.1400722 226.342716,49.682674 225.944197,50.080376 L220.930898,55.1162235 C220.782387,55.2478411 220.587853,55.3153877 220.389732,55.3041282 L220.389732,55.3041282 Z" id="Shape"></path>
                <path d="M220.111633,38.0394391 C220.146574,37.9790977 220.211019,37.9419452 220.280747,37.9419452 C220.350475,37.9419452 220.41492,37.9790977 220.449862,38.0394391 L221.47958,39.8358086 L222.479233,41.6171457 C222.515034,41.6759004 222.51586,41.7495233 222.481388,41.809067 C222.446915,41.8686106 222.382656,41.9045526 222.313877,41.9027609 L218.202521,41.9027609 C218.133741,41.9045526 218.069482,41.8686106 218.03501,41.809067 C218.000537,41.7495233 218.001364,41.6759004 218.037164,41.6171457 L219.089431,39.8358086 L220.111633,38.0394391 Z" id="Shape"></path>
                <circle id="Oval" cx="98.266672" cy="68.961046" r="1.5483352"></circle>
                <path d="M48.0434884,70.6521888 L48.0434884,5.26133321 C48.0434884,2.35557911 50.3990675,5.33778368e-16 53.3048216,0 L143.27362,0 C146.179374,1.77926123e-16 148.534953,2.35557911 148.534953,5.26133321 L148.534953,70.6521888 C148.534953,73.5579429 146.179374,75.913522 143.27362,75.913522 L53.282273,75.913522 C50.3853286,75.9011065 48.0434618,73.5491599 48.0434884,70.6521888 L48.0434884,70.6521888 Z M53.3048216,1.50323806 C51.229283,1.50323806 49.5467265,3.18579457 49.5467265,5.26133321 L49.5467265,70.6521888 C49.5467265,72.7277275 51.229283,74.410284 53.3048216,74.410284 L143.27362,74.410284 C144.270328,74.410284 145.226215,74.014343 145.930994,73.3095634 C146.635774,72.6047838 147.031715,71.6488976 147.031715,70.6521888 L147.031715,5.26133321 C147.031715,3.18579457 145.349158,1.50323806 143.27362,1.50323806 L53.3048216,1.50323806 Z" id="Shape"></path>
                <path d="M85.1509199,99.965331 L85.1509199,75.161903 C85.1509199,74.7467953 85.4874312,74.410284 85.902539,74.410284 L110.638321,74.410284 C111.053429,74.410284 111.38994,74.7467953 111.38994,75.161903 L111.38994,99.965331 C111.38994,100.380439 111.053429,100.71695 110.638321,100.71695 L85.902539,100.71695 C85.4874312,100.71695 85.1509199,100.380439 85.1509199,99.965331 Z M109.886702,75.913522 L86.6466418,75.913522 L86.6466418,99.213712 L109.886702,99.213712 L109.886702,75.913522 Z" id="Shape"></path>
                <path d="M123.00997,99.965331 L73.5308897,99.965331" id="Shape"></path>
                <path d="M73.5308897,100.71695 L123.00997,100.71695 C123.425078,100.71695 123.76159,100.380439 123.76159,99.965331 C123.76159,99.5502233 123.425078,99.213712 123.00997,99.213712 L73.5308897,99.213712 C73.115782,99.213712 72.7792707,99.5502233 72.7792707,99.965331 C72.7792707,100.380439 73.115782,100.71695 73.5308897,100.71695 Z" id="Shape"></path>
                <path d="M48.7951074,62.760189 L147.745753,62.760189" id="Shape"></path>
                <path d="M48.7951074,63.5118081 L147.745753,63.5118081 C148.16086,63.5118081 148.497372,63.1752967 148.497372,62.760189 C148.497372,62.3450813 148.16086,62.00857 147.745753,62.00857 L48.7951074,62.00857 C48.3799997,62.00857 48.0434884,62.3450813 48.0434884,62.760189 C48.0434884,63.1752967 48.3799997,63.5118081 48.7951074,63.5118081 Z" id="Shape"></path>
                <path d="M112.600047,48.855237 L84.1813314,48.855237 C83.3511159,48.855237 82.6780933,48.1822144 82.6780933,47.3519989 L82.6780933,23.6759995 C82.676097,22.9802958 82.9505512,22.3122937 83.4410784,21.8189474 C83.9316056,21.3256011 84.5980239,21.0473234 85.2937275,21.0453328 L92.8099178,21.0453328 C94.2598588,21.0494756 95.4330742,22.2260526 95.4330683,23.6759995 C95.4330545,24.2957376 95.9332563,24.7992964 96.5529806,24.803428 L111.532748,24.803428 C112.982689,24.8075707 114.155904,25.9841478 114.155898,27.4340946 L114.155898,47.3519989 C114.156148,47.759968 113.99057,48.1505173 113.697174,48.4339916 C113.403778,48.7174658 113.007766,48.869516 112.600047,48.855237 Z M85.2636628,22.5485709 C84.6586802,22.5727894 84.1808468,23.0705325 84.1813314,23.6759995 L84.1813314,47.3519989 L112.637628,47.3519989 L112.637628,27.4340946 C112.637642,26.8143565 112.13744,26.3107976 111.517716,26.3066661 L96.5003673,26.3066661 C95.0504264,26.3025234 93.877211,25.1259463 93.8772169,23.6759995 C93.8772306,23.0562613 93.3770289,22.5527025 92.7573045,22.5485709 L85.2636628,22.5485709 Z" id="Shape"></path>
                <path d="M114.103285,29.3131422 L112.600047,29.3131422 L112.600047,18.7904758 L87.8868132,18.7904758 L87.8868132,21.7969519 L86.3835751,21.7969519 L86.3835751,18.7904758 C86.3835751,17.9602603 87.0565977,17.2872377 87.8868132,17.2872377 L112.600047,17.2872377 C113.430262,17.2872377 114.103285,17.9602603 114.103285,18.7904758 L114.103285,29.3131422 Z" id="Shape"></path>
                <path d="M109.608603,22.5485709 L98.3343177,22.5485709 C97.91921,22.5485709 97.5826987,22.2120596 97.5826987,21.7969519 C97.5826987,21.3818441 97.91921,21.0453328 98.3343177,21.0453328 L109.608603,21.0453328 C110.023711,21.0453328 110.360222,21.3818441 110.360222,21.7969519 C110.360222,22.2120596 110.023711,22.5485709 109.608603,22.5485709 Z" id="Shape"></path>
                <rect id="Rectangle-path" x="147.167006" y="189.580868" width="29.8242431" height="1.50323806"></rect>
                <rect id="Rectangle-path" x="214.985591" y="189.580868" width="29.8242431" height="1.50323806"></rect>
                <path d="M20.8799767,108.849468 L19.3767386,108.849468 L19.3767386,58.7465434 C19.3767386,54.1803584 23.0783629,50.4787341 27.6445479,50.4787341 L48.7951074,50.4787341 L48.7951074,51.9819721 L27.6445479,51.9819721 C23.9085784,51.9819721 20.8799767,55.0105738 20.8799767,58.7465434 L20.8799767,108.849468 Z" id="Shape"></path>
                <path d="M48.7951074,191.084106 L27.6445479,191.084106 C23.0783629,191.084106 19.3767386,187.382482 19.3767386,182.816297 L19.3767386,145.370637 L20.8799767,145.370637 L20.8799767,182.816297 C20.8799767,186.552266 23.9085784,189.580868 27.6445479,189.580868 L48.7951074,189.580868 L48.7951074,191.084106 Z" id="Shape"></path>
                <rect id="Rectangle-path" x="146.994134" y="51.0499645" width="55.6649054" height="1.50323806"></rect>
                <rect id="Rectangle-path" x="238.270749" y="51.0499645" width="55.6649054" height="1.50323806"></rect>
            </g>
        </g>
    </g>
</svg>