<?xml version="1.0" encoding="UTF-8"?>
<svg width="345px" height="237px" viewBox="0 0 345 237" version="1.1" xmlns="http://www.w3.org/2000/svg" xmlns:xlink="http://www.w3.org/1999/xlink">
    <!-- Generator: Sketch 47.1 (45422) - http://www.bohemiancoding.com/sketch -->
    <title>system_streaming-sm</title>
    <desc>Created with Sketch.</desc>
    <defs></defs>
    <g id="e4" stroke="none" stroke-width="1" fill="none" fill-rule="evenodd">
        <g id="E4-consumer-mobile" transform="translate(-15.000000, -5236.000000)" fill-rule="nonzero" fill="#5F5F5F">
            <g id="Group-4" transform="translate(15.000000, 4890.000000)">
                <g id="system_streaming-sm" transform="translate(0.000000, 346.000000)">
                    <path d="M8.02237991,48.9649524 C7.60635756,48.9649524 7.2691048,48.6281 7.2691048,48.2125714 L7.2691048,26.8299048 C7.2691048,26.4143762 7.60635756,26.0775238 8.02237991,26.0775238 C8.43840227,26.0775238 8.77565502,26.4143762 8.77565502,26.8299048 L8.77565502,48.2125714 C8.77565502,48.6281 8.43840227,48.9649524 8.02237991,48.9649524 Z" id="Shape"></path>
                    <path d="M45.1965066,75.9001905 C45.0521703,75.8998169 44.9109803,75.8580324 44.789738,75.7798095 C44.4407963,75.5550659 44.3397227,75.0906792 44.5637555,74.7415238 L49.8366812,66.4653333 C50.3416003,65.6500867 50.602938,64.7077773 50.5899563,63.7492381 L50.5899563,36.1142857 C50.6040266,35.1579701 50.3425506,34.2177737 49.8366812,33.4057143 L44.5637555,25.1295238 C44.3397227,24.7803684 44.4407963,24.3159817 44.789738,24.0912381 C45.1393084,23.8674712 45.6042469,23.9684249 45.8292576,24.3169524 L51.1021834,32.5931429 C51.7850576,33.6417239 52.1535758,34.8634388 52.1643013,36.1142857 L52.1643013,63.7567619 C52.1635798,65.0071175 51.8055603,66.2312915 51.1323144,67.2854286 L45.8593886,75.561619 C45.7136125,75.7832785 45.4617664,75.9119106 45.1965066,75.9001905 L45.1965066,75.9001905 Z" id="Shape"></path>
                    <path d="M8.02237991,75.9001905 C7.76627234,75.8997643 7.52792675,75.7693967 7.38962882,75.5540952 L2.11670306,67.2779048 C1.44572413,66.2231385 1.09030122,64.9989071 1.09224891,63.7492381 L1.09224891,36.1142857 C1.09131759,34.8671158 1.44671667,33.6455766 2.11670306,32.5931429 L7.38962882,24.3169524 C7.61463952,23.9684249 8.0795781,23.8674712 8.42914847,24.0912381 C8.77809018,24.3159817 8.87916379,24.7803684 8.655131,25.1295238 L3.38220524,33.4057143 C2.87633587,34.2177737 2.61485983,35.1579701 2.62893013,36.1142857 L2.62893013,63.7567619 C2.61594846,64.7153011 2.8772862,65.6576105 3.38220524,66.4728571 L8.655131,74.7490476 C8.87916379,75.098203 8.77809018,75.5625897 8.42914847,75.7873333 C8.30710069,75.8629094 8.16596771,75.9020664 8.02237991,75.9001905 Z" id="Shape"></path>
                    <path d="M45.1965066,75.9001905 C44.7804842,75.9001905 44.4432314,75.563338 44.4432314,75.1478095 L44.4432314,24.7382857 C44.4432314,24.3227572 44.7804842,23.9859048 45.1965066,23.9859048 C45.6125289,23.9859048 45.9497817,24.3227572 45.9497817,24.7382857 L45.9497817,75.1478095 C45.9497817,75.563338 45.6125289,75.9001905 45.1965066,75.9001905 Z" id="Shape"></path>
                    <path d="M8.02237991,75.9001905 C7.60635756,75.9001905 7.2691048,75.563338 7.2691048,75.1478095 L7.2691048,24.7382857 C7.2691048,24.3227572 7.60635756,23.9859048 8.02237991,23.9859048 C8.43840227,23.9859048 8.77565502,24.3227572 8.77565502,24.7382857 L8.77565502,75.1478095 C8.77565502,75.563338 8.43840227,75.9001905 8.02237991,75.9001905 Z" id="Shape"></path>
                    <path d="M40.2550218,87.9307619 L12.9789301,87.9307619 C9.82304527,87.9224668 7.26909388,85.3648163 7.2691048,82.2126667 L7.2691048,75.1478095 C7.2691048,74.732281 7.60635756,74.3954286 8.02237991,74.3954286 C8.43840227,74.3954286 8.77565502,74.732281 8.77565502,75.1478095 L8.77565502,82.2126667 C8.77365542,83.3281172 9.21537628,84.3986751 10.0036437,85.1888287 C10.791911,85.9789824 11.8621539,86.4240063 12.9789301,86.426 L40.2550218,86.426 C41.3717981,86.4240063 42.4420409,85.9789824 43.2303083,85.1888287 C44.0185757,84.3986751 44.4602965,83.3281172 44.4582969,82.2126667 L44.4582969,75.1478095 C44.4582969,74.732281 44.7955497,74.3954286 45.2115721,74.3954286 C45.6275944,74.3954286 45.9648472,74.732281 45.9648472,75.1478095 L45.9648472,82.2126667 C45.9648581,85.3648163 43.4109067,87.9224668 40.2550218,87.9307619 L40.2550218,87.9307619 Z" id="Shape"></path>
                    <path d="M45.1965066,25.4680952 C44.7804842,25.4680952 44.4432314,25.1312428 44.4432314,24.7157143 L44.4432314,17.658381 C44.445231,16.5429304 44.0035102,15.4723725 43.2152428,14.6822189 C42.4269754,13.8920652 41.3567326,13.4470413 40.2399563,13.4450476 L12.9789301,13.4450476 C11.8621539,13.4470413 10.791911,13.8920652 10.0036437,14.6822189 C9.21537628,15.4723725 8.77365542,16.5429304 8.77565502,17.658381 L8.77565502,24.7157143 C8.77565502,25.1312428 8.43840227,25.4680952 8.02237991,25.4680952 C7.60635756,25.4680952 7.2691048,25.1312428 7.2691048,24.7157143 L7.2691048,17.658381 C7.26909388,14.5062313 9.82304527,11.9485808 12.9789301,11.9402857 L40.2550218,11.9402857 C43.4050185,11.9568452 45.9498253,14.5120798 45.9497817,17.658381 L45.9497817,24.7157143 C45.9497817,25.1312428 45.6125289,25.4680952 45.1965066,25.4680952 L45.1965066,25.4680952 Z" id="Shape"></path>
                    <path d="M12.9111354,45.4438095 C11.0541233,45.4392725 9.23264044,44.9350608 7.63820961,43.9841905 C7.28228155,43.7750201 7.16132461,43.3186141 7.36703057,42.9609524 C7.5738863,42.6027164 8.0314349,42.478384 8.39148472,42.6825714 C9.75775074,43.4991422 11.3189602,43.933163 12.9111354,43.9390476 C17.9034036,43.9390476 21.9504367,39.8968185 21.9504367,34.9104762 C21.9504367,29.9241339 17.9034036,25.8819048 12.9111354,25.8819048 C11.3189602,25.8877893 9.75775074,26.3218102 8.39148472,27.138381 C8.0337917,27.3252737 7.59217979,27.1973102 7.39016122,26.8482329 C7.18814264,26.4991557 7.29753898,26.0530684 7.63820961,25.8367619 C9.23264044,24.8858916 11.0541233,24.3816799 12.9111354,24.3771429 C18.7354483,24.3771429 23.4569869,29.0930768 23.4569869,34.9104762 C23.4569869,40.7278756 18.7354483,45.4438095 12.9111354,45.4438095 L12.9111354,45.4438095 Z" id="Shape"></path>
                    <ellipse id="Oval" cx="28.6470524" cy="35.6854286" rx="1.55174672" ry="1.54990476"></ellipse>
                    <ellipse id="Oval" cx="28.6470524" cy="35.6854286" rx="1.55174672" ry="1.54990476"></ellipse>
                    <path d="M306.093341,126.211905 C306.109428,136.618213 314.341429,145.159107 324.751965,145.570667 L325.50524,145.570667 L326.258515,145.570667 C336.703229,145.214358 344.985973,136.654065 344.985973,126.215667 C344.985973,115.777268 336.703229,107.216976 326.258515,106.860667 L325.50524,106.860667 C325.249127,106.860667 325.000546,106.860667 324.751965,106.860667 C314.342627,107.268296 306.109588,115.806948 306.093341,126.211905 L306.093341,126.211905 Z M307.599891,126.211905 C307.599469,116.627133 315.164298,108.746087 324.751965,108.342857 C325.000546,108.342857 325.249127,108.342857 325.50524,108.342857 C325.761354,108.342857 326.009934,108.342857 326.258515,108.342857 C335.809889,108.78093 343.328153,116.643007 343.328153,126.193095 C343.328153,135.743184 335.809889,143.605261 326.258515,144.043333 L325.50524,144.043333 L324.751965,144.043333 C315.182264,143.63318 307.627321,135.779003 307.599891,126.211905 L307.599891,126.211905 Z" id="Shape"></path>
                    <path d="M336.804367,124.654476 C336.528326,124.655229 336.273984,124.505114 336.141485,124.263238 C335.004039,122.19419 331.486245,118.695619 325.50524,118.688095 L325.50524,118.688095 C319.531769,118.688095 316.013974,122.186667 314.868996,124.24819 C314.670154,124.610256 314.216296,124.744573 313.852074,124.549143 C313.675908,124.453713 313.545076,124.292101 313.488527,124.100065 C313.431979,123.908029 313.454377,123.701402 313.550764,123.525905 C314.85393,121.170952 318.82369,117.183333 325.50524,117.183333 L325.50524,117.183333 C332.194323,117.183333 336.164083,121.186 337.467249,123.540952 C337.563636,123.71645 337.586034,123.923077 337.529486,124.115112 C337.472938,124.307148 337.342106,124.468761 337.165939,124.56419 C337.054889,124.624061 336.93056,124.655107 336.804367,124.654476 Z" id="Shape"></path>
                    <path d="M329.934498,128.431429 C329.683939,128.431806 329.449592,128.307721 329.309279,128.100381 C329.196288,127.942381 328.164301,126.542952 325.542904,126.535429 L325.542904,126.535429 C322.846179,126.535429 321.776528,128.04019 321.776528,128.085333 C321.549433,128.426646 321.090623,128.523651 320.744541,128.303524 C320.403872,128.084735 320.297391,127.63605 320.503493,127.28781 C320.503493,127.28781 321.897052,125.030667 325.557969,125.030667 L325.557969,125.030667 C328.910044,125.030667 330.341266,126.889048 330.589847,127.28781 C330.824867,127.630628 330.737186,128.098827 330.393996,128.333619 C330.255186,128.414316 330.094187,128.448587 329.934498,128.431429 Z" id="Shape"></path>
                    <path d="M333.3619,126.535429 C333.087452,126.537692 332.833492,126.390686 332.699017,126.151714 C332.62369,126.008762 330.657642,122.615524 325.50524,122.615524 C320.352838,122.615524 318.326528,126.114095 318.30393,126.151714 C318.102473,126.511008 317.649259,126.641781 317.287009,126.445143 C317.110842,126.349713 316.98001,126.188101 316.923462,125.996065 C316.866914,125.804029 316.889311,125.597402 316.985699,125.421905 C317.083624,125.248857 319.433843,121.110762 325.50524,121.110762 C331.576638,121.110762 333.926856,125.248857 334.024782,125.421905 C334.121169,125.597402 334.143567,125.804029 334.087019,125.996065 C334.03047,126.188101 333.899638,126.349713 333.723472,126.445143 C333.612422,126.505014 333.488093,126.536059 333.3619,126.535429 Z" id="Shape"></path>
                    <ellipse id="Oval" cx="325.50524" cy="130.778857" rx="1.55174672" ry="1.54990476"></ellipse>
                    <path d="M130.211135,189.931048 C130.227383,200.336004 138.460422,208.874656 148.86976,209.282286 L149.623035,209.282286 C149.879148,209.282286 150.127729,209.282286 150.37631,209.282286 C160.821024,208.925977 169.103768,200.365684 169.103768,189.927286 C169.103768,179.488887 160.821024,170.928595 150.37631,170.572286 L149.623035,170.572286 L148.86976,170.572286 C138.459223,170.983846 130.227223,179.52474 130.211135,189.931048 L130.211135,189.931048 Z M131.717686,189.931048 C131.736899,180.356757 139.293052,172.491379 148.86976,172.077048 L149.623035,172.077048 L150.37631,172.077048 C159.99923,172.418883 167.623458,180.309711 167.623458,189.927286 C167.623458,199.54486 159.99923,207.435688 150.37631,207.777524 C150.127729,207.777524 149.879148,207.777524 149.623035,207.777524 L148.86976,207.777524 C139.29254,207.370882 131.733222,199.505526 131.717686,189.931048 L131.717686,189.931048 Z" id="Shape"></path>
                    <path d="M160.929694,188.373619 C160.653654,188.374372 160.399311,188.224257 160.266812,187.982381 C159.129367,185.913333 155.611572,182.407238 149.630568,182.407238 L149.630568,182.407238 C143.657096,182.407238 140.131769,185.898286 138.994323,187.967333 C138.786312,188.330921 138.322589,188.45724 137.95857,188.249476 C137.59455,188.041712 137.468081,187.57854 137.676092,187.214952 C138.971725,184.86 142.949017,180.879905 149.630568,180.879905 L149.630568,180.879905 C156.312118,180.879905 160.28941,184.875048 161.585044,187.237524 C161.781916,187.599344 161.650987,188.05202 161.291266,188.253238 C161.183067,188.323659 161.058557,188.365113 160.929694,188.373619 Z" id="Shape"></path>
                    <path d="M154.037227,192.150571 C153.786668,192.150948 153.552322,192.026864 153.412009,191.819524 C153.30655,191.654 152.274563,190.254571 149.645633,190.254571 L149.645633,190.254571 C146.948908,190.254571 145.879258,191.759333 145.879258,191.804476 C145.656686,192.155598 145.191277,192.260022 144.839738,192.037714 C144.488199,191.815407 144.383651,191.35055 144.606223,190.999429 C144.606223,190.999429 145.999782,188.742286 149.660699,188.742286 L149.660699,188.742286 C153.020306,188.742286 154.443996,190.593143 154.700109,190.96181 C154.812237,191.127355 154.853809,191.330658 154.815652,191.526861 C154.777496,191.723064 154.662746,191.896039 154.496725,192.007619 C154.36333,192.104174 154.201923,192.154389 154.037227,192.150571 L154.037227,192.150571 Z" id="Shape"></path>
                    <path d="M157.487227,190.254571 C157.211186,190.255324 156.956844,190.105209 156.824345,189.863333 C156.741485,189.720381 154.775437,186.327143 149.630568,186.327143 C144.485699,186.327143 142.451856,189.825714 142.429258,189.863333 C142.332426,190.037998 142.170058,190.167059 141.97791,190.222095 C141.785763,190.27713 141.579593,190.253627 141.404803,190.156762 C141.045083,189.955544 140.914154,189.502868 141.111026,189.141048 C141.208952,188.960476 143.551638,184.822381 149.630568,184.822381 C155.709498,184.822381 158.044651,188.960476 158.142576,189.141048 C158.339449,189.502868 158.20852,189.955544 157.848799,190.156762 C157.738444,190.219255 157.614074,190.252898 157.487227,190.254571 L157.487227,190.254571 Z" id="Shape"></path>
                    <ellipse id="Oval" cx="149.623035" cy="194.490476" rx="1.55174672" ry="1.54990476"></ellipse>
                    <path d="M196.672598,188.283333 C196.689209,177.584479 205.372919,168.917808 216.084498,168.909524 L216.084498,168.909524 C219.360074,154.392709 232.269788,144.080943 247.168395,144.080943 C262.067003,144.080943 274.976716,154.392709 278.252293,168.909524 L278.252293,168.909524 C288.964868,168.909524 297.649127,177.583474 297.649127,188.283333 C297.649127,198.983193 288.964868,207.657143 278.252293,207.657143 L216.084498,207.657143 C205.372919,207.648859 196.689209,198.982187 196.672598,188.283333 L196.672598,188.283333 Z M277.958515,170.429333 L277.672271,170.429333 C277.308619,170.436658 276.991667,170.183397 276.918996,169.827429 C274.054967,155.685383 261.610243,145.517995 247.164629,145.517995 C232.719014,145.517995 220.274291,155.685383 217.410262,169.827429 C217.337591,170.183397 217.020639,170.436658 216.656987,170.429333 L216.370742,170.429333 L216.0619,170.429333 C209.670317,170.429333 203.76425,173.835154 200.568459,179.363857 C197.372667,184.89256 197.372667,191.704202 200.568459,197.232905 C203.76425,202.761608 209.670317,206.167429 216.0619,206.167429 L278.267358,206.167429 C288.147889,206.167429 296.157642,198.167183 296.157642,188.298381 C296.157642,178.429578 288.147889,170.429333 278.267358,170.429333 L277.958515,170.429333 Z" id="Shape"></path>
                    <path d="M231.541703,193.17381 L231.541703,177.37381 C231.541703,176.127224 232.553461,175.116667 233.801528,175.116667 L260.919432,175.116667 C262.167499,175.116667 263.179258,176.127224 263.179258,177.37381 L263.179258,193.17381 C263.179258,194.420395 262.167499,195.430952 260.919432,195.430952 L233.801528,195.430952 C232.553461,195.430952 231.541703,194.420395 231.541703,193.17381 Z M233.801528,176.621429 C233.385506,176.621429 233.048253,176.958281 233.048253,177.37381 L233.048253,193.17381 C233.048253,193.589338 233.385506,193.92619 233.801528,193.92619 L260.919432,193.92619 C261.335455,193.92619 261.672707,193.589338 261.672707,193.17381 L261.672707,177.37381 C261.672707,176.958281 261.335455,176.621429 260.919432,176.621429 L233.801528,176.621429 Z" id="Shape"></path>
                    <path d="M235.308079,175.869048 L235.308079,168.345238 C235.308079,161.696782 240.704123,156.307143 247.36048,156.307143 C254.016838,156.307143 259.412882,161.696782 259.412882,168.345238 L259.412882,175.869048 C259.412882,176.284576 259.075629,176.621429 258.659607,176.621429 L236.061354,176.621429 C235.645331,176.621429 235.308079,176.284576 235.308079,175.869048 Z M257.906332,168.345238 C257.906332,162.527839 253.184793,157.811905 247.36048,157.811905 C241.536167,157.811905 236.814629,162.527839 236.814629,168.345238 L236.814629,175.116667 L257.906332,175.116667 L257.906332,168.345238 Z" id="Shape"></path>
                    <ellipse id="Oval" cx="247.36048" cy="185.604857" rx="1.55174672" ry="1.54990476"></ellipse>
                    <path d="M50.5146288,203.067619 C51.3676769,203.06778 52.0606373,203.755668 52.0660517,204.607686 C52.0714662,205.459705 51.3873041,206.156323 50.5343268,206.1673 C49.6813495,206.178276 48.9794462,205.499494 48.9628821,204.647619 C48.9568457,204.231968 49.1174233,203.831155 49.4088702,203.534401 C49.7003172,203.237648 50.0984444,203.069584 50.5146288,203.067619 Z" id="Shape"></path>
                    <path d="M0,140.853238 L0,206.310381 C3.56636312e-16,209.219081 2.36076928,211.577048 5.27292576,211.577048 L37.3247817,211.577048 L37.3247817,234.900857 L25.6113537,234.900857 C25.1953314,234.900857 24.8580786,235.23771 24.8580786,235.653238 C24.8580786,236.068767 25.1953314,236.405619 25.6113537,236.405619 L75.3727074,236.405619 C75.7887298,236.405619 76.1259825,236.068767 76.1259825,235.653238 C76.1259825,235.23771 75.7887298,234.900857 75.3727074,234.900857 L63.7120087,234.900857 L63.7120087,211.577048 L95.7563319,211.577048 C98.6684884,211.577048 101.029258,209.219081 101.029258,206.310381 L101.029258,140.853238 C101.029258,137.944538 98.6684884,135.586571 95.7563319,135.586571 L5.27292576,135.586571 C2.36076928,135.586571 3.56636312e-16,137.944538 0,140.853238 Z M99.5227074,140.853238 L99.5227074,197.658 L1.50655022,197.658 L1.50655022,140.853238 C1.50655022,138.775595 3.19281399,137.091333 5.27292576,137.091333 L95.7563319,137.091333 C97.8364437,137.091333 99.5227074,138.775595 99.5227074,140.853238 Z M38.8313319,211.577048 L62.1828603,211.577048 L62.1828603,234.900857 L38.8313319,234.900857 L38.8313319,211.577048 Z M1.50655022,206.310381 L1.50655022,199.162762 L99.5227074,199.162762 L99.5227074,206.310381 C99.5227074,208.388024 97.8364437,210.072286 95.7563319,210.072286 L5.27292576,210.072286 C3.19281399,210.072286 1.50655022,208.388024 1.50655022,206.310381 Z" id="Shape"></path>
                    <path d="M95.7563319,178.118667 L84.856441,178.118667 C84.6180089,178.120435 84.3944932,178.23485 84.253821,178.427143 L81.9186681,181.60219 L77.1579694,174.409429 C77.0252975,174.212758 76.807556,174.090076 76.5704148,174.078381 C76.3306964,174.06396 76.0984599,174.164569 75.9451965,174.349238 L72.8266376,178.111143 L59.3505459,178.111143 C59.1094572,178.110518 58.882635,178.225193 58.740393,178.419619 L53.8215066,185.11581 L44.4432314,170.89581 C44.31234,170.695021 44.0935272,170.568506 43.8540167,170.555133 C43.6145063,170.54176 43.3829395,170.643128 43.2304585,170.828095 L37.2042576,178.118667 L24.6094978,178.118667 C24.3684092,178.118042 24.141587,178.232717 23.999345,178.427143 L21.6641921,181.60219 L16.9034934,174.409429 C16.7708215,174.212758 16.5530801,174.090076 16.3159389,174.078381 C16.0767347,174.054225 15.8423448,174.157006 15.6982533,174.349238 L12.5721616,178.111143 L5.27292576,178.111143 C4.85690341,178.111143 4.51965066,178.447995 4.51965066,178.863524 C4.51965066,179.279052 4.85690341,179.615905 5.27292576,179.615905 L12.9262009,179.615905 C13.1502492,179.616268 13.3628319,179.516997 13.5062227,179.345048 L16.2104803,176.057143 L21.00131,183.302571 C21.1369159,183.508415 21.3648418,183.63489 21.6114629,183.641143 L21.6114629,183.641143 C21.849895,183.639375 22.0734107,183.524959 22.214083,183.332667 L24.9635371,179.570762 L37.5131004,179.570762 C37.7371487,179.571125 37.9497315,179.471854 38.0931223,179.299905 L43.7050218,172.528476 L53.1586245,186.823714 C53.2942303,187.029558 53.5221562,187.156033 53.7687773,187.162286 L53.7687773,187.162286 C54.009866,187.16291 54.2366882,187.048235 54.3789301,186.85381 L59.7121179,179.593333 L73.1806769,179.593333 C73.4047252,179.593697 73.6173079,179.494425 73.7606987,179.322476 L76.4649563,176.057143 L81.255786,183.302571 C81.3913919,183.508415 81.6193178,183.63489 81.8659389,183.641143 L81.8659389,183.641143 C82.1070275,183.641768 82.3338497,183.527093 82.4760917,183.332667 L85.2255459,179.570762 L95.7713974,179.570762 C96.1874197,179.570762 96.5246725,179.233909 96.5246725,178.818381 C96.5246725,178.402852 96.1874197,178.066 95.7713974,178.066 L95.7563319,178.118667 Z" id="Shape"></path>
                    <path d="M5.1900655,153.628667 C9.40087336,153.628667 11.4874454,155.720286 13.7020742,157.924762 C16.0372271,160.249619 18.4477074,162.657238 23.2837336,162.657238 C28.1197598,162.657238 30.6432314,158.647048 32.9708515,154.772286 C35.1854803,151.085619 37.2795852,147.609619 41.3774017,147.609619 C45.4752183,147.609619 47.5617904,151.093143 49.7764192,154.772286 C52.1040393,158.647048 54.5220524,162.657238 59.4710699,162.657238 C64.3070961,162.657238 66.7175764,160.249619 69.0451965,157.924762 C71.2598253,155.720286 73.3539301,153.628667 77.564738,153.628667 C81.7755459,153.628667 83.8696507,155.720286 86.0767467,157.924762 C88.4118996,160.249619 90.8223799,162.657238 95.6584061,162.657238 C96.0744285,162.657238 96.4116812,162.320386 96.4116812,161.904857 C96.4116812,161.489329 96.0744285,161.152476 95.6584061,161.152476 C91.4475983,161.152476 89.3610262,159.068381 87.1463974,156.863905 C84.8112445,154.531524 82.4007642,152.123905 77.564738,152.123905 C72.7287118,152.123905 70.3182314,154.531524 67.9830786,156.863905 C65.7684498,159.068381 63.6818777,161.152476 59.4710699,161.152476 C55.3732533,161.152476 53.2791485,157.676476 51.0645197,153.997333 C48.7368996,150.115048 46.3264192,146.104857 41.3774017,146.104857 C36.4283843,146.104857 34.0103712,150.115048 31.6827511,153.997333 C29.4681223,157.676476 27.3815502,161.152476 23.2837336,161.152476 C19.185917,161.152476 16.978821,159.068381 14.7641921,156.863905 C12.4365721,154.531524 10.0260917,152.123905 5.1900655,152.123905 C4.77404315,152.123905 4.43679039,152.460757 4.43679039,152.876286 C4.43679039,153.291814 4.77404315,153.628667 5.1900655,153.628667 L5.1900655,153.628667 Z" id="Shape"></path>
                    <rect id="Rectangle-path" x="168.289192" y="189.178667" width="29.8899563" height="1.5047619"></rect>
                    <rect id="Rectangle-path" x="100.321179" y="189.178667" width="29.8899563" height="1.5047619"></rect>
                    <path d="M324.751965,108.342857 L326.258515,108.342857 L326.258515,58.2117143 C326.258515,53.6409005 322.548735,49.9355238 317.972489,49.9355238 L262.184934,49.9355238 L262.184934,51.4402857 L317.972489,51.4402857 C321.71669,51.4402857 324.751965,54.4719576 324.751965,58.2117143 L324.751965,108.342857 Z" id="Shape"></path>
                    <path d="M296.790393,190.683429 L317.987555,190.683429 C322.5638,190.683429 326.273581,186.978052 326.273581,182.407238 L326.273581,144.923619 L324.767031,144.923619 L324.767031,182.407238 C324.767031,186.146995 321.731756,189.178667 317.987555,189.178667 L296.790393,189.178667 L296.790393,190.683429 Z" id="Shape"></path>
                    <path d="M125.796943,68.3387619 C117.946893,68.3600766 110.857937,63.6533374 107.839054,56.4155543 C104.820172,49.1777711 106.466642,40.8361266 112.009926,35.2843304 C117.55321,29.7325341 125.900255,28.0653173 133.154831,31.0609028 C140.409407,34.0564883 145.141019,41.1241914 145.141048,48.9649524 C145.145232,59.6459887 136.490645,68.3138652 125.796943,68.3387619 L125.796943,68.3387619 Z M125.796943,31.0959048 C118.556914,31.0776358 112.019609,35.4196875 109.236287,42.0954261 C106.452965,48.7711646 107.972405,56.4643532 113.085416,61.5842294 C118.198427,66.7041057 125.896891,68.2411977 132.587582,65.4780746 C139.278273,62.7149515 143.642007,56.1964106 143.642031,48.9649524 C143.642062,39.1137524 135.659819,31.120792 125.796943,31.0959048 Z" id="Shape"></path>
                    <ellipse id="Oval" cx="125.608624" cy="59.1672381" rx="1.3709607" ry="1.37685714"></ellipse>
                    <ellipse id="Oval" cx="131.137664" cy="42.5621905" rx="1.3709607" ry="1.37685714"></ellipse>
                    <ellipse id="Oval" cx="120.44869" cy="43.9315238" rx="1.3709607" ry="1.37685714"></ellipse>
                    <path d="M125.608624,59.919619 C125.192602,59.919619 124.855349,59.5827666 124.855349,59.1672381 L124.855349,40.5006667 C124.855349,40.0851381 125.192602,39.7482857 125.608624,39.7482857 C126.024647,39.7482857 126.3619,40.0851381 126.3619,40.5006667 L126.3619,59.1672381 C126.3619,59.5827666 126.024647,59.919619 125.608624,59.919619 Z" id="Shape"></path>
                    <path d="M125.608624,56.7671429 C125.408402,56.7682991 125.215956,56.6897879 125.073799,56.5489524 L120.305568,51.7638095 C119.90617,51.3657044 119.685932,50.8225525 119.695415,50.2590476 L119.695415,44.8042857 C119.695415,44.3887572 120.032668,44.0519048 120.44869,44.0519048 C120.864712,44.0519048 121.201965,44.3887572 121.201965,44.8042857 L121.201965,50.2891429 C121.200882,50.4448904 121.263453,50.5943401 121.375218,50.7029524 L126.14345,55.4880952 C126.435512,55.781552 126.435512,56.2554956 126.14345,56.5489524 C126.001293,56.6897879 125.808847,56.7682991 125.608624,56.7671429 L125.608624,56.7671429 Z" id="Shape"></path>
                    <path d="M125.721616,53.915619 C125.521393,53.9167753 125.328948,53.8382641 125.18679,53.6974286 C125.044186,53.5561566 124.963973,53.3638511 124.963973,53.1632381 C124.963973,52.9626251 125.044186,52.7703196 125.18679,52.6290476 L130.218668,47.5880952 C130.325096,47.4796019 130.384608,47.3337003 130.384389,47.1818095 L130.384389,43.2242857 C130.384389,42.8087572 130.721641,42.4719048 131.137664,42.4719048 C131.553686,42.4719048 131.890939,42.8087572 131.890939,43.2242857 L131.890939,47.1818095 C131.902179,47.7456397 131.681672,48.289454 131.280786,48.6865714 L126.256441,53.7275238 C126.109497,53.8574038 125.917614,53.9248882 125.721616,53.915619 Z" id="Shape"></path>
                    <path d="M125.442904,36.6334286 C125.475778,36.5725942 125.539412,36.5346736 125.608624,36.5346736 C125.677837,36.5346736 125.741471,36.5725942 125.774345,36.6334286 L126.806332,38.4240952 L127.838319,40.2147619 C127.874198,40.2735762 127.875027,40.3472737 127.840478,40.4068777 C127.80593,40.4664818 127.741529,40.5024601 127.672598,40.5006667 L123.537118,40.5006667 C123.468187,40.5024601 123.403787,40.4664818 123.369238,40.4068777 C123.334689,40.3472737 123.335518,40.2735762 123.371397,40.2147619 L124.403384,38.4240952 L125.442904,36.6334286 Z" id="Shape"></path>
                    <rect id="Rectangle-path" x="52.1643013" y="49.6571429" width="55.7875546" height="1.5047619"></rect>
                    <rect id="Rectangle-path" x="143.634498" y="49.6571429" width="55.7875546" height="1.5047619"></rect>
                    <path d="M263.126528,49.6571429 L263.126528,5.26666667 C263.126528,2.35796698 260.765759,1.78106488e-16 257.853603,0 L204.694978,0 C201.782822,-1.78106488e-16 199.422052,2.35796698 199.422052,5.26666667 L199.422052,95.552381 C199.422052,98.4610806 201.782822,100.819048 204.694978,100.819048 L257.853603,100.819048 C260.765759,100.819048 263.126528,98.4610806 263.126528,95.552381 L263.126528,51.1619048 L263.126528,49.6571429 Z M261.619978,86.9 L200.928603,86.9 L200.928603,13.9190476 L261.619978,13.9190476 L261.619978,86.9 Z M204.694978,1.5047619 L257.853603,1.5047619 C259.933714,1.5047619 261.619978,3.18902404 261.619978,5.26666667 L261.619978,12.4142857 L200.928603,12.4142857 L200.928603,5.26666667 C200.928603,3.18902404 202.614866,1.5047619 204.694978,1.5047619 Z M257.853603,99.3142857 L204.694978,99.3142857 C202.614866,99.3142857 200.928603,97.6300236 200.928603,95.552381 L200.928603,88.4047619 L261.619978,88.4047619 L261.619978,95.552381 C261.619978,97.6300236 259.933714,99.3142857 257.853603,99.3142857 Z" id="Shape"></path>
                    <path d="M230.155677,92.866381 C229.56235,93.4826755 229.580754,94.4624647 230.196808,95.0560963 C230.812863,95.6497278 231.793845,95.6329501 232.38919,95.0186001 C232.984535,94.40425 232.969344,93.4244058 232.35524,92.8287619 C231.736635,92.2345393 230.753551,92.2513529 230.155677,92.866381 L230.155677,92.866381 Z" id="Shape"></path>
                    <path d="M257.077729,62.688381 L239.903057,62.688381 C238.968594,62.6880253 238.130293,63.2621777 237.793886,64.1329524 L234.780786,71.9426667 L224.076747,55.0667619 C223.929611,54.8347112 223.667562,54.7011865 223.393105,54.7184177 C223.118647,54.7356488 222.875401,54.9008971 222.758515,55.1495238 L219.5119,62.094 C219.388333,62.3606846 219.120627,62.5311081 218.826419,62.530381 L205.809825,62.530381 C205.393803,62.530381 205.05655,62.8672334 205.05655,63.2827619 C205.05655,63.6982904 205.393803,64.0351429 205.809825,64.0351429 L218.826419,64.0351429 C219.704579,64.0357503 220.503573,63.5281696 220.875328,62.7335238 L223.541921,57.0304762 L234.336354,74.0192381 C234.474652,74.2345395 234.712997,74.3649072 234.969105,74.3653333 L235.044432,74.3653333 C235.325301,74.3368382 235.56664,74.1538711 235.669651,73.8913333 L239.202511,64.7047619 C239.314315,64.4153571 239.592487,64.2241544 239.903057,64.2232381 L257.077729,64.2232381 C257.493752,64.2232381 257.831004,63.8863857 257.831004,63.4708571 C257.831004,63.0553286 257.493752,62.7184762 257.077729,62.7184762 L257.077729,62.688381 Z" id="Shape"></path>
                    <path d="M205.146943,40.2674286 C209.779585,40.2674286 212.099672,38.2585714 214.351965,36.3249524 C216.476201,34.481619 218.487445,31.2388571 222.562664,31.2388571 C226.637882,31.2388571 228.649127,34.481619 230.780895,36.3249524 C233.040721,38.2585714 235.345742,41.0198095 239.978384,41.0198095 C244.611026,41.0198095 246.938646,38.2585714 249.183406,36.3249524 C251.315175,34.481619 253.326419,32.743619 257.401638,32.743619 C257.81766,32.743619 258.154913,32.4067666 258.154913,31.9912381 C258.154913,31.5757096 257.81766,31.2388571 257.401638,31.2388571 C252.761463,31.2388571 250.441376,33.2477143 248.196616,35.1813333 C246.064847,37.0246667 244.053603,39.5150476 239.978384,39.5150476 C235.903166,39.5150476 233.891921,37.0246667 231.767686,35.1813333 C229.50786,33.2477143 227.195306,29.7340952 222.562664,29.7340952 C217.930022,29.7340952 215.609934,33.2477143 213.365175,35.1888571 C211.233406,37.0246667 209.222162,38.7626667 205.146943,38.7626667 C204.730921,38.7626667 204.393668,39.0995191 204.393668,39.5150476 C204.393668,39.9305761 204.730921,40.2674286 205.146943,40.2674286 Z" id="Shape"></path>
                    <path d="M258.960917,20.3142857 C259.399125,19.8603479 259.520041,19.1872805 259.267182,18.6094879 C259.014323,18.0316953 258.437594,17.6632132 257.806399,17.6761676 C257.175203,17.689122 256.614116,18.0809561 256.385234,18.6686357 C256.156351,19.2563154 256.304846,19.9238535 256.761354,20.3594286 C257.058536,20.6457466 257.457712,20.8019567 257.870529,20.7934842 C258.283347,20.7850117 258.675761,20.6125554 258.960917,20.3142857 L258.960917,20.3142857 Z" id="Shape"></path>
                    <polygon id="Shape" points="242.757969 20.7431429 240.633734 20.7431429 240.633734 17.0489524 239.903057 17.0489524 239.903057 21.33 242.757969 21.33"></polygon>
                    <rect id="Rectangle-path" x="244.076201" y="17.0489524" width="1" height="4.28104762"></rect>
                    <polygon id="Shape" points="248.415066 21.3826667 249.966812 17.0489524 249.168341 17.0489524 248.045961 20.5324762 246.916048 17.0489524 246.125109 17.0489524 247.669323 21.3826667"></polygon>
                    <polygon id="Shape" points="254.147489 20.7431429 251.910262 20.7431429 251.910262 19.4114286 253.944105 19.4114286 253.944105 18.8170476 251.910262 18.8170476 251.910262 17.6358095 254.147489 17.6358095 254.147489 17.0489524 251.179585 17.0489524 251.179585 21.33 254.147489 21.33"></polygon>
                </g>
            </g>
        </g>
    </g>
</svg>