<?xml version="1.0" encoding="UTF-8"?>
<svg width="1000px" height="166px" viewBox="0 0 1000 166" version="1.1" xmlns="http://www.w3.org/2000/svg" xmlns:xlink="http://www.w3.org/1999/xlink">
    <!-- Generator: Sketch 47.1 (45422) - http://www.bohemiancoding.com/sketch -->
    <title>system_recording-lg</title>
    <desc>Created with Sketch.</desc>
    <defs>
        <polygon id="path-1" points="0 166 999.688119 166 999.688119 0 0 0"></polygon>
    </defs>
    <g id="e4" stroke="none" stroke-width="1" fill="none" fill-rule="evenodd">
        <g id="E4-consumer" transform="translate(-220.000000, -2339.000000)">
            <g id="system_recording-lg" transform="translate(220.000000, 2339.000000)">
                <path d="M11.457797,81.4030552 C10.7733911,81.4030552 10.2201733,80.849309 10.2201733,80.1642493 L10.2201733,44.954906 C10.2201733,44.2698463 10.7733911,43.7161 11.457797,43.7161 C12.142203,43.7161 12.6954208,44.2698463 12.6954208,44.954906 L12.6954208,80.1642493 C12.6954208,80.849309 12.142203,81.4030552 11.457797,81.4030552 Z" id="Fill-1" fill="#484848"></path>
                <path d="M11.4590347,125.758131 C11.0518564,125.758131 10.652104,125.557445 10.4157178,125.187042 L1.69665842,111.565131 C0.586509901,109.830803 -0.000123762376,107.822699 -0.000123762376,105.763803 L-0.000123762376,60.235206 C-0.000123762376,58.1763104 0.586509901,56.1694448 1.69665842,54.4351164 L10.4157178,40.813206 C10.7832921,40.2334448 11.5481436,40.066206 12.1248762,40.4378478 C12.7016089,40.8070119 12.8686881,41.572594 12.4998762,42.1486388 L3.78081683,55.7705493 C2.92685644,57.1059821 2.47512376,58.6507731 2.47512376,60.235206 L2.47512376,105.763803 C2.47512376,107.349475 2.92685644,108.894266 3.78081683,110.229699 L12.4998762,123.851609 C12.8686881,124.427654 12.7016089,125.193236 12.1248762,125.5624 C11.9181931,125.694952 11.687995,125.758131 11.4590347,125.758131" id="Fill-5" fill="#464646"></path>
                <path d="M72.7757426,125.758131 C72.5467822,125.758131 72.3165842,125.694952 72.109901,125.5624 C71.5331683,125.193236 71.3660891,124.427654 71.734901,123.851609 L80.4527228,110.229699 C81.3079208,108.894266 81.7596535,107.350713 81.7596535,105.763803 L81.7596535,60.235206 C81.7596535,58.6495343 81.3079208,57.1059821 80.4527228,55.7717881 L71.734901,42.1486388 C71.3660891,41.572594 71.5331683,40.8070119 72.109901,40.4378478 C72.685396,40.066206 73.4502475,40.2334448 73.8190594,40.813206 L82.5368812,54.4351164 C83.6470297,56.1694448 84.234901,58.1750716 84.234901,60.235206 L84.234901,105.763803 C84.234901,107.823937 83.6470297,109.830803 82.5368812,111.56637 L73.8190594,125.187042 C73.5826733,125.557445 73.1829208,125.758131 72.7757426,125.758131" id="Fill-3" fill="#484848"></path>
                <path d="M72.7769802,125.758131 C72.0925743,125.758131 71.5393564,125.204385 71.5393564,124.519325 L71.5393564,41.4809224 C71.5393564,40.7958627 72.0925743,40.2421164 72.7769802,40.2421164 C73.4613861,40.2421164 74.014604,40.7958627 74.014604,41.4809224 L74.014604,124.519325 C74.014604,125.204385 73.4613861,125.758131 72.7769802,125.758131" id="Fill-8" fill="#484848"></path>
                <path d="M11.457797,125.758131 C10.7733911,125.758131 10.2201733,125.204385 10.2201733,124.519325 L10.2201733,41.4809224 C10.2201733,40.7958627 10.7733911,40.2421164 11.457797,40.2421164 C12.142203,40.2421164 12.6954208,40.7958627 12.6954208,41.4809224 L12.6954208,124.519325 C12.6954208,125.204385 12.142203,125.758131 11.457797,125.758131" id="Fill-10" fill="#484848"></path>
                <path d="M64.6007426,145.559701 L19.6329208,145.559701 C14.4435644,145.559701 10.2207921,141.336612 10.2207921,136.144776 L10.2207921,124.519821 C10.2207921,123.834761 10.7740099,123.281015 11.4584158,123.281015 C12.1415842,123.281015 12.6960396,123.834761 12.6960396,124.519821 L12.6960396,136.144776 C12.6960396,139.970209 15.8074257,143.08209 19.6329208,143.08209 L64.6007426,143.08209 C68.4274752,143.08209 71.5388614,139.970209 71.5388614,136.144776 L71.5388614,124.519821 C71.5388614,123.834761 72.0933168,123.281015 72.7764851,123.281015 C73.4608911,123.281015 74.0141089,123.834761 74.0141089,124.519821 L74.0141089,136.144776 C74.0141089,141.336612 69.7913366,145.559701 64.6007426,145.559701" id="Fill-12" fill="#484848"></path>
                <path d="M72.7769802,42.7194806 C72.0925743,42.7194806 71.5393564,42.1657343 71.5393564,41.4806746 L71.5393564,29.8544806 C71.5393564,26.0290478 68.4267327,22.918406 64.6012376,22.918406 L19.6334158,22.918406 C15.8079208,22.918406 12.695297,26.0290478 12.695297,29.8544806 L12.695297,41.4806746 C12.695297,42.1657343 12.1420792,42.7194806 11.4576733,42.7194806 C10.7732673,42.7194806 10.2200495,42.1657343 10.2200495,41.4806746 L10.2200495,29.8544806 C10.2200495,24.6638836 14.4428218,20.440794 19.6334158,20.440794 L64.6012376,20.440794 C69.7918317,20.440794 74.014604,24.6638836 74.014604,29.8544806 L74.014604,41.4806746 C74.014604,42.1657343 73.4613861,42.7194806 72.7769802,42.7194806" id="Fill-14" fill="#484848"></path>
                <path d="M19.5205446,75.6131239 C16.499505,75.6131239 13.5762376,74.8041836 10.834901,73.2086015 C10.2445545,72.8642134 10.0440594,72.1060642 10.3881188,71.5139149 C10.7309406,70.9230045 11.489604,70.7247955 12.0799505,71.066706 C14.4388614,72.439303 16.9413366,73.1355119 19.5205446,73.1355119 C27.7309406,73.1355119 34.410396,66.4558701 34.410396,58.246303 C34.410396,50.0367358 27.7309406,43.3583328 19.5205446,43.3583328 C16.9413366,43.3583328 14.4388614,44.053303 12.0799505,45.4271388 C11.489604,45.7702881 10.7309406,45.5708403 10.3881188,44.978691 C10.0440594,44.3877806 10.2445545,43.6296313 10.834901,43.2852433 C13.5762376,41.6896612 16.499505,40.8807209 19.5205446,40.8807209 C29.0960396,40.8807209 36.8856436,48.6715716 36.8856436,58.246303 C36.8856436,67.8222731 29.0960396,75.6131239 19.5205446,75.6131239" id="Fill-16" fill="#484848"></path>
                <path d="M48.024505,59.5401119 C48.024505,58.1291119 46.879703,56.9844552 45.4700495,56.9844552 C44.0579208,56.9844552 42.9143564,58.1291119 42.9143564,59.5401119 C42.9143564,60.9511119 44.0579208,62.0957687 45.4700495,62.0957687 C46.879703,62.0957687 48.024505,60.9511119 48.024505,59.5401119" id="Fill-18" fill="#484848"></path>
                <path d="M48.024505,59.5401119 C48.024505,58.1291119 46.879703,56.9844552 45.4700495,56.9844552 C44.0579208,56.9844552 42.9143564,58.1291119 42.9143564,59.5401119 C42.9143564,60.9511119 44.0579208,62.0957687 45.4700495,62.0957687 C46.879703,62.0957687 48.024505,60.9511119 48.024505,59.5401119" id="Fill-20" fill="#484848"></path>
                <polyline id="Fill-22" fill="#484848" points="718.983416 81.761194 683.029208 81.761194 683.029208 84.238806 718.983416 84.238806"></polyline>
                <polyline id="Fill-24" fill="#484848" points="123.901485 81.761194 84.2344059 81.761194 84.2344059 84.238806 123.901485 84.238806"></polyline>
                <polyline id="Fill-26" fill="#484848" points="224.8875 81.761194 185.220421 81.761194 185.220421 84.238806 224.8875 84.238806"></polyline>
                <polyline id="Fill-28" fill="#484848" points="833.412871 81.761194 781.369554 81.761194 781.369554 84.238806 833.412871 84.238806"></polyline>
                <path d="M651.884653,57.3722015 C651.727475,57.3833507 651.569059,57.3932612 651.410644,57.3982164 C650.827723,57.4353806 650.27698,56.9980821 650.156931,56.4059328 C645.484901,33.2637985 624.934158,16.4668284 601.290594,16.4668284 C577.648267,16.4668284 557.09505,33.2637985 552.42302,56.4059328 C552.30297,56.9980821 551.768317,57.4366194 551.169307,57.3982164 C551.010891,57.3932612 550.853713,57.3833507 550.696535,57.3722015 C550.528218,57.3598134 550.362376,57.3474254 550.190347,57.3474254 C533.967574,57.3474254 520.769554,70.546903 520.769554,86.7690672 C520.769554,102.99247 533.967574,116.190709 550.190347,116.190709 L652.389604,116.190709 C668.613614,116.190709 681.812871,102.99247 681.812871,86.7690672 C681.812871,70.546903 668.613614,57.3474254 652.389604,57.3474254 C652.22005,57.3474254 652.05297,57.3598134 651.884653,57.3722015 M518.294307,86.7690672 C518.294307,69.1805 532.602475,54.8698134 550.190347,54.8698134 L550.218812,54.8698134 C555.524505,31.1194254 576.831436,13.9892164 601.290594,13.9892164 C625.749752,13.9892164 647.056683,31.1194254 652.362376,54.8698134 L652.389604,54.8698134 C669.978713,54.8698134 684.288119,69.1805 684.288119,86.7690672 C684.288119,104.358873 669.978713,118.668321 652.389604,118.668321 L550.190347,118.668321 C532.602475,118.668321 518.294307,104.358873 518.294307,86.7690672" id="Fill-30" fill="#484848"></path>
                <path d="M579.293936,67.568194 C578.610767,67.568194 578.056312,68.1231791 578.056312,68.807 L578.056312,94.8219254 C578.056312,95.5057463 578.610767,96.0607313 579.293936,96.0607313 L623.848391,96.0607313 C624.531559,96.0607313 625.086015,95.5057463 625.086015,94.8219254 L625.086015,68.807 C625.086015,68.1231791 624.531559,67.568194 623.848391,67.568194 L579.293936,67.568194 Z M575.581064,94.8219254 L575.581064,68.807 C575.581064,66.7580149 577.246906,65.0905821 579.293936,65.0905821 L623.848391,65.0905821 C625.895421,65.0905821 627.561262,66.7580149 627.561262,68.807 L627.561262,94.8219254 C627.561262,96.8709104 625.895421,98.5383433 623.848391,98.5383433 L579.293936,98.5383433 C577.246906,98.5383433 575.581064,96.8709104 575.581064,94.8219254 L575.581064,94.8219254 Z" id="Fill-32" fill="#484848"></path>
                <path d="M618.897896,53.9413284 C618.897896,44.3777463 611.125619,36.5980448 601.571163,36.5980448 C592.016708,36.5980448 584.244431,44.3777463 584.244431,53.9413284 L584.244431,65.0905821 L618.897896,65.0905821 L618.897896,53.9413284 Z M581.769183,66.3293881 L581.769183,53.9413284 C581.769183,43.0125821 590.652847,34.1204328 601.571163,34.1204328 C612.48948,34.1204328 621.373144,43.0125821 621.373144,53.9413284 L621.373144,66.3293881 C621.373144,67.0144478 620.819926,67.568194 620.13552,67.568194 L583.006807,67.568194 C582.322401,67.568194 581.769183,67.0144478 581.769183,66.3293881 L581.769183,66.3293881 Z" id="Fill-34" fill="#484848"></path>
                <path d="M599.016089,82.3564403 C599.016089,80.9454403 600.159653,79.8007836 601.570545,79.8007836 C602.981436,79.8007836 604.126238,80.9454403 604.126238,82.3564403 C604.126238,83.7674403 602.981436,84.912097 601.570545,84.912097 C600.159653,84.912097 599.016089,83.7674403 599.016089,82.3564403" id="Fill-36" fill="#484848"></path>
                <path d="M720.755198,83 C720.755198,99.223403 733.953218,112.421642 750.17599,112.421642 C766.4,112.421642 779.599257,99.223403 779.599257,83 C779.599257,66.776597 766.4,53.5783582 750.17599,53.5783582 C733.953218,53.5783582 720.755198,66.776597 720.755198,83 M718.27995,83 C718.27995,65.4114328 732.589356,51.1007463 750.17599,51.1007463 C767.765099,51.1007463 782.074505,65.4114328 782.074505,83 C782.074505,100.588567 767.765099,114.899254 750.17599,114.899254 C732.589356,114.899254 718.27995,100.588567 718.27995,83" id="Fill-38" fill="#484848"></path>
                <path d="M731.611015,80.4340612 C732.049134,80.4340612 732.471163,80.2024045 732.697649,79.7911209 C734.565223,76.3844045 740.347401,70.6190015 750.170421,70.6115687 L750.187748,70.6115687 C760.000866,70.6115687 765.784282,76.3645836 767.656807,79.7663448 C767.98849,80.3646881 768.737252,80.5814791 769.3375,80.2531955 C769.93651,79.9236731 770.155569,79.1692403 769.825124,78.570897 C767.690223,74.6934343 761.154332,68.1339567 750.187748,68.1339567 L750.167946,68.1339567 C739.190223,68.1413896 732.656807,74.7157328 730.526856,78.5993896 C730.197649,79.1989716 730.416708,79.9509269 731.016955,80.2816881 C731.206312,80.384509 731.41052,80.4340612 731.611015,80.4340612" id="Fill-40" fill="#484848"></path>
                <path d="M742.926114,86.6511328 C743.322153,86.6511328 743.712005,86.4615955 743.950866,86.1097746 C744.130322,85.845909 745.824629,83.5367746 750.179827,83.5330582 L750.18849,83.5330582 C754.620421,83.5330582 756.330817,85.9784612 756.401361,86.0837597 C756.777599,86.637506 757.533787,86.7997896 758.096906,86.4380582 C758.661262,86.0775657 758.840718,85.3392373 758.496658,84.7656701 C758.474381,84.7272672 756.203342,81.0554463 750.18849,81.0554463 L750.177351,81.0554463 C744.666213,81.0591627 742.318441,84.1053866 741.903837,84.7161179 C741.518936,85.2822522 741.666213,86.0527896 742.230569,86.4368194 C742.443441,86.5817597 742.687252,86.6511328 742.926114,86.6511328" id="Fill-42" fill="#484848"></path>
                <path d="M737.264975,83.5335537 C737.701856,83.5335537 738.125124,83.301897 738.350371,82.8906134 C738.480322,82.6589567 741.714233,77.0731806 750.175866,77.0731806 C758.704332,77.0731806 761.967946,82.8336284 762.000124,82.8906134 C762.329332,83.4901955 763.083045,83.7094642 763.680817,83.3799418 C764.279827,83.0504194 764.498886,82.2972254 764.168441,81.6988821 C764.008787,81.4077627 760.152351,74.5955687 750.175866,74.5955687 C740.198144,74.5955687 736.341708,81.4077627 736.182054,81.6988821 C735.851609,82.2972254 736.070668,83.0504194 736.670916,83.3799418 C736.859035,83.4840015 737.063243,83.5335537 737.264975,83.5335537" id="Fill-44" fill="#484848"></path>
                <path d="M747.621535,90.5102612 C747.621535,89.0992612 748.766337,87.9546045 750.17599,87.9546045 C751.588119,87.9546045 752.731683,89.0992612 752.731683,90.5102612 C752.731683,91.9212612 751.588119,93.0659179 750.17599,93.0659179 C748.766337,93.0659179 747.621535,91.9212612 747.621535,90.5102612" id="Fill-46" fill="#484848"></path>
                <path d="M153.322896,53.5783582 C137.100124,53.5783582 123.902104,66.776597 123.902104,83 C123.902104,99.223403 137.100124,112.421642 153.322896,112.421642 C169.545668,112.421642 182.744926,99.223403 182.744926,83 C182.744926,66.776597 169.545668,53.5783582 153.322896,53.5783582 M153.322896,114.899254 C135.735025,114.899254 121.426856,100.588567 121.426856,83 C121.426856,65.4114328 135.735025,51.1007463 153.322896,51.1007463 C170.912005,51.1007463 185.220173,65.4114328 185.220173,83 C185.220173,100.588567 170.912005,114.899254 153.322896,114.899254" id="Fill-48" fill="#484848"></path>
                <path d="M155.283292,99.7977134 C155.283292,98.548997 154.270916,97.5368925 153.020916,97.5368925 C151.772153,97.5368925 150.759777,98.548997 150.759777,99.7977134 C150.759777,101.047669 151.772153,102.059773 153.020916,102.059773 C154.270916,102.059773 155.283292,101.047669 155.283292,99.7977134" id="Fill-50" fill="#484848"></path>
                <path d="M164.398639,72.456894 C164.398639,71.2069388 163.386262,70.1948343 162.136262,70.1948343 C160.8875,70.1948343 159.875124,71.2069388 159.875124,72.456894 C159.875124,73.7056104 160.8875,74.7177149 162.136262,74.7177149 C163.386262,74.7177149 164.398639,73.7056104 164.398639,72.456894" id="Fill-52" fill="#484848"></path>
                <path d="M146.772153,74.7179627 C146.772153,73.4692463 145.759777,72.4571418 144.509777,72.4571418 C143.261015,72.4571418 142.248639,73.4692463 142.248639,74.7179627 C142.248639,75.9679179 143.261015,76.9800224 144.509777,76.9800224 C145.759777,76.9800224 146.772153,75.9679179 146.772153,74.7179627" id="Fill-54" fill="#484848"></path>
                <path d="M153.020668,101.036519 C152.336262,101.036519 151.783045,100.482773 151.783045,99.7977134 L151.783045,69.0666537 C151.783045,68.3828328 152.336262,67.8278478 153.020668,67.8278478 C153.705074,67.8278478 154.258292,68.3828328 154.258292,69.0666537 L154.258292,99.7977134 C154.258292,100.482773 153.705074,101.036519 153.020668,101.036519" id="Fill-56" fill="#484848"></path>
                <path d="M153.020668,95.8526119 C152.703837,95.8526119 152.387005,95.731209 152.145668,95.4896418 L144.276856,87.6133134 C143.628342,86.9641791 143.271906,86.103209 143.271906,85.1864925 L143.271906,76.1481642 C143.271906,75.4631045 143.825124,74.9093582 144.50953,74.9093582 C145.193936,74.9093582 145.747153,75.4631045 145.747153,76.1481642 L145.747153,85.1864925 C145.747153,85.4416866 145.846163,85.6807761 146.026856,85.8616418 L153.895668,93.7379701 C154.379579,94.2223433 154.379579,95.0052687 153.895668,95.4896418 C153.654332,95.731209 153.3375,95.8526119 153.020668,95.8526119" id="Fill-58" fill="#484848"></path>
                <path d="M153.205569,91.1514672 C152.888738,91.1514672 152.571906,91.0300642 152.330569,90.788497 C151.846658,90.3041239 151.846658,89.5211985 152.330569,89.0368254 L160.618936,80.739303 C160.799629,80.5584373 160.898639,80.3193478 160.898639,80.0641537 L160.898639,73.5542284 C160.898639,72.8691687 161.451856,72.3154224 162.136262,72.3154224 C162.820668,72.3154224 163.373886,72.8691687 163.373886,73.5542284 L163.373886,80.0641537 C163.373886,80.9808701 163.01745,81.8418403 162.368936,82.4909746 L154.080569,90.788497 C153.839233,91.0300642 153.522401,91.1514672 153.205569,91.1514672" id="Fill-60" fill="#484848"></path>
                <path d="M152.747525,62.6952269 C152.87005,62.483391 153.173267,62.483391 153.294554,62.6952269 L154.99505,65.6435851 L156.696782,68.5931821 C156.818069,68.8037791 156.667079,69.0676448 156.423267,69.0676448 L153.02104,69.0676448 L149.62005,69.0676448 C149.375,69.0676448 149.22401,68.8037791 149.345297,68.5931821 L151.04703,65.6435851 L152.747525,62.6952269 Z" id="Fill-62" fill="#484848"></path>
                <polyline id="Fill-64" fill="#484848" points="428.098267 81.761194 388.42995 81.761194 388.42995 84.238806 428.098267 84.238806"></polyline>
                <polyline id="Fill-66" fill="#484848" points="519.183292 81.761194 489.417203 81.761194 489.417203 84.238806 519.183292 84.238806"></polyline>
                <path d="M428.098267,83 C428.098267,99.223403 441.296287,112.421642 457.519059,112.421642 C473.743069,112.421642 486.942327,99.223403 486.942327,83 C486.942327,66.776597 473.743069,53.5783582 457.519059,53.5783582 C441.296287,53.5783582 428.098267,66.776597 428.098267,83 M425.62302,83 C425.62302,65.4114328 439.932426,51.1007463 457.519059,51.1007463 C475.108168,51.1007463 489.417574,65.4114328 489.417574,83 C489.417574,100.588567 475.108168,114.899254 457.519059,114.899254 C439.932426,114.899254 425.62302,100.588567 425.62302,83" id="Fill-68" fill="#484848"></path>
                <path d="M438.954084,80.4340612 C439.392203,80.4340612 439.814233,80.2024045 440.040718,79.7911209 C441.908292,76.3844045 447.69047,70.6190015 457.51349,70.6115687 L457.530817,70.6115687 C467.343936,70.6115687 473.127351,76.3645836 474.999876,79.7663448 C475.331559,80.3646881 476.080322,80.5814791 476.680569,80.2531955 C477.279579,79.9236731 477.498639,79.1692403 477.168193,78.570897 C475.033292,74.6934343 468.497401,68.1339567 457.530817,68.1339567 L457.511015,68.1339567 C446.533292,68.1413896 439.999876,74.7157328 437.869926,78.5993896 C437.540718,79.1989716 437.759777,79.9509269 438.360025,80.2816881 C438.549381,80.384509 438.753589,80.4340612 438.954084,80.4340612" id="Fill-70" fill="#484848"></path>
                <path d="M450.269183,86.6511328 C450.665223,86.6511328 451.055074,86.4615955 451.293936,86.1097746 C451.473391,85.845909 453.167698,83.5367746 457.522896,83.5330582 L457.531559,83.5330582 C461.96349,83.5330582 463.673886,85.9784612 463.744431,86.0837597 C464.120668,86.637506 464.876856,86.7997896 465.439975,86.4380582 C466.004332,86.0775657 466.183787,85.3392373 465.839728,84.7656701 C465.81745,84.7272672 463.546411,81.0554463 457.531559,81.0554463 L457.520421,81.0554463 C452.009282,81.0591627 449.66151,84.1053866 449.246906,84.7161179 C448.862005,85.2822522 449.009282,86.0527896 449.573639,86.4368194 C449.78651,86.5817597 450.030322,86.6511328 450.269183,86.6511328" id="Fill-72" fill="#484848"></path>
                <path d="M444.608045,83.5335537 C445.044926,83.5335537 445.468193,83.301897 445.693441,82.8906134 C445.823391,82.6589567 449.057302,77.0731806 457.518936,77.0731806 C466.047401,77.0731806 469.311015,82.8336284 469.343193,82.8906134 C469.672401,83.4901955 470.426114,83.7094642 471.023886,83.3799418 C471.622896,83.0504194 471.841955,82.2972254 471.51151,81.6988821 C471.351856,81.4077627 467.495421,74.5955687 457.518936,74.5955687 C447.541213,74.5955687 443.684777,81.4077627 443.525124,81.6988821 C443.194678,82.2972254 443.413738,83.0504194 444.013985,83.3799418 C444.202104,83.4840015 444.406312,83.5335537 444.608045,83.5335537" id="Fill-74" fill="#484848"></path>
                <path d="M454.964728,90.5102612 C454.964728,89.0992612 456.10953,87.9546045 457.519183,87.9546045 C458.931312,87.9546045 460.074876,89.0992612 460.074876,90.5102612 C460.074876,91.9212612 458.931312,93.0659179 457.519183,93.0659179 C456.10953,93.0659179 454.964728,91.9212612 454.964728,90.5102612" id="Fill-76" fill="#484848"></path>
                <path d="M305.330569,113.660448 C305.330569,112.249448 306.475371,111.104791 307.885025,111.104791 C309.297153,111.104791 310.440718,112.249448 310.440718,113.660448 C310.440718,115.071448 309.297153,116.216104 307.885025,116.216104 C306.475371,116.216104 305.330569,115.071448 305.330569,113.660448" id="Fill-78" fill="#484848"></path>
                <path d="M233.552104,2.47761194 C230.139975,2.47761194 227.363985,5.25625373 227.363985,8.67164179 L227.363985,116.447761 C227.363985,119.863149 230.139975,122.641791 233.552104,122.641791 L382.219183,122.641791 C385.631312,122.641791 388.407302,119.863149 388.407302,116.447761 L388.407302,8.67164179 C388.407302,5.25625373 385.631312,2.47761194 382.219183,2.47761194 L233.552104,2.47761194 Z M224.888738,116.447761 L224.888738,8.67164179 C224.888738,3.89108955 228.776114,0 233.552104,0 L382.219183,0 C386.995173,0 390.88255,3.89108955 390.88255,8.67164179 L390.88255,116.447761 C390.88255,121.228313 386.995173,125.119403 382.219183,125.119403 L233.552104,125.119403 C228.776114,125.119403 224.888738,121.228313 224.888738,116.447761 L224.888738,116.447761 Z" id="Fill-80" fill="#484848"></path>
                <mask id="mask-2" fill="white">
                    <use xlink:href="#path-1"></use>
                </mask>
                <g id="Clip-83"></g>
                <path d="M288.683168,163.522388 L327.087871,163.522388 L327.087871,125.119403 L288.683168,125.119403 L288.683168,163.522388 Z M286.207921,164.761194 L286.207921,123.880597 C286.207921,123.195537 286.761139,122.641791 287.445545,122.641791 L328.325495,122.641791 C329.009901,122.641791 329.563119,123.195537 329.563119,123.880597 L329.563119,164.761194 C329.563119,165.446254 329.009901,166 328.325495,166 L287.445545,166 C286.761139,166 286.207921,165.446254 286.207921,164.761194 L286.207921,164.761194 Z" id="Fill-82" fill="#484848" mask="url(#mask-2)"></path>
                <path d="M348.765965,164.761194 L267.004827,164.761194" id="Fill-84" fill="#484848" mask="url(#mask-2)"></path>
                <path d="M267.006559,166 L348.76646,166 C349.449629,166 350.004084,165.446254 350.004084,164.761194 C350.004084,164.076134 349.449629,163.522388 348.76646,163.522388 L267.006559,163.522388 C266.322153,163.522388 265.768936,164.076134 265.768936,164.761194 C265.768936,165.446254 266.322153,166 267.006559,166" id="Fill-85" fill="#484848" mask="url(#mask-2)"></path>
                <path d="M226.126361,103.440299 L389.644926,103.440299" id="Fill-86" fill="#484848" mask="url(#mask-2)"></path>
                <path d="M226.126361,104.679104 L389.644926,104.679104 C390.329332,104.679104 390.88255,104.125358 390.88255,103.440299 C390.88255,102.755239 390.329332,102.201493 389.644926,102.201493 L226.126361,102.201493 C225.441955,102.201493 224.888738,102.755239 224.888738,103.440299 C224.888738,104.125358 225.441955,104.679104 226.126361,104.679104" id="Fill-87" fill="#484848" mask="url(#mask-2)"></path>
                <path d="M916.691337,111.10541 C915.279208,111.10541 914.136881,112.248828 914.136881,113.661067 C914.136881,115.070828 915.279208,116.215485 916.691337,116.215485 C918.102228,116.215485 919.245792,115.070828 919.245792,113.661067 C919.245792,112.248828 918.102228,111.10541 916.691337,111.10541" id="Fill-88" fill="#484848" mask="url(#mask-2)"></path>
                <path d="M991.025,122.641791 L937.131436,122.641791 L896.251485,122.641791 L842.357921,122.641791 C838.945792,122.641791 836.169802,119.863149 836.169802,116.447761 L836.169802,104.679104 L997.213119,104.679104 L997.213119,116.447761 C997.213119,119.863149 994.437129,122.641791 991.025,122.641791 L991.025,122.641791 Z M897.489109,163.522388 L935.893812,163.522388 L935.893812,125.119403 L897.489109,125.119403 L897.489109,163.522388 Z M842.357921,2.47761194 L991.025,2.47761194 C994.437129,2.47761194 997.213119,5.25625373 997.213119,8.67164179 L997.213119,102.201493 L836.169802,102.201493 L836.169802,8.67164179 C836.169802,5.25625373 838.945792,2.47761194 842.357921,2.47761194 L842.357921,2.47761194 Z M991.025,0 L842.357921,0 C837.581931,0 833.694554,3.89108955 833.694554,8.67164179 L833.694554,116.447761 C833.694554,121.228313 837.581931,125.119403 842.357921,125.119403 L895.013861,125.119403 L895.013861,163.522388 L875.812129,163.522388 C875.127723,163.522388 874.574505,164.076134 874.574505,164.761194 C874.574505,165.446254 875.127723,166 875.812129,166 L896.251485,166 L937.131436,166 L957.57203,166 C958.255198,166 958.809653,165.446254 958.809653,164.761194 C958.809653,164.076134 958.255198,163.522388 957.57203,163.522388 L938.369059,163.522388 L938.369059,125.119403 L991.025,125.119403 C995.80099,125.119403 999.688366,121.228313 999.688366,116.447761 L999.688366,8.67164179 C999.688366,3.89108955 995.80099,0 991.025,0 L991.025,0 Z" id="Fill-89" fill="#484848" mask="url(#mask-2)"></path>
                <path d="M991.163985,70.0324269 L973.26547,70.0324269 C972.871906,70.0324269 972.501856,70.2194866 972.267946,70.5378597 L968.431312,75.7693373 L960.610767,63.9238746 C960.395421,63.5980687 960.037748,63.3924269 959.645421,63.3701284 C959.23453,63.340397 958.874381,63.5163075 958.625619,63.8185761 L953.493193,70.0324269 L945.524134,70.0324269 L943.108292,70.0324269 L931.349629,70.0324269 C930.956064,70.0324269 930.586015,70.2194866 930.352104,70.5378597 L922.26547,81.5632328 L906.796411,58.1312179 C906.579827,57.8041731 906.222153,57.5985313 905.831064,57.5762328 C905.420173,57.562606 905.060025,57.7236507 904.811262,58.0246806 L894.891708,70.0324269 L884.329827,70.0324269 L879.439975,70.0324269 L874.271658,70.0324269 C873.876856,70.0324269 873.508045,70.2194866 873.274134,70.5378597 L869.4375,75.7693373 L861.616955,63.9238746 C861.400371,63.5980687 861.042698,63.3924269 860.651609,63.3701284 C860.232054,63.340397 859.881807,63.5163075 859.631807,63.8185761 L854.498144,70.0324269 L842.558787,70.0324269 C841.874381,70.0324269 841.321163,70.5861731 841.321163,71.2712328 C841.321163,71.9562925 841.874381,72.5100388 842.558787,72.5100388 L855.081064,72.5100388 C855.449876,72.5100388 855.800124,72.3452776 856.034035,72.061591 L860.473391,66.6864119 L868.352104,78.618591 C868.573639,78.9555463 868.948639,79.1624269 869.353342,79.1735761 L869.384282,79.1735761 C869.777847,79.1735761 870.147896,78.9865164 870.380569,78.6681433 L874.899134,72.5100388 L879.439975,72.5100388 L884.329827,72.5100388 L895.474629,72.5100388 C895.842203,72.5100388 896.193688,72.3452776 896.427599,72.061591 L905.652847,60.8925164 L921.180074,84.4112478 C921.402847,84.7494418 921.777847,84.9563224 922.18255,84.9674716 L922.212252,84.9674716 C922.604579,84.9674716 922.975866,84.7791731 923.209777,84.4608 L931.977104,72.5100388 L943.108292,72.5100388 L945.524134,72.5100388 L954.074876,72.5100388 C954.443688,72.5100388 954.793936,72.3452776 955.029084,72.061591 L959.468441,66.6864119 L967.345916,78.618591 C967.568688,78.9555463 967.94245,79.1624269 968.347153,79.1735761 L968.378094,79.1735761 C968.770421,79.1735761 969.141708,78.9865164 969.375619,78.6681433 L973.892946,72.5100388 L991.163985,72.5100388 C991.848391,72.5100388 992.401609,71.9562925 992.401609,71.2712328 C992.401609,70.5861731 991.848391,70.0324269 991.163985,70.0324269" id="Fill-90" fill="#484848" mask="url(#mask-2)"></path>
                <path d="M842.366337,29.7095403 C849.285891,29.7095403 852.719059,33.1435104 856.355198,36.779406 C860.186881,40.6122716 864.149752,44.5752119 872.094059,44.5752119 C880.226485,44.5752119 884.186881,37.9723761 888.018564,31.5863313 C891.653465,25.5236149 895.089109,19.7990925 901.819307,19.7990925 C908.55198,19.7990925 911.986386,25.5248537 915.622525,31.5863313 C919.454208,37.9723761 923.415842,44.5752119 931.548267,44.5752119 C939.493812,44.5752119 943.456683,40.6122716 947.288366,36.779406 C950.924505,33.1435104 954.358911,29.7095403 961.279703,29.7095403 C968.200495,29.7095403 971.634901,33.1435104 975.27104,36.779406 C979.102723,40.6122716 983.066832,44.5752119 991.011139,44.5752119 C991.695545,44.5752119 992.248762,44.0214657 992.248762,43.336406 C992.248762,42.6513463 991.695545,42.0976 991.011139,42.0976 C984.091584,42.0976 980.655941,38.6636299 977.02104,35.0277343 C973.188119,31.1948687 969.225248,27.2319284 961.279703,27.2319284 C953.334158,27.2319284 949.371287,31.1948687 945.538366,35.0277343 C941.903465,38.6636299 938.467822,42.0976 931.548267,42.0976 C924.816832,42.0976 921.382426,36.3730776 917.74505,30.3103612 C913.914604,23.9243164 909.951733,17.3214806 901.819307,17.3214806 C893.688119,17.3214806 889.727723,23.9243164 885.89604,30.3103612 C882.258663,36.3718388 878.825495,42.0976 872.094059,42.0976 C865.174505,42.0976 861.740099,38.6636299 858.105198,35.0277343 C854.272277,31.1948687 850.310644,27.2319284 842.366337,27.2319284 C841.681931,27.2319284 841.128713,27.7856746 841.128713,28.4707343 C841.128713,29.155794 841.681931,29.7095403 842.366337,29.7095403" id="Fill-91" fill="#484848" mask="url(#mask-2)"></path>
                <path d="M286.227228,37.1641791 C285.203713,37.1641791 284.370792,37.9978955 284.370792,39.0223881 L284.370792,78.0447761 L331.400495,78.0447761 L331.400495,45.2164179 C331.400495,44.1919254 330.567574,43.358209 329.544059,43.358209 L304.791584,43.358209 C302.40297,43.358209 300.459901,41.4132836 300.459901,39.0223881 C300.459901,37.9978955 299.62698,37.1641791 298.603465,37.1641791 L286.227228,37.1641791 Z M331.400495,80.5223881 L284.370792,80.5223881 C283.005693,80.5223881 281.895545,79.4111791 281.895545,78.0447761 L281.895545,39.0223881 C281.895545,36.6314925 283.838614,34.6865672 286.227228,34.6865672 L298.603465,34.6865672 C300.992079,34.6865672 302.935149,36.6314925 302.935149,39.0223881 C302.935149,40.0468806 303.768069,40.880597 304.791584,40.880597 L329.544059,40.880597 C331.932673,40.880597 333.875743,42.8255224 333.875743,45.2164179 L333.875743,78.0447761 C333.875743,79.4111791 332.765594,80.5223881 331.400495,80.5223881 L331.400495,80.5223881 Z" id="Fill-92" fill="#484848" mask="url(#mask-2)"></path>
                <path d="M333.875743,48.3134328 L331.400495,48.3134328 L331.400495,30.9701493 L290.558911,30.9701493 L290.558911,35.9253731 L288.083663,35.9253731 L288.083663,30.9701493 C288.083663,29.6037463 289.193812,28.4925373 290.558911,28.4925373 L331.400495,28.4925373 C332.765594,28.4925373 333.875743,29.6037463 333.875743,30.9701493 L333.875743,48.3134328 Z" id="Fill-93" fill="#484848" mask="url(#mask-2)"></path>
                <path d="M326.45,37.1641791 L307.885644,37.1641791 C307.201238,37.1641791 306.64802,36.6104328 306.64802,35.9253731 C306.64802,35.2403134 307.201238,34.6865672 307.885644,34.6865672 L326.45,34.6865672 C327.134406,34.6865672 327.687624,35.2403134 327.687624,35.9253731 C327.687624,36.6104328 327.134406,37.1641791 326.45,37.1641791" id="Fill-94" fill="#484848" mask="url(#mask-2)"></path>
            </g>
        </g>
    </g>
</svg>