<?xml version="1.0" encoding="UTF-8"?>
<svg width="62px" height="60px" viewBox="0 0 62 60" version="1.1" xmlns="http://www.w3.org/2000/svg" xmlns:xlink="http://www.w3.org/1999/xlink">
    <!-- Generator: Sketch 47.1 (45422) - http://www.bohemiancoding.com/sketch -->
    <title>temperature</title>
    <desc>Created with Sketch.</desc>
    <defs></defs>
    <g id="e4" stroke="none" stroke-width="1" fill="none" fill-rule="evenodd">
        <g id="E4-consumer" transform="translate(-135.000000, -1623.000000)" fill-rule="nonzero" fill="#BC204B">
            <g id="temperature" transform="translate(135.000000, 1622.000000)">
                <path d="M48.8,6.4 C47.8,5.7 46.7,5 45.6,4.3 C44.8,3.9 43.8,4.1 43.3,4.9 C42.9,5.7 43.1,6.7 43.9,7.2 C44.9,7.7 45.9,8.4 46.8,9 C52.6,13.2 56.4,19.5 57.5,26.6 C58.6,33.7 56.9,40.8 52.6,46.6 C43.8,58.6 27,61.2 15,52.4 C3,43.6 0.4,26.8 9.2,14.8 C13,9.7 18.3,6.1 24.5,4.6 L24.5,30 C22.1,31.9 20.7,34.8 20.7,38 C20.7,43.6 25.3,48.2 30.9,48.2 C36.5,48.2 41.1,43.6 41.1,38 C41.1,34.9 39.7,32 37.3,30 L37.3,27.2 C37.3,26.3 36.6,25.5 35.6,25.5 C34.6,25.5 33.9,26.2 33.9,27.2 L33.9,30.8 C33.9,31.4 34.2,31.9 34.6,32.2 C36.5,33.5 37.7,35.6 37.7,37.9 C37.7,41.7 34.6,44.8 30.8,44.8 C27,44.8 23.9,41.7 23.9,37.9 C23.9,35.6 25,33.4 27,32.2 C27.5,31.9 27.7,31.4 27.7,30.8 L27.7,23.3 L30.4,23.3 C31.3,23.3 32.1,22.6 32.1,21.6 C32.1,20.6 31.4,19.9 30.4,19.9 L27.7,19.9 L27.7,16.3 L30.4,16.3 C31.3,16.3 32.1,15.6 32.1,14.6 C32.1,13.7 31.4,12.9 30.4,12.9 L27.7,12.9 L27.7,9.3 L30.4,9.3 C31.3,9.3 32.1,8.6 32.1,7.6 C32.1,6.6 31.5,6 30.6,6 L27.9,6 L27.9,3.4 C27.9,2.4 27.9,1.9 27.3,1.4 C26.9,1.1 26.4,0.9 25.9,1 C18.2,2.3 11.3,6.6 6.6,13 C-3.2,26.4 -0.3,45.4 13.1,55.2 C18.5,59.1 24.8,61 31,61 C40.3,61 49.5,56.7 55.4,48.6 C60.2,42.1 62.1,34.1 60.9,26.1 C59.6,18.2 55.3,11.2 48.8,6.4 Z" id="Shape"></path>
            </g>
        </g>
    </g>
</svg>