<?xml version="1.0" encoding="UTF-8"?>
<svg width="44px" height="44px" viewBox="0 0 44 44" version="1.1" xmlns="http://www.w3.org/2000/svg" xmlns:xlink="http://www.w3.org/1999/xlink">
    <!-- Generator: Sketch 47.1 (45422) - http://www.bohemiancoding.com/sketch -->
    <title>windows</title>
    <desc>Created with Sketch.</desc>
    <defs></defs>
    <g id="e4" stroke="none" stroke-width="1" fill="none" fill-rule="evenodd">
        <g id="E4-consumer-mobile" transform="translate(-203.000000, -3962.000000)" fill="#9B9B9B">
            <g id="windows" transform="translate(203.000000, 3962.000000)">
                <g id="Group-3" transform="translate(20.066508, 0.080511)">
                    <path d="M0.0433833729,3.54612955 C7.92649026,2.26524066 15.9704428,1.14433286 23.8534451,0.023529078 L23.8534451,0.34380331 L23.8534451,20.8389617 C15.9704428,20.8389617 7.92649026,20.9990468 0.0433833729,20.9990468 L0.0433833729,3.54612955 Z" id="Fill-1"></path>
                </g>
                <path d="M0,6.3486487 C5.95254157,5.38793002 11.9050831,4.58729645 18.0184703,3.94685201 L18.0184703,21.0795991 C11.9050831,21.0795991 5.95254157,21.2396842 0,21.2396842 L0,6.3486487 Z" id="Fill-4"></path>
                <path d="M0,23.001026 C5.95254157,23.001026 11.9050831,23.1611111 18.0184703,23.001026 L18.0184703,40.2937541 C11.9050831,39.4932246 5.95254157,38.692591 0,37.8919574 L0,23.001026 Z" id="Fill-6"></path>
                <g id="Group-10" transform="translate(20.066508, 23.068690)">
                    <path d="M0.0433833729,0.0924208038 L23.8534451,0.0924208038 L23.8534451,19.9471348 L23.8534451,20.9077494 C15.9704428,19.6268605 7.92649026,18.6661418 0.0433833729,17.5453381 L0.0433833729,0.0924208038 Z" id="Fill-8"></path>
                </g>
            </g>
        </g>
    </g>
</svg>