<?xml version="1.0" encoding="UTF-8"?>
<svg width="330px" height="71px" viewBox="0 0 330 71" version="1.1" xmlns="http://www.w3.org/2000/svg" xmlns:xlink="http://www.w3.org/1999/xlink">
    <!-- Generator: Sketch 47.1 (45422) - http://www.bohemiancoding.com/sketch -->
    <title>Group 8</title>
    <desc>Created with Sketch.</desc>
    <defs></defs>
    <g id="Homepage" stroke="none" stroke-width="1" fill="none" fill-rule="evenodd">
        <g transform="translate(-257.000000, -830.000000)" id="Group-8" fill="#A7294C">
            <g transform="translate(257.000000, 830.000000)">
                <path d="M20.3238518,22 C36.4367606,22 39,32.8467482 39,45.751799 C39,47.3401847 38.9073371,48.8385864 38.8166318,50.3329887 L10.3449678,50.3329887 C10.528336,57.3457484 13.0002175,61.9289377 22.336334,61.9289377 C28.1062327,61.9289377 32.8653225,60.8997864 36.8942023,59.1241005 L36.8942023,68.0998463 C31.6750607,70.3454491 25.7250565,71 20.7812934,71 C5.49386765,71 0,61.6489873 0,46.5009998 C0,31.443663 5.40120472,22 20.3238518,22 M10.3449678,43.039612 L28.6543797,43.039612 C28.6543797,36.6807367 28.2882958,31.0710623 20.3238518,31.0710623 C12.8175019,31.0710623 10.7117042,36.0261858 10.3449678,43.039612" id="Fill-1"></path>
                <path d="M102.582321,36.9058611 C102.582321,32.4994571 100.069903,30.9063622 95.9780251,30.9063622 C91.418674,30.9063622 88.3479419,32.3116804 85.9303453,33.8118892 C86.1166713,35.5012112 86.2088397,37.0936378 86.2088397,38.9673952 L86.2088397,70 L75.7911603,70 L75.7911603,36.9058611 C75.7911603,32.4994571 73.3735638,30.9063622 69.1868648,30.9063622 C64.9079974,30.9063622 61.8372652,32.2187944 59.4176794,33.6241125 L59.4176794,70 L49,70 L49,23.1246554 L55.138812,23.1246554 L56.8137569,26.8755116 C60.7212984,23.7808715 66.3024586,22 70.8591573,22 C77.09279,22 80.8146686,23.7808715 82.7674448,26.6877349 C86.9541437,23.6879855 92.5346408,22 97.6503176,22 C108.628964,22 113,27.9994988 113,36.9058611 L113,70 L102.582321,70 L102.582321,36.9058611" id="Fill-2"></path>
                <path d="M163,46.5881671 C163,61.8673963 158.035545,71 144.614611,71 C138.456224,71 133.766334,69.1364202 129.721903,66.1530985 L128.067303,69.8809223 L122,69.8809223 L122,0 L132.29587,0 L132.29587,25.810514 C135.60507,23.6679949 140.017773,22.17567 144.614611,22.17567 C158.035545,22.17567 163,31.3999252 163,46.5881671 M132.29587,33.729732 L132.29587,59.445938 C134.134606,60.4713718 137.35141,62.148328 142.224779,62.148328 C151.233666,62.148328 152.6137,55.2532155 152.6137,46.5881671 C152.6137,38.0147701 151.233666,31.027342 142.224779,31.027342 C137.35141,31.027342 134.134606,32.7042982 132.29587,33.729732" id="Fill-3"></path>
                <path d="M199,31.5625783 C197.900715,31.1870249 196.071401,30.9992482 193.964819,30.9992482 C188.566254,30.9992482 184.53837,32.3130168 182.250423,33.8118892 L182.250423,70 L172,70 L172,23.1246554 L178.040521,23.1246554 L179.68847,26.8755116 C183.073745,24.0628707 188.199609,22 194.148142,22 C196.071401,22 197.718697,22.2806627 199,22.5633301 L199,31.5625783" id="Fill-4"></path>
                <path d="M221.393408,30.9770789 C215.325493,30.9770789 210.376263,32.3781644 206.82988,33.7819161 L206.82988,24.7108539 C210.468766,23.1218016 216.632511,22 222.140751,22 C237.451621,22 241,28.7314761 241,38.6443894 L241,69.8761988 L234.838252,69.8761988 L233.15723,66.135527 C229.422514,69.2216479 224.193779,71 219.058878,71 C207.016882,71 203,63.5173235 203,56.0373131 C203,45.9370996 209.535752,41.6365269 220.086391,40.7946758 L230.543861,39.9528247 L230.543861,37.6152381 C230.543861,32.8454151 228.302499,30.9770789 221.393408,30.9770789 M220.739899,48.2773523 C216.071505,48.8365867 213.363636,50.6129392 213.363636,55.4754125 C213.363636,59.0294506 214.857656,62.3961884 220.552897,62.3961884 C224.75412,62.3961884 227.64899,61.1804035 230.543861,59.3094011 L230.543861,47.1535511 L220.739899,48.2773523" id="Fill-5"></path>
                <path d="M270.929107,61.7415116 C276.272639,61.7415116 279.682622,60.9003156 283,59.591196 L283,68.6623817 C279.404806,70.2514555 275.074023,71 270.284809,71 C253.975738,71 249,61.0876183 249,46.4993334 C249,31.910382 253.975738,22 270.284809,22 C275.074023,22 279.404806,22.7465448 283,24.3376183 L283,33.408804 C279.682622,32.0983513 276.272639,31.2564887 270.929107,31.2564887 C261.991037,31.2564887 259.411876,37.4281478 259.411876,46.4993334 C259.411876,55.5705191 261.991037,61.7415116 270.929107,61.7415116" id="Fill-6"></path>
                <path d="M311.324504,22 C327.437413,22 330,32.8467482 330,45.751799 C330,47.3401847 329.907337,48.8385864 329.816632,50.3329887 L301.34562,50.3329887 C301.528989,57.3457484 304.00087,61.9289377 313.338944,61.9289377 C319.106885,61.9289377 323.865975,60.8997864 327.894202,59.1241005 L327.894202,68.0998463 C322.674408,70.3454491 316.725056,71 311.781293,71 C296.493868,71 291,61.6489873 291,46.5009998 C291,31.443663 296.401857,22 311.324504,22 M301.34562,43.039612 L319.65438,43.039612 C319.65438,36.6807367 319.290253,31.0710623 311.324504,31.0710623 C303.817502,31.0710623 301.711704,36.0261858 301.34562,43.039612" id="Fill-7"></path>
            </g>
        </g>
    </g>
</svg>