<?xml version="1.0" encoding="UTF-8"?>
<svg width="23px" height="26px" viewBox="0 0 23 26" version="1.1" xmlns="http://www.w3.org/2000/svg" xmlns:xlink="http://www.w3.org/1999/xlink">
    <!-- Generator: Sketch 46.2 (44496) - http://www.bohemiancoding.com/sketch -->
    <title>empatica_icon_red</title>
    <desc>Created with Sketch.</desc>
    <defs></defs>
    <g id="Alert-App" stroke="none" stroke-width="1" fill="none" fill-rule="evenodd">
        <g id="Alert-mobile" transform="translate(-16.000000, -22.000000)" fill="#BC204B">
            <g id="Nav-Bar">
                <path d="M39,34.9932596 C39,34.9880919 38.9977789,34.9824749 38.9977789,34.9773073 C38.9977789,34.9552886 38.9955577,34.93327 38.9911154,34.9119253 C38.9888943,34.8997926 38.984452,34.8887833 38.9800097,34.8770999 C38.9755674,34.8627204 38.9711251,34.8483408 38.9666828,34.8346353 C38.9622405,34.8243 38.955577,34.8150881 38.9511347,34.8054269 C38.9422501,34.7919461 38.9355867,34.7777912 38.9267021,34.7645351 C38.9200386,34.7559972 38.9133752,34.7485828 38.9067117,34.7404943 C38.8978271,34.7279122 38.8867214,34.7162288 38.8756156,34.7049948 C38.8733945,34.7029727 38.8711733,34.7005012 38.8689522,34.6984791 L33.7580879,29.5281369 C33.7492033,29.5187003 33.7403187,29.5092637 33.7314341,29.5000518 L33.7292129,29.4982544 C33.6581362,29.4351193 33.567069,29.3955755 33.4671173,29.3955755 C33.3627233,29.3955755 33.2694351,29.4362427 33.2005794,29.5009506 L33.1983583,29.4996025 L31.4325447,31.2862599 C31.3614679,31.358607 31.3170449,31.4592637 31.3170449,31.5698064 C31.3170449,31.6722606 31.3570256,31.7643795 31.4192178,31.8349291 L31.4169966,31.8362772 L31.4325447,31.8522295 C31.4325447,31.8524542 31.4325447,31.8524542 31.4325447,31.8526789 L34.5377113,34.9939336 L31.4325447,38.1351884 C31.4325447,38.1356377 31.4325447,38.1356377 31.4325447,38.1360871 L31.4169966,38.1513654 L31.4192178,38.1527134 C31.3570256,38.2237124 31.3170449,38.316056 31.3170449,38.4182855 C31.3170449,38.5288282 31.3614679,38.6288109 31.4325447,38.7016073 L33.1983583,40.4882648 L33.2005794,40.4873661 C33.2694351,40.5522987 33.3627233,40.5925164 33.4671173,40.5925164 C33.567069,40.5925164 33.6581362,40.5531974 33.7292129,40.4893882 L33.7292129,40.4898375 L33.7314341,40.4878154 C33.7403187,40.4795022 33.7492033,40.469841 33.7580879,40.4601797 L38.8689522,35.2893882 C38.8711733,35.2875907 38.8733945,35.2844452 38.8756156,35.2833218 C38.8867214,35.2720878 38.8978271,35.2601797 38.9067117,35.2478223 C38.9133752,35.2399585 38.9200386,35.2320947 38.9267021,35.2231075 C38.9355867,35.2107501 38.9422501,35.1972693 38.9489136,35.1844625 C38.955577,35.1736778 38.9622405,35.1640166 38.9666828,35.1534566 C38.9711251,35.1402005 38.9755674,35.127169 38.9800097,35.1132389 C38.984452,35.1011061 38.9888943,35.0889734 38.9911154,35.0759419 C38.9955577,35.0584169 38.9955577,35.0399931 38.9977789,35.021794 C38.9977789,35.0128068 39,35.0038196 39,34.9948324 L39,34.9939336 C39,34.9939336 39,34.9934843 39,34.9932596 Z M23.2920328,25.3250432 C24.4536939,25.3250432 25.5020763,25.8281023 26.2350555,26.6299862 L26.2394978,26.6241445 L28.5539353,28.9659869 C28.6272332,29.0387833 28.7249638,29.0837193 28.8338001,29.0837193 C28.9381941,29.0837193 29.0337035,29.0410301 29.1047803,28.973626 L29.1070014,28.973626 L30.8639305,27.1975285 L30.8639305,27.1959558 C30.9394495,27.123384 30.9860937,27.0213792 30.9860937,26.907691 C30.9860937,26.7969236 30.9416707,26.6967162 30.8705939,26.6241445 L28.5539353,24.2823021 L28.5583776,24.2787072 C27.2323515,22.8751296 25.3621439,22 23.2920328,22 C19.2628682,22 16,25.3021258 16,29.3760283 C16,31.6315935 17.0017383,33.6478742 18.5787542,35.0002247 C17.0017383,36.3521258 16,38.3686312 16,40.623747 C16,44.6978742 19.2628682,48 23.2920328,48 C25.3621439,48 27.2323515,47.1246457 28.5583776,45.7217421 L28.5539353,45.7172485 L30.8705939,43.3765296 C30.9416707,43.3032838 30.9860937,43.2033011 30.9860937,43.0929831 C30.9860937,42.9790702 30.9394495,42.8770653 30.8639305,42.8038196 L30.8639305,42.8029208 L29.1070014,41.0257 L29.1047803,41.0265987 C29.0337035,40.9589699 28.9381941,40.9165054 28.8338001,40.9165054 C28.7249638,40.9165054 28.6272332,40.9612167 28.5539353,41.0340131 L26.2394978,43.3751815 L26.2350555,43.3695645 C25.5020763,44.1721224 24.4536939,44.6745074 23.2920328,44.6745074 C21.0797682,44.6745074 19.2873008,42.8613377 19.2873008,40.623747 C19.2873008,39.5306775 19.7159826,38.5398375 20.4112023,37.8116488 L20.4733945,37.7485137 C20.5067117,37.715261 20.540029,37.682233 20.5733462,37.649879 L20.5733462,37.6471829 L22.9011106,35.2925337 C22.9033317,35.2907363 22.9055529,35.2880401 22.907774,35.2857933 C22.9188798,35.2752333 22.9277644,35.2633253 22.9388701,35.2511925 C22.9455336,35.2428794 22.952197,35.2354649 22.9588605,35.226253 C22.9677451,35.2138956 22.9744085,35.2006395 22.9810719,35.1871587 C22.9877354,35.177048 22.9943988,35.1671621 22.9988411,35.1563775 C23.0032834,35.1437954 23.0077257,35.1298652 23.012168,35.1170584 C23.0143892,35.1042516 23.0188315,35.0918942 23.0232738,35.0788628 C23.0254949,35.0617871 23.0277161,35.0433633 23.0277161,35.0247148 C23.0299372,35.0159523 23.0321584,35.0074144 23.0321584,34.9982026 C23.0321584,34.9975285 23.0321584,34.9975285 23.0321584,34.9968545 C23.0321584,34.9966298 23.0321584,34.9966298 23.0321584,34.9961804 C23.0321584,34.9910128 23.0299372,34.9860698 23.0299372,34.9800035 C23.0277161,34.9582095 23.0277161,34.9359661 23.0232738,34.9148462 C23.0188315,34.9029381 23.0166103,34.8919288 23.012168,34.8804701 C23.0077257,34.8660906 23.0032834,34.8512617 22.9988411,34.8380055 C22.9943988,34.8278949 22.9877354,34.818683 22.9832931,34.8087971 C22.9744085,34.7946422 22.9677451,34.7807121 22.9588605,34.76813 C22.952197,34.7589181 22.9455336,34.7515036 22.9388701,34.7438645 C22.9277644,34.7312824 22.9188798,34.719599 22.907774,34.708365 C22.9055529,34.7063429 22.9033317,34.7040961 22.9011106,34.7018493 L20.3356832,32.1065676 C19.6848865,31.3864673 19.2873008,30.4293294 19.2873008,29.3760283 C19.2873008,27.1391116 21.0797682,25.3254926 23.2920328,25.3250432 Z" id="empatica_icon_red"></path>
            </g>
        </g>
    </g>
</svg>