<svg xmlns="http://www.w3.org/2000/svg" viewBox="0 0 59.99 60"><defs><style>.cls-1{fill:#c51a4a;}</style></defs><title>accelerometer_r</title><g id="Layer_2" data-name="Layer 2"><g id="Layer_1-2" data-name="Layer 1"><path class="cls-1" d="M20.47,1.56a30,30,0,0,0-3.83,55.28,29.8,29.8,0,0,0,22.9,1.59,1.65,1.65,0,0,0-1.05-3.14A26.68,26.68,0,0,1,6.12,18.1a26.68,26.68,0,1,1,47.6,24.12L33.84,30.36V12.75l3.46,3.52a1.65,1.65,0,1,0,2.36-2.32l-6.29-6.4h0l-.15-.13-.09-.08a1.65,1.65,0,0,0-.28-.15h0l-.2-.06-.11,0h-.11l-.22,0h0A1.59,1.59,0,0,0,31,7.53l-6.4,6.29a1.65,1.65,0,0,0,2.32,2.36l3.59-3.53V29.89L15.12,39l1.28-5.08a1.65,1.65,0,0,0-3.21-.81L10.95,42h0s0,0,0,.07a1.66,1.66,0,0,0,0,.25c0,.05,0,.1,0,.15a1,1,0,0,0,.05.35S11,43,11,43a1.66,1.66,0,0,0,.14.29h0l0,.06a1.65,1.65,0,0,0,.15.2l.1.09.14.12.12.08.15.09L12,44l.14.05,8.29,2.24a1.65,1.65,0,1,0,.86-3.19l-4.5-1.21,15-8.89,21.43,12.8.12.05.16.12a1.65,1.65,0,0,0,2.26-.59l.31-.54A30,30,0,0,0,20.47,1.56Z"/></g></g></svg>