<svg xmlns="http://www.w3.org/2000/svg" viewBox="0 0 60 60"><defs><style>.cls-1{fill:#c51a4a;}</style></defs><title>activity_tracking</title><g id="Layer_2" data-name="Layer 2"><g id="Layer_1-2" data-name="Layer 1"><path class="cls-1" d="M50.19,9.2c-.28.11-28.07,11.4-18.38,40.58a1.65,1.65,0,0,0,3.14-1c-7.77-23.4,10.67-33.77,15.41-36a26.69,26.69,0,1,1-44.79,28C20.58,28.4,18.92,11,18.1,6.11A26.52,26.52,0,0,1,30,3.31a27,27,0,0,1,3.84.27A1.65,1.65,0,1,0,34.31.31,30.35,30.35,0,0,0,30,0,29.81,29.81,0,0,0,15.56,3.71a1.64,1.64,0,0,0-.27.16A30,30,0,0,0,2,40.72a1.63,1.63,0,0,0,.1.25A30,30,0,1,0,52,9.61,1.65,1.65,0,0,0,50.19,9.2ZM15.06,7.89C15.8,13.27,16.27,27,4.36,37.42A26.65,26.65,0,0,1,15.06,7.89Z"/></g></g></svg>