<?xml version="1.0" encoding="UTF-8"?>
<svg width="268px" height="60px" viewBox="0 0 268 60" version="1.1" xmlns="http://www.w3.org/2000/svg" xmlns:xlink="http://www.w3.org/1999/xlink">
    <!-- Generator: Sketch 47.1 (45422) - http://www.bohemiancoding.com/sketch -->
    <title>logo_alert</title>
    <desc>Created with Sketch.</desc>
    <defs>
        <linearGradient x1="50%" y1="100%" x2="50%" y2="0%" id="linearGradient-1">
            <stop stop-color="#5D285F" offset="0%"></stop>
            <stop stop-color="#BC204B" offset="100%"></stop>
        </linearGradient>
    </defs>
    <g id="Homepage" stroke="none" stroke-width="1" fill="none" fill-rule="evenodd">
        <g transform="translate(-738.000000, -2095.000000)" id="Group-5">
            <g transform="translate(738.000000, 2095.000000)">
                <g id="logo_alert">
                    <path d="M97.5190726,48.1070367 L94.9688357,39.4013875 L83.4205934,39.4013875 L80.8703565,48.1070367 L75,48.1070367 L86.452007,12 L91.9374221,12 L103.389429,48.1070367 L97.5190726,48.1070367 Z M93.8140115,35.024777 L89.1947145,19.2309217 L84.5754176,35.024777 L93.8140115,35.024777 Z M114.071553,48.4400396 C114.648965,48.4400396 115.130142,48.3448959 115.130142,48.3448959 L115.130142,44.0158573 C113.590376,44.0158573 113.1092,43.5401388 113.1092,42.2081269 L113.1092,12.4281467 L107.72002,12.4281467 L107.72002,42.2556987 C107.72002,46.3468781 109.692845,48.4400396 114.071553,48.4400396 Z M118.931439,36.2140733 C118.931439,28.555005 121.770381,23.7502478 129.613563,23.7502478 C138.082274,23.7502478 139.429569,29.2685828 139.429569,35.8334985 C139.429569,36.64222 139.381451,37.4033697 139.333333,38.1645193 L124.368736,38.1645193 C124.464971,41.7324083 125.764149,44.0634291 130.672152,44.0634291 C133.703565,44.0634291 136.205684,43.5401388 138.322862,42.6362735 L138.322862,47.2031715 C135.580155,48.3448959 132.452506,48.6778989 129.854151,48.6778989 C121.818499,48.6778989 118.931439,43.9207136 118.931439,36.2140733 Z M129.613563,28.3647175 C125.667913,28.3647175 124.561207,30.8860258 124.368736,34.4539148 L133.992271,34.4539148 C133.992271,31.2190287 133.799801,28.3647175 129.613563,28.3647175 Z M158.339816,24.0356789 C157.666168,23.8929633 156.80005,23.7502478 155.789579,23.7502478 C152.66193,23.7502478 149.96734,24.7968285 148.186986,26.2239841 L147.320868,24.32111 L144.145101,24.32111 L144.145101,48.1070367 L149.534281,48.1070367 L149.534281,29.7443013 C150.737223,28.9831516 152.8544,28.3171457 155.693343,28.3171457 C156.80005,28.3171457 157.762403,28.4122894 158.339816,28.6025768 L158.339816,24.0356789 Z M175.565944,43.9682854 C174.988532,44.0634291 174.266766,44.1585728 173.448766,44.1585728 C170.706058,44.1585728 169.503116,43.0168484 169.503116,40.6382557 L169.503116,28.8404361 L176.287709,28.8404361 L176.287709,24.32111 L169.503116,24.32111 L169.503116,17.1377602 L164.113937,18.6600595 L164.113937,24.32111 L159.735228,25.5579782 L159.735228,28.8404361 L164.113937,28.8404361 L164.113937,41.2566898 C164.113937,46.39445 167.241586,48.6778989 172.582648,48.6778989 C173.400648,48.6778989 174.747943,48.5351833 175.565944,48.3448959 L175.565944,43.9682854 Z M210.739965,48.1070367 L208.189728,39.4013875 L196.641486,39.4013875 L194.091249,48.1070367 L188.220893,48.1070367 L199.6729,12 L205.158315,12 L216.610322,48.1070367 L210.739965,48.1070367 Z M207.034904,35.024777 L202.415607,19.2309217 L197.79631,35.024777 L207.034904,35.024777 Z M232.296684,48.6778989 C229.8908,48.6778989 227.581152,47.9167493 225.848915,46.8225966 L225.848915,60 L220.459736,60 L220.459736,24.32111 L223.635502,24.32111 L224.501621,26.2239841 C226.618798,24.7016848 229.0728,23.7502478 232.296684,23.7502478 C239.321865,23.7502478 241.920219,28.4122894 241.920219,36.2140733 C241.920219,43.9682854 239.321865,48.6778989 232.296684,48.6778989 Z M231.045625,44.1585728 C235.761157,44.1585728 236.482922,40.5906838 236.482922,36.2140733 C236.482922,31.789891 235.761157,28.2695738 231.045625,28.2695738 C228.495388,28.2695738 226.811269,29.1258672 225.848915,29.6491576 L225.848915,42.7789891 C226.811269,43.3022795 228.495388,44.1585728 231.045625,44.1585728 Z M258.376465,48.6778989 C255.970581,48.6778989 253.660932,47.9167493 251.928696,46.8225966 L251.928696,60 L246.539516,60 L246.539516,24.32111 L249.715283,24.32111 L250.581401,26.2239841 C252.698579,24.7016848 255.15258,23.7502478 258.376465,23.7502478 C265.401645,23.7502478 268,28.4122894 268,36.2140733 C268,43.9682854 265.401645,48.6778989 258.376465,48.6778989 Z M257.125405,44.1585728 C261.840937,44.1585728 262.562703,40.5906838 262.562703,36.2140733 C262.562703,31.789891 261.840937,28.2695738 257.125405,28.2695738 C254.575168,28.2695738 252.89105,29.1258672 251.928696,29.6491576 L251.928696,42.7789891 C252.89105,43.3022795 254.575168,44.1585728 257.125405,44.1585728 Z" id="Alert-App" fill="#BC204B"></path>
                    <g id="Group">
                        <rect id="Rectangle-376" fill="url(#linearGradient-1)" x="0" y="0" width="60" height="60" rx="30"></rect>
                        <circle id="Oval-90-Copy" stroke-opacity="0.200000003" stroke="#FFFFFF" stroke-width="0.4" cx="30" cy="30" r="25.8"></circle>
                        <circle id="Oval-90" stroke-opacity="0.800000012" stroke="#FFFFFF" stroke-width="0.5" opacity="0.6" cx="30" cy="30" r="21"></circle>
                        <circle id="Oval-90" stroke-opacity="0.800000012" stroke="#FFFFFF" stroke-width="0.6" cx="30" cy="30" r="15.7"></circle>
                        <path d="M39,29.995686 C39,29.9927342 38.998608,29.987739 38.998608,29.9843332 C38.998608,29.9695747 38.995824,29.954589 38.993504,29.9398305 C38.9916479,29.9300671 38.9886319,29.9234825 38.9858479,29.9150815 C38.9830639,29.9053181 38.9809759,29.8951007 38.9767998,29.8853373 C38.9733198,29.8787527 38.9691438,29.8719411 38.9656637,29.8653565 C38.9600957,29.8555931 38.9547597,29.8458298 38.9487276,29.8374287 C38.9445516,29.8308441 38.9396795,29.8258489 38.9357355,29.8210808 C38.9287755,29.8113174 38.9211194,29.8047328 38.9134634,29.7965589 C38.9120713,29.7949695 38.9111433,29.793153 38.9092873,29.7913366 L35.3536287,26.2129522 C35.3478286,26.2063676 35.3411006,26.1979666 35.3355325,26.191155 L35.3336765,26.191155 C35.2847241,26.1468793 35.2209237,26.1207679 35.1501631,26.1207679 C35.0789386,26.1207679 35.0146741,26.1486957 34.9652577,26.1929714 L34.9643297,26.191155 L33.7363445,27.4286039 C33.6864641,27.4794642 33.6553759,27.5487159 33.6553759,27.6259145 C33.6553759,27.6972097 33.6834481,27.7598769 33.7261364,27.8089207 L33.7254404,27.8089207 L33.7363445,27.8209546 L35.8965127,29.995686 L33.7363445,32.1708714 L33.7254404,32.1824512 L33.7261364,32.1824512 C33.6834481,32.2321762 33.6553759,32.2964327 33.6553759,32.3675009 C33.6553759,32.4433372 33.6864641,32.5123619 33.7363445,32.5634492 L34.9643297,33.800217 L34.9652577,33.7986276 C35.0146741,33.8449468 35.0789386,33.8712851 35.1501631,33.8712851 C35.2209237,33.8712851 35.2847241,33.8449468 35.3336765,33.800217 L35.3355325,33.7986276 C35.3411006,33.7936324 35.3478286,33.7870478 35.3536287,33.7806902 L38.9092873,30.2007165 C38.9111433,30.1989 38.9120713,30.1970836 38.9134634,30.1970836 C38.9211194,30.1886826 38.9287755,30.1807357 38.9357355,30.1723346 C38.9396795,30.165523 38.9445516,30.1607548 38.9487276,30.1546244 C38.9547597,30.1459963 38.9600957,30.1362329 38.9656637,30.1278319 C38.9691438,30.1212473 38.9733198,30.1146627 38.9767998,30.1062617 C38.9809759,30.0964983 38.9828319,30.0885514 38.9849199,30.0783339 C38.9886319,30.0701599 38.9916479,30.0617589 38.993504,30.053812 C38.995824,30.0406428 38.995824,30.0272466 38.998608,30.0156668 C38.998608,30.0090822 39,30.004087 39,29.995686 L39,29.995686 Z M28.073182,23.3021091 C28.8817081,23.3021091 29.6106576,23.6501842 30.1199014,24.2057874 L30.1236134,24.2010192 L31.7337055,25.8235532 C31.7842819,25.8732782 31.8531864,25.9043847 31.929051,25.9043847 C32.0014355,25.9043847 32.06802,25.8750946 32.1169724,25.8285484 L32.1179004,25.8285484 L33.3393895,24.5983652 L33.3393895,24.5965488 C33.3925179,24.5472779 33.4247662,24.4764368 33.4247662,24.3969676 C33.4247662,24.3215853 33.394838,24.2518795 33.3444936,24.2010192 L31.7337055,22.5800747 L31.7362575,22.5766689 C30.8138186,21.6053282 29.5132168,21 28.073182,21 C25.271529,21 23,23.2857611 23,26.1073717 C23,27.6674656 23.6969332,29.064534 24.7938375,30.0006812 C23.6969332,30.9359201 23,32.3327615 23,33.8942177 C23,36.7142389 25.271529,39 28.073182,39 C29.5132168,39 30.8138186,38.3946718 31.7362575,37.4233311 L31.7337055,37.4201524 L33.3444936,35.7989808 C33.394838,35.7497099 33.4247662,35.6804581 33.4247662,35.6025783 C33.4247662,35.5235632 33.3925179,35.4543115 33.3393895,35.4034512 L32.1179004,34.172814 L32.1169724,34.172814 C32.06802,34.1271759 32.0014355,34.0974318 31.929051,34.0974318 C31.8531864,34.0974318 31.7842819,34.1271759 31.7337055,34.1775821 L30.1236134,35.7989808 L30.1199014,35.7939856 C29.6106576,36.3498158 28.8817081,36.6997074 28.073182,36.6997074 C26.5343145,36.6997074 25.2870732,35.4429588 25.2870732,33.8942177 C25.2870732,33.1372168 25.5849634,32.4512841 26.069383,31.9469953 L26.1129993,31.9040819 C26.1361995,31.8809223 26.1587037,31.8579898 26.1823679,31.8348302 L26.1823679,31.8330138 L27.801276,30.2020788 C27.803132,30.2020788 27.80406,30.2007165 27.805916,30.1989 C27.8131081,30.190499 27.8207642,30.1825521 27.8279562,30.1741511 C27.8321322,30.1691559 27.8372363,30.1625713 27.8411803,30.1575761 C27.8469804,30.149175 27.8511564,30.1394117 27.8571884,30.1291942 C27.8615965,30.1226096 27.8657725,30.1164791 27.8687885,30.1096675 C27.8725005,30.0999041 27.8748206,30.0896867 27.8783006,30.0817397 C27.8806206,30.0715223 27.8834046,30.0635754 27.8854926,30.0551743 C27.8882767,30.0435945 27.8882767,30.0308795 27.8910607,30.0174832 C27.8910607,30.0104445 27.8924527,30.0054493 27.8924527,29.9993188 L27.8924527,29.9975024 C27.8924527,29.9940966 27.8910607,29.9909178 27.8910607,29.9859226 C27.8910607,29.9713911 27.8882767,29.9564055 27.8854926,29.9416469 C27.8834046,29.9332459 27.8806206,29.925299 27.8783006,29.9168979 C27.8757486,29.9071346 27.8725005,29.8987335 27.8687885,29.8885161 C27.8657725,29.8805692 27.8615965,29.8755739 27.8578844,29.8689894 C27.8520844,29.8574096 27.8469804,29.8490085 27.8411803,29.8392452 C27.8372363,29.83425 27.8330602,29.8294818 27.8279562,29.8228972 C27.8207642,29.8144962 27.8131081,29.8063222 27.805916,29.7979212 C27.805916,29.7979212 27.803132,29.7965589 27.801276,29.7949695 L26.0174146,27.9976033 C25.5638512,27.4971744 25.2870732,26.8346284 25.2870732,26.1073717 C25.2870732,24.5588577 26.5343145,23.3021091 28.073182,23.3021091 L28.073182,23.3021091 Z" id="Fill-6-Copy" fill="#FFFFFF"></path>
                    </g>
                </g>
            </g>
        </g>
    </g>
</svg>