<?xml version="1.0" encoding="UTF-8"?>
<svg width="194px" height="130px" viewBox="0 0 194 130" version="1.1" xmlns="http://www.w3.org/2000/svg" xmlns:xlink="http://www.w3.org/1999/xlink">
    <!-- Generator: Sketch 47.1 (45422) - http://www.bohemiancoding.com/sketch -->
    <title>alert_logo-sm</title>
    <desc>Created with Sketch.</desc>
    <defs>
        <linearGradient x1="50%" y1="100%" x2="50%" y2="0%" id="linearGradient-1">
            <stop stop-color="#5D285F" offset="0%"></stop>
            <stop stop-color="#BC204B" offset="100%"></stop>
        </linearGradient>
    </defs>
    <g id="Homepage" stroke="none" stroke-width="1" fill="none" fill-rule="evenodd">
        <g id="Homepage-Mobile" transform="translate(-90.000000, -2431.000000)">
            <g id="alert_logo-sm" transform="translate(90.000000, 2431.000000)">
                <path d="M23.316,118 L20.772,109.216 L9.252,109.216 L6.708,118 L0.852,118 L12.276,81.568 L17.748,81.568 L29.172,118 L23.316,118 Z M19.62,104.8 L15.012,88.864 L10.404,104.8 L19.62,104.8 Z M39.828,118.336 C40.404,118.336 40.884,118.24 40.884,118.24 L40.884,113.872 C39.348,113.872 38.868,113.392 38.868,112.048 L38.868,82 L33.492,82 L33.492,112.096 C33.492,116.224 35.46,118.336 39.828,118.336 Z M44.676,106 C44.676,98.272 47.508,93.424 55.332,93.424 C63.78,93.424 65.124,98.992 65.124,105.616 C65.124,106.432 65.076,107.2 65.028,107.968 L50.1,107.968 C50.196,111.568 51.492,113.92 56.388,113.92 C59.412,113.92 61.908,113.392 64.02,112.48 L64.02,117.088 C61.284,118.24 58.164,118.576 55.572,118.576 C47.556,118.576 44.676,113.776 44.676,106 Z M55.332,98.08 C51.396,98.08 50.292,100.624 50.1,104.224 L59.7,104.224 C59.7,100.96 59.508,98.08 55.332,98.08 Z M83.988,93.712 C83.316,93.568 82.452,93.424 81.444,93.424 C78.324,93.424 75.636,94.48 73.86,95.92 L72.996,94 L69.828,94 L69.828,118 L75.204,118 L75.204,99.472 C76.404,98.704 78.516,98.032 81.348,98.032 C82.452,98.032 83.412,98.128 83.988,98.32 L83.988,93.712 Z M101.172,113.824 C100.596,113.92 99.876,114.016 99.06,114.016 C96.324,114.016 95.124,112.864 95.124,110.464 L95.124,98.56 L101.892,98.56 L101.892,94 L95.124,94 L95.124,86.752 L89.748,88.288 L89.748,94 L85.38,95.248 L85.38,98.56 L89.748,98.56 L89.748,111.088 C89.748,116.272 92.868,118.576 98.196,118.576 C99.012,118.576 100.356,118.432 101.172,118.24 L101.172,113.824 Z M136.26,118 L133.716,109.216 L122.196,109.216 L119.652,118 L113.796,118 L125.22,81.568 L130.692,81.568 L142.116,118 L136.26,118 Z M132.564,104.8 L127.956,88.864 L123.348,104.8 L132.564,104.8 Z M157.764,118.576 C155.364,118.576 153.06,117.808 151.332,116.704 L151.332,130 L145.956,130 L145.956,94 L149.124,94 L149.988,95.92 C152.1,94.384 154.548,93.424 157.764,93.424 C164.772,93.424 167.364,98.128 167.364,106 C167.364,113.824 164.772,118.576 157.764,118.576 Z M156.516,114.016 C161.22,114.016 161.94,110.416 161.94,106 C161.94,101.536 161.22,97.984 156.516,97.984 C153.972,97.984 152.292,98.848 151.332,99.376 L151.332,112.624 C152.292,113.152 153.972,114.016 156.516,114.016 Z M183.78,118.576 C181.38,118.576 179.076,117.808 177.348,116.704 L177.348,130 L171.972,130 L171.972,94 L175.14,94 L176.004,95.92 C178.116,94.384 180.564,93.424 183.78,93.424 C190.788,93.424 193.38,98.128 193.38,106 C193.38,113.824 190.788,118.576 183.78,118.576 Z M182.532,114.016 C187.236,114.016 187.956,110.416 187.956,106 C187.956,101.536 187.236,97.984 182.532,97.984 C179.988,97.984 178.308,98.848 177.348,99.376 L177.348,112.624 C178.308,113.152 179.988,114.016 182.532,114.016 Z" id="Alert-App" fill="#BC204B"></path>
                <g id="Group-Copy" transform="translate(68.000000, 0.000000)">
                    <rect id="Rectangle-376" fill="url(#linearGradient-1)" x="0" y="0" width="60" height="60" rx="30"></rect>
                    <circle id="Oval-90-Copy" stroke-opacity="0.200000003" stroke="#FFFFFF" stroke-width="0.4" cx="30" cy="30" r="25.8"></circle>
                    <circle id="Oval-90" stroke-opacity="0.800000012" stroke="#FFFFFF" stroke-width="0.5" opacity="0.6" cx="30" cy="30" r="21"></circle>
                    <circle id="Oval-90" stroke-opacity="0.800000012" stroke="#FFFFFF" stroke-width="0.6" cx="30" cy="30" r="15.7"></circle>
                    <path d="M39,29.995686 C39,29.9927342 38.998608,29.987739 38.998608,29.9843332 C38.998608,29.9695747 38.995824,29.954589 38.993504,29.9398305 C38.9916479,29.9300671 38.9886319,29.9234825 38.9858479,29.9150815 C38.9830639,29.9053181 38.9809759,29.8951007 38.9767998,29.8853373 C38.9733198,29.8787527 38.9691438,29.8719411 38.9656637,29.8653565 C38.9600957,29.8555931 38.9547597,29.8458298 38.9487276,29.8374287 C38.9445516,29.8308441 38.9396795,29.8258489 38.9357355,29.8210808 C38.9287755,29.8113174 38.9211194,29.8047328 38.9134634,29.7965589 C38.9120713,29.7949695 38.9111433,29.793153 38.9092873,29.7913366 L35.3536287,26.2129522 C35.3478286,26.2063676 35.3411006,26.1979666 35.3355325,26.191155 L35.3336765,26.191155 C35.2847241,26.1468793 35.2209237,26.1207679 35.1501631,26.1207679 C35.0789386,26.1207679 35.0146741,26.1486957 34.9652577,26.1929714 L34.9643297,26.191155 L33.7363445,27.4286039 C33.6864641,27.4794642 33.6553759,27.5487159 33.6553759,27.6259145 C33.6553759,27.6972097 33.6834481,27.7598769 33.7261364,27.8089207 L33.7254404,27.8089207 L33.7363445,27.8209546 L35.8965127,29.995686 L33.7363445,32.1708714 L33.7254404,32.1824512 L33.7261364,32.1824512 C33.6834481,32.2321762 33.6553759,32.2964327 33.6553759,32.3675009 C33.6553759,32.4433372 33.6864641,32.5123619 33.7363445,32.5634492 L34.9643297,33.800217 L34.9652577,33.7986276 C35.0146741,33.8449468 35.0789386,33.8712851 35.1501631,33.8712851 C35.2209237,33.8712851 35.2847241,33.8449468 35.3336765,33.800217 L35.3355325,33.7986276 C35.3411006,33.7936324 35.3478286,33.7870478 35.3536287,33.7806902 L38.9092873,30.2007165 C38.9111433,30.1989 38.9120713,30.1970836 38.9134634,30.1970836 C38.9211194,30.1886826 38.9287755,30.1807357 38.9357355,30.1723346 C38.9396795,30.165523 38.9445516,30.1607548 38.9487276,30.1546244 C38.9547597,30.1459963 38.9600957,30.1362329 38.9656637,30.1278319 C38.9691438,30.1212473 38.9733198,30.1146627 38.9767998,30.1062617 C38.9809759,30.0964983 38.9828319,30.0885514 38.9849199,30.0783339 C38.9886319,30.0701599 38.9916479,30.0617589 38.993504,30.053812 C38.995824,30.0406428 38.995824,30.0272466 38.998608,30.0156668 C38.998608,30.0090822 39,30.004087 39,29.995686 L39,29.995686 Z M28.073182,23.3021091 C28.8817081,23.3021091 29.6106576,23.6501842 30.1199014,24.2057874 L30.1236134,24.2010192 L31.7337055,25.8235532 C31.7842819,25.8732782 31.8531864,25.9043847 31.929051,25.9043847 C32.0014355,25.9043847 32.06802,25.8750946 32.1169724,25.8285484 L32.1179004,25.8285484 L33.3393895,24.5983652 L33.3393895,24.5965488 C33.3925179,24.5472779 33.4247662,24.4764368 33.4247662,24.3969676 C33.4247662,24.3215853 33.394838,24.2518795 33.3444936,24.2010192 L31.7337055,22.5800747 L31.7362575,22.5766689 C30.8138186,21.6053282 29.5132168,21 28.073182,21 C25.271529,21 23,23.2857611 23,26.1073717 C23,27.6674656 23.6969332,29.064534 24.7938375,30.0006812 C23.6969332,30.9359201 23,32.3327615 23,33.8942177 C23,36.7142389 25.271529,39 28.073182,39 C29.5132168,39 30.8138186,38.3946718 31.7362575,37.4233311 L31.7337055,37.4201524 L33.3444936,35.7989808 C33.394838,35.7497099 33.4247662,35.6804581 33.4247662,35.6025783 C33.4247662,35.5235632 33.3925179,35.4543115 33.3393895,35.4034512 L32.1179004,34.172814 L32.1169724,34.172814 C32.06802,34.1271759 32.0014355,34.0974318 31.929051,34.0974318 C31.8531864,34.0974318 31.7842819,34.1271759 31.7337055,34.1775821 L30.1236134,35.7989808 L30.1199014,35.7939856 C29.6106576,36.3498158 28.8817081,36.6997074 28.073182,36.6997074 C26.5343145,36.6997074 25.2870732,35.4429588 25.2870732,33.8942177 C25.2870732,33.1372168 25.5849634,32.4512841 26.069383,31.9469953 L26.1129993,31.9040819 C26.1361995,31.8809223 26.1587037,31.8579898 26.1823679,31.8348302 L26.1823679,31.8330138 L27.801276,30.2020788 C27.803132,30.2020788 27.80406,30.2007165 27.805916,30.1989 C27.8131081,30.190499 27.8207642,30.1825521 27.8279562,30.1741511 C27.8321322,30.1691559 27.8372363,30.1625713 27.8411803,30.1575761 C27.8469804,30.149175 27.8511564,30.1394117 27.8571884,30.1291942 C27.8615965,30.1226096 27.8657725,30.1164791 27.8687885,30.1096675 C27.8725005,30.0999041 27.8748206,30.0896867 27.8783006,30.0817397 C27.8806206,30.0715223 27.8834046,30.0635754 27.8854926,30.0551743 C27.8882767,30.0435945 27.8882767,30.0308795 27.8910607,30.0174832 C27.8910607,30.0104445 27.8924527,30.0054493 27.8924527,29.9993188 L27.8924527,29.9975024 C27.8924527,29.9940966 27.8910607,29.9909178 27.8910607,29.9859226 C27.8910607,29.9713911 27.8882767,29.9564055 27.8854926,29.9416469 C27.8834046,29.9332459 27.8806206,29.925299 27.8783006,29.9168979 C27.8757486,29.9071346 27.8725005,29.8987335 27.8687885,29.8885161 C27.8657725,29.8805692 27.8615965,29.8755739 27.8578844,29.8689894 C27.8520844,29.8574096 27.8469804,29.8490085 27.8411803,29.8392452 C27.8372363,29.83425 27.8330602,29.8294818 27.8279562,29.8228972 C27.8207642,29.8144962 27.8131081,29.8063222 27.805916,29.7979212 C27.805916,29.7979212 27.803132,29.7965589 27.801276,29.7949695 L26.0174146,27.9976033 C25.5638512,27.4971744 25.2870732,26.8346284 25.2870732,26.1073717 C25.2870732,24.5588577 26.5343145,23.3021091 28.073182,23.3021091 L28.073182,23.3021091 Z" id="Fill-6-Copy" fill="#FFFFFF"></path>
                </g>
            </g>
        </g>
    </g>
</svg>