<svg xmlns="http://www.w3.org/2000/svg" viewBox="0 0 120 125"><defs><style>.cls-1,.cls-5{fill:none;}.cls-2,.cls-3{fill:#fff;}.cls-2,.cls-5{stroke:#bc204b;stroke-linecap:round;stroke-linejoin:round;stroke-width:1.5px;}.cls-4{fill:#bc204b;}</style></defs><title>alert_dispatch_2</title><g id="Layer_2" data-name="Layer 2"><g id="Layer_1-2" data-name="Layer 1"><rect class="cls-1" width="120" height="125"/><polyline class="cls-2" points="54.81 122.5 54.81 35.39 65.19 35.39 65.19 122.49"/><path class="cls-3" d="M60,41.75A19.25,19.25,0,1,1,79.25,22.5,19.27,19.27,0,0,1,60,41.75Z"/><path class="cls-4" d="M60,4A18.5,18.5,0,1,1,41.5,22.5,18.52,18.52,0,0,1,60,4m0-1.5a20,20,0,1,0,20,20,20,20,0,0,0-20-20Z"/><path class="cls-5" d="M83,16.07a9.81,9.81,0,0,1,2,6.43,9.81,9.81,0,0,1-2,6.43"/><path class="cls-5" d="M86.19,11.79a17.51,17.51,0,0,1,4,10.71,17.51,17.51,0,0,1-4,10.71"/><path class="cls-5" d="M89.56,7.5s6,6.43,6,15-6,15-6,15"/><path class="cls-5" d="M37,28.93a9.81,9.81,0,0,1-2-6.43,9.81,9.81,0,0,1,2-6.43"/><path class="cls-5" d="M33.81,33.21a17.51,17.51,0,0,1-4-10.71,17.51,17.51,0,0,1,4-10.71"/><path class="cls-5" d="M30.44,37.5s-6-6.43-6-15,6-15,6-15"/></g></g></svg>