<?xml version="1.0" encoding="UTF-8"?>
<svg width="228px" height="208px" viewBox="0 0 228 208" version="1.1" xmlns="http://www.w3.org/2000/svg" xmlns:xlink="http://www.w3.org/1999/xlink">
    <!-- Generator: Sketch 47 (45396) - http://www.bohemiancoding.com/sketch -->
    <title>Group 4</title>
    <desc>Created with Sketch.</desc>
    <defs></defs>
    <g id="Stories" stroke="none" stroke-width="1" fill="none" fill-rule="evenodd">
        <g transform="translate(-306.000000, -3076.000000)" id="section_buyone" fill-rule="nonzero" fill="#BC204B">
            <g transform="translate(306.000000, 3076.000000)">
                <g id="Group-4">
                    <g id="Stroke-1" transform="translate(73.000000, 0.000000)">
                        <path d="M124.638235,121.587778 C123.953492,121.575051 123.340528,121.160404 123.074322,120.52985 C122.808116,119.899295 122.938645,119.171212 123.407353,118.672222 L137.722059,104.322222 C153.039706,88.9244444 160.516176,59.45 130.291176,26.8777778 C124.08866,20.1338778 116.894395,14.3733741 108.955882,9.79444444 C98.1514706,3.69 67.9264706,-3.23444444 48.5514706,15.7622222 L5.60735294,58.7211111 C2.91764706,61.4088889 2.73529412,64.0055556 5.15147059,66.42 C10.7132353,72.0233333 26.35,73.7088889 35.6955882,64.4611111 L46.5,53.7555556 C54.5691176,46.4211111 63.4132353,49.2 72.7588235,51.9333333 C83.6088235,55.2588889 94.8691176,58.63 107.770588,48.4255556 C108.516394,47.9682726 109.486358,48.138539 110.031554,48.822443 C110.576749,49.506347 110.52599,50.4891487 109.913235,51.1133333 C95.5985294,62.4566667 82.9705882,58.63 71.8014706,55.2133333 C62.6838235,52.4344444 55.4808824,50.2477778 49.0073529,56.2611111 L38.2485294,66.9211111 C27.3529412,77.7177778 9.57352941,75.5766667 2.87205882,68.88 C1.06655187,67.2640983 0.0733220402,64.9297789 0.161401518,62.5093296 C0.249480996,60.0888803 1.40975369,57.8328139 3.32794118,56.3522222 L46.2720588,13.3933333 C66.9235294,-7.01555556 99.1088235,0.318888889 110.642647,6.78777778 C118.913979,11.5885487 126.401177,17.6262483 132.844118,24.6911111 C154.225,47.7877778 164.755882,82.0911111 140.183824,106.691111 L125.869118,121.041111 C125.552595,121.386234 125.106696,121.584269 124.638235,121.587778 Z" id="Shape"></path>
                    </g>
                    <g id="Stroke-3">
                        <path d="M30.3696,115.338462 C29.9078463,115.346845 29.4628531,115.164878 29.1384,114.835 L14.8656,100.417692 C-10.3056,75.0615385 2.08166817e-17,41.5584615 20.064,21.1453846 C49.3848,-8.51307692 82.308,-2.79192308 100.32,15.0580769 L109.9872,24.7611538 C110.654581,25.4310115 110.654581,26.5170654 109.9872,27.1869231 C109.319819,27.8567808 108.237781,27.8567808 107.5704,27.1869231 L98.1312,17.4838462 C73.8264,-6.36192308 41.9064,3.93615385 22.5264,23.5711538 C3.1464,43.2061538 -6.2016,74.3292308 17.328,98.0376923 L31.6464,112.455 C32.115229,112.95633 32.2457915,113.687828 31.9795167,114.321341 C31.7132419,114.954853 31.10012,115.371445 30.4152,115.384231 L30.3696,115.338462 Z" id="Shape"></path>
                    </g>
                    <g id="Stroke-5" transform="translate(141.000000, 63.000000)">
                        <path d="M47.7714286,86.454 C43.437309,86.2259755 39.3877429,84.2353607 36.5714286,80.9485 L10.56,54.149 C10.0794837,53.4520815 10.1756444,52.5115376 10.7873557,51.9252435 C11.3990671,51.3389493 12.3469953,51.2787871 13.0285714,51.783 L39.04,78.5825 C40.8799344,81.1302562 43.7513201,82.7450787 46.8933828,82.9991199 C50.0354456,83.253161 53.1310445,82.1207795 55.36,79.902 C60.7415295,75.1174703 61.2900854,66.9277025 56.5942857,61.4745 L0.914285714,3.2345 C0.433769414,2.5375815 0.529930146,1.59703761 1.14164146,1.01074347 C1.75335277,0.424449335 2.70128106,0.364287069 3.38285714,0.8685 L58.88,59.1085 C64.8744533,65.9324827 64.2641036,76.28004 57.5085714,82.359 C54.9069895,84.9109968 51.423315,86.376072 47.7714286,86.454 L47.7714286,86.454 Z" id="Shape"></path>
                    </g>
                    <g id="Stroke-7" transform="translate(128.000000, 112.000000)">
                        <path d="M40.12,58.2057143 C36.2039278,58.1925232 32.4705083,56.5358982 29.8176923,53.6342857 L1.45230769,24.1028571 C0.902951137,23.691577 0.647059925,22.9919784 0.800195303,22.3200022 C0.95333068,21.6480261 1.4865062,21.1308683 2.15893819,21.0020789 C2.83137017,20.8732895 3.51577639,21.1572466 3.90307692,21.7257143 L32.2684615,51.2571429 C37.3476744,55.9344927 45.2165342,55.6288622 49.9230769,50.5714286 C52.4633407,48.382771 53.9258185,45.1842262 53.9258185,41.8171429 C53.9258185,38.4500595 52.4633407,35.2515147 49.9230769,33.0628571 L22.1930769,4.08 C21.6437204,3.66871983 21.3878292,2.96912125 21.5409645,2.2971451 C21.6940999,1.62516894 22.2272754,1.10801116 22.8997074,0.979221766 C23.5721394,0.850432377 24.2565456,1.13438946 24.6438462,1.70285714 L52.3738462,30.6857143 C55.5319142,33.530286 57.3370765,37.5954926 57.3370765,41.8628571 C57.3370765,46.1302217 55.5319142,50.1954283 52.3738462,53.04 C49.0838171,56.259402 44.7058357,58.1049778 40.12,58.2057143 Z" id="Shape"></path>
                    </g>
                    <g id="Stroke-9" transform="translate(122.000000, 158.000000)">
                        <path d="M22.6615917,29.0000002 C18.9908653,29.0101016 15.4754718,27.4982284 12.930439,24.8149014 L1.2709935,11.3952911 C0.816612073,10.6801709 0.942756102,9.73597994 1.56838125,9.16933695 C2.1940064,8.60269397 3.13307472,8.58209778 3.78225869,9.12078091 L15.3520162,22.4494108 C17.5917994,24.5974666 20.596739,25.7286474 23.67569,25.5827782 C26.754641,25.436909 29.6425683,24.0265461 31.6752399,21.6760773 C34.2726704,19.2947269 35.7361379,15.8959876 35.6932358,12.3447323 C35.6503337,8.79347693 34.1051989,5.43213907 31.4510198,3.11607392 C30.9082069,2.70680976 30.6553637,2.01064046 30.806675,1.34195818 C30.9579863,0.673275898 31.484811,0.158653108 32.1492334,0.0304950157 C32.8136557,-0.0976630765 33.4899097,0.184902114 33.872597,0.750583292 C37.1366372,3.73520561 39,7.98385573 39,12.4415658 C39,16.8992759 37.1366372,21.1479261 33.872597,24.1325484 C30.8675722,27.1207873 26.8673193,28.8575663 22.6615917,29.0000002 Z" id="Shape"></path>
                    </g>
                    <g id="Stroke-11" transform="translate(20.000000, 96.000000)">
                        <path d="M82.8616,111.5376 C78.8645495,111.506481 75.0495515,109.862085 72.2824,106.9776 L70.96,105.6096 C66.9710875,101.587538 65.5788558,95.6661478 67.3576,90.288 C61.6271541,92.9042583 54.8793545,91.7464589 50.3488,87.3696 L48.844,85.8192 C44.8471675,81.782783 43.4550297,75.8441702 45.2416,70.452 C39.4230556,73.3962458 32.3784876,72.3349862 27.6856,67.8072 L26.1808,66.2568 C21.8950338,62.0798462 20.4818608,55.7652884 22.5784,50.16 C16.9112533,52.5638591 10.3557101,51.3425524 5.9344,47.0592 L4.4296,45.6 C-1.40112129,39.7167277 -1.40112129,30.2336723 4.4296,24.3504 L24.1288,4.56 C26.892922,1.67115158 30.7098575,0.0259207666 34.708,0 C38.7050505,0.031119362 42.5200485,1.67551504 45.2872,4.56 L46.792,6.1104 C50.4636768,9.80418888 51.9642869,15.1339417 50.7592,20.2008 L57.28,13.68 C63.2006358,8.02847709 72.5177642,8.02847709 78.4384,13.68 L79.9432,15.2304 C85.7739213,21.1136723 85.7739213,30.5967277 79.9432,36.48 L77.2072,39.216 C78.3423544,38.9440241 79.5055185,38.806281 80.6728,38.8056 C84.6698505,38.8367194 88.4848485,40.481115 91.252,43.3656 L92.7568,44.8704 C98.5875213,50.7536723 98.5875213,60.2367277 92.7568,66.12 L91.48,67.3968 C92.4700197,67.1901404 93.4782564,67.0832062 94.4896,67.0776 C98.4877425,67.1035208 102.422886,67.5631516 105.187008,70.452 L107.20179,72.9667637 C113.032511,78.8500361 112.404321,88.5543277 106.5736,94.4376 L93.3496,107.7072 C91.5048323,109.63019 88.0088323,110.90699 82.8616,111.5376 Z M86.3728,73.5528 L73.1944,86.64 C68.6723343,91.1777402 68.6723343,98.5182598 73.1944,103.056 L74.6992,104.6064 C76.8589379,106.77798 79.7989101,107.993388 82.8616,107.9808 C85.8704533,108.059244 88.7882329,106.944587 90.9784,104.88 L104.2024,91.6104 C108.699596,87.0624118 108.699596,79.7423882 104.2024,75.1944 L102.88,73.5072 C100.679016,71.2853773 97.6619038,70.0653429 94.5352,70.1328 C91.4715044,70.160681 88.5296265,71.3768763 86.3728,73.5528 Z M80.8552,42.0432 L80.8552,42.0432 C77.8072974,42.0377186 74.8841219,43.2529713 72.7384,45.4176 L51.0328,67.032 C46.5356042,71.5799882 46.5356042,78.9000118 51.0328,83.448 L52.5376,84.9984 C57.0973948,89.3354712 64.2570052,89.3354712 68.8168,84.9984 L90.34,63.3384 C94.8371958,58.7904118 94.8371958,51.4703882 90.34,46.9224 L88.8352,45.6 C86.7277406,43.3514473 83.7997021,42.0519246 80.7184,41.9976 L80.8552,42.0432 Z M68.0416,12.54 C64.9779044,12.522281 62.0360265,13.7384763 59.8792,15.9144 L28.5064,47.4696 C23.9843343,52.0073402 23.9843343,59.3478598 28.5064,63.8856 L30.0112,65.436 C34.5709948,69.7730712 41.7306052,69.7730712 46.2904,65.436 L77.6632,33.8808 C82.1852657,29.3430598 82.1852657,22.0025402 77.6632,17.4648 L76.1584,15.9144 C73.9684158,13.7041602 70.9701767,12.485096 67.8592,12.54 L68.0416,12.54 Z M34.8904,3.42 L34.8904,3.42 C31.8424974,3.41451857 28.9193219,4.6297713 26.7736,6.7944 L6.8464,26.6304 C2.34920421,31.1783882 2.34920421,38.4984118 6.8464,43.0464 L8.3512,44.5512 C12.9109948,48.8882712 20.0706052,48.8882712 24.6304,44.5512 L44.3296,24.7152 C48.8267958,20.1672118 48.8267958,12.8471882 44.3296,8.2992 L42.8248,6.7944 C40.6715614,4.64649661 37.7493184,3.44804864 34.708,3.4656 L34.8904,3.42 Z" id="Shape"></path>
                    </g>
                </g>
            </g>
        </g>
    </g>
</svg>