<svg xmlns="http://www.w3.org/2000/svg" viewBox="0 0 120 125"><defs><style>.cls-1,.cls-4{fill:none;}.cls-2,.cls-3{fill:#fff;}.cls-2,.cls-4{stroke:#bc204b;}.cls-2,.cls-3,.cls-4{stroke-linecap:round;stroke-linejoin:round;stroke-width:1.5px;}.cls-3{stroke:#fff;}.cls-5{fill:#bc204b;}</style></defs><title>caregiver notification</title><g id="Layer_2" data-name="Layer 2"><g id="Layer_1-2" data-name="Layer 1"><rect class="cls-1" width="120" height="125"/><line class="cls-2" x1="93.92" y1="56.59" x2="97.5" y2="50"/><path class="cls-2" d="M72.5,22.5l-50.75-.24c-7.5,0-13.58,5.82-13.58,13s6.08,13,13.58,13l.14,18.3a2.79,2.79,0,0,0,0,5.58l.14,18.63a6.91,6.91,0,0,0,7,6.7H90"/><path class="cls-2" d="M95.27,62.81l3.85,2a6.17,6.17,0,0,1,2.64,8.54L94.65,85.93a2,2,0,0,0-.25.76l-.13,35.82"/><path class="cls-2" d="M42.78,83.92,65.52,43.76a2.24,2.24,0,0,1,3-.84L96,57.19A2.06,2.06,0,0,1,96.84,60L74.1,100.2a2.24,2.24,0,0,1-3,.84L43.66,86.77A2.06,2.06,0,0,1,42.78,83.92Z"/><path class="cls-3" d="M60,115V97.5c.08-.84-5.39-2.67-6.16-3.07l-10.77-5.6A2.57,2.57,0,0,1,42,85.27h0a2.8,2.8,0,0,1,3.72-1.06l4.82,2.5a2.8,2.8,0,0,0,3.72-1.06h0a2.57,2.57,0,0,0-1.1-3.56l-7.23-3.76a2.57,2.57,0,0,1-1.1-3.56h0a2.8,2.8,0,0,1,3.72-1.06l7.23,3.76a2.8,2.8,0,0,0,3.72-1.06h0a2.57,2.57,0,0,0-1.1-3.56l-9.64-5a2.57,2.57,0,0,1-1.1-3.56h0a2.8,2.8,0,0,1,3.72-1.06l9.64,5a2.8,2.8,0,0,0,3.72-1.06h0a2.57,2.57,0,0,0-1.1-3.56l-9.64-5a2.57,2.57,0,0,1-1.1-3.56h0A2.8,2.8,0,0,1,56.55,54L92.68,72.79l4.82,2.5-5,12.2v30Z"/><path class="cls-4" d="M93,45.42a11.41,11.41,0,0,1,11.3,6.13"/><path class="cls-4" d="M90.79,40.58A16.45,16.45,0,0,1,109.62,50.8"/><path class="cls-4" d="M88.63,35.57s8.49-2.17,16,1.92S115,49.88,115,49.88"/><path class="cls-2" d="M30,5.12v23.5a2,2,0,0,0,2,2H74.59a1,1,0,0,1,.71.29L80,35.62V5.12a2,2,0,0,0-2-2H32A2,2,0,0,0,30,5.12Z"/><path class="cls-5" d="M49,19.06c-.37,3-2.39,4.06-5.26,4.06a8,8,0,0,1-3.7-.74l.34-2.63a6.78,6.78,0,0,0,3.4.93c1.83,0,2.44-.56,2.54-1.38s-.26-1.22-1.46-1.38c-3-.4-4.09-1.3-3.8-3.66.26-2.19,1.78-3.63,5-3.63a7.53,7.53,0,0,1,3.36.6l-.31,2.49a7.93,7.93,0,0,0-3.15-.64c-1.34,0-2.15.42-2.23,1.19s.32,1.14,1.55,1.32C47.88,15.94,49.27,16.49,49,19.06Z"/><path class="cls-5" d="M50.41,16.88c.45-3.68,1.78-6.25,5.6-6.25s4.53,2.57,4.08,6.25-1.8,6.25-5.61,6.25S49.94,20.55,50.41,16.88Zm2.62,0c-.36,2.81.13,3.92,1.73,3.92s2.34-1.11,2.7-3.92S57.33,13,55.73,13,53.37,14.06,53,16.88Z"/><path class="cls-5" d="M69.6,19.06c-.37,3-2.39,4.06-5.26,4.06a8,8,0,0,1-3.7-.74L61,19.75a6.78,6.78,0,0,0,3.4.93c1.83,0,2.44-.56,2.54-1.38s-.26-1.22-1.46-1.38c-3-.4-4.09-1.3-3.8-3.66.26-2.19,1.78-3.63,5-3.63a7.53,7.53,0,0,1,3.36.6l-.31,2.49a7.93,7.93,0,0,0-3.15-.64c-1.34,0-2.15.42-2.23,1.19s.32,1.14,1.55,1.32C68.51,15.94,69.9,16.49,69.6,19.06Z"/><path class="cls-2" d="M95,72.5,58.17,52.71s-4.45-2.28-6.73,2.17,2.17,6.73,2.17,6.73-4.45-2.28-6.73,2.17S49,70.5,49,70.5s-4.45-2.28-6.73,2.17,2.17,6.73,2.17,6.73h0S40,77.5,37.74,81.57c-2.43,4.37,2.17,6.73,2.17,6.73L57.5,97.5v25"/><path class="cls-2" d="M70,80"/></g></g></svg>