<svg id="lines" xmlns="http://www.w3.org/2000/svg" viewBox="0 0 90 90"><defs><style>.cls-1,.cls-2{fill:none;stroke:#bc204b;stroke-width:1.5px;}.cls-1{stroke-linecap:round;stroke-linejoin:round;}</style></defs><title>charities</title><g id="Layer_2" data-name="Layer 2"><g id="Layer_1-2" data-name="Layer 1-2"><g id="Hiring"><g id="Culture"><path id="Stroke-1" class="cls-1" d="M65.58,49l3.51-3.52c6.05-6.07,3.06-14.28-1.81-19.56a22.53,22.53,0,0,0-5.36-4.32c-2.47-1.34-10.23-3.43-15.31,1.53L36.06,33.68c-2.84,2.85,4.33,5.59,8,2l2.65-2.63c3.93-3.58,8.85,3.59,15-1.29"/><path id="Stroke-3" class="cls-1" d="M24.52,47.34,21,43.82C9.35,32.08,29.6,12,41.45,23.55l2.36,2.37"/><path id="Stroke-5" class="cls-1" d="M52.3,35.61,65.9,49.91c2.77,2.92-1.34,8.48-4.9,4.8l-6.4-6.6"/><path id="Stroke-7" class="cls-1" d="M49.07,52.55l7,7.23c2.8,2.89,8.47-1.39,4.91-5.07l-6.83-7.09"/><path id="Stroke-9" class="cls-1" d="M47.53,60.8l2.85,3.28c2.83,2.86,8.32-1.23,4.79-4.94"/><path id="Stroke-11" class="cls-2" d="M47.55,60.8l.37.38a3.29,3.29,0,0,1,0,4.62L44.65,69a3.25,3.25,0,0,1-4.6,0l-.37-.38a3.29,3.29,0,0,1,0-4.62l3.24-3.25a3.24,3.24,0,0,1,4.59,0h0Zm-3.36-6.9.37.37a3.29,3.29,0,0,1,0,4.62L39.28,64.2a3.24,3.24,0,0,1-4.59,0l-.37-.38a3.29,3.29,0,0,1,0-4.62l5.28-5.3A3.24,3.24,0,0,1,44.19,53.89ZM41,46.66l.37.38a3.29,3.29,0,0,1,0,4.62l-7.7,7.75a3.25,3.25,0,0,1-4.59,0L28.72,59a3.29,3.29,0,0,1,0-4.62l7.7-7.74a3.24,3.24,0,0,1,4.59,0h0Zm-8.13-2.24.37.37a3.29,3.29,0,0,1,0,4.62l-4.83,4.87a3.25,3.25,0,0,1-4.6,0l-.41-.36a3.29,3.29,0,0,1,0-4.57l4.83-4.87a3.24,3.24,0,0,1,4.59,0h0Z"/></g></g></g></g></svg>