<svg xmlns="http://www.w3.org/2000/svg" viewBox="0 0 60 60"><defs><style>.cls-1{fill:#fff;}</style></defs><title>childproof</title><g id="Layer_2" data-name="Layer 2"><g id="Layer_1-2" data-name="Layer 1"><path class="cls-1" d="M12.56,32a1.65,1.65,0,1,0,3.31,0,1.25,1.25,0,1,1,2.5,0,1.65,1.65,0,0,0,3.31,0,4.56,4.56,0,1,0-9.12,0Z"/><path class="cls-1" d="M41.56,32a1.25,1.25,0,1,1,2.5,0,1.65,1.65,0,0,0,3.31,0,4.56,4.56,0,1,0-9.12,0,1.65,1.65,0,1,0,3.31,0Z"/><path class="cls-1" d="M35.87,38.34a1.65,1.65,0,1,0-3.31,0,2.57,2.57,0,0,1-5.13,0,1.65,1.65,0,0,0-3.31,0,5.87,5.87,0,0,0,11.74,0Z"/><path class="cls-1" d="M33.89.26A30.39,30.39,0,0,0,30.1,0a8.59,8.59,0,0,0-8.58,8.58,7.2,7.2,0,0,0,7.19,7.19A6.09,6.09,0,0,0,34.8,9.69a1.65,1.65,0,0,0-3.31,0,2.78,2.78,0,0,1-2.78,2.78,3.89,3.89,0,0,1-3.89-3.89,5.28,5.28,0,0,1,5.26-5.27,26.93,26.93,0,0,1,3.37.23,26.69,26.69,0,0,1,12.8,47.62A26.69,26.69,0,1,1,14.93,8a1.65,1.65,0,0,0-1.87-2.73,30,30,0,0,0,13,54.5,30.51,30.51,0,0,0,4,.26A30,30,0,0,0,53.78,11.72,29.8,29.8,0,0,0,33.89.26Z"/></g></g></svg>