<svg xmlns="http://www.w3.org/2000/svg" viewBox="0 0 461.37 207.06"><defs><style>.cls-1{fill:none;stroke:#bc204b;stroke-linecap:round;stroke-linejoin:round;stroke-width:2px;}</style></defs><title>clinical_trial_r</title><g id="Layer_2" data-name="Layer 2"><g id="Layer_1-2" data-name="Layer 1"><path class="cls-1" d="M281.19,206.06H156a5.36,5.36,0,0,1,0-10.73H281.19a17,17,0,1,0,0-34H156a5.36,5.36,0,0,1,0-10.73H281.19a27.71,27.71,0,0,1,0,55.42Z"/><line class="cls-1" x1="168.56" y1="161.36" x2="168.56" y2="195.33"/><path class="cls-1" d="M196.6,150.41H321.75a5.36,5.36,0,1,0,0-10.73H196.6a17,17,0,0,1,0-34H321.75a5.36,5.36,0,0,0,0-10.73H196.6a27.71,27.71,0,0,0,0,55.42Z"/><line class="cls-1" x1="309.23" y1="105.71" x2="309.23" y2="139.68"/><path class="cls-1" d="M216.13,63.86"/><line class="cls-1" x1="229.7" y1="63.86" x2="216.13" y2="63.86"/><line class="cls-1" x1="216.13" y1="63.86" x2="203.7" y2="63.86"/><path class="cls-1" d="M254.59,79.47a31.9,31.9,0,0,0,11.16-54"/><path class="cls-1" d="M234.36,79.46a32,32,0,0,1-18.23-15.6"/><path class="cls-1" d="M234.36,79.46a11,11,0,0,0-.89,4.34h22a11,11,0,0,0-.89-4.33"/><path class="cls-1" d="M234.36,79.46a11,11,0,0,1,20.23,0"/><polyline class="cls-1" points="265.75 25.45 273.19 18.01 257.39 2.21 232.1 27.49 247.91 43.3 265.75 25.45"/><rect class="cls-1" x="234.68" y="31.23" width="6.52" height="13.41" transform="translate(42.87 179.36) rotate(-45)"/><rect class="cls-1" x="264.57" y="1.34" width="6.52" height="13.41" transform="translate(72.76 191.74) rotate(-45)"/><rect class="cls-1" x="212.57" y="83.8" width="63.8" height="10.96"/><rect class="cls-1" x="284.1" y="94.16" width="158.22" height="55.65" rx="4" ry="4" transform="translate(420.27 -256.89) rotate(80)"/><line class="cls-1" x1="400.88" y1="175.36" x2="346.07" y2="185.03"/><line class="cls-1" x1="397.4" y1="155.66" x2="342.6" y2="165.33"/><line class="cls-1" x1="383.82" y1="78.64" x2="329.02" y2="88.3"/><line class="cls-1" x1="380.35" y1="58.94" x2="325.54" y2="68.6"/><rect class="cls-1" x="340.75" y="94.16" width="158.22" height="55.65" rx="4" ry="4" transform="translate(467.08 -312.68) rotate(80)"/><line class="cls-1" x1="457.53" y1="175.36" x2="402.72" y2="185.03"/><line class="cls-1" x1="454.06" y1="155.66" x2="399.25" y2="165.33"/><line class="cls-1" x1="440.47" y1="78.64" x2="385.67" y2="88.3"/><line class="cls-1" x1="437" y1="58.94" x2="382.2" y2="68.6"/><rect class="cls-1" x="4.33" y="122.04" width="158.22" height="55.65" rx="4" ry="4" transform="translate(218.91 255.08) rotate(156.95)"/><line class="cls-1" x1="39.95" y1="198.61" x2="18.16" y2="147.41"/><line class="cls-1" x1="58.36" y1="190.78" x2="36.56" y2="139.57"/><line class="cls-1" x1="130.33" y1="160.15" x2="108.53" y2="108.94"/><line class="cls-1" x1="148.73" y1="152.32" x2="126.94" y2="101.11"/></g></g></svg>