<?xml version="1.0" encoding="UTF-8"?>
<svg width="45px" height="60px" viewBox="0 0 45 60" version="1.1" xmlns="http://www.w3.org/2000/svg" xmlns:xlink="http://www.w3.org/1999/xlink">
    <!-- Generator: Sketch 48 (47235) - http://www.bohemiancoding.com/sketch -->
    <title>Shape</title>
    <desc>Created with Sketch.</desc>
    <defs></defs>
    <g id="Science_Old_Desktop" stroke="none" stroke-width="1" fill="none" fill-rule="evenodd" transform="translate(-697.000000, -175.000000)">
        <path d="M741.106914,225.859883 L731.023688,225.859883 C737.826382,222.677246 742.1155,215.73327 741.949945,208.170545 C741.78439,200.607821 737.19558,193.861622 730.260243,190.985032 L734.048656,187.265048 C734.402137,186.907696 734.402137,186.329125 734.048656,185.971773 L732.521767,184.402404 L734.466389,182.498819 C734.627383,182.324831 734.719621,182.097377 734.725672,181.859447 C734.734609,181.617116 734.64633,181.381382 734.480794,181.205543 L728.71895,175.262287 C728.560802,175.113289 728.358195,175.021315 728.142766,175.000726 C727.903819,174.990635 727.672387,175.086144 727.508963,175.262287 L725.578745,177.165873 L724.066261,175.581973 C723.713744,175.234945 723.151173,175.234945 722.798656,175.581973 L707.328105,190.781596 C706.974624,191.138948 706.974624,191.717519 707.328105,192.074871 L708.840589,193.64424 L706.910371,195.547825 C706.739206,195.716254 706.640852,195.946023 706.636684,196.187198 C706.627746,196.429528 706.716026,196.665262 706.881562,196.841101 L712.643406,202.784357 C712.817129,202.953896 713.049908,203.047826 713.291613,203.045918 C713.522503,203.050359 713.745552,202.961402 713.911012,202.798888 L715.855634,200.895302 L717.382522,202.479202 C717.551823,202.64654 717.779304,202.740418 718.016325,202.740763 C718.251065,202.742827 718.477743,202.654477 718.650128,202.493733 L728.90621,192.409089 C736.001001,194.946177 740.608016,201.875306 740.242879,209.459878 C739.877742,217.044449 734.626812,223.490619 727.321703,225.322229 C726.636153,221.486268 723.363104,218.670912 719.5,218.594289 C716.77669,218.624768 714.26131,220.069266 712.84507,222.415991 C709.803335,220.13789 707.611162,216.892401 706.622279,213.203218 L712.297695,213.203218 C712.790933,213.203218 713.190781,212.799857 713.190781,212.302285 C713.190843,211.802308 712.793254,211.394756 712.297695,211.38682 L697.893086,211.38682 C697.397527,211.394756 696.999938,211.802308 697,212.302285 C697,212.799857 697.399848,213.203218 697.893086,213.203218 L704.764085,213.203218 C705.80586,217.575633 708.359683,221.429725 711.966389,224.072547 C711.739479,224.668687 711.575325,225.28724 711.476633,225.918008 L697.893086,225.918008 C697.397527,225.925944 696.999938,226.333496 697,226.833473 L697,234.099066 C697,234.596638 697.399848,235 697.893086,235 L741.106914,235 C741.600152,235 742,234.596638 742,234.099066 L742,226.775348 C742.000062,226.275371 741.602473,225.867819 741.106914,225.859883 Z M728.142766,177.194935 L732.637004,181.844915 L731.340589,183.109129 L726.860755,178.47368 L728.142766,177.194935 Z M713.291613,200.86624 L708.81178,196.259854 L710.09379,194.99564 L714.573624,199.631089 L713.291613,200.86624 Z M718.059539,200.61921 L716.53265,199.03531 L710.770807,193.092055 L709.243918,191.508155 L723.418054,177.558215 L724.959347,179.142114 L726.702305,180.943982 L732.176056,186.611145 L728.013124,190.70894 L718.059539,200.61921 Z M719.5,220.468812 C722.575269,220.553669 725.148288,222.849332 725.607554,225.918008 L713.378041,225.918008 C713.483422,225.310273 713.667453,224.719129 713.925416,224.159734 C714.901233,221.921473 717.076596,220.458487 719.5,220.410688 L719.5,220.468812 Z M740.213828,233.183602 L698.786172,233.183602 L698.786172,227.676281 L740.213828,227.676281 L740.213828,233.183602 Z" id="Shape" fill="#BC204B" fill-rule="nonzero"></path>
    </g>
</svg>