<?xml version="1.0" encoding="UTF-8"?>
<svg width="40px" height="40px" viewBox="0 0 40 40" version="1.1" xmlns="http://www.w3.org/2000/svg" xmlns:xlink="http://www.w3.org/1999/xlink">
    <!-- Generator: Sketch 48.2 (47327) - http://www.bohemiancoding.com/sketch -->
    <title>Group 41</title>
    <desc>Created with Sketch.</desc>
    <defs></defs>
    <g id="Store:-Above-the-Fold" stroke="none" stroke-width="1" fill="none" fill-rule="evenodd" transform="translate(-81.000000, -3940.000000)">
        <g id="Group-8-Copy-2" transform="translate(81.000000, 3940.000000)">
            <g id="Group-41">
                <rect id="Rectangle-8-Copy" stroke="#909090" stroke-width="2" x="1" y="1" width="38" height="38" rx="19"></rect>
                <g id="Cross-Copy" transform="translate(12.000000, 13.000000)" fill="#909090">
                    <path d="M1.42994088,13.3234615 L13.6940512,0.780621351 C13.9305785,0.538718454 14.3184228,0.534360653 14.5603257,0.77088793 C14.5636065,0.774095848 14.5668512,0.777340526 14.5700591,0.780621351 L14.5700591,0.780621351 C14.8135379,1.02963369 14.8135379,1.42752616 14.5700591,1.6765385 L2.30594876,14.2193786 C2.06942148,14.4612815 1.68157719,14.4656393 1.4396743,14.2291121 C1.43639347,14.2259042 1.43314879,14.2226595 1.42994088,14.2193786 L1.42994088,14.2193786 C1.18646214,13.9703663 1.18646214,13.5724738 1.42994088,13.3234615 Z" id="Rectangle-Copy"></path>
                    <path d="M2.30594876,0.780621351 L14.5700591,13.3234615 C14.8135379,13.5724738 14.8135379,13.9703663 14.5700591,14.2193786 L14.5700591,14.2193786 C14.3335318,14.4612815 13.9456876,14.4656393 13.7037847,14.2291121 C13.7005038,14.2259042 13.6972592,14.2226595 13.6940512,14.2193786 L1.42994088,1.6765385 C1.18646214,1.42752616 1.18646214,1.02963369 1.42994088,0.780621351 L1.42994088,0.780621351 C1.66646815,0.538718454 2.05431244,0.534360653 2.29621534,0.77088793 C2.29949616,0.774095848 2.30274084,0.777340526 2.30594876,0.780621351 Z" id="Rectangle-Copy-3"></path>
                </g>
            </g>
        </g>
    </g>
</svg>