<svg xmlns="http://www.w3.org/2000/svg" viewBox="0 0 90 90"><defs><style>.cls-1{fill:#fff;}.cls-1,.cls-2{stroke:#bc204b;stroke-linecap:round;stroke-linejoin:round;stroke-width:1.5px;}.cls-2{fill:none;}.cls-3{fill:#bc204b;}</style></defs><title>competitive_salary</title><g id="lines"><line class="cls-1" x1="27.41" y1="69.66" x2="28.9" y2="64.12"/><line class="cls-1" x1="62.59" y1="69.66" x2="61.1" y2="64.1"/><path class="cls-2" d="M45,20l-25,.06a10,10,0,0,0,5.72,9,25,25,0,0,0-4.12,7.11A5.94,5.94,0,0,1,16,40H15V50h1a5.92,5.92,0,0,1,5.57,3.77A25,25,0,1,0,45,20Z"/><path class="cls-2" d="M77,44.11c.71,1.18-.61,2.4-2,2.14a2.92,2.92,0,0,1-2.52-3.36,3,3,0,0,1,2.75-2.66c3-.39,4.77,2,4.77,4.77a5,5,0,0,1-10,0"/><path class="cls-3" d="M45.37,44.06c3.75.31,5.24,1.16,5.24,3.65,0,2.34-1.93,4-6.14,4l-1,2.93H41.54l1.18-3.08A9.81,9.81,0,0,1,40.21,51V49.46a14.79,14.79,0,0,0,4.55.67c2.8,0,4.14-.87,4.14-2.39s-1-2-3.65-2.18C41.41,45.22,40,44.35,40,42.19c0-2.44,2-3.85,5.93-3.85l1-3h1.93l-1.18,3.08A10.27,10.27,0,0,1,50,39v1.52a15.1,15.1,0,0,0-4.44-.62c-2.65,0-3.85.67-3.85,2.29C41.67,43.52,42.83,43.83,45.37,44.06Z"/></g><g id="dots"><circle class="cls-3" cx="27.41" cy="39" r="1"/></g></svg>