<?xml version="1.0" encoding="UTF-8"?>
<svg width="40px" height="40px" viewBox="0 0 40 40" version="1.1" xmlns="http://www.w3.org/2000/svg" xmlns:xlink="http://www.w3.org/1999/xlink">
    <!-- Generator: Sketch 48.2 (47327) - http://www.bohemiancoding.com/sketch -->
    <title>Group 21 Copy 2</title>
    <desc>Created with Sketch.</desc>
    <defs></defs>
    <g id="Store:-Above-the-Fold" stroke="none" stroke-width="1" fill="none" fill-rule="evenodd" transform="translate(-640.000000, -4150.000000)">
        <g id="Group-21-Copy-2" transform="translate(640.000000, 4150.000000)">
            <g>
                <rect id="Rectangle-12" fill="#979797" x="0" y="0" width="40" height="40" rx="4"></rect>
                <path d="M26,15.7161892 C25.9622343,15.8032427 25.9197485,15.8840769 25.8725413,15.9586942 C25.8253341,16.0333115 25.773407,16.1048187 25.7167585,16.1732179 L25.6884343,16.2944704 C24.9142369,17.0530795 24.171522,17.8303314 23.4602675,18.6262492 C22.749013,19.422167 22.0692401,20.2367269 21.4209284,21.0699534 C21.8741171,21.6668917 22.3367404,22.2622666 22.808812,22.8560959 C23.2808836,23.4499252 23.7655365,24.0390821 24.2627852,24.6235843 C24.149488,24.9780164 24.0298983,25.236064 23.9040126,25.3977348 C23.7781268,25.5594056 23.6239191,25.6526759 23.4413847,25.6775483 C23.3721476,25.7459475 23.3170734,25.8267817 23.2761605,25.9200533 C23.2352476,26.0133249 23.2147915,26.1097041 23.2147915,26.2091939 L23.2147915,26.2465023 C23.1707315,26.283811 23.0920541,26.3491001 22.9787569,26.4423718 C22.8654597,26.5356434 22.777341,26.6102595 22.7143981,26.6662225 C22.6199838,26.6289139 22.5224238,26.5791698 22.4217152,26.5169887 C22.3210066,26.4548076 22.2202995,26.3770824 22.1195909,26.2838108 C22.0440594,26.4019548 21.9512201,26.5123246 21.84107,26.6149234 C21.73092,26.7175222 21.6097568,26.8092379 21.4775767,26.8900733 L21.2226593,26.8527648 C20.845002,26.4174973 20.4783653,25.9558097 20.122738,25.4676882 C19.7671107,24.9795667 19.4193565,24.468135 19.079465,23.9333777 C18.4815076,24.6733326 17.9244715,25.3759682 17.4083399,26.0413058 C16.8922083,26.7066433 16.4044083,27.3533169 15.9449253,27.9813458 L15.6522423,28 L15.2934697,27.5802798 L15.3690008,27.272485 L15.2462628,27.1792139 C15.1896142,27.1916501 15.1298194,27.2103041 15.0668765,27.2351765 C15.0039336,27.260049 14.9158149,27.3066841 14.8025177,27.3750833 C14.6388662,27.2382849 14.4940998,27.087498 14.368214,26.9227182 C14.2423282,26.7579383 14.1384741,26.5791704 14.0566483,26.3864091 C14.094414,26.2869193 14.1447676,26.1765496 14.2077105,26.0552965 C14.2706533,25.9340434 14.3021243,25.8640907 14.3021243,25.8454364 C14.3021243,25.7894734 14.2627856,25.6775491 14.184107,25.5096602 C14.1054284,25.3417713 14.04406,25.195648 14,25.0712858 C14.503543,24.4556931 15.0354024,23.8230101 15.595594,23.1732179 C16.1557856,22.5234256 16.7505869,21.8472165 17.3800157,21.1445703 C16.9142384,20.32378 16.4972481,19.4874571 16.1290323,18.6355763 C15.7608164,17.7836955 15.4350919,16.9069554 15.1518489,16.0053298 C15.2462633,15.8623133 15.3485439,15.7301805 15.4586939,15.6089274 C15.568844,15.4876743 15.6868601,15.3773045 15.8127459,15.2778148 C15.9260431,15.3586502 16.0094411,15.4208303 16.0629426,15.4643571 C16.116444,15.5078839 16.1683711,15.554519 16.2187254,15.6042638 C16.275374,15.5793914 16.3273011,15.5514103 16.3745083,15.5203198 C16.4217154,15.4892292 16.4673483,15.4550302 16.5114083,15.4177215 C16.5114083,15.3120137 16.5224232,15.220298 16.5444532,15.1425716 C16.5664832,15.0648453 16.6058219,14.9948926 16.6624705,14.9327115 L17.0306845,14.8394404 C17.2698674,15.0011112 17.7545203,15.6415667 18.4846577,16.7608261 C18.9756122,17.5132172 19.3815877,18.1194736 19.7025964,18.5796136 C20.4390281,17.7463871 21.1896107,16.9489267 21.9543666,16.1872085 C22.7191226,15.4254903 23.5011762,14.6964281 24.3005507,14 C24.4642022,14.0683992 24.6089687,14.1585604 24.7348544,14.2704863 C24.8607402,14.3824123 24.9677415,14.5160996 25.0558615,14.6715523 L24.9425649,14.8954031 C24.9803306,14.9638023 25.02439,15.0228734 25.0747443,15.0726183 C25.1250986,15.1223631 25.1817463,15.1658892 25.2446892,15.2031979 L25.6129032,15.2031979 L26,15.7161892 Z" id="✘" fill="#FFFFFF"></path>
            </g>
        </g>
    </g>
</svg>