<svg id="lines" xmlns="http://www.w3.org/2000/svg" viewBox="0 0 90 90"><defs><style>.cls-1{fill:none;stroke:#bc204b;stroke-linecap:round;stroke-linejoin:round;stroke-width:1.5px;}</style></defs><title>customers_support</title><path class="cls-1" d="M21.11,46.67H25a0,0,0,0,1,0,0V60a0,0,0,0,1,0,0H21.11a5,5,0,0,1-5-5V51.67A5,5,0,0,1,21.11,46.67Z"/><path class="cls-1" d="M70,46.67h3.89a0,0,0,0,1,0,0V60a0,0,0,0,1,0,0H70a5,5,0,0,1-5-5V51.67A5,5,0,0,1,70,46.67Z" transform="translate(138.89 106.67) rotate(180)"/><path class="cls-1" d="M65,60h0A10,10,0,0,1,55,70H47.5"/><path class="cls-1" d="M65,46.67V40A20,20,0,0,0,45,20h0A20,20,0,0,0,25,40v6.67"/><rect class="cls-1" x="42.5" y="67.5" width="5" height="5"/></svg>