<svg xmlns="http://www.w3.org/2000/svg" viewBox="0 0 57.74 60"><defs><style>.cls-1{fill:#c51a4a;}</style></defs><title>EDA_r</title><g id="Layer_2" data-name="Layer 2"><g id="Layer_1-2" data-name="Layer 1"><path class="cls-1" d="M27.49,42.49a5.85,5.85,0,0,1-4.15-1.72,1.65,1.65,0,1,1,2.34-2.34,2.63,2.63,0,0,0,3.63,0,1.65,1.65,0,0,1,2.34,2.34A5.85,5.85,0,0,1,27.49,42.49Z"/><circle class="cls-1" cx="18.43" cy="32.4" r="2.6"/><circle class="cls-1" cx="36.61" cy="32.4" r="2.6"/><path class="cls-1" d="M27.71,60a30,30,0,0,1-27-17.08,1.65,1.65,0,0,1,3-1.42A26.7,26.7,0,1,0,7.75,12.33l-.13.17c2.27,4.37,4.76,9.62,4.76,11.7A6.19,6.19,0,0,1,0,24.2a15.31,15.31,0,0,1,.86-3.68,1.65,1.65,0,1,1,3.14,1,15.31,15.31,0,0,0-.7,2.66,2.88,2.88,0,0,0,5.77,0c0-.9-1.52-4.75-4.85-11.06a1.65,1.65,0,0,1,.12-1.74l.77-1.07.1-.13A30,30,0,1,1,50.29,49.8a29.8,29.8,0,0,1-20.6,10.14Q28.7,60,27.71,60Z"/></g></g></svg>