<?xml version="1.0" encoding="UTF-8" standalone="no"?>
<svg width="100px" height="100px" viewBox="0 0 100 100" version="1.1" xmlns="http://www.w3.org/2000/svg" xmlns:xlink="http://www.w3.org/1999/xlink">
    <!-- Generator: Sketch 46.2 (44496) - http://www.bohemiancoding.com/sketch -->
    <title>flag-us</title>
    <desc>Created with Sketch.</desc>
    <defs>
        <circle id="path-1" cx="50" cy="50" r="50"></circle>
        <rect id="path-3" x="0" y="0" width="153" height="100" rx="13.3485889"></rect>
    </defs>
    <g id="Homepage" stroke="none" stroke-width="1" fill="none" fill-rule="evenodd">
        <g id="flag-us">
            <mask id="mask-2" fill="white">
                <use xlink:href="#path-1"></use>
            </mask>
            <use id="Mask" fill="#D8D8D8" xlink:href="#path-1"></use>
            <g id="Group-22-Copy" mask="url(#mask-2)">
                <g transform="translate(-13.000000, 0.000000)">
                    <mask id="mask-4" fill="white">
                        <use xlink:href="#path-3"></use>
                    </mask>
                    <use id="Mask" stroke="none" fill="#FFFFFF" fill-rule="evenodd" xlink:href="#path-3"></use>
                    <g id="Group-22" stroke="none" stroke-width="1" fill="none" fill-rule="evenodd" mask="url(#mask-4)">
                        <g transform="translate(-5.000000, 0.000000)">
                            <rect id="Rectangle-17-Copy-2" fill="#F41532" x="0" y="0" width="153" height="100"></rect>
                            <rect id="Rectangle-17-Copy-2" fill="#FFFFFF" x="0" y="0" width="153" height="100"></rect>
                            <rect id="Rectangle-17" fill="#FFFFFF" x="0" y="0" width="153" height="100"></rect>
                            <rect id="Rectangle-17-Copy-2" fill="#D31F34" x="0" y="0" width="153" height="20"></rect>
                            <rect id="Rectangle-17-Copy-6" fill="#D31F34" x="0" y="40" width="153" height="20"></rect>
                            <rect id="Rectangle-17-Copy-7" fill="#D31F34" x="0" y="80" width="153" height="20"></rect>
                            <rect id="Rectangle-18" fill="#003DA2" x="0" y="0" width="59.8695652" height="60"></rect>
                            <g id="Group-26" stroke-width="1" fill="none" transform="translate(6.652174, 6.666667)">
                                <polygon id="Star" fill="#FFFFFF" points="23.2826087 26.6666667 19.372559 28.72678 20.119312 24.36339 16.9560153 21.27322 21.3275838 20.63661 23.2826087 16.6666667 25.2376336 20.63661 29.609202 21.27322 26.4459054 24.36339 27.1926584 28.72678"></polygon>
                                <polygon id="Star-Copy-6" fill="#FFFFFF" points="23.2826087 43.3333333 19.372559 45.3934466 20.119312 41.0300566 16.9560153 37.9398867 21.3275838 37.3032767 23.2826087 33.3333333 25.2376336 37.3032767 29.609202 37.9398867 26.4459054 41.0300566 27.1926584 45.3934466"></polygon>
                                <polygon id="Star-Copy" fill="#FFFFFF" points="6.65217391 10 2.74212419 12.0601133 3.48887724 7.69672331 0.325580566 4.60655337 4.69714905 3.96994335 6.65217391 0 8.60719877 3.96994335 12.9787673 4.60655337 9.81547059 7.69672331 10.5622236 12.0601133"></polygon>
                                <polygon id="Star-Copy-4" fill="#FFFFFF" points="6.65217391 26.6666667 2.74212419 28.72678 3.48887724 24.36339 0.325580566 21.27322 4.69714905 20.63661 6.65217391 16.6666667 8.60719877 20.63661 12.9787673 21.27322 9.81547059 24.36339 10.5622236 28.72678"></polygon>
                                <polygon id="Star-Copy-7" fill="#FFFFFF" points="6.65217391 43.3333333 2.74212419 45.3934466 3.48887724 41.0300566 0.325580566 37.9398867 4.69714905 37.3032767 6.65217391 33.3333333 8.60719877 37.3032767 12.9787673 37.9398867 9.81547059 41.0300566 10.5622236 45.3934466"></polygon>
                                <polygon id="Star-Copy-2" fill="#FFFFFF" points="23.2826087 10 19.372559 12.0601133 20.119312 7.69672331 16.9560153 4.60655337 21.3275838 3.96994335 23.2826087 0 25.2376336 3.96994335 29.609202 4.60655337 26.4459054 7.69672331 27.1926584 12.0601133"></polygon>
                                <polygon id="Star-Copy-3" fill="#FFFFFF" points="39.9130435 10 36.0029938 12.0601133 36.7497468 7.69672331 33.5864501 4.60655337 37.9580186 3.96994335 39.9130435 0 41.8680683 3.96994335 46.2396368 4.60655337 43.0763402 7.69672331 43.8230932 12.0601133"></polygon>
                                <polygon id="Star-Copy-5" fill="#FFFFFF" points="39.9130435 26.6666667 36.0029938 28.72678 36.7497468 24.36339 33.5864501 21.27322 37.9580186 20.63661 39.9130435 16.6666667 41.8680683 20.63661 46.2396368 21.27322 43.0763402 24.36339 43.8230932 28.72678"></polygon>
                                <polygon id="Star-Copy-8" fill="#FFFFFF" points="39.9130435 43.3333333 36.0029938 45.3934466 36.7497468 41.0300566 33.5864501 37.9398867 37.9580186 37.3032767 39.9130435 33.3333333 41.8680683 37.3032767 46.2396368 37.9398867 43.0763402 41.0300566 43.8230932 45.3934466"></polygon>
                            </g>
                        </g>
                    </g>
                </g>
            </g>
        </g>
    </g>
</svg>