<?xml version="1.0" encoding="UTF-8" standalone="no"?>
<svg width="100px" height="100px" viewBox="0 0 100 100" version="1.1" xmlns="http://www.w3.org/2000/svg" xmlns:xlink="http://www.w3.org/1999/xlink">
    <!-- Generator: Sketch 46.2 (44496) - http://www.bohemiancoding.com/sketch -->
    <title>flag-uk</title>
    <desc>Created with Sketch.</desc>
    <defs>
        <circle id="path-1" cx="50" cy="50" r="50"></circle>
    </defs>
    <g id="Homepage" stroke="none" stroke-width="1" fill="none" fill-rule="evenodd">
        <g id="flag-uk">
            <mask id="mask-2" fill="white">
                <use xlink:href="#path-1"></use>
            </mask>
            <use id="Mask" fill="#D8D8D8" xlink:href="#path-1"></use>
            <g id="Group-25-Copy" mask="url(#mask-2)">
                <g transform="translate(-19.000000, -8.000000)" id="Group-25">
                    <g>
                        <rect id="Rectangle-17-Copy-4" fill="#F41532" x="0" y="8" width="138" height="100"></rect>
                        <rect id="Rectangle-17-Copy-4" fill="#003DA2" x="0" y="8" width="138" height="100"></rect>
                        <rect id="Rectangle-19" fill="#D31F34" x="60" y="8" width="18" height="100"></rect>
                        <rect id="Rectangle-19" fill="#D31F34" transform="translate(69.000000, 58.000000) rotate(90.000000) translate(-69.000000, -58.000000) " x="60" y="-11" width="18" height="138"></rect>
                        <g id="Group-20">
                            <g id="Group-21">
                                <g id="Group-18" transform="translate(0.000000, 65.000000)">
                                    <path d="M62.0262,6.12476213 L62.0262,50.8366034 L57.3772,50.8366034 L57.3772,9.2514971 L12,41 L9.6626,37.8368724 L56.1516,6.58038966 L45.7556,6.58038966 L0.0006,37.3446655 L0.0006,26.8617345 L30.1626,6.58038966 L39.4586,0.326941379 L62.0266,0.326941379 L62.0266,6.1244931 Z M39.4583,0.327075862 L30.1623,6.58052414 L0.000300000001,6.58052414 L0.000300000001,0.327075862 L39.4583,0.327075862 Z" id="Combined-Shape" fill="#FFFFFF"></path>
                                    <polygon id="Fill-56" fill="#D31F34" points="56.1516 6.58038966 45.7556 6.58038966 0.0006 37.3446655 0.0006 37.8368724 9.6626 37.8368724"></polygon>
                                </g>
                                <g id="Group-18" transform="translate(31.500000, 25.500000) scale(1, -1) translate(-31.500000, -25.500000) ">
                                    <path d="M62.0262,6.12476213 L62.0262,50.8366034 L57.3772,50.8366034 L57.3772,9.2514971 L12,41 L9.6626,37.8368724 L56.1516,6.58038966 L45.7556,6.58038966 L0.0006,37.3446655 L0.0006,26.8617345 L30.1626,6.58038966 L39.4586,0.326941379 L62.0266,0.326941379 L62.0266,6.1244931 Z M39.4583,0.327075862 L30.1623,6.58052414 L0.000300000001,6.58052414 L0.000300000001,0.327075862 L39.4583,0.327075862 Z" id="Combined-Shape" fill="#FFFFFF"></path>
                                    <polygon id="Fill-56" fill="#D31F34" points="56.1516 6.58038966 45.7556 6.58038966 0.0006 37.3446655 0.0006 37.8368724 9.6626 37.8368724"></polygon>
                                </g>
                            </g>
                            <g id="Group-21" transform="translate(106.500000, 58.000000) scale(-1, 1) translate(-106.500000, -58.000000) translate(75.000000, 0.000000)">
                                <g id="Group-18" transform="translate(0.000000, 65.000000)">
                                    <path d="M62.0262,6.12476213 L62.0262,50.8366034 L57.3772,50.8366034 L57.3772,9.2514971 L12,41 L9.6626,37.8368724 L56.1516,6.58038966 L45.7556,6.58038966 L0.0006,37.3446655 L0.0006,26.8617345 L30.1626,6.58038966 L39.4586,0.326941379 L62.0266,0.326941379 L62.0266,6.1244931 Z M39.4583,0.327075862 L30.1623,6.58052414 L0.000300000001,6.58052414 L0.000300000001,0.327075862 L39.4583,0.327075862 Z" id="Combined-Shape" fill="#FFFFFF"></path>
                                    <polygon id="Fill-56" fill="#D31F34" points="56.1516 6.58038966 45.7556 6.58038966 0.0006 37.3446655 0.0006 37.8368724 9.6626 37.8368724"></polygon>
                                </g>
                                <g id="Group-18" transform="translate(31.500000, 25.500000) scale(1, -1) translate(-31.500000, -25.500000) ">
                                    <path d="M62.0262,6.12476213 L62.0262,50.8366034 L57.3772,50.8366034 L57.3772,9.2514971 L12,41 L9.6626,37.8368724 L56.1516,6.58038966 L45.7556,6.58038966 L0.0006,37.3446655 L0.0006,26.8617345 L30.1626,6.58038966 L39.4586,0.326941379 L62.0266,0.326941379 L62.0266,6.1244931 Z M39.4583,0.327075862 L30.1623,6.58052414 L0.000300000001,6.58052414 L0.000300000001,0.327075862 L39.4583,0.327075862 Z" id="Combined-Shape" fill="#FFFFFF"></path>
                                    <polygon id="Fill-56" fill="#D31F34" points="56.1516 6.58038966 45.7556 6.58038966 0.0006 37.3446655 0.0006 37.8368724 9.6626 37.8368724"></polygon>
                                </g>
                            </g>
                        </g>
                    </g>
                </g>
            </g>
        </g>
    </g>
</svg>