<?xml version="1.0" encoding="UTF-8" standalone="no"?>
<svg width="100px" height="100px" viewBox="0 0 100 100" version="1.1" xmlns="http://www.w3.org/2000/svg" xmlns:xlink="http://www.w3.org/1999/xlink">
    <!-- Generator: Sketch 46.2 (44496) - http://www.bohemiancoding.com/sketch -->
    <title>flag-europe</title>
    <desc>Created with Sketch.</desc>
    <defs>
        <circle id="path-1" cx="50" cy="50" r="50"></circle>
    </defs>
    <g id="Homepage" stroke="none" stroke-width="1" fill="none" fill-rule="evenodd">
        <g id="flag-europe">
            <mask id="mask-2" fill="white">
                <use xlink:href="#path-1"></use>
            </mask>
            <use id="Mask" fill="#003DA2" xlink:href="#path-1"></use>
            <path d="M50,20.0098393 L47.3984655,21.3852752 L47.8953144,18.4720552 L45.7906288,16.4089014 L48.6992328,15.9838684 L50,13.3333333 L51.3007672,15.9838684 L54.2093712,16.4089014 L52.1046856,18.4720552 L52.6015345,21.3852752 L50,20.0098393 Z M66.2286477,24.3828633 L63.6271132,25.7582992 L64.1239621,22.8450793 L62.0192765,20.7819255 L64.9278805,20.3568924 L66.2286477,17.7063574 L67.529415,20.3568924 L70.4380189,20.7819255 L68.3333333,22.8450793 L68.8301822,25.7582992 L66.2286477,24.3828633 Z M78.1088424,36.3301872 L75.5073079,37.705623 L76.0041568,34.7924031 L73.8994712,32.7292493 L76.8080751,32.3042163 L78.1088424,29.6536812 L79.4096096,32.3042163 L82.3182136,32.7292493 L80.213528,34.7924031 L80.7103769,37.705623 L78.1088424,36.3301872 Z M82.4572954,52.650535 L79.855761,54.0259709 L80.3526098,51.112751 L78.2479242,49.0495972 L81.1565282,48.6245641 L82.4572954,45.9740291 L83.7580627,48.6245641 L86.6666667,49.0495972 L84.5619811,51.112751 L85.0588299,54.0259709 L82.4572954,52.650535 Z M78.1088424,68.9708829 L75.5073079,70.3463188 L76.0041568,67.4330989 L73.8994712,65.3699451 L76.8080751,64.944912 L78.1088424,62.294377 L79.4096096,64.944912 L82.3182136,65.3699451 L80.213528,67.4330989 L80.7103769,70.3463188 L78.1088424,68.9708829 Z M66.2286477,80.9182068 L63.6271132,82.2936426 L64.1239621,79.3804227 L62.0192765,77.3172689 L64.9278805,76.8922359 L66.2286477,74.2417008 L67.529415,76.8922359 L70.4380189,77.3172689 L68.3333333,79.3804227 L68.8301822,82.2936426 L66.2286477,80.9182068 Z M50,85.2912308 L47.3984655,86.6666667 L47.8953144,83.7534467 L45.7906288,81.6902929 L48.6992328,81.2652599 L50,78.6147248 L51.3007672,81.2652599 L54.2093712,81.6902929 L52.1046856,83.7534467 L52.6015345,86.6666667 L50,85.2912308 Z M33.7713523,80.9182068 L31.1698178,82.2936426 L31.6666667,79.3804227 L29.5619811,77.3172689 L32.470585,76.8922359 L33.7713523,74.2417008 L35.0721195,76.8922359 L37.9807235,77.3172689 L35.8760379,79.3804227 L36.3728868,82.2936426 L33.7713523,80.9182068 Z M21.8911576,68.9708829 L19.2896231,70.3463188 L19.786472,67.4330989 L17.6817864,65.3699451 L20.5903904,64.944912 L21.8911576,62.294377 L23.1919249,64.944912 L26.1005288,65.3699451 L23.9958432,67.4330989 L24.4926921,70.3463188 L21.8911576,68.9708829 Z M17.5427046,52.650535 L14.9411701,54.0259709 L15.4380189,51.112751 L13.3333333,49.0495972 L16.2419373,48.6245641 L17.5427046,45.9740291 L18.8434718,48.6245641 L21.7520758,49.0495972 L19.6473902,51.112751 L20.144239,54.0259709 L17.5427046,52.650535 Z M21.8911576,36.3301872 L19.2896231,37.705623 L19.786472,34.7924031 L17.6817864,32.7292493 L20.5903904,32.3042163 L21.8911576,29.6536812 L23.1919249,32.3042163 L26.1005288,32.7292493 L23.9958432,34.7924031 L24.4926921,37.705623 L21.8911576,36.3301872 Z M33.7713523,24.3828633 L31.1698178,25.7582992 L31.6666667,22.8450793 L29.5619811,20.7819255 L32.470585,20.3568924 L33.7713523,17.7063574 L35.0721195,20.3568924 L37.9807235,20.7819255 L35.8760379,22.8450793 L36.3728868,25.7582992 L33.7713523,24.3828633 Z" id="Star-Copy-2" fill="#FFCF39"></path>
        </g>
    </g>
</svg>