<?xml version="1.0" encoding="UTF-8" standalone="no"?>
<svg width="100px" height="100px" viewBox="0 0 100 100" version="1.1" xmlns="http://www.w3.org/2000/svg" xmlns:xlink="http://www.w3.org/1999/xlink">
    <!-- Generator: Sketch 46.2 (44496) - http://www.bohemiancoding.com/sketch -->
    <title>flag-int</title>
    <desc>Created with Sketch.</desc>
    <defs></defs>
    <g id="Homepage" stroke="none" stroke-width="1" fill="none" fill-rule="evenodd">
        <path d="M99.8684211,47.3631579 C99.3315789,37.0842105 95.7157895,27.6473684 89.8947368,19.9368421 C88.8263158,18.5263158 87.6947368,17.1736842 86.4842105,15.8789474 C77.9210526,6.73157895 65.9789474,0.831578947 52.6315789,0.131578947 C51.7578947,0.0894736842 50.8894737,0 50,0 C49.1105263,0 48.2421053,0.0947368421 47.3684211,0.131578947 C34.0210526,0.831578947 22.0789474,6.73157895 13.5157895,15.8789474 C12.3105263,17.1736842 11.1789474,18.5315789 10.1105263,19.9368421 C4.28947368,27.6473684 0.668421053,37.0842105 0.131578947,47.3631579 C0.0842105263,48.2368421 0,49.1105263 0,49.9947368 C0,50.8894737 0.0894736842,51.7526316 0.131578947,52.6263158 C0.668421053,62.9052632 4.28421053,72.3421053 10.1105263,80.0526316 C11.1789474,81.4736842 12.3105263,82.8157895 13.5157895,84.1105263 C22.0789474,93.2578947 34.0210526,99.1578947 47.3684211,99.8578947 C48.2421053,99.9105263 49.1105263,99.9894737 50,99.9894737 C50.8894737,99.9894737 51.7578947,99.9052632 52.6315789,99.8578947 C65.9789474,99.1578947 77.9210526,93.2578947 86.4842105,84.1105263 C87.6894737,82.8157895 88.8210526,81.4684211 89.8947368,80.0526316 C95.7157895,72.3421053 99.3368421,62.9052632 99.8684211,52.6263158 C99.9157895,51.7526316 100,50.8894737 100,49.9947368 C100,49.1105263 99.9105263,48.2368421 99.8684211,47.3631579 Z M94.6052632,47.3631579 L81.5,47.3631579 C81.2315789,39.3263158 79.7789474,31.7894737 77.3789474,25.1789474 C80.1368421,24.3578947 82.7263158,23.4105263 85.1105263,22.3526316 C90.6052632,29.3210526 94.0526316,37.9578947 94.6052632,47.3631579 Z M72.3526316,73.4842105 C66.3421053,72.1052632 59.6947368,71.2842105 52.6315789,71.1105263 L52.6315789,52.6263158 L76.2368421,52.6263158 C75.9789474,60.2526316 74.5947368,67.3578947 72.3526316,73.4842105 Z M23.7631579,52.6263158 L47.3684211,52.6263158 L47.3684211,71.1105263 C40.3052632,71.2842105 33.6578947,72.1052632 27.6473684,73.4842105 C25.4052632,67.3578947 24.0210526,60.2526316 23.7631579,52.6263158 Z M27.6473684,26.5052632 C33.6578947,27.8842105 40.3052632,28.7157895 47.3684211,28.8789474 L47.3684211,47.3631579 L23.7631579,47.3631579 C24.0210526,39.7473684 25.4052632,32.6421053 27.6473684,26.5052632 Z M52.6315789,5.48421053 C59.7210526,6.68947368 65.9894737,12.6894737 70.2947368,21.5526316 C64.8578947,22.7368421 58.8894737,23.4526316 52.6315789,23.6210526 L52.6315789,5.48421053 Z M47.3684211,5.48421053 L47.3684211,23.6157895 C41.1105263,23.4526316 35.1421053,22.7315789 29.7105263,21.5473684 C34.0105263,12.6894737 40.2789474,6.68421053 47.3684211,5.48421053 Z M47.3684211,76.3736842 L47.3684211,94.5052632 C40.2789474,93.3 34.0105263,87.3 29.7105263,78.4473684 C35.1421053,77.2684211 41.1105263,76.5368421 47.3684211,76.3736842 Z M52.6315789,94.5052632 L52.6315789,76.3736842 C58.8894737,76.5368421 64.8578947,77.2684211 70.2947368,78.4526316 C65.9894737,87.3 59.7210526,93.3052632 52.6315789,94.5052632 Z M52.6315789,47.3631579 L52.6315789,28.8789474 C59.6947368,28.7157895 66.3421053,27.8842105 72.3526316,26.5052632 C74.5947368,32.6421053 75.9736842,39.7473684 76.2368421,47.3631579 L52.6315789,47.3631579 Z M81.4263158,18.2 C79.5210526,18.9631579 77.4947368,19.6578947 75.3421053,20.2842105 C73.3263158,15.9894737 70.9105263,12.2263158 68.1526316,9.14210526 C73.1105263,11.3526316 77.6052632,14.4263158 81.4263158,18.2 Z M31.8526316,9.14210526 C29.0947368,12.2263158 26.6789474,15.9894737 24.6631579,20.2842105 C22.5105263,19.6578947 20.4842105,18.9578947 18.5789474,18.2 C22.3947368,14.4263158 26.8894737,11.3526316 31.8526316,9.14210526 Z M14.8947368,22.3526316 C17.2789474,23.4105263 19.8631579,24.3578947 22.6263158,25.1789474 C20.2263158,31.7894737 18.7736842,39.3263158 18.5052632,47.3631579 L5.4,47.3631579 C5.94736842,37.9578947 9.39473684,29.3210526 14.8947368,22.3526316 Z M5.39473684,52.6263158 L18.5,52.6263158 C18.7684211,60.6631579 20.2210526,68.2105263 22.6210526,74.8105263 C19.8631579,75.6315789 17.2736842,76.5789474 14.8894737,77.6368421 C9.39473684,70.6684211 5.94736842,62.0421053 5.39473684,52.6263158 Z M18.5736842,81.7894737 C20.4789474,81.0263158 22.5052632,80.3315789 24.6578947,79.7105263 C26.6736842,83.9947368 29.0894737,87.7684211 31.8473684,90.8421053 C26.8894737,88.6368421 22.3947368,85.5631579 18.5736842,81.7894737 Z M68.1473684,90.8473684 C70.9052632,87.7736842 73.3210526,84 75.3368421,79.7157895 C77.4894737,80.3315789 79.5157895,81.0315789 81.4210526,81.7947368 C77.6052632,85.5631579 73.1105263,88.6368421 68.1473684,90.8473684 Z M85.1052632,77.6368421 C82.7210526,76.5789474 80.1368421,75.6315789 77.3736842,74.8105263 C79.7736842,68.2105263 81.2263158,60.6631579 81.4947368,52.6263158 L94.6,52.6263158 C94.0526316,62.0421053 90.6052632,70.6684211 85.1052632,77.6368421 Z" id="flag-int" fill="#003DA2" fill-rule="nonzero"></path>
    </g>
</svg>