<svg xmlns="http://www.w3.org/2000/svg" viewBox="0 0 90 90"><defs><style>.cls-1,.cls-3{fill:none;}.cls-1,.cls-2,.cls-3{stroke:#bc204b;stroke-width:1.5px;}.cls-1{stroke-miterlimit:10;}.cls-2{fill:#fff;}.cls-2,.cls-3{stroke-linecap:round;stroke-linejoin:round;}.cls-4{fill:#bc204b;}</style></defs><title>fresh_fruit</title><g id="lines"><path class="cls-1" d="M68.31,46.67C68.31,59.54,55,70,48.33,70l-6.72,0c-7.66,0-19.92-12.24-19.92-23.31C21.69,36.68,28.36,30,35,30s6.37,3.37,10,3.37S48.27,30,54.93,30,68.31,37.46,68.31,46.67Z"/><path class="cls-2" d="M52.52,17s-4,2-5.91,5.25S45,30,45,30s4-2,5.91-5.25S52.52,17,52.52,17Z"/><path class="cls-3" d="M40,20s5,3.79,5,13.37"/></g><g id="dots"><circle class="cls-4" cx="61.5" cy="40" r="1"/></g></svg>