<svg xmlns="http://www.w3.org/2000/svg" viewBox="0 0 90 90"><defs><style>.cls-1{fill:none;}.cls-1,.cls-2{stroke:#bc204b;stroke-linecap:round;stroke-linejoin:round;stroke-width:1.5px;}.cls-2{fill:#fff;}.cls-3{fill:#bc204b;}</style></defs><title>cookies</title><g id="lines"><path class="cls-1" d="M63.94,54.77A6,6,0,0,1,66.68,50c-1.93-1.46-2.54-2.47-2.52-4.5,0-4,2.53-5.5,2.53-5.5s-2.54-1-2.4-4.91A4.7,4.7,0,0,1,66,31.38a25,25,0,1,0-.06,27.34A4.71,4.71,0,0,1,63.94,54.77Z"/><line class="cls-2" x1="25.98" y1="50.56" x2="34.02" y2="44.61"/><line class="cls-2" x1="35.36" y1="27.3" x2="35.52" y2="32.09"/><line class="cls-2" x1="60" y1="50" x2="51.06" y2="54.47"/><line class="cls-2" x1="50" y1="30" x2="58.94" y2="34.47"/><line class="cls-2" x1="41.06" y1="40" x2="50" y2="44.47"/><line class="cls-2" x1="42" y1="55.33" x2="40" y2="60"/></g><g id="dots"><circle class="cls-3" cx="49" cy="61" r="1"/><circle class="cls-3" cx="31" cy="59" r="1"/><circle class="cls-3" cx="59" cy="41" r="1"/><circle class="cls-3" cx="41" cy="29" r="1"/><circle class="cls-3" cx="39" cy="49" r="1"/><circle class="cls-3" cx="29" cy="39" r="1"/></g></svg>