<svg xmlns="http://www.w3.org/2000/svg" viewBox="0 0 60 60"><defs><style>.cls-1{fill:#c51a4a;}</style></defs><title>geolocalized_alerts</title><g id="Layer_2" data-name="Layer 2"><g id="Layer_1-2" data-name="Layer 1"><path class="cls-1" d="M60,29.93A30,30,0,0,0,30.62,0H30a1.72,1.72,0,0,0-1.18.48,1.65,1.65,0,0,0-.49,1.18V17.84a1.65,1.65,0,0,0,3.31,0V3.36a26.69,26.69,0,0,1,25,25H42.16a1.65,1.65,0,0,0,0,3.31H56.63c0,.13,0,.26,0,.39a26.69,26.69,0,0,1-25,24.6V42.16a1.65,1.65,0,0,0-3.31,0V56.63l-.39,0a26.69,26.69,0,0,1-24.6-25H17.84a1.65,1.65,0,0,0,0-3.31H3.37c0-.13,0-.26,0-.39A26.51,26.51,0,0,1,12.62,9.74a1.65,1.65,0,0,0-2.15-2.51A29.8,29.8,0,0,0,.09,27.7C0,28.45,0,29.19,0,29.93c0,0,0,0,0,.07s0,0,0,.07a30,30,0,0,0,27.7,29.85Q28.88,60,30,60A30,30,0,0,0,59.91,32.29c.06-.74.08-1.48.08-2.22,0,0,0,0,0-.07S60,30,60,29.93Z"/></g></g></svg>