<svg xmlns="http://www.w3.org/2000/svg" viewBox="0 0 60.02 60"><defs><style>.cls-1{fill:#c51a4a;}</style></defs><title>gyroscope_r</title><g id="Layer_2" data-name="Layer 2"><g id="Layer_1-2" data-name="Layer 1"><path class="cls-1" d="M58.4,28.95h0a1.65,1.65,0,0,0-1.65,1.62,26.7,26.7,0,0,1-45.85,18L23.09,38.11a1.64,1.64,0,0,0,.31-.37c5.65,5.46,11.72,8.52,16.24,8.52a6.62,6.62,0,0,0,4.85-1.79c3.81-3.81,1.36-12.12-5.62-19.9L52.62,12.79a1.65,1.65,0,0,0,.18-2.33A30,30,0,1,0,60,30.64,1.65,1.65,0,0,0,58.4,28.95ZM42.15,42.14c-2.29,2.29-9.83-.14-17-7.29a31.57,31.57,0,0,1-7.27-10.59c-1.1-2.92-1.11-5.31,0-6.4A3.44,3.44,0,0,1,20.36,17a11.42,11.42,0,0,1,3.91.83,31.57,31.57,0,0,1,10.59,7.27C42,32.31,44.45,39.85,42.15,42.14ZM3.39,28A26.71,26.71,0,0,1,49.17,11.39L36.59,22.18l0,0a34.31,34.31,0,0,0-11.13-7.42c-4.29-1.62-7.81-1.36-9.91.74s-2.36,5.61-.74,9.91a33.16,33.16,0,0,0,6.38,10,1.65,1.65,0,0,0-.24.17L8.71,46.09A26.5,26.5,0,0,1,3.39,28Z"/></g></g></svg>