<?xml version="1.0" encoding="UTF-8"?>
<svg width="24px" height="24px" viewBox="0 0 24 24" version="1.1" xmlns="http://www.w3.org/2000/svg" xmlns:xlink="http://www.w3.org/1999/xlink">
    <!-- Generator: Sketch 48.2 (47327) - http://www.bohemiancoding.com/sketch -->
    <title>Shape</title>
    <desc>Created with Sketch.</desc>
    <defs></defs>
    <g id="footer" stroke="none" stroke-width="1" fill="none" fill-rule="evenodd" transform="translate(-954.000000, -315.000000)">
        <path d="M966,315 C962.7405,315 962.3325,315.015 961.053,315.072 C959.775,315.132 958.905,315.333 958.14,315.63 C957.351,315.936 956.6805,316.347 956.0145,317.0145 C955.347,317.6805 954.9345,318.3495 954.63,319.14 C954.333,319.905 954.1305,320.775 954.072,322.053 C954.012,323.3325 954,323.7405 954,327 C954,330.2595 954.015,330.6675 954.072,331.947 C954.132,333.225 954.333,334.0965 954.63,334.86 C954.936,335.649 955.347,336.3195 956.0145,336.9855 C956.6805,337.653 957.3495,338.0655 958.14,338.37 C958.905,338.667 959.775,338.8695 961.053,338.928 C962.3325,338.988 962.7405,339 966,339 C969.2595,339 969.6675,338.985 970.947,338.928 C972.225,338.868 973.0965,338.667 973.86,338.37 C974.649,338.064 975.3195,337.653 975.9855,336.9855 C976.653,336.3195 977.0655,335.6505 977.37,334.86 C977.667,334.095 977.8695,333.225 977.928,331.947 C977.988,330.6675 978,330.2595 978,327 C978,323.7405 977.985,323.3325 977.928,322.053 C977.868,320.775 977.667,319.9035 977.37,319.14 C977.064,318.351 976.653,317.6805 975.9855,317.0145 C975.3195,316.347 974.6505,315.9345 973.86,315.63 C973.095,315.333 972.225,315.1305 970.947,315.072 C969.6675,315.012 969.2595,315 966,315 Z M966,317.16 C969.204,317.16 969.585,317.175 970.8495,317.232 C972.0195,317.286 972.654,317.481 973.077,317.646 C973.638,317.8635 974.037,318.123 974.457,318.543 C974.877,318.963 975.1365,319.362 975.354,319.923 C975.519,320.346 975.714,320.9805 975.768,322.1505 C975.825,323.4165 975.8385,323.796 975.8385,327 C975.8385,330.204 975.8235,330.585 975.7635,331.8495 C975.7035,333.0195 975.5085,333.654 975.3435,334.077 C975.1185,334.638 974.8635,335.037 974.4435,335.457 C974.0235,335.877 973.6185,336.1365 973.0635,336.354 C972.6435,336.519 971.9985,336.714 970.8285,336.768 C969.5535,336.825 969.1785,336.8385 965.9685,336.8385 C962.7585,336.8385 962.3835,336.8235 961.1085,336.7635 C959.9385,336.7035 959.2935,336.5085 958.8735,336.3435 C958.3035,336.1185 957.9135,335.8635 957.4935,335.4435 C957.0735,335.0235 956.8035,334.6185 956.5935,334.0635 C956.4285,333.6435 956.2335,332.9985 956.1735,331.8285 C956.1285,330.5685 956.1135,330.1785 956.1135,326.9835 C956.1135,323.7885 956.1285,323.3985 956.1735,322.1235 C956.2335,320.9535 956.4285,320.3085 956.5935,319.8885 C956.8035,319.3185 957.0735,318.9285 957.4935,318.5085 C957.9135,318.0885 958.3035,317.8185 958.8735,317.6085 C959.2935,317.4435 959.9235,317.2485 961.0935,317.1885 C962.3685,317.1435 962.7435,317.1285 965.9535,317.1285 L966,317.16 Z M966,320.838 C962.595,320.838 959.838,323.598 959.838,327 C959.838,330.405 962.598,333.162 966,333.162 C969.405,333.162 972.162,330.402 972.162,327 C972.162,323.595 969.402,320.838 966,320.838 Z M966,331.0005 C963.7905,331.0005 961.9995,329.2095 961.9995,327 C961.9995,324.7905 963.7905,322.9995 966,322.9995 C968.2095,322.9995 970.0005,324.7905 970.0005,327 C970.0005,329.2095 968.2095,331.0005 966,331.0005 Z M973.845,320.595 C973.845,321.39 973.2,322.035 972.405,322.035 C971.61,322.035 970.965,321.39 970.965,320.595 C970.965,319.8 971.61,319.155 972.405,319.155 C973.2,319.155 973.845,319.8 973.845,320.595 Z" id="Shape" fill="#909090"></path>
    </g>
</svg>