<?xml version="1.0" encoding="UTF-8"?>
<svg width="60px" height="60px" viewBox="0 0 60 60" version="1.1" xmlns="http://www.w3.org/2000/svg" xmlns:xlink="http://www.w3.org/1999/xlink">
    <!-- Generator: Sketch 47.1 (45422) - http://www.bohemiancoding.com/sketch -->
    <title>instagram</title>
    <desc>Created with Sketch.</desc>
    <defs></defs>
    <g id="Symbols" stroke="none" stroke-width="1" fill="none" fill-rule="evenodd">
        <g id="social_media" transform="translate(-100.000000, 0.000000)" fill="#000000">
            <g id="instagram" transform="translate(100.000000, 0.000000)">
                <path d="M30,0 C21.85125,0 20.83125,0.0375 17.6325,0.18 C14.4375,0.33 12.2625,0.8325 10.35,1.575 C8.3775,2.34 6.70125,3.3675 5.03625,5.03625 C3.3675,6.70125 2.33625,8.37375 1.575,10.35 C0.8325,12.2625 0.32625,14.4375 0.18,17.6325 C0.03,20.83125 0,21.85125 0,30 C0,38.14875 0.0375,39.16875 0.18,42.3675 C0.33,45.5625 0.8325,47.74125 1.575,49.65 C2.34,51.6225 3.3675,53.29875 5.03625,54.96375 C6.70125,56.6325 8.37375,57.66375 10.35,58.425 C12.2625,59.1675 14.4375,59.67375 17.6325,59.82 C20.83125,59.97 21.85125,60 30,60 C38.14875,60 39.16875,59.9625 42.3675,59.82 C45.5625,59.67 47.74125,59.1675 49.65,58.425 C51.6225,57.66 53.29875,56.6325 54.96375,54.96375 C56.6325,53.29875 57.66375,51.62625 58.425,49.65 C59.1675,47.7375 59.67375,45.5625 59.82,42.3675 C59.97,39.16875 60,38.14875 60,30 C60,21.85125 59.9625,20.83125 59.82,17.6325 C59.67,14.4375 59.1675,12.25875 58.425,10.35 C57.66,8.3775 56.6325,6.70125 54.96375,5.03625 C53.29875,3.3675 51.62625,2.33625 49.65,1.575 C47.7375,0.8325 45.5625,0.32625 42.3675,0.18 C39.16875,0.03 38.14875,0 30,0 Z M30,5.4 C38.01,5.4 38.9625,5.4375 42.12375,5.58 C45.04875,5.715 46.635,6.2025 47.6925,6.615 C49.095,7.15875 50.0925,7.8075 51.1425,8.8575 C52.1925,9.9075 52.84125,10.905 53.385,12.3075 C53.7975,13.365 54.285,14.95125 54.42,17.87625 C54.5625,21.04125 54.59625,21.99 54.59625,30 C54.59625,38.01 54.55875,38.9625 54.40875,42.12375 C54.25875,45.04875 53.77125,46.635 53.35875,47.6925 C52.79625,49.095 52.15875,50.0925 51.10875,51.1425 C50.05875,52.1925 49.04625,52.84125 47.65875,53.385 C46.60875,53.7975 44.99625,54.285 42.07125,54.42 C38.88375,54.5625 37.94625,54.59625 29.92125,54.59625 C21.89625,54.59625 20.95875,54.55875 17.77125,54.40875 C14.84625,54.25875 13.23375,53.77125 12.18375,53.35875 C10.75875,52.79625 9.78375,52.15875 8.73375,51.10875 C7.68375,50.05875 7.00875,49.04625 6.48375,47.65875 C6.07125,46.60875 5.58375,44.99625 5.43375,42.07125 C5.32125,38.92125 5.28375,37.94625 5.28375,29.95875 C5.28375,21.97125 5.32125,20.99625 5.43375,17.80875 C5.58375,14.88375 6.07125,13.27125 6.48375,12.22125 C7.00875,10.79625 7.68375,9.82125 8.73375,8.77125 C9.78375,7.72125 10.75875,7.04625 12.18375,6.52125 C13.23375,6.10875 14.80875,5.62125 17.73375,5.47125 C20.92125,5.35875 21.85875,5.32125 29.88375,5.32125 L30,5.4 Z M30,14.595 C21.4875,14.595 14.595,21.495 14.595,30 C14.595,38.5125 21.495,45.405 30,45.405 C38.5125,45.405 45.405,38.505 45.405,30 C45.405,21.4875 38.505,14.595 30,14.595 Z M30,40.00125 C24.47625,40.00125 19.99875,35.52375 19.99875,30 C19.99875,24.47625 24.47625,19.99875 30,19.99875 C35.52375,19.99875 40.00125,24.47625 40.00125,30 C40.00125,35.52375 35.52375,40.00125 30,40.00125 Z M49.6125,13.9875 C49.6125,15.975 48,17.5875 46.0125,17.5875 C44.025,17.5875 42.4125,15.975 42.4125,13.9875 C42.4125,12 44.025,10.3875 46.0125,10.3875 C48,10.3875 49.6125,12 49.6125,13.9875 Z" id="Shape"></path>
            </g>
        </g>
    </g>
</svg>