<svg xmlns="http://www.w3.org/2000/svg" viewBox="0 0 60.03 60"><defs><style>.cls-1{fill:#fff;}</style></defs><title>interchangeable</title><g id="Layer_2" data-name="Layer 2"><g id="Layer_1-2" data-name="Layer 1"><path class="cls-1" d="M59,22.09a30.4,30.4,0,0,0-1.22-3.59l0-.06A1.65,1.65,0,0,0,55,17.83L37.6,34l.33-4.79a1.65,1.65,0,1,0-3.3-.23L34,38s0,0,0,0a1.66,1.66,0,0,0,0,.2s0,.08,0,.12a1.67,1.67,0,0,0,0,.18s0,.09,0,.14,0,.1.07.15,0,.1.07.14l.08.11.11.15,0,0,.08.07.16.14.12.08.16.09.15.06.16.05.17,0,.1,0,9,.62h.12a1.65,1.65,0,0,0,.11-3.3l-5.14-.36L55.47,22c.11.34.22.67.31,1a26.52,26.52,0,0,1-2.56,20.25v0A26.65,26.65,0,0,1,34.59,56.29l-.11,0a26.85,26.85,0,0,1-3.21.34l-.88,0h-.56c-.48,0-1,0-1.45,0h0a26.87,26.87,0,0,1-12.94-4.3l-.25-.17q-.57-.38-1.12-.79l-.25-.19a26.41,26.41,0,0,1-7.93-9.83L22.44,26l-.34,4.78a1.65,1.65,0,0,0,1.53,1.77h.12A1.65,1.65,0,0,0,25.4,31L26,22s0,0,0,0a1.66,1.66,0,0,0,0-.2s0-.09,0-.13a1.66,1.66,0,0,0,0-.17s0-.1,0-.14,0-.1-.07-.14,0-.1-.07-.15L25.73,21l-.11-.15,0,0-.09-.08-.14-.12-.13-.09-.14-.08-.16-.06-.15,0-.18,0-.11,0-9-.63a1.65,1.65,0,0,0-.23,3.3l5.15.36L4.58,38c-.1-.3-.2-.61-.28-.92l0-.09c-.07-.25-.12-.5-.19-.75s-.1-.37-.14-.55-.07-.34-.1-.51-.11-.55-.16-.82c0-.09,0-.19,0-.28-.06-.36-.11-.71-.15-1.07v0A26.72,26.72,0,0,1,9,13.61l0-.05c.21-.27.43-.54.66-.8l.24-.28.55-.61.43-.46L11.3,11l.63-.61.28-.26q.42-.38.86-.74l.12-.1A26.7,26.7,0,0,1,48.83,11a1.65,1.65,0,0,0,2.33-2.35A29.91,29.91,0,0,0,45,4l-.07,0a30.38,30.38,0,0,0-3.4-1.67l-.13,0A30.09,30.09,0,0,0,23.79.65h-.07Q23,.82,22.23,1l-.11,0a30,30,0,0,0-21,36.85A30.27,30.27,0,0,0,2.3,41.49l0,0a1.64,1.64,0,0,0,.13.27,29.92,29.92,0,0,0,6.37,9.44l.06.08.15.14.42.39.65.6.54.46.58.49.65.5.52.39.75.52.46.31.88.55.36.22.3.18.49.26.73.38.92.46.27.12a29.85,29.85,0,0,0,3.85,1.45h0a29.74,29.74,0,0,0,4.18.93h.08l1.15.14.62.06.91.07c.46,0,.92,0,1.39,0h.28A29.86,29.86,0,0,0,48,54l.24-.18c.44-.34.88-.69,1.3-1.05l.28-.25q.54-.48,1.06-1l.65-.65.49-.52c.24-.26.48-.53.72-.8l0,0c.56-.65,1.08-1.33,1.59-2l.24-.34q.35-.5.68-1l.18-.29c.21-.33.42-.66.62-1,0,0,0-.1.07-.15A29.91,29.91,0,0,0,59,22.09Z"/></g></g></svg>