<?xml version="1.0" encoding="UTF-8"?>
<svg width="26px" height="24px" viewBox="0 0 26 24" version="1.1" xmlns="http://www.w3.org/2000/svg" xmlns:xlink="http://www.w3.org/1999/xlink">
    <!-- Generator: Sketch 48.2 (47327) - http://www.bohemiancoding.com/sketch -->
    <title>Fill 1</title>
    <desc>Created with Sketch.</desc>
    <defs></defs>
    <g id="footer" stroke="none" stroke-width="1" fill="none" fill-rule="evenodd" transform="translate(-1121.000000, -296.000000)">
        <path d="M1134.73131,303.304348 L1129.57223,303.304348 L1129.57223,320 L1134.73235,320 L1134.73235,311.235826 C1134.73235,306.362783 1140.99323,305.964174 1140.99323,311.235826 L1140.99323,320 L1146.17308,320 L1146.17308,309.428522 C1146.17308,301.205913 1136.90792,301.505391 1134.73131,305.553043 L1134.73131,303.304348 Z M1121.25,320 L1126.44231,320 L1126.44231,303.304348 L1121.25,303.304348 L1121.25,320 Z M1126.42154,298.608696 C1126.42154,300.049739 1125.26885,301.217391 1123.84615,301.217391 C1122.42346,301.217391 1121.27077,300.049739 1121.27077,298.608696 C1121.27077,297.168696 1122.42346,296 1123.84615,296 C1125.26885,296 1126.42154,297.168696 1126.42154,298.608696 Z" id="Fill-1" fill="#909090"></path>
    </g>
</svg>