<?xml version="1.0" encoding="UTF-8"?>
<svg width="60px" height="60px" viewBox="0 0 60 60" version="1.1" xmlns="http://www.w3.org/2000/svg" xmlns:xlink="http://www.w3.org/1999/xlink">
    <!-- Generator: Sketch 47.1 (45422) - http://www.bohemiancoding.com/sketch -->
    <title>In-Black-0p5in-R</title>
    <desc>Created with Sketch.</desc>
    <defs></defs>
    <g id="Symbols" stroke="none" stroke-width="1" fill="none" fill-rule="evenodd">
        <g id="social_media" transform="translate(-429.000000, 0.000000)" fill="#000000">
            <g id="In-Black-0p5in-R" transform="translate(429.000000, 0.000000)">
                <g id="linkedin">
                    <path d="M51.1283333,51.1266667 L42.23,51.1266667 L42.23,37.2016667 C42.23,33.8816667 42.1733333,29.61 37.6066667,29.61 C32.975,29.61 32.2683333,33.2283333 32.2683333,36.965 L32.2683333,51.1266667 L23.38,51.1266667 L23.38,22.4933333 L31.91,22.4933333 L31.91,26.4083333 L32.0333333,26.4083333 C33.22,24.1566667 36.1233333,21.7833333 40.4516667,21.7833333 C49.4633333,21.7833333 51.1283333,27.7116667 51.1283333,35.4233333 L51.1283333,51.1266667 Z M13.3466667,18.5816667 C10.4883333,18.5816667 8.18333333,16.27 8.18333333,13.42 C8.18333333,10.5716667 10.4883333,8.26 13.3466667,8.26 C16.1933333,8.26 18.5033333,10.5716667 18.5033333,13.42 C18.5033333,16.27 16.1933333,18.5816667 13.3466667,18.5816667 Z M8.89,51.1266667 L17.7983333,51.1266667 L17.7983333,22.4933333 L8.89,22.4933333 L8.89,51.1266667 Z M55.56,0 L4.425,0 C1.98333333,0 0,1.93666667 0,4.32666667 L0,55.67 C0,58.06 1.98333333,60 4.425,60 L55.56,60 C58.0066667,60 59.9983333,58.06 59.9983333,55.67 L59.9983333,4.32666667 C59.9983333,1.93666667 58.0066667,0 55.56,0 L55.56,0 Z" id="Fill-4"></path>
                </g>
            </g>
        </g>
    </g>
</svg>