<?xml version="1.0" encoding="UTF-8"?>
<svg width="194px" height="130px" viewBox="0 0 194 130" version="1.1" xmlns="http://www.w3.org/2000/svg" xmlns:xlink="http://www.w3.org/1999/xlink">
    <!-- Generator: Sketch 47.1 (45422) - http://www.bohemiancoding.com/sketch -->
    <title>mate_logo-sm</title>
    <desc>Created with Sketch.</desc>
    <defs>
        <linearGradient x1="1.75207461%" y1="100%" x2="101.257408%" y2="0%" id="linearGradient-1">
            <stop stop-color="#0099D7" offset="0%"></stop>
            <stop stop-color="#1ED378" offset="100%"></stop>
        </linearGradient>
    </defs>
    <g id="Homepage" stroke="none" stroke-width="1" fill="none" fill-rule="evenodd">
        <g id="Homepage-Mobile" transform="translate(-91.000000, -3433.000000)">
            <g id="mate_logo-sm" transform="translate(91.000000, 3433.000000)">
                <g>
                    <path d="M28.58,90.928 L28.34,118 L33.716,118 L33.716,82 L26.804,82 L17.06,106.528 L7.316,82 L0.404,82 L0.404,118 L5.78,118 L5.54,90.928 L14.516,113.056 L19.604,113.056 L28.58,90.928 Z M52.58,101.44 C52.58,98.992 51.428,98.032 47.876,98.032 C44.756,98.032 42.212,98.752 40.388,99.472 L40.388,94.816 C42.26,94 45.428,93.424 48.26,93.424 C56.132,93.424 57.956,96.88 57.956,101.968 L57.956,118 L54.788,118 L53.924,116.08 C52.004,117.664 49.316,118.576 46.676,118.576 C40.484,118.576 38.42,114.736 38.42,110.896 C38.42,105.712 41.78,103.504 47.204,103.072 L52.58,102.64 L52.58,101.44 Z M52.58,106.336 L47.54,106.912 C45.14,107.2 43.748,108.112 43.748,110.608 C43.748,112.432 44.516,114.16 47.444,114.16 C49.604,114.16 51.092,113.536 52.58,112.576 L52.58,106.336 Z M76.868,113.824 C76.292,113.92 75.572,114.016 74.756,114.016 C72.02,114.016 70.82,112.864 70.82,110.464 L70.82,98.56 L77.588,98.56 L77.588,94 L70.82,94 L70.82,86.752 L65.444,88.288 L65.444,94 L61.076,95.248 L61.076,98.56 L65.444,98.56 L65.444,111.088 C65.444,116.272 68.564,118.576 73.892,118.576 C74.708,118.576 76.052,118.432 76.868,118.24 L76.868,113.824 Z M80.66,106 C80.66,98.272 83.492,93.424 91.316,93.424 C99.764,93.424 101.108,98.992 101.108,105.616 C101.108,106.432 101.06,107.2 101.012,107.968 L86.084,107.968 C86.18,111.568 87.476,113.92 92.372,113.92 C95.396,113.92 97.892,113.392 100.004,112.48 L100.004,117.088 C97.268,118.24 94.148,118.576 91.556,118.576 C83.54,118.576 80.66,113.776 80.66,106 Z M91.316,98.08 C87.38,98.08 86.276,100.624 86.084,104.224 L95.684,104.224 C95.684,100.96 95.492,98.08 91.316,98.08 Z M136.436,118 L133.892,109.216 L122.372,109.216 L119.828,118 L113.972,118 L125.396,81.568 L130.868,81.568 L142.292,118 L136.436,118 Z M132.74,104.8 L128.132,88.864 L123.524,104.8 L132.74,104.8 Z M157.94,118.576 C155.54,118.576 153.236,117.808 151.508,116.704 L151.508,130 L146.132,130 L146.132,94 L149.3,94 L150.164,95.92 C152.276,94.384 154.724,93.424 157.94,93.424 C164.948,93.424 167.54,98.128 167.54,106 C167.54,113.824 164.948,118.576 157.94,118.576 Z M156.692,114.016 C161.396,114.016 162.116,110.416 162.116,106 C162.116,101.536 161.396,97.984 156.692,97.984 C154.148,97.984 152.468,98.848 151.508,99.376 L151.508,112.624 C152.468,113.152 154.148,114.016 156.692,114.016 Z M183.956,118.576 C181.556,118.576 179.252,117.808 177.524,116.704 L177.524,130 L172.148,130 L172.148,94 L175.316,94 L176.18,95.92 C178.292,94.384 180.74,93.424 183.956,93.424 C190.964,93.424 193.556,98.128 193.556,106 C193.556,113.824 190.964,118.576 183.956,118.576 Z M182.708,114.016 C187.412,114.016 188.132,110.416 188.132,106 C188.132,101.536 187.412,97.984 182.708,97.984 C180.164,97.984 178.484,98.848 177.524,99.376 L177.524,112.624 C178.484,113.152 180.164,114.016 182.708,114.016 Z" id="Mate-App" fill="#0FB5A8"></path>
                    <g id="Group-2-Copy-2" transform="translate(67.000000, 0.000000)">
                        <rect id="Rectangle-376" fill="url(#linearGradient-1)" x="0" y="0" width="60" height="60" rx="30"></rect>
                        <g id="Group" transform="translate(4.000000, 4.000000)" fill="#FEFEFE">
                            <path d="M51.0729283,19.1452226 C47.2867396,5.29752453 32.9916453,-2.85960755 19.1439472,0.926581132 C5.29624906,4.71276981 -2.85990189,19.0078642 0.927267925,32.8555623 C4.7134566,46.7022792 19.0085509,54.8594113 32.8562491,51.0732226 C46.7039472,47.287034 54.859117,32.9919396 51.0729283,19.1452226 Z M44.9231925,20.8259019 C42.0651547,10.374883 31.2766264,4.21926038 20.8256075,7.07729811 C10.3745887,9.93435472 4.21896604,20.722883 7.07700377,31.1739019 C9.93504151,41.6249208 20.7235698,47.7805434 31.1745887,44.9234868 C41.6256075,42.0654491 47.7812302,31.2769208 44.9231925,20.8259019 Z" id="Fill-1" opacity="0.400000006"></path>
                            <path d="M44.9231925,20.8261962 C45.3872679,22.5225736 45.5903623,24.2248377 45.5991925,25.9025736 L51.9951925,25.8721585 C51.9942113,25.8446868 51.9951925,25.8172151 51.9951925,25.7897434 C51.9912679,25.2795547 51.9726264,24.7664226 51.9373057,24.2532906 C51.9314189,24.1541962 51.9186642,24.0541208 51.9108151,23.9550264 C51.8794189,23.5586491 51.8382113,23.1612906 51.7891547,22.7629509 C51.7636453,22.5637811 51.7342113,22.3655925 51.7047774,22.1664226 C51.6596453,21.8652151 51.6076453,21.5649887 51.5517208,21.2637811 C51.5105132,21.0410642 51.4702868,20.817366 51.4222113,20.5946491 C51.3545132,20.2738189 51.2740604,19.9529887 51.1936075,19.6321585 C51.1524,19.4702717 51.1170792,19.3074038 51.0729283,19.1445358 C50.8521736,18.3380453 50.5931547,17.5531396 50.3027396,16.7868755 C50.2791925,16.724083 50.2585887,16.6593283 50.2340604,16.5965358 C50.1280981,16.3218189 50.0123245,16.0529887 49.8965509,15.7831774 C49.8317962,15.6311019 49.7699849,15.4770642 49.7022868,15.3259698 C49.6051547,15.1111019 49.5021358,14.9001585 49.399117,14.6892151 C49.3019849,14.488083 49.2068151,14.2859698 49.1057585,14.0887623 C49.0174566,13.9180453 48.9242491,13.7512528 48.8330038,13.5834792 C48.7054566,13.3480075 48.5779094,13.1144981 48.4434943,12.8849132 C48.3659849,12.7514792 48.2845509,12.6200075 48.2040981,12.4885358 C48.047117,12.2304981 47.8871925,11.9724604 47.7213811,11.7203094 C47.6517208,11.6163094 47.5810792,11.5142717 47.5114189,11.4102717 C47.3259849,11.137517 47.1366264,10.8677057 46.9423623,10.6028 C46.8815321,10.5203849 46.8197208,10.4379698 46.7569283,10.3555547 C46.5479472,10.0788755 46.3340604,9.80710189 46.1152679,9.53925283 C46.085834,9.50295094 46.0564,9.46763019 46.026966,9.43230943 L41.1056075,13.5040075 C42.8304377,15.5859698 44.1637962,18.0476302 44.9231925,20.8261962" id="Fill-4"></path>
                            <path d="M32.1598415,44.599517 C31.8321434,44.7074415 31.5113132,44.8310642 31.1747849,44.9232906 C20.723766,47.7803472 9.93523774,41.6247245 7.0772,31.1737057 C5.39848302,25.0367245 6.84565283,18.7957434 10.4287472,14.1000453 L5.33078491,10.2432151 C4.91969057,10.7828377 4.53508679,11.3312906 4.17010566,11.8944604 C3.80218113,12.463517 3.49410566,12.9952906 3.19780377,13.5349132 C3.13304906,13.6536302 3.06829434,13.7723472 3.00452075,13.8930264 C2.73274717,14.4071396 2.4766717,14.9310642 2.2382566,15.4657811 C2.18331321,15.5903849 2.13327547,15.7179321 2.07931321,15.8425358 C1.87229434,16.3291774 1.67999245,16.8207245 1.50142642,17.3211019 C1.46708679,17.4201962 1.42784151,17.5173283 1.39350189,17.6174038 C1.1982566,18.1894038 1.02753962,18.7721962 0.871539623,19.3618566 C0.839162264,19.4815547 0.807766038,19.6012528 0.777350943,19.7219321 C0.62429434,20.3371019 0.489879245,20.9591396 0.381954717,21.5909887 C0.373124528,21.6439698 0.365275472,21.6969509 0.356445283,21.7499321 C0.128822642,23.1333283 0.00716226415,24.5520453 0.00716226415,25.9992151 C0.00716226415,26.4250264 0.0189358491,26.8478943 0.0385584906,27.2678189 C0.0611245283,27.714234 0.0895773585,28.0595925 0.121954717,28.4039698 C0.13274717,28.5217057 0.140596226,28.6394415 0.153350943,28.7571774 C0.178860377,28.9955925 0.212218868,29.2320453 0.244596226,29.4694792 C0.275011321,29.6951396 0.303464151,29.9217811 0.339766038,30.1484226 C0.360369811,30.2749887 0.385879245,30.4005736 0.408445283,30.5271396 C0.466332075,30.8577811 0.527162264,31.1884226 0.599766038,31.5190642 C0.608596226,31.5612528 0.619388679,31.6024604 0.628218868,31.6446491 C0.718483019,32.0469132 0.816596226,32.4491774 0.926483019,32.8514415 C1.0452,33.2870642 1.17176604,33.7050264 1.30716226,34.118083 C1.45335094,34.5595925 1.58874717,34.9392906 1.73297358,35.314083 C1.75750189,35.3798189 1.78399245,35.4435925 1.80950189,35.5093283 C1.93410566,35.8281962 2.06557736,36.1431396 2.20195472,36.4551396 C2.25591698,36.5768 2.31086038,36.6984604 2.36678491,36.8191396 C2.47961509,37.0654038 2.59538868,37.3097057 2.71410566,37.550083 C2.80240755,37.7276679 2.8926717,37.9042717 2.98489811,38.0789132 C3.07810566,38.2574792 3.17327547,38.434083 3.27040755,38.6087245 C3.39501132,38.8343849 3.52353962,39.0571019 3.65501132,39.2778566 C3.72663396,39.3985358 3.79923774,39.518234 3.87184151,39.6369509 C4.03274717,39.8969509 4.19757736,40.1540075 4.36633208,40.4081208 C4.41931321,40.4875925 4.47229434,40.566083 4.52527547,40.6445736 C4.71659623,40.9241962 4.91282264,41.2008755 5.11395472,41.4716679 C5.1532,41.5256302 5.19342642,41.5786113 5.23365283,41.6315925 C5.44753962,41.9161208 5.66829434,42.1967245 5.89395472,42.4714415 C5.92927547,42.5155925 5.96557736,42.5587623 6.00187925,42.6019321 C6.22950189,42.8766491 6.46399245,43.1474415 6.70338868,43.4123472 C6.74655849,43.4594415 6.7897283,43.5065358 6.83289811,43.5546113 C7.06444528,43.8067623 7.30187925,44.0549887 7.54323774,44.2992906 C7.60406792,44.3601208 7.66587925,44.4209509 7.72769057,44.4817811 C7.95040755,44.7025358 8.17901132,44.919366 8.40957736,45.1322717 C8.50180377,45.2166491 8.59304906,45.2990642 8.6862566,45.3824604 C8.89033208,45.5639698 9.09735094,45.743517 9.30633208,45.9191396 C9.43780377,46.0290264 9.5702566,46.1369509 9.70270943,46.2438943 C9.87833208,46.3851774 10.0549358,46.523517 10.2325208,46.6598943 C10.4091245,46.7943094 10.5876906,46.9257811 10.7672377,47.0562717 C10.9075396,47.1583094 11.0498038,47.259366 11.1920679,47.3584604 C11.4147849,47.5124981 11.6394642,47.6626113 11.8661057,47.8097811 C11.9730491,47.8784604 12.0799925,47.9481208 12.187917,48.0158189 C12.4518415,48.1816302 12.7187094,48.3425358 12.9885208,48.4985358 C13.0650491,48.5426868 13.1425585,48.5868377 13.2190868,48.6309887 C13.5173509,48.7997434 13.8175774,48.9616302 14.1217283,49.1176302 C14.1796151,49.1470642 14.2375019,49.1774792 14.2953887,49.2069132 C14.6122943,49.3668377 14.9321434,49.5198943 15.255917,49.6670642 C15.3108604,49.6915925 15.3648226,49.7161208 15.419766,49.7406491 C15.7405962,49.8838943 16.0653509,50.0212528 16.3920679,50.1507623 C16.4587849,50.178234 16.5245208,50.2037434 16.5912377,50.230234 C16.9022566,50.3509132 17.2152377,50.4647245 17.5301811,50.5736302 C17.6263321,50.6069887 17.7215019,50.639366 17.8166717,50.6707623 C18.1002189,50.7649509 18.3857283,50.854234 18.6722189,50.9386113 C18.8125208,50.9798189 18.9547849,51.0200453 19.0970491,51.0592906 C19.3384075,51.1260075 19.579766,51.1888 19.8230868,51.2486491 C20.0252,51.2977057 20.2292755,51.3448 20.4333509,51.3889509 C20.6178038,51.4301585 20.8032377,51.4684226 20.9896528,51.5057057 C21.2633887,51.5586868 21.5371245,51.6077434 21.8138038,51.6528755 C21.9364453,51.6724981 22.0581057,51.6931019 22.1807472,51.7117434 C22.5290491,51.7627623 22.8793132,51.8069132 23.2305585,51.8451774 C23.2884453,51.8510642 23.3453509,51.8579321 23.4022566,51.8638189 C23.8162943,51.9040453 24.2313132,51.9364226 24.6502566,51.9580075 C25.1094264,51.9815547 25.5538792,51.9933283 26.0002943,51.9933283 C26.6949358,51.9933283 27.3836906,51.9629132 28.0645962,51.9089509 C28.1097283,51.9060075 28.1548604,51.9011019 28.1999925,51.8971774 C29.5009736,51.7863094 30.7725208,51.5763472 32.0126717,51.2810264 C32.1412,51.2506113 32.2697283,51.2192151 32.3982566,51.1858566 C32.9938038,51.0347623 33.582483,50.8699321 34.1613509,50.6786113 L32.1598415,44.599517 Z" id="Fill-6"></path>
                            <path d="M49.0307019,38.0412377 C49.0876075,37.9323321 49.1464755,37.8253887 49.2024,37.7155019 C49.3299472,37.4633509 49.4496453,37.2062943 49.5693434,36.9492377 C49.6311547,36.8167849 49.6949283,36.6843321 49.7537962,36.5508981 C49.8617208,36.3095396 49.9617962,36.0652377 50.0618717,35.8209358 C50.1256453,35.6649358 50.1904,35.5108981 50.2502491,35.353917 C50.3395321,35.1233509 50.4229283,34.8918038 50.5053434,34.6582943 C50.5671547,34.4826717 50.6299472,34.3060679 50.6888151,34.1275019 C50.7614189,33.9087094 50.829117,33.6869736 50.895834,33.4652377 C50.9547019,33.2699925 51.0125887,33.0747472 51.0665509,32.8775396 C51.1244377,32.6656151 51.1793811,32.4527094 51.2323623,32.2398038 C51.2843623,32.0308226 51.3334189,31.8208604 51.3805132,31.6108981 C51.4266264,31.401917 51.4707774,31.1929358 51.5119849,30.9829736 C51.5541736,30.7671245 51.5924377,30.5502943 51.6297208,30.3334642 C51.6503245,30.2127849 51.6679849,30.0921057 51.6876075,29.9714264 L45.3818717,28.9696906 C44.9727396,31.6295396 44.0151547,34.1539925 42.6052679,36.4056906 L48.0093434,39.8249358 C48.1604377,39.5845585 48.3056453,39.3402566 48.4488906,39.0949736 C48.4979472,39.0115774 48.548966,38.9301434 48.5970415,38.845766 C48.7471547,38.5808604 48.8894189,38.3110491 49.0307019,38.0412377" id="Fill-8"></path>
                        </g>
                        <path d="M39,29.995686 C39,29.9927342 38.998608,29.987739 38.998608,29.9843332 C38.998608,29.9695747 38.995824,29.954589 38.993504,29.9398305 C38.9916479,29.9300671 38.9886319,29.9234825 38.9858479,29.9150815 C38.9830639,29.9053181 38.9809759,29.8951007 38.9767998,29.8853373 C38.9733198,29.8787527 38.9691438,29.8719411 38.9656637,29.8653565 C38.9600957,29.8555931 38.9547597,29.8458298 38.9487276,29.8374287 C38.9445516,29.8308441 38.9396795,29.8258489 38.9357355,29.8210808 C38.9287755,29.8113174 38.9211194,29.8047328 38.9134634,29.7965589 C38.9120713,29.7949695 38.9111433,29.793153 38.9092873,29.7913366 L35.3536287,26.2129522 C35.3478286,26.2063676 35.3411006,26.1979666 35.3355325,26.191155 L35.3336765,26.191155 C35.2847241,26.1468793 35.2209237,26.1207679 35.1501631,26.1207679 C35.0789386,26.1207679 35.0146741,26.1486957 34.9652577,26.1929714 L34.9643297,26.191155 L33.7363445,27.4286039 C33.6864641,27.4794642 33.6553759,27.5487159 33.6553759,27.6259145 C33.6553759,27.6972097 33.6834481,27.7598769 33.7261364,27.8089207 L33.7254404,27.8089207 L33.7363445,27.8209546 L35.8965127,29.995686 L33.7363445,32.1708714 L33.7254404,32.1824512 L33.7261364,32.1824512 C33.6834481,32.2321762 33.6553759,32.2964327 33.6553759,32.3675009 C33.6553759,32.4433372 33.6864641,32.5123619 33.7363445,32.5634492 L34.9643297,33.800217 L34.9652577,33.7986276 C35.0146741,33.8449468 35.0789386,33.8712851 35.1501631,33.8712851 C35.2209237,33.8712851 35.2847241,33.8449468 35.3336765,33.800217 L35.3355325,33.7986276 C35.3411006,33.7936324 35.3478286,33.7870478 35.3536287,33.7806902 L38.9092873,30.2007165 C38.9111433,30.1989 38.9120713,30.1970836 38.9134634,30.1970836 C38.9211194,30.1886826 38.9287755,30.1807357 38.9357355,30.1723346 C38.9396795,30.165523 38.9445516,30.1607548 38.9487276,30.1546244 C38.9547597,30.1459963 38.9600957,30.1362329 38.9656637,30.1278319 C38.9691438,30.1212473 38.9733198,30.1146627 38.9767998,30.1062617 C38.9809759,30.0964983 38.9828319,30.0885514 38.9849199,30.0783339 C38.9886319,30.0701599 38.9916479,30.0617589 38.993504,30.053812 C38.995824,30.0406428 38.995824,30.0272466 38.998608,30.0156668 C38.998608,30.0090822 39,30.004087 39,29.995686 L39,29.995686 Z M28.073182,23.3021091 C28.8817081,23.3021091 29.6106576,23.6501842 30.1199014,24.2057874 L30.1236134,24.2010192 L31.7337055,25.8235532 C31.7842819,25.8732782 31.8531864,25.9043847 31.929051,25.9043847 C32.0014355,25.9043847 32.06802,25.8750946 32.1169724,25.8285484 L32.1179004,25.8285484 L33.3393895,24.5983652 L33.3393895,24.5965488 C33.3925179,24.5472779 33.4247662,24.4764368 33.4247662,24.3969676 C33.4247662,24.3215853 33.394838,24.2518795 33.3444936,24.2010192 L31.7337055,22.5800747 L31.7362575,22.5766689 C30.8138186,21.6053282 29.5132168,21 28.073182,21 C25.271529,21 23,23.2857611 23,26.1073717 C23,27.6674656 23.6969332,29.064534 24.7938375,30.0006812 C23.6969332,30.9359201 23,32.3327615 23,33.8942177 C23,36.7142389 25.271529,39 28.073182,39 C29.5132168,39 30.8138186,38.3946718 31.7362575,37.4233311 L31.7337055,37.4201524 L33.3444936,35.7989808 C33.394838,35.7497099 33.4247662,35.6804581 33.4247662,35.6025783 C33.4247662,35.5235632 33.3925179,35.4543115 33.3393895,35.4034512 L32.1179004,34.172814 L32.1169724,34.172814 C32.06802,34.1271759 32.0014355,34.0974318 31.929051,34.0974318 C31.8531864,34.0974318 31.7842819,34.1271759 31.7337055,34.1775821 L30.1236134,35.7989808 L30.1199014,35.7939856 C29.6106576,36.3498158 28.8817081,36.6997074 28.073182,36.6997074 C26.5343145,36.6997074 25.2870732,35.4429588 25.2870732,33.8942177 C25.2870732,33.1372168 25.5849634,32.4512841 26.069383,31.9469953 L26.1129993,31.9040819 C26.1361995,31.8809223 26.1587037,31.8579898 26.1823679,31.8348302 L26.1823679,31.8330138 L27.801276,30.2020788 C27.803132,30.2020788 27.80406,30.2007165 27.805916,30.1989 C27.8131081,30.190499 27.8207642,30.1825521 27.8279562,30.1741511 C27.8321322,30.1691559 27.8372363,30.1625713 27.8411803,30.1575761 C27.8469804,30.149175 27.8511564,30.1394117 27.8571884,30.1291942 C27.8615965,30.1226096 27.8657725,30.1164791 27.8687885,30.1096675 C27.8725005,30.0999041 27.8748206,30.0896867 27.8783006,30.0817397 C27.8806206,30.0715223 27.8834046,30.0635754 27.8854926,30.0551743 C27.8882767,30.0435945 27.8882767,30.0308795 27.8910607,30.0174832 C27.8910607,30.0104445 27.8924527,30.0054493 27.8924527,29.9993188 L27.8924527,29.9975024 C27.8924527,29.9940966 27.8910607,29.9909178 27.8910607,29.9859226 C27.8910607,29.9713911 27.8882767,29.9564055 27.8854926,29.9416469 C27.8834046,29.9332459 27.8806206,29.925299 27.8783006,29.9168979 C27.8757486,29.9071346 27.8725005,29.8987335 27.8687885,29.8885161 C27.8657725,29.8805692 27.8615965,29.8755739 27.8578844,29.8689894 C27.8520844,29.8574096 27.8469804,29.8490085 27.8411803,29.8392452 C27.8372363,29.83425 27.8330602,29.8294818 27.8279562,29.8228972 C27.8207642,29.8144962 27.8131081,29.8063222 27.805916,29.7979212 C27.805916,29.7979212 27.803132,29.7965589 27.801276,29.7949695 L26.0174146,27.9976033 C25.5638512,27.4971744 25.2870732,26.8346284 25.2870732,26.1073717 C25.2870732,24.5588577 26.5343145,23.3021091 28.073182,23.3021091 L28.073182,23.3021091 Z" id="Fill-6-Copy" fill="#FFFFFF"></path>
                    </g>
                </g>
            </g>
        </g>
    </g>
</svg>