<svg xmlns="http://www.w3.org/2000/svg" viewBox="0 0 32.48 31.5"><defs><style>.cls-1{fill:#bc204b;}</style></defs><title>money_back_r</title><g id="Layer_2" data-name="Layer 2"><g id="lines"><path class="cls-1" d="M16.73,31.5A15.85,15.85,0,0,1,1.34,19.12a.75.75,0,0,1,.57-.89.76.76,0,0,1,.9.57A14.25,14.25,0,1,0,16.73,1.5a.75.75,0,0,1,0-1.5,15.75,15.75,0,0,1,0,31.5Z"/><polygon class="cls-1" points="0 19.89 1.73 15.75 4.45 19.32 0 19.89"/><path class="cls-1" d="M16.49,14.81c3.75.31,5.24,1.16,5.24,3.65,0,2.34-1.93,4-6.14,4l-1,2.93H12.66l1.18-3.08a9.78,9.78,0,0,1-2.51-.57V20.21a15.06,15.06,0,0,0,4.54.66c2.8,0,4.14-.87,4.14-2.38s-1-2-3.65-2.19c-3.83-.33-5.24-1.2-5.24-3.36,0-2.44,2-3.86,5.93-3.86l1-2.95H20L18.8,9.21a10.28,10.28,0,0,1,2.29.54v1.52a15,15,0,0,0-4.45-.62c-2.64,0-3.85.67-3.85,2.29C12.79,14.27,14,14.58,16.49,14.81Z"/></g></g></svg>