<svg xmlns="http://www.w3.org/2000/svg" viewBox="0 0 31.5 31.5"><defs><style>.cls-1{fill:#bc204b;}</style></defs><title>plus_trial_r</title><g id="Layer_2" data-name="Layer 2"><g id="lines"><path class="cls-1" d="M28.75,31.5h-26A2.75,2.75,0,0,1,0,28.75v-26A2.75,2.75,0,0,1,2.75,0h26A2.75,2.75,0,0,1,31.5,2.75v26A2.75,2.75,0,0,1,28.75,31.5Zm-26-30A1.25,1.25,0,0,0,1.5,2.75v26A1.25,1.25,0,0,0,2.75,30h26A1.25,1.25,0,0,0,30,28.75v-26A1.25,1.25,0,0,0,28.75,1.5Z"/><path class="cls-1" d="M6.26,14V12.12a9.29,9.29,0,0,1,3.5-.59c3.28,0,4.61,1.39,4.61,3.58a3.07,3.07,0,0,1-1.7,2.83A3,3,0,0,1,14.79,21c0,2.39-1.42,4.05-5,4.05a9.72,9.72,0,0,1-3.55-.59V22.59a8.68,8.68,0,0,0,3.46.64c2.27,0,3-.94,3-2.23,0-1.54-.84-2.05-2.58-2.05H7.71V17.17h2.5c1.41,0,2.11-.77,2.11-1.87,0-1.27-.77-2-2.78-2A8.22,8.22,0,0,0,6.26,14Z"/><path class="cls-1" d="M21,11.53c3.6,0,4.23,2.2,4.23,6.76s-.63,6.76-4.23,6.76-4.23-2.2-4.23-6.76S17.43,11.53,21,11.53Zm0,1.78c-2.13,0-2.27,1.62-2.27,5s.14,5,2.27,5,2.27-1.63,2.27-5S23.16,13.31,21,13.31Z"/><path class="cls-1" d="M30.75,6.5h0l-30,0A.75.75,0,0,1,.75,5h0l30,0a.75.75,0,0,1,0,1.5Z"/></g></g></svg>