<svg id="lines" xmlns="http://www.w3.org/2000/svg" viewBox="0 0 90 90"><defs><style>.cls-1{fill:none;stroke:#bc204b;stroke-linecap:round;stroke-linejoin:round;stroke-width:1.5px;}</style></defs><title>press_inquiries</title><path class="cls-1" d="M20,65V21a1,1,0,0,1,1-1H59a1,1,0,0,1,1,1V65"/><path class="cls-1" d="M70,65V31a1,1,0,0,0-1-1H60"/><path class="cls-1" d="M60,65a5,5,0,0,0,10,0"/><path class="cls-1" d="M20,65a5,5,0,0,0,5,5H65"/><rect class="cls-1" x="30" y="30" width="5" height="5"/><rect class="cls-1" x="45" y="50" width="5" height="5"/><line class="cls-1" x1="40" y1="30" x2="50" y2="30"/><line class="cls-1" x1="40" y1="35" x2="50" y2="35"/><line class="cls-1" x1="30" y1="40" x2="50" y2="40"/><line class="cls-1" x1="30" y1="50" x2="40" y2="50"/><line class="cls-1" x1="30" y1="55" x2="40" y2="55"/><line class="cls-1" x1="30" y1="45" x2="50" y2="45"/></svg>