<svg id="lines" xmlns="http://www.w3.org/2000/svg" viewBox="0 0 90 90"><defs><style>.cls-1,.cls-3{fill:none;stroke:#bc204b;stroke-width:1.5px;}.cls-1{stroke-linecap:round;stroke-linejoin:round;}.cls-2{fill:#bc204b;}.cls-3{stroke-miterlimit:10;}</style></defs><title>researchers_deals v.2</title><line class="cls-1" x1="40.42" y1="29.49" x2="40.42" y2="43.84"/><path class="cls-1" d="M65.42,61.93,69,56.37a3.88,3.88,0,0,0,.61-2.09V35.72A3.88,3.88,0,0,0,69,33.63l-3.55-5.55"/><path class="cls-1" d="M40.42,28.07l-3.55,5.55a3.88,3.88,0,0,0-.61,2.09V54.28a3.88,3.88,0,0,0,.61,2.09l3.55,5.55"/><line class="cls-1" x1="65.42" y1="61.93" x2="65.42" y2="28.07"/><line class="cls-1" x1="40.42" y1="28.07" x2="40.42" y2="61.93"/><path class="cls-1" d="M40.42,28.07V22a2,2,0,0,1,2-2h21a2,2,0,0,1,2,2v6.07"/><path class="cls-1" d="M40.42,61.93V68a2,2,0,0,0,2,2h21a2,2,0,0,0,2-2V61.93"/><path class="cls-1" d="M40.42,37.64a5,5,0,0,0,2.5.69,5,5,0,0,0,0-10,5,5,0,0,0-2.5.69"/><circle class="cls-2" cx="53.96" cy="33.33" r="1.04"/><polyline class="cls-1" points="38.78 59.98 20 59.98 20 39.98 35.79 39.98"/><path class="cls-1" d="M35.79,54.75a7.5,7.5,0,1,1,0-9.53"/><path class="cls-3" d="M20,60v8a2,2,0,0,0,2,2H38.42a2,2,0,0,0,2-2V62.66"/><path class="cls-3" d="M40.42,40V32a2,2,0,0,0-2-2H22a2,2,0,0,0-2,2v8"/></svg>