<svg xmlns="http://www.w3.org/2000/svg" viewBox="0 0 59.99 60"><defs><style>.cls-1{fill:#c51a4a;}</style></defs><title>seizure_detection</title><g id="Layer_2" data-name="Layer 2"><g id="Layer_1-2" data-name="Layer 1"><path class="cls-1" d="M48.73,8.66a1.65,1.65,0,0,0,0,2.34A26.69,26.69,0,1,1,32,3.39L20.43,29.33a1.65,1.65,0,0,0,1.51,2.33H34L26.92,47a1.65,1.65,0,0,0,3,1.38L38,30.69a1.65,1.65,0,0,0-1.5-2.34h-12L36,2.68A1.65,1.65,0,0,0,34.7.38a30,30,0,0,0-29,47.24,29.8,29.8,0,0,0,19.57,12,30.33,30.33,0,0,0,4.77.38A30,30,0,0,0,59.62,34.7,30.08,30.08,0,0,0,51.06,8.65,1.65,1.65,0,0,0,48.73,8.66Z"/></g></g></svg>