<svg xmlns="http://www.w3.org/2000/svg" viewBox="0 0 120 125"><defs><style>.cls-1,.cls-2{fill:none;}.cls-2,.cls-3{stroke:#bc204b;stroke-linecap:round;stroke-linejoin:round;stroke-width:1.5px;}.cls-3{fill:#fff;}</style></defs><title>seizure detection</title><g id="Layer_2" data-name="Layer 2"><g id="Layer_1-2" data-name="Layer 1"><rect class="cls-1" width="120" height="125"/><path class="cls-2" d="M85.52,73.57a9.81,9.81,0,0,1,2,6.43,9.81,9.81,0,0,1-2,6.43"/><path class="cls-2" d="M88.69,69.29a16.45,16.45,0,0,1,0,21.43"/><path class="cls-2" d="M92.06,65s6,6.43,6,15-6,15-6,15"/><polyline class="cls-3" points="30 122.5 30 91.07 81.43 91.07 81.43 122.5"/><rect class="cls-3" x="30" y="68.21" width="51.43" height="22.86"/><rect class="cls-3" x="44.29" y="68.21" width="22.86" height="22.86"/><circle class="cls-3" cx="55.71" cy="79.64" r="7.14" transform="translate(-23.36 23.13) rotate(-19.47)"/><path class="cls-2" d="M81.43,51.07V38.21a4.29,4.29,0,0,1,4.29-4.29h0A4.29,4.29,0,0,1,90,38.21V50.76a11.43,11.43,0,0,1-1.63,5.88L81.43,68.21"/><path class="cls-2" d="M30,68.21V21.07a4.29,4.29,0,0,1,4.29-4.29h0a4.29,4.29,0,0,1,4.29,4.29v10a2.86,2.86,0,0,0,2.86,2.86h0a2.86,2.86,0,0,0,2.86-2.86V12.5a4.29,4.29,0,0,1,4.29-4.29h0a4.29,4.29,0,0,1,4.29,4.29V31.07a2.86,2.86,0,0,0,2.86,2.86h0a2.86,2.86,0,0,0,2.86-2.86V6.79A4.29,4.29,0,0,1,62.86,2.5h0a4.29,4.29,0,0,1,4.29,4.29V31.07A2.86,2.86,0,0,0,70,33.93h0a2.86,2.86,0,0,0,2.86-2.86V15.36a4.29,4.29,0,0,1,4.29-4.29h0a4.29,4.29,0,0,1,4.29,4.29V51.07"/><path class="cls-3" d="M53.81,105"/></g></g></svg>