<svg xmlns="http://www.w3.org/2000/svg" viewBox="0 0 41.5 26.06"><defs><style>.cls-1{fill:#bc204b;}</style></defs><title>shipping_r</title><g id="Layer_2" data-name="Layer 2"><g id="lines"><path class="cls-1" d="M39.35,12H35.84a.75.75,0,0,1,0-1.5h3.51a.75.75,0,0,1,0,1.5Z"/><path class="cls-1" d="M35.84,22.55h-7a.75.75,0,0,1,0-1.5h6.27V1.5H8.17L1.5,11.5v9.55H7.77a.75.75,0,0,1,0,1.5h-7A.75.75,0,0,1,0,21.8V11.28a.7.7,0,0,1,.13-.42L7.14.33A.76.76,0,0,1,7.77,0H35.84a.76.76,0,0,1,.75.75V21.8A.75.75,0,0,1,35.84,22.55Z"/><path class="cls-1" d="M21.8,22.55h-7a.75.75,0,0,1,0-1.5h7a.75.75,0,0,1,0,1.5Z"/><path class="cls-1" d="M25.31,26.06a4.26,4.26,0,1,1,4.26-4.26A4.26,4.26,0,0,1,25.31,26.06Zm0-7a2.76,2.76,0,1,0,2.76,2.76A2.77,2.77,0,0,0,25.31,19Z"/><path class="cls-1" d="M40.75,8.52H35.84a.75.75,0,0,1,0-1.5h4.91a.75.75,0,0,1,0,1.5Z"/><path class="cls-1" d="M40.75,15.54H35.84a.75.75,0,0,1,0-1.5h4.91a.75.75,0,0,1,0,1.5Z"/><path class="cls-1" d="M11.27,26.06a4.11,4.11,0,0,1-1.87-.44,4.21,4.21,0,0,1-2.16-2.45,4.26,4.26,0,1,1,5.41,2.66A4.12,4.12,0,0,1,11.27,26.06Zm0-7a2.73,2.73,0,0,0-.89.15,2.76,2.76,0,0,0-.33,5.09,2.74,2.74,0,0,0,2.1.13A2.7,2.7,0,0,0,13.75,23a2.76,2.76,0,0,0,.14-2.11h0a2.73,2.73,0,0,0-1.4-1.58A2.7,2.7,0,0,0,11.28,19Z"/><path class="cls-1" d="M11.28,12H.75a.75.75,0,0,1,0-1.5H11.28a.75.75,0,0,1,0,1.5Z"/></g></g></svg>