<svg xmlns="http://www.w3.org/2000/svg" viewBox="0 0 90 90"><defs><style>.cls-1{fill:none;stroke:#bc204b;stroke-linecap:round;stroke-linejoin:round;stroke-width:1.5px;}.cls-2{fill:#bc204b;}</style></defs><title>summer_office</title><g id="lines"><path class="cls-1" d="M20,69c5,0,5,2,10,2s5-2,10-2,5,2,10,2,5-2,10-2,5,2,10,2"/><path class="cls-1" d="M20,64.33c5,0,5,2,10,2s5-2,10-2,5,2,10,2,5-2,10-2,5,2,10,2"/><path class="cls-1" d="M20,59c5,0,5,2,10,2s5-2,10-2,5,2,10,2,5-2,10-2,5,2,10,2"/><path class="cls-1" d="M20,58.58C20,44.78,31.19,35,45,35S70,46.82,70,60.62"/><path class="cls-1" d="M60.11,25s5,0,5,5c0,0,0-5,5-5"/><path class="cls-1" d="M19.12,30s5,0,5,5c0,0,0-5,5-5"/></g><g id="dots"><circle class="cls-2" cx="60" cy="49.72" r="1"/></g></svg>