<?xml version="1.0" encoding="utf-8"?>
<!-- Generator: Adobe Illustrator 22.0.1, SVG Export Plug-In . SVG Version: 6.00 Build 0)  -->
<svg version="1.1" id="Layer_1" xmlns="http://www.w3.org/2000/svg" xmlns:xlink="http://www.w3.org/1999/xlink" x="0px" y="0px"
	 viewBox="0 0 64 64" style="enable-background:new 0 0 64 64;" xml:space="preserve">
<style type="text/css">
	.st0{fill:#C31C4A;}
	.st1{fill:none;stroke:#C31C4A;stroke-width:3.5;stroke-linecap:round;stroke-linejoin:round;stroke-miterlimit:10;}
	.st2{fill:none;stroke:#C31C4A;stroke-width:2.5;stroke-linecap:round;stroke-linejoin:round;stroke-miterlimit:10;}
	.st3{fill:none;stroke:#C31C4A;stroke-width:2.5448;stroke-linecap:round;stroke-linejoin:round;stroke-miterlimit:10;}
	.st4{fill:none;stroke:#C31C4A;stroke-width:3.4912;stroke-linecap:round;stroke-linejoin:round;stroke-miterlimit:10;}
	.st5{fill:none;stroke:#C31C4A;stroke-width:1.25;stroke-linecap:round;stroke-linejoin:round;stroke-miterlimit:10;}
	.st6{fill:none;stroke:#C31C4A;stroke-width:1.5167;stroke-linecap:round;stroke-linejoin:round;stroke-miterlimit:10;}
	.st7{fill:none;stroke:#C31C4A;stroke-width:1.146;stroke-linecap:round;stroke-linejoin:round;stroke-miterlimit:10;}
	.st8{fill:none;stroke:#C31C4A;stroke-width:0.9881;stroke-linecap:round;stroke-linejoin:round;stroke-miterlimit:10;}
	.st9{fill:none;stroke:#C31C4A;stroke-width:1.4428;stroke-linecap:round;stroke-linejoin:round;stroke-miterlimit:10;}
	.st10{opacity:0.5;fill:#C31C4A;}
	.st11{fill:#BC204B;}
	.st12{fill:#FFFFFF;}
	.st13{fill:none;stroke:#C31C4A;stroke-width:3.6913;stroke-linecap:round;stroke-linejoin:round;stroke-miterlimit:10;}
	.st14{fill:none;stroke:#C31C4A;stroke-width:3.0364;stroke-linecap:round;stroke-linejoin:round;stroke-miterlimit:10;}
	.st15{fill:#FFFFFF;stroke:#989898;stroke-width:1.2129;stroke-linecap:round;stroke-linejoin:round;stroke-miterlimit:10;}
	.st16{fill:none;stroke:#989898;stroke-width:1.2129;stroke-linecap:round;stroke-linejoin:round;stroke-miterlimit:10;}
	.st17{fill:#BB1E49;}
	.st18{fill:none;stroke:#C31C4A;stroke-width:3.3908;stroke-linecap:round;stroke-linejoin:round;stroke-miterlimit:10;}
	.st19{fill:none;stroke:#077B8F;stroke-width:3.5;stroke-linecap:round;stroke-linejoin:round;stroke-miterlimit:10;}
	.st20{fill:#077B8F;}
</style>
<path class="st11" d="M49.8,7.4c-1-0.7-2.1-1.4-3.2-2.1c-0.8-0.4-1.8-0.2-2.3,0.6c-0.4,0.8-0.2,1.8,0.6,2.3c1,0.5,2,1.2,2.9,1.8
	c5.8,4.2,9.6,10.5,10.7,17.6c1.1,7.1-0.6,14.2-4.9,20c-8.8,12-25.6,14.6-37.6,5.8c-12-8.8-14.6-25.6-5.8-37.6
	c3.8-5.1,9.1-8.7,15.3-10.2V31c-2.4,1.9-3.8,4.8-3.8,8c0,5.6,4.6,10.2,10.2,10.2s10.2-4.6,10.2-10.2c0-3.1-1.4-6-3.8-8v-2.8
	c0-0.9-0.7-1.7-1.7-1.7s-1.7,0.7-1.7,1.7v3.6c0,0.6,0.3,1.1,0.7,1.4c1.9,1.3,3.1,3.4,3.1,5.7c0,3.8-3.1,6.9-6.9,6.9
	s-6.9-3.1-6.9-6.9c0-2.3,1.1-4.5,3.1-5.7c0.5-0.3,0.7-0.8,0.7-1.4l0-7.5h2.7c0.9,0,1.7-0.7,1.7-1.7s-0.7-1.7-1.7-1.7h-2.7l0-3.6h2.7
	c0.9,0,1.7-0.7,1.7-1.7c0-0.9-0.7-1.7-1.7-1.7h-2.7l0-3.6h2.7c0.9,0,1.7-0.7,1.7-1.7S32.5,7,31.6,7h-2.7l0-2.6c0-1,0-1.5-0.6-2
	c-0.4-0.3-0.9-0.5-1.4-0.4C19.2,3.3,12.3,7.6,7.6,14c-9.8,13.4-6.9,32.4,6.5,42.2C19.5,60.1,25.8,62,32,62c9.3,0,18.5-4.3,24.4-12.4
	c4.8-6.5,6.7-14.5,5.5-22.5C60.6,19.2,56.3,12.2,49.8,7.4z"/>
</svg>
