<?xml version="1.0" encoding="UTF-8"?>
<svg width="60px" height="60px" viewBox="0 0 60 60" version="1.1" xmlns="http://www.w3.org/2000/svg" xmlns:xlink="http://www.w3.org/1999/xlink">
    <!-- Generator: Sketch 47.1 (45422) - http://www.bohemiancoding.com/sketch -->
    <title>Fill 1</title>
    <desc>Created with Sketch.</desc>
    <defs></defs>
    <g id="Embrace" stroke="none" stroke-width="1" fill="none" fill-rule="evenodd">
        <g transform="translate(-814.000000, -1196.000000)" id="Group-25" fill="#BC204B">
            <g transform="translate(2.000000, 1117.000000)">
                <g id="Group-22" transform="translate(760.000000, 79.000000)">
                    <path d="M81.9974242,60 C65.4584013,60 52,46.5421764 52,30.0012878 C52,21.9497746 55.1450159,14.3927882 60.8529235,8.72376046 C61.1233794,8.45589182 61.3835322,8.20090148 61.6591397,7.94333548 C61.9862626,7.64198326 62.4215678,7.47971668 62.8646003,7.50032196 C63.3076329,7.51835158 63.7274835,7.71152608 64.0262729,8.0386349 L82.0721216,27.613651 L95.4790075,15.1526079 C96.1564351,14.5241468 97.2125011,14.5627817 97.8461406,15.2401803 C98.4746287,15.9175789 98.4359921,16.9761751 97.7585644,17.6072118 L83.123036,31.2092724 C82.7959131,31.5132003 82.3837898,31.6780425 81.9175753,31.6574372 C81.471967,31.6419833 81.0546922,31.4462331 80.753327,31.1191243 L62.7383876,11.5801674 C57.9706362,16.5563426 55.3510775,23.0701867 55.3510775,30.0012878 C55.3510775,44.6980039 67.3052288,56.6542176 81.9974242,56.6542176 C96.6947712,56.6542176 108.651498,44.6980039 108.651498,30.0012878 C108.651498,15.3019961 96.6947712,3.34578236 81.9974242,3.34578236 C81.0727226,3.34578236 80.3231733,2.59626529 80.3231733,1.67160335 C80.3231733,0.749517064 81.0727226,0 81.9974242,0 C98.5415987,0 112,13.4578236 112,30.0012878 C112,46.5421764 98.5415987,60 81.9974242,60" id="Fill-1"></path>
                </g>
            </g>
        </g>
    </g>
</svg>