<?xml version="1.0" encoding="UTF-8"?>
<svg width="30px" height="24px" viewBox="0 0 30 24" version="1.1" xmlns="http://www.w3.org/2000/svg" xmlns:xlink="http://www.w3.org/1999/xlink">
    <!-- Generator: Sketch 48.2 (47327) - http://www.bohemiancoding.com/sketch -->
    <title>Shape</title>
    <desc>Created with Sketch.</desc>
    <defs></defs>
    <g id="footer" stroke="none" stroke-width="1" fill="none" fill-rule="evenodd" transform="translate(-1065.000000, -296.000000)">
        <path d="M1094.53846,298.841263 C1093.45169,299.323626 1092.28369,299.648482 1091.05785,299.794914 C1092.30954,299.045529 1093.27077,297.85808 1093.72246,296.442986 C1092.552,297.136998 1091.25477,297.641509 1089.87385,297.913454 C1088.76985,296.735849 1087.19323,296 1085.45046,296 C1081.53785,296 1078.66277,299.649713 1079.54646,303.438474 C1074.51138,303.186218 1070.04615,300.774405 1067.05662,297.108696 C1065.46892,299.831829 1066.23323,303.394176 1068.93108,305.198113 C1067.93908,305.16612 1067.00369,304.894176 1066.18769,304.440115 C1066.12123,307.246924 1068.13354,309.872847 1071.048,310.457342 C1070.19508,310.688679 1069.26092,310.742822 1068.31077,310.560705 C1069.08123,312.967596 1071.31877,314.718622 1073.97231,314.767842 C1071.42462,316.764971 1068.21477,317.657096 1065,317.278097 C1067.68185,318.997129 1070.86831,320 1074.28985,320 C1085.54154,320 1091.89846,310.49918 1091.51446,301.977851 C1092.69846,301.122642 1093.72615,300.055783 1094.53846,298.841263 Z" id="Shape" fill="#909090" fill-rule="nonzero"></path>
    </g>
</svg>