<?xml version="1.0" encoding="UTF-8"?>
<svg width="69px" height="56px" viewBox="0 0 69 56" version="1.1" xmlns="http://www.w3.org/2000/svg" xmlns:xlink="http://www.w3.org/1999/xlink">
    <!-- Generator: Sketch 47.1 (45422) - http://www.bohemiancoding.com/sketch -->
    <title>twitter</title>
    <desc>Created with Sketch.</desc>
    <defs></defs>
    <g id="Symbols" stroke="none" stroke-width="1" fill="none" fill-rule="evenodd">
        <g id="social_media" transform="translate(-320.000000, -2.000000)" fill="#000000">
            <g id="twitter" transform="translate(320.000000, 2.000000)">
                <path d="M68.7058824,6.73428571 C66.1723529,7.84857143 63.4670588,8.60714286 60.6114706,8.95 C63.5185882,7.20571429 65.7558235,4.45 66.8078824,1.16714286 C64.0854118,2.75285714 61.0666471,3.91 57.8546471,4.55285714 C55.2867647,1.81 51.6281765,0.0957142857 47.5659412,0.0957142857 C39.785,0.0957142857 33.4726471,6.39571429 33.4726471,14.1528571 C33.4726471,15.2671429 33.6014706,16.3385714 33.8376471,17.3671429 C22.1232941,16.81 11.7358235,11.1957143 4.78364706,2.71 C3.56411765,4.77142857 2.87705882,7.17142857 2.87705882,9.78571429 C2.87705882,14.6714286 5.36764706,18.97 9.14647059,21.4942857 C6.83623529,21.4214286 4.65911765,20.7871429 2.76111765,19.7371429 L2.76111765,19.9085714 C2.76111765,26.7228571 7.61347059,32.4142857 14.0675294,33.7085714 C12.8823529,34.0257143 11.6370588,34.1971429 10.3531176,34.1971429 C9.45135294,34.1971429 8.59252941,34.1114286 7.73370588,33.9485714 C9.53723529,39.5371429 14.7331176,43.6042857 20.9166471,43.72 C16.1072353,47.4914286 10.0095882,49.7371429 3.43958824,49.7371429 C2.32311765,49.7371429 1.20664706,49.6728571 0.0901764706,49.5442857 C6.35958824,53.53 13.7454706,55.8614286 21.7325294,55.8614286 C47.669,55.8614286 61.8395882,34.4328571 61.8395882,15.8757143 C61.8395882,15.2757143 61.8395882,14.6757143 61.7966471,14.0757143 C64.5448824,12.1042857 66.9495882,9.61857143 68.839,6.79 L68.7058824,6.73428571 Z" id="Shape"></path>
            </g>
        </g>
    </g>
</svg>