<svg xmlns="http://www.w3.org/2000/svg" viewBox="0 0 60.11 60"><defs><style>.cls-1{fill:#fff;}</style></defs><title>waterproof</title><g id="Layer_2" data-name="Layer 2"><g id="Layer_1-2" data-name="Layer 1"><path class="cls-1" d="M42.76,2.7a1.66,1.66,0,0,0-1.4,3A26.77,26.77,0,0,1,56,36.5a26.38,26.38,0,0,1-8.82,13.81,55.74,55.74,0,0,0-34.56-.1A26.89,26.89,0,0,1,7.94,45,26.75,26.75,0,0,1,26.7,3.41l.43,0C32.09,12.66,39,27,39,30.83a9,9,0,0,1-17.91,0c0-2.46,2.28-8.39,6.25-16.28a1.66,1.66,0,0,0-3-1.49C20,21.76,17.8,27.74,17.8,30.83a12.27,12.27,0,0,0,24.53,0c0-6.1-11.48-27.53-12.79-30A1.66,1.66,0,0,0,27.91,0h-.23L26.35.12A30.06,30.06,0,0,0,25,59.57,29.73,29.73,0,0,0,30,60,30.06,30.06,0,0,0,42.76,2.7ZM25.56,56.3A26.8,26.8,0,0,1,16,52.67a52.42,52.42,0,0,1,27.8.06A26.58,26.58,0,0,1,25.56,56.3Z"/></g></g></svg>