<svg xmlns="http://www.w3.org/2000/svg" viewBox="0 0 33.9 33.9"><defs><style>.cls-1{fill:#bc204b;}</style></defs><title>year_warranty_r</title><g id="Layer_2" data-name="Layer 2"><g id="lines"><path class="cls-1" d="M17,33.9c-1.5,0-2.67-1.1-3.7-2.07a7.17,7.17,0,0,0-1.87-1.43,7.56,7.56,0,0,0-2.44-.34C7.48,30,6,30,5,28.94S3.9,26.42,3.84,25a7.6,7.6,0,0,0-.34-2.44,7.2,7.2,0,0,0-1.43-1.86C1.1,19.62,0,18.45,0,17s1.1-2.67,2.07-3.7A7.4,7.4,0,0,0,3.5,11.38a7.6,7.6,0,0,0,.34-2.44C3.9,7.48,4,6,5,5s2.52-1.06,4-1.12a7.56,7.56,0,0,0,2.44-.34,7.17,7.17,0,0,0,1.87-1.43c1-1,2.2-2.07,3.7-2.07s2.67,1.1,3.71,2.07A7,7,0,0,0,22.52,3.5,7.6,7.6,0,0,0,25,3.84c1.46.06,3,.11,4,1.12s1.06,2.52,1.12,4a7.56,7.56,0,0,0,.34,2.44,7.17,7.17,0,0,0,1.43,1.87c1,1,2.07,2.2,2.07,3.7s-1.1,2.67-2.07,3.71a7,7,0,0,0-1.43,1.86A7.6,7.6,0,0,0,30.06,25c-.06,1.46-.11,3-1.12,4S26.42,30,25,30.06a7.56,7.56,0,0,0-2.44.34,7.17,7.17,0,0,0-1.87,1.43C19.62,32.8,18.45,33.9,17,33.9ZM17,1.5c-.9,0-1.77.81-2.68,1.67A8.33,8.33,0,0,1,12,4.89a8.78,8.78,0,0,1-3,.45c-1.22,0-2.38.09-3,.69s-.64,1.75-.69,3a8.78,8.78,0,0,1-.45,3,8.33,8.33,0,0,1-1.72,2.31C2.31,15.18,1.5,16.05,1.5,17s.81,1.77,1.67,2.68A8.23,8.23,0,0,1,4.89,22a8.68,8.68,0,0,1,.45,2.95c0,1.22.09,2.38.69,3s1.75.63,3,.68A8.78,8.78,0,0,1,12,29a8.18,8.18,0,0,1,2.31,1.73c.91.85,1.78,1.66,2.68,1.66s1.77-.81,2.68-1.66A8.08,8.08,0,0,1,22,29a8.68,8.68,0,0,1,2.95-.45c1.22,0,2.38-.09,3-.68s.63-1.76.68-3A8.68,8.68,0,0,1,29,22a8.08,8.08,0,0,1,1.73-2.32c.85-.91,1.66-1.78,1.66-2.68s-.81-1.77-1.66-2.68A8.18,8.18,0,0,1,29,12a8.78,8.78,0,0,1-.45-3c0-1.22-.09-2.38-.68-3s-1.76-.64-3-.69A8.68,8.68,0,0,1,22,4.89a8.08,8.08,0,0,1-2.32-1.73C18.72,2.31,17.85,1.5,17,1.5Z"/><path class="cls-1" d="M17,22.7a.75.75,0,0,1-.53-.22l-5-5a.75.75,0,0,1,1.06-1.06l4.27,4.26,4.53-9.07a.76.76,0,0,1,1-.33.75.75,0,0,1,.33,1l-5,10a.76.76,0,0,1-.55.4Z"/></g></g></svg>