<?xml version="1.0" encoding="UTF-8"?>
<svg width="80px" height="58px" viewBox="0 0 80 58" version="1.1" xmlns="http://www.w3.org/2000/svg" xmlns:xlink="http://www.w3.org/1999/xlink">
    <!-- Generator: Sketch 47.1 (45422) - http://www.bohemiancoding.com/sketch -->
    <title>youtube</title>
    <desc>Created with Sketch.</desc>
    <defs></defs>
    <g id="Symbols" stroke="none" stroke-width="1" fill="none" fill-rule="evenodd">
        <g id="social_media" transform="translate(-200.000000, -1.000000)" fill="#000000">
            <g id="youtube" transform="translate(200.000000, 1.000000)">
                <path d="M0,25.725 C0,19.255 0.8,12.775 0.8,12.775 C0.8,12.775 1.58,7.275 3.98,4.84 C7.02,1.655 11.02,1.755 12.8,1.42 C19.2,0.8 40,0.62 40,0.62 C40,0.62 56.81,0.64 68,1.45 C69.57,1.64 72.98,1.65 76.02,4.84 C78.42,7.27 79.2,12.78 79.2,12.78 C79.2,12.78 80,19.25 80,25.73 L80,32.02 C80,38.5 79.2,44.97 79.2,44.97 C79.2,44.97 78.42,50.48 76.02,52.91 C72.98,56.1 69.57,56.11 68,56.3 C56.81,57.11 40,57.13 40,57.13 C40,57.13 19.2,56.945 12.8,56.33 C11.02,55.995 7.02,56.095 3.98,52.91 C1.58,50.475 0.8,44.975 0.8,44.975 C0.8,44.975 0,38.5 0,32.025 L0,25.725 Z M31.74,39.375 L31.74,16.9 L53.355,28.175 L31.755,39.375 L31.74,39.375 Z" id="Shape"></path>
            </g>
        </g>
    </g>
</svg>