<?xml version="1.0" encoding="UTF-8"?>
<svg width="35px" height="24px" viewBox="0 0 35 24" version="1.1" xmlns="http://www.w3.org/2000/svg" xmlns:xlink="http://www.w3.org/1999/xlink">
    <!-- Generator: Sketch 48.2 (47327) - http://www.bohemiancoding.com/sketch -->
    <title>Shape</title>
    <desc>Created with Sketch.</desc>
    <defs></defs>
    <g id="footer" stroke="none" stroke-width="1" fill="none" fill-rule="evenodd" transform="translate(-1004.000000, -296.000000)">
        <path d="M1037.69081,299.705868 C1037.2882,298.255387 1036.16092,297.12195 1034.71832,296.717143 C1032.05618,296.00002 1021.34212,296.00002 1021.34212,296.00002 C1021.34212,296.00002 1010.65511,295.985706 1007.96592,296.717143 C1006.52332,297.12195 1005.39604,298.255387 1004.99343,299.705868 C1004.48879,302.446264 1004.24,305.228086 1004.25031,308.01504 C1004.24195,310.791477 1004.49073,313.562666 1004.99343,316.292721 C1005.39604,317.743202 1006.52332,318.876639 1007.96592,319.281446 C1010.62521,320 1021.34212,320 1021.34212,320 C1021.34212,320 1032.02771,320 1034.71832,319.281446 C1036.16092,318.876639 1037.2882,317.743202 1037.69081,316.292721 C1038.18301,313.561677 1038.4213,310.790496 1038.40261,308.01504 C1038.42325,305.22907 1038.18495,302.447256 1037.69081,299.705868 Z M1017.92262,313.155132 L1017.92262,302.859202 L1026.84009,308.01504 L1017.92262,313.155132 Z" id="Shape" fill="#909090" fill-rule="nonzero"></path>
    </g>
</svg>