<?xml version="1.0" encoding="UTF-8"?>
<svg width="316px" height="299px" viewBox="0 0 316 299" version="1.1" xmlns="http://www.w3.org/2000/svg" xmlns:xlink="http://www.w3.org/1999/xlink">
    <!-- Generator: Sketch 48.2 (47327) - http://www.bohemiancoding.com/sketch -->
    <title>Group 22</title>
    <desc>Created with Sketch.</desc>
    <defs></defs>
    <g id="Store:-Above-the-Fold" stroke="none" stroke-width="1" fill="none" fill-rule="evenodd" transform="translate(-300.000000, -3015.000000)">
        <g id="Group-22" transform="translate(300.000000, 3015.000000)">
            <g>
                <g id="plus_trial_r" transform="translate(60.000000, 51.000000)" fill="#BC204B" fill-rule="nonzero">
                    <path d="M182.539683,200 L17.4603175,200 C7.8172504,200 1.18093512e-15,192.18275 0,182.539683 L0,17.4603175 C-1.18093512e-15,7.8172504 7.8172504,1.77140268e-15 17.4603175,0 L182.539683,0 C192.18275,5.9046756e-16 200,7.8172504 200,17.4603175 L200,182.539683 C200,192.18275 192.18275,200 182.539683,200 Z M17.4603175,9.52380952 C13.0771052,9.52380952 9.52380952,13.0771052 9.52380952,17.4603175 L9.52380952,182.539683 C9.52380952,186.922895 13.0771052,190.47619 17.4603175,190.47619 L182.539683,190.47619 C186.922895,190.47619 190.47619,186.922895 190.47619,182.539683 L190.47619,17.4603175 C190.47619,13.0771052 186.922895,9.52380952 182.539683,9.52380952 L17.4603175,9.52380952 Z" id="Shape"></path>
                    <path d="M39.1285635,88.7242732 L39.1285635,76.7702904 C46.3146525,74.1011108 53.9535859,72.8273619 61.6271728,73.0187745 C82.7115839,73.0187745 91.2610554,81.8570916 91.2610554,95.7822099 C91.4663047,103.37216 87.2037037,110.391226 80.3331595,113.776769 C88.8864137,116.353279 94.5275318,124.407396 93.9608885,133.233784 C93.9608885,148.430603 84.8328813,158.985715 61.8200181,158.985715 C54.0435865,159.151122 46.3042963,157.878815 39,155.234199 L39,143.343801 C46.0552039,146.188063 53.6245339,147.572995 61.2414824,147.413242 C75.8334376,147.413242 80.5260047,141.436251 80.5260047,133.233784 C80.5260047,123.441692 75.1263384,120.198856 63.9413155,120.198856 L48.4494159,120.198856 L48.4494159,108.880723 L64.5198512,108.880723 C73.5835767,108.880723 78.0832985,103.984677 78.0832985,96.9903252 C78.0832985,88.9150283 73.1336045,84.2733222 60.2129745,84.2733222 C52.9502829,84.3078903 45.7727705,85.823074 39.1285635,88.7242732 Z" id="Shape"></path>
                    <path d="M134,73 C156.978723,73 161,86.9940828 161,116 C161,145.005917 156.978723,159 134,159 C111.021277,159 107,145.005917 107,116 C107,86.9940828 111.212766,73 134,73 Z M134,84.3224852 C120.404255,84.3224852 119.510638,94.6272189 119.510638,116.127219 C119.510638,137.627219 120.404255,147.931953 134,147.931953 C147.595745,147.931953 148.489362,137.563609 148.489362,116.127219 C148.489362,94.6908284 147.787234,84.3224852 134,84.3224852 Z" id="Shape"></path>
                    <path d="M195.238095,41 L4.76190476,41 C2.13197738,41 3.22073215e-16,38.9852814 0,36.5 C-3.22073215e-16,34.0147186 2.13197738,32 4.76190476,32 L195.238095,32 C197.868023,32 200,34.0147186 200,36.5 C200,38.9852814 197.868023,41 195.238095,41 Z" id="Shape"></path>
                </g>
                <g id="Group-27" transform="translate(19.000000, 71.000000)" fill="#BC204B" fill-rule="nonzero">
                    <path d="M10,1.14285714 C10,0.511674572 10.4477153,0 11,0 C11.5522847,0 12,0.511674572 12,1.14285714 L12,6.85714286 C12,7.48832543 11.5522847,8 11,8 C10.4477153,8 10,7.48832543 10,6.85714286 L10,1.14285714 Z" id="Line"></path>
                    <path d="M19.8571429,9 C20.4883254,9 21,9.44771525 21,10 C21,10.5522847 20.4883254,11 19.8571429,11 L14.1428571,11 C13.5116746,11 13,10.5522847 13,10 C13,9.44771525 13.5116746,9 14.1428571,9 L19.8571429,9 Z" id="Line-Copy-2"></path>
                    <path d="M6.85714286,9 C7.48832543,9 8,9.44771525 8,10 C8,10.5522847 7.48832543,11 6.85714286,11 L1.14285714,11 C0.511674572,11 0,10.5522847 0,10 C0,9.44771525 0.511674572,9 1.14285714,9 L6.85714286,9 Z" id="Line-Copy-3"></path>
                    <path d="M10,13.1428571 C10,12.5116746 10.4477153,12 11,12 C11.5522847,12 12,12.5116746 12,13.1428571 L12,18.8571429 C12,19.4883254 11.5522847,20 11,20 C10.4477153,20 10,19.4883254 10,18.8571429 L10,13.1428571 Z" id="Line-Copy"></path>
                </g>
                <g id="Group-27-Copy" transform="translate(240.000000, 271.000000)" fill="#BC204B" fill-rule="nonzero">
                    <path d="M10,1.14285714 C10,0.511674572 10.4477153,0 11,0 C11.5522847,0 12,0.511674572 12,1.14285714 L12,6.85714286 C12,7.48832543 11.5522847,8 11,8 C10.4477153,8 10,7.48832543 10,6.85714286 L10,1.14285714 Z" id="Line"></path>
                    <path d="M19.8571429,9 C20.4883254,9 21,9.44771525 21,10 C21,10.5522847 20.4883254,11 19.8571429,11 L14.1428571,11 C13.5116746,11 13,10.5522847 13,10 C13,9.44771525 13.5116746,9 14.1428571,9 L19.8571429,9 Z" id="Line-Copy-2"></path>
                    <path d="M6.85714286,9 C7.48832543,9 8,9.44771525 8,10 C8,10.5522847 7.48832543,11 6.85714286,11 L1.14285714,11 C0.511674572,11 0,10.5522847 0,10 C0,9.44771525 0.511674572,9 1.14285714,9 L6.85714286,9 Z" id="Line-Copy-3"></path>
                    <path d="M10,13.1428571 C10,12.5116746 10.4477153,12 11,12 C11.5522847,12 12,12.5116746 12,13.1428571 L12,18.8571429 C12,19.4883254 11.5522847,20 11,20 C10.4477153,20 10,19.4883254 10,18.8571429 L10,13.1428571 Z" id="Line-Copy"></path>
                </g>
                <g id="STAR" transform="translate(280.000000, 71.000000)" fill="#BC204B">
                    <g id="Group-27-Copy">
                        <path d="M17,2 C17,0.8954305 17.8954305,0 19,0 C20.1045695,0 21,0.8954305 21,2 L21,12 C21,13.1045695 20.1045695,14 19,14 C17.8954305,14 17,13.1045695 17,12 L17,2 Z" id="Line" fill-rule="nonzero"></path>
                        <path d="M34,15 C35.1045695,15 36,15.8954305 36,17 C36,18.1045695 35.1045695,19 34,19 L24,19 C22.8954305,19 22,18.1045695 22,17 C22,15.8954305 22.8954305,15 24,15 L34,15 Z" id="Line-Copy-2" fill-rule="nonzero"></path>
                        <path d="M12,15 C13.1045695,15 14,15.8954305 14,17 C14,18.1045695 13.1045695,19 12,19 L2,19 C0.8954305,19 0,18.1045695 0,17 C0,15.8954305 0.8954305,15 2,15 L12,15 Z" id="Line-Copy-3" fill-rule="nonzero"></path>
                        <path d="M17,22 C17,20.8954305 17.8954305,20 19,20 C20.1045695,20 21,20.8954305 21,22 L21,32 C21,33.1045695 20.1045695,34 19,34 C17.8954305,34 17,33.1045695 17,32 L17,22 Z" id="Line-Copy" fill-rule="nonzero"></path>
                    </g>
                </g>
                <g id="Group-27-Copy-2" transform="translate(148.000000, 0.000000)" fill="#BC204B" fill-rule="nonzero">
                    <path d="M11,1.28571429 C11,0.575633893 11.6715729,0 12.5,0 C13.3284271,0 14,0.575633893 14,1.28571429 L14,7.71428571 C14,8.42436611 13.3284271,9 12.5,9 C11.6715729,9 11,8.42436611 11,7.71428571 L11,1.28571429 Z" id="Line"></path>
                    <path d="M22.7142857,10 C23.4243661,10 24,10.6715729 24,11.5 C24,12.3284271 23.4243661,13 22.7142857,13 L16.2857143,13 C15.5756339,13 15,12.3284271 15,11.5 C15,10.6715729 15.5756339,10 16.2857143,10 L22.7142857,10 Z" id="Line-Copy-2"></path>
                    <path d="M7.71428571,10 C8.42436611,10 9,10.6715729 9,11.5 C9,12.3284271 8.42436611,13 7.71428571,13 L1.28571429,13 C0.575633893,13 0,12.3284271 0,11.5 C0,10.6715729 0.575633893,10 1.28571429,10 L7.71428571,10 Z" id="Line-Copy-3"></path>
                    <path d="M11,15.2857143 C11,14.5756339 11.6715729,14 12.5,14 C13.3284271,14 14,14.5756339 14,15.2857143 L14,21.7142857 C14,22.4243661 13.3284271,23 12.5,23 C11.6715729,23 11,22.4243661 11,21.7142857 L11,15.2857143 Z" id="Line-Copy"></path>
                </g>
                <g id="Group-27-Copy-3" transform="translate(0.000000, 228.000000)" fill="#BC204B" fill-rule="nonzero">
                    <path d="M11,1.28571429 C11,0.575633893 11.6715729,0 12.5,0 C13.3284271,0 14,0.575633893 14,1.28571429 L14,7.71428571 C14,8.42436611 13.3284271,9 12.5,9 C11.6715729,9 11,8.42436611 11,7.71428571 L11,1.28571429 Z" id="Line"></path>
                    <path d="M22.7142857,10 C23.4243661,10 24,10.6715729 24,11.5 C24,12.3284271 23.4243661,13 22.7142857,13 L16.2857143,13 C15.5756339,13 15,12.3284271 15,11.5 C15,10.6715729 15.5756339,10 16.2857143,10 L22.7142857,10 Z" id="Line-Copy-2"></path>
                    <path d="M7.71428571,10 C8.42436611,10 9,10.6715729 9,11.5 C9,12.3284271 8.42436611,13 7.71428571,13 L1.28571429,13 C0.575633893,13 0,12.3284271 0,11.5 C0,10.6715729 0.575633893,10 1.28571429,10 L7.71428571,10 Z" id="Line-Copy-3"></path>
                    <path d="M11,15.2857143 C11,14.5756339 11.6715729,14 12.5,14 C13.3284271,14 14,14.5756339 14,15.2857143 L14,21.7142857 C14,22.4243661 13.3284271,23 12.5,23 C11.6715729,23 11,22.4243661 11,21.7142857 L11,15.2857143 Z" id="Line-Copy"></path>
                </g>
                <circle id="Oval-Copy-3" fill="#BC204B" cx="291.5" cy="12.5" r="1.5"></circle>
                <circle id="Oval-Copy-18" fill="#BC204B" cx="278.5" cy="69.5" r="1.5"></circle>
                <circle id="Oval-Copy-19" fill="#BC204B" cx="278.5" cy="109.5" r="1.5"></circle>
                <circle id="Oval-Copy-4" fill="#BC204B" cx="230.5" cy="29.5" r="1.5"></circle>
                <circle id="Oval-Copy-11" fill="#BC204B" cx="261.5" cy="42.5" r="1.5"></circle>
                <circle id="Oval-Copy-27" fill="#BC204B" cx="15.5" cy="189.5" r="1.5"></circle>
                <circle id="Oval-Copy-8" fill="#BC204B" cx="47.5" cy="59.5" r="1.5"></circle>
                <circle id="Oval-Copy-6" fill="#BC204B" cx="58.5" cy="40.5" r="1.5"></circle>
                <g id="Group-29" transform="translate(40.000000, 99.000000)" fill="#BC204B">
                    <circle id="Oval-Copy-30" cx="7.5" cy="90.5" r="1.5"></circle>
                    <circle id="Oval-Copy-10" cx="10.5" cy="1.5" r="1.5"></circle>
                    <circle id="Oval-Copy-29" cx="9.5" cy="37.5" r="1.5"></circle>
                    <circle id="Oval-Copy-31" cx="1.5" cy="58.5" r="1.5"></circle>
                </g>
                <circle id="Oval-Copy-30" fill="#BC204B" cx="275.5" cy="221.5" r="1.5"></circle>
                <circle id="Oval-Copy-10" fill="#BC204B" cx="278.5" cy="132.5" r="1.5"></circle>
                <circle id="Oval-Copy-29" fill="#BC204B" cx="277.5" cy="168.5" r="1.5"></circle>
                <circle id="Oval-Copy-31" fill="#BC204B" cx="269.5" cy="189.5" r="1.5"></circle>
                <circle id="Oval-Copy-12" fill="#BC204B" cx="121.5" cy="29.5" r="1.5"></circle>
                <circle id="Oval-Copy-20" fill="#BC204B" cx="70.5" cy="269.5" r="1.5"></circle>
                <circle id="Oval-Copy-28" fill="#BC204B" cx="144.5" cy="269.5" r="1.5"></circle>
                <circle id="Oval-Copy-12" fill="#BC204B" cx="121.5" cy="29.5" r="1.5"></circle>
                <circle id="Oval-Copy-21" fill="#BC204B" cx="70.5" cy="269.5" r="1.5"></circle>
                <circle id="Oval-Copy-33" fill="#BC204B" cx="144.5" cy="269.5" r="1.5"></circle>
                <circle id="Oval-Copy-12" fill="#BC204B" cx="121.5" cy="29.5" r="1.5"></circle>
                <circle id="Oval-Copy-22" fill="#BC204B" cx="70.5" cy="269.5" r="1.5"></circle>
                <circle id="Oval-Copy-34" fill="#BC204B" cx="144.5" cy="269.5" r="1.5"></circle>
                <circle id="Oval-Copy-13" fill="#BC204B" cx="141.5" cy="37.5" r="1.5"></circle>
                <circle id="Oval-Copy-23" fill="#BC204B" cx="88.5" cy="258.5" r="1.5"></circle>
                <circle id="Oval-Copy-35" fill="#BC204B" cx="188.5" cy="272.5" r="1.5"></circle>
                <circle id="Oval-Copy-41" fill="#BC204B" cx="146.5" cy="297.5" r="1.5"></circle>
                <circle id="Oval-Copy-39" fill="#BC204B" cx="221.5" cy="269.5" r="1.5"></circle>
                <circle id="Oval-Copy-40" fill="#BC204B" cx="311.5" cy="165.5" r="1.5"></circle>
                <circle id="Oval-Copy-14" fill="#BC204B" cx="121.5" cy="29.5" r="1.5"></circle>
                <circle id="Oval-Copy-24" fill="#BC204B" cx="70.5" cy="269.5" r="1.5"></circle>
                <circle id="Oval-Copy-36" fill="#BC204B" cx="144.5" cy="269.5" r="1.5"></circle>
                <circle id="Oval-Copy-15" fill="#BC204B" cx="101.5" cy="39.5" r="1.5"></circle>
                <circle id="Oval-Copy-25" fill="#BC204B" cx="178.5" cy="259.5" r="1.5"></circle>
                <circle id="Oval-Copy-37" fill="#BC204B" cx="140.5" cy="259.5" r="1.5"></circle>
                <circle id="Oval-Copy-16" fill="#BC204B" cx="169.5" cy="32.5" r="1.5"></circle>
                <circle id="Oval-Copy-17" fill="#BC204B" cx="194.5" cy="42.5" r="1.5"></circle>
                <circle id="Oval-Copy-9" fill="#BC204B" cx="98.5" cy="23.5" r="1.5"></circle>
                <circle id="Oval-Copy-42" fill="#BC204B" cx="41.5" cy="22.5" r="1.5"></circle>
                <circle id="Oval-Copy-26" fill="#BC204B" cx="58.5" cy="252.5" r="1.5"></circle>
                <circle id="Oval-Copy-38" fill="#BC204B" cx="111.5" cy="262.5" r="1.5"></circle>
                <circle id="Oval-Copy-32" fill="#BC204B" cx="41.5" cy="241.5" r="1.5"></circle>
                <circle id="Oval-Copy-5" fill="#BC204B" cx="201.5" cy="20.5" r="1.5"></circle>
                <path d="M234,51 C244.734556,27.860944 262.067889,15.1942773 286,13" id="Path-10" stroke="#BC204B" stroke-dasharray="4,4"></path>
                <path d="M146,293 C146.200517,273.363895 155.53385,260.363895 174,254" id="Path-10-Copy-2" stroke="#BC204B" stroke-dasharray="4,4" transform="translate(160.000000, 273.500000) scale(-1, 1) rotate(-56.000000) translate(-160.000000, -273.500000) "></path>
                <path d="M53,57 C53.2005169,37.3638947 62.5338502,24.3638947 81,18" id="Path-10-Copy-3" stroke="#BC204B" stroke-dasharray="4,4" transform="translate(67.000000, 37.500000) scale(-1, 1) rotate(18.000000) translate(-67.000000, -37.500000) "></path>
                <path d="M24,199 C26.3296926,180.225774 38.6630259,168.892441 61,165" id="Path-10-Copy" stroke="#BC204B" stroke-dasharray="4,4" transform="translate(42.500000, 182.000000) rotate(36.000000) translate(-42.500000, -182.000000) "></path>
                <path d="M259,171 C267.876652,149.687712 282.209985,138.021045 302,136" id="Path-10-Copy-4" stroke="#BC204B" stroke-dasharray="4,4" transform="translate(280.500000, 153.500000) rotate(53.000000) translate(-280.500000, -153.500000) "></path>
            </g>
        </g>
    </g>
</svg>