<?xml version="1.0" encoding="UTF-8"?>
<svg width="115px" height="55px" viewBox="0 0 115 55" version="1.1" xmlns="http://www.w3.org/2000/svg" xmlns:xlink="http://www.w3.org/1999/xlink">
    <!-- Generator: Sketch 48.2 (47327) - http://www.bohemiancoding.com/sketch -->
    <title>mit</title>
    <desc>Created with Sketch.</desc>
    <defs></defs>
    <g id="Store-Mobile:-Above-the-Fold" stroke="none" stroke-width="1" fill="none" fill-rule="evenodd" transform="translate(-40.000000, -3346.000000)">
        <g id="Group-11" transform="translate(40.000000, 3346.000000)" fill="#5F5F5F">
            <g id="mit">
                <g id="Group-12">
                    <path d="M115.000002,23.4894009 L111.362371,23.4894009 L109.455046,31.8125182 L107.546424,23.4894009 L103.91009,23.4894009 L107.282141,34.4161566 C107.457964,34.9731271 107.525282,35.2179111 107.525282,35.5297273 C107.525282,35.9298591 107.30458,36.3748891 106.284847,36.3748891 L104.481041,36.3748891 L104.481041,39.1119815 L107.369405,39.1119815 C108.389138,39.1119815 109.078567,38.9791479 109.786646,38.221301 C110.387516,37.5773958 110.652996,36.864067 110.919772,36.0411792" id="path4366" fill-rule="nonzero"></path>
                    <polyline id="path4336" fill-rule="nonzero" points="76.0219939 42.8271993 72.5239844 42.8271993 70.7425676 51.0336133 69.1581164 42.8271993 65.5516512 42.8271993 63.8126194 50.9670714 62.2069757 42.8271993 58.6428955 42.8271993 61.7881121 54.4683946 65.5055263 54.4683946 67.222119 46.7071408 68.9175192 54.4683946 72.5900552 54.4683946"></polyline>
                    <path d="M52.6317045,44.9232683 C54.0316563,44.9232683 54.896809,45.9277704 54.9429339,47.2197133 L50.1870871,47.2197133 C50.3429143,46.2839945 51.0098548,44.9232683 52.6317045,44.9232683 M58.4758487,49.3620614 L58.4758487,49.205713 C58.4758487,45.9712978 57.0098262,42.4705949 52.652897,42.4705949 C48.1201948,42.4705949 46.6984222,45.9487836 46.6984222,48.8706222 C46.6984222,52.6381229 49.0314724,54.8910406 52.5656338,54.8910406 C54.965373,54.8910406 57.0322653,53.73006 58.3437072,51.5236716 L55.764455,50.1853295 C55.4091689,51.1459339 54.4542597,52.2590043 52.8311634,52.2590043 C51.2529453,52.2590043 50.1870871,51.0546265 50.1870871,49.4935141 L50.1870871,49.3620614" id="path4338" fill-rule="nonzero"></path>
                    <polyline id="path4340" fill-rule="nonzero" points="40.2977879 42.8271993 36.7873123 42.8271993 34.8760079 50.7209165 32.8093549 42.8271993 29.1864344 42.8271993 32.9651822 54.4683946 36.5428555 54.4683946"></polyline>
                    <path d="M23.2645013,44.9232683 C24.664453,44.9232683 25.5307327,45.9277704 25.575611,47.2197133 L20.8208811,47.2197133 C20.975711,46.2839945 21.6429108,44.9232683 23.2645013,44.9232683 M29.1085257,49.3620614 L29.1085257,49.205713 C29.1085257,45.9712978 27.6427526,42.4705949 23.2868207,42.4705949 C18.7527422,42.4705949 17.3318473,45.9487836 17.3318473,48.8706222 C17.3318473,52.6381229 19.6643988,54.8910406 23.1981812,54.8910406 C25.5979204,54.8910406 27.665062,53.73006 28.9765039,51.5236716 L26.3984984,50.1853295 C26.0430926,51.1459339 25.0871861,52.2590043 23.4650871,52.2590043 C21.886869,52.2590043 20.8208811,51.0546265 20.8208811,49.4935141 L20.8208811,49.3620614" id="path4342" fill-rule="nonzero"></path>
                    <path d="M10.5723167,45.9272701 L7.48356683,45.9272701 L7.48356683,41.6497084 L10.5937585,41.6497084 C11.2492301,41.6497084 13.0382463,41.6932358 13.0382463,43.7433958 C13.0382463,44.2338344 12.7091392,45.9272701 10.5723167,45.9272701 M13.470703,48.1796974 C15.1015284,47.495757 16.5399957,46.4252134 16.5399957,43.8332124 C16.5399957,39.5268726 12.8050091,38.7289905 10.5835362,38.7289905 L3.96037567,38.7289905 L3.96037567,54.4649024 L7.50451001,54.4649024 L7.50451001,48.8491086 L9.901756,48.8491086 L12.8849123,54.4649024 L16.9203437,54.4649024" id="path4344" fill-rule="nonzero"></path>
                    <polygon id="path4346" fill-rule="nonzero" points="41.5990076 40.6119253 44.9936176 40.6119253 44.9936176 37.5611856 41.5990076 37.5611856"></polygon>
                    <polygon id="path4348" fill-rule="nonzero" points="41.5990076 54.4653927 44.9936176 54.4653927 44.9936176 42.8443101 41.5990076 42.8443101"></polygon>
                    <path d="M84.1860937,32.7188385 C82.1865188,32.7188385 81.3637511,31.1802404 81.3637511,29.2405198 C81.3637511,26.8088697 82.7188246,25.8282526 84.0078274,25.8282526 C85.8752608,25.8282526 86.9186799,26.9216906 86.9186799,29.3954973 C86.9186799,31.1343415 86.0759663,32.7188385 84.1860937,32.7188385 M84.0302665,23.1077907 C79.6957765,23.1077907 77.9193462,26.2747836 77.9193462,29.2181357 C77.9193462,33.8107757 81.1181674,35.460814 84.1412155,35.460814 C88.0306629,35.460814 90.3855239,33.0530489 90.3855239,29.2840472 C90.3855239,26.4976738 88.8970623,23.1077907 84.0302665,23.1077907" id="path4350" fill-rule="nonzero"></path>
                    <polygon id="path4352" fill-rule="nonzero" points="72.9939593 35.1030889 76.3934262 35.1030889 76.3934262 19.3621838 72.9939593 19.3621838"></polygon>
                    <path d="M65.2911081,32.7188385 C63.2902865,32.7188385 62.4662722,31.1802404 62.4662722,29.2405198 C62.4662722,26.8088697 63.8225923,25.8282526 65.1115951,25.8282526 C66.9777819,25.8282526 68.0224476,26.9216906 68.0224476,29.3954973 C68.0224476,31.1343415 67.1784874,32.7188385 65.2911081,32.7188385 M65.1352808,23.1077907 C60.7995442,23.1077907 59.0231139,26.2747836 59.0231139,29.2181357 C59.0231139,33.8107757 62.2231817,35.460814 65.2449832,35.460814 C69.1331841,35.460814 71.4892917,33.0530489 71.4892917,29.2840472 C71.4892917,26.4976738 69.9995834,23.1077907 65.1352808,23.1077907" id="path4354" fill-rule="nonzero"></path>
                    <path d="M57.5134598,35.1045898 L57.5134598,26.7429482 C57.5134598,24.3790907 56.2680886,23.1757035 53.9132276,23.1757035 C52.2901313,23.1757035 51.201834,23.8211096 50.647089,24.4905308 L50.647089,23.4645152 L47.1796167,23.4645152 L47.1796167,35.1045898 L50.6022108,35.1045898 L50.6022108,28.5927422 C50.6022108,27.0316298 50.8241088,25.9176789 52.4023269,25.9176789 C53.7798395,25.9176789 54.091494,26.8318841 54.091494,27.9248219 L54.091494,35.1045898" id="path4356" fill-rule="nonzero"></path>
                    <path d="M45.0096341,35.1045898 L45.0096341,27.1445809 C45.0096341,24.6692733 43.7206313,23.1531893 41.3208921,23.1531893 C40.6538319,23.1531893 39.2761896,23.3095377 38.0101246,24.7143016 L38.0101246,19.3633045 L34.5877799,19.3633045 L34.5877799,35.1045898 L38.0101246,35.1045898 L38.0101246,28.9733517 C38.0101246,27.1445809 38.4323491,26.0740272 39.8537427,26.0740272 C41.5430394,26.0740272 41.6087312,27.6121251 41.6087312,28.8170033 L41.6087312,35.1045898" id="path4358" fill-rule="nonzero"></path>
                    <path d="M33.4954934,32.3612335 L30.9174878,31.023892 C30.673031,31.7607357 30.0064595,32.7627362 28.6722095,32.7627362 C26.7837033,32.7627362 26.094204,30.7337094 26.094204,29.261533 C26.094204,27.8568991 26.739952,25.7618308 28.5616395,25.7618308 C29.8953909,25.7618308 30.5172038,26.7424479 30.8288583,27.3893549 L33.3621053,25.9406933 C31.7405148,23.3540657 29.4503483,23.1303049 28.4058123,23.1303049 C25.7840454,23.1303049 22.5837283,24.7138013 22.5837283,29.3744841 C22.5837283,33.7433532 25.6282182,35.483198 28.3396119,35.483198 C30.1169099,35.483198 32.1840614,34.6590594 33.4954934,32.3612335" id="path4360" fill-rule="nonzero"></path>
                    <path d="M15.6606315,25.5609544 C17.0605832,25.5609544 17.9268629,26.5640856 17.9717412,27.8573995 L13.216014,27.8573995 C13.3718412,26.92069 14.0390311,25.5609544 15.6606315,25.5609544 M21.5046559,29.998877 L21.5046559,29.8425286 C21.5046559,26.6089939 20.0388828,23.108291 15.6829509,23.108291 C11.1488724,23.108291 9.72698018,26.5865998 9.72698018,29.5073177 C9.72698018,33.275809 12.060529,35.5272257 15.5934438,35.5272257 C17.9940506,35.5272257 20.0598259,34.3678762 21.3711382,32.1603571 L18.7946286,30.8231457 C18.4382255,31.7827495 17.4833163,32.8956998 15.86022,32.8956998 C14.2829992,32.8956998 13.216014,31.6923126 13.216014,30.1312103 L13.216014,29.998877" id="path4362" fill-rule="nonzero"></path>
                    <path d="M99.5294753,23.4942839 L99.5294753,24.562326 C98.9086596,23.9623284 97.9986287,23.2944082 96.3131915,23.2944082 C93.5394669,23.2944082 91.5211927,25.4970442 91.5211927,28.9688488 C91.5211927,33.4859413 94.4270588,34.5763774 96.3131915,34.5763774 C97.8651907,34.5763774 98.5745661,34.0873197 99.3511591,33.5757478 L99.3511591,35.1553718 C99.3511591,36.4686982 98.5970052,37.0027843 97.3329348,37.0027843 C95.5577411,37.0027843 95.2261407,36.1072207 95.2261407,35.3278503 L91.6994591,35.3278503 L91.6994591,35.467188 C91.6994591,38.0049149 93.8735605,39.2732129 97.0013245,39.2732129 C100.771107,39.2732129 102.745749,37.849437 102.745749,34.8226624 L102.745749,23.4942839 L99.5294753,23.4942839 Z M99.3511591,28.9464648 C99.3511591,30.1258269 99.2414567,31.9732394 97.2219359,31.9732394 C95.3582822,31.9732394 95.0478744,30.4825513 95.0478744,28.8350146 C95.0478744,28.1011829 95.1588234,25.8531383 97.1334759,25.8531383 C99.1305576,25.8531383 99.3511591,27.4781608 99.3511591,28.9464648 Z" id="path4364" fill-rule="nonzero"></path>
                    <polyline id="path4368" fill-rule="nonzero" points="10.9828229 22.4560006 11.6845491 19.3628042 6.40614871e-07 19.3628042 6.40614871e-07 22.4560006 3.95701479 22.4560006 3.95701479 35.0992064 7.49715995 35.0992064 7.49715995 22.4560006"></polyline>
                    <polygon id="path4370" fill-rule="nonzero" points="22.030978 15.7374029 25.4304448 15.7374029 25.4304448 -3.07314762e-08 22.030978 -3.07314762e-08"></polygon>
                    <path d="M19.464192,15.7369025 L19.464192,-3.07314762e-08 L14.0804188,-3.07314762e-08 L11.7279314,10.9727747 L9.33454491,-3.07314762e-08 L3.959887,-3.07314762e-08 L3.959887,15.7369025 L7.50151813,15.7369025 C7.50151813,15.7369025 7.48057495,6.17425517 7.41585055,3.96624576 L10.1944319,15.7369025 L13.2399192,15.7369025 L16.0399523,3.96624576 C15.9536864,7.04393242 15.9536864,15.7369025 15.9536864,15.7369025" id="path4372" fill-rule="nonzero"></path>
                    <polyline id="path4374" fill-rule="nonzero" points="38.1902559 3.09319639 38.1902559 -3.07314762e-08 26.7574046 -3.07314762e-08 26.7574046 3.09319639 30.7130425 3.09319639 30.7130425 15.7364022 34.2371113 15.7364022 34.2371113 3.09319639"></polyline>
                </g>
            </g>
        </g>
    </g>
</svg>