<?xml version="1.0" encoding="UTF-8"?>
<svg width="392px" height="80px" viewBox="0 0 392 80" version="1.1" xmlns="http://www.w3.org/2000/svg" xmlns:xlink="http://www.w3.org/1999/xlink">
    <!-- Generator: Sketch 48.2 (47327) - http://www.bohemiancoding.com/sketch -->
    <title>Group 10</title>
    <desc>Created with Sketch.</desc>
    <defs></defs>
    <g id="Store:-Above-the-Fold" stroke="none" stroke-width="1" fill="none" fill-rule="evenodd" transform="translate(-844.000000, -2700.000000)">
        <g id="Group-4" transform="translate(80.000000, 2520.000000)" fill="#FFFFFF" fill-rule="nonzero">
            <g id="Group-6" transform="translate(640.000000, 0.000000)">
                <g id="Group-10" transform="translate(124.000000, 180.000000)">
                    <path d="M0,0 L78.2926829,0 C78.2926829,26.6634146 78.2926829,53.3365854 78.2926829,80 L0,80 L0,0 Z M5.76585366,12.5560976 C9.25853659,28.8195122 12.3902439,45.1707317 15.7560976,61.4634146 C16.3707317,63.4146341 15.9902439,65.9902439 17.8829268,67.297561 C21.297561,67.8439024 24.8,67.7073171 28.2439024,67.4731707 C30.1170732,67.5317073 30.5658537,65.3268293 30.9073171,63.9121951 C33.2585366,52.3121951 35.8146341,40.7512195 38.1560976,29.1512195 C38.3414634,28.0780488 38.6731707,27.0341463 39.1804878,26.0682927 C42.097561,38.5170732 44.5073171,51.0731707 47.2195122,63.5609756 C47.5902439,64.8878049 47.6682927,66.5268293 48.9756098,67.3365854 C52.702439,67.7853659 56.5268293,67.8243902 60.2439024,67.3073171 C61.5804878,66.5170732 61.6487805,64.8878049 61.9902439,63.5414634 C65.4341463,46.5560976 68.6439024,29.502439 72.2829268,12.5560976 C68.995122,12.5756098 65.7170732,12.5658537 62.4390244,12.5658537 C59.8243902,27.3463415 57.7268293,42.2243902 54.8390244,56.9560976 C51.5902439,44.4585366 49.4146341,31.6585366 46.5853659,19.0439024 C45.9414634,16.8878049 46.2341463,13.7463415 43.8731707,12.6536585 C40.9853659,12.4780488 38.0780488,12.4682927 35.1902439,12.6536585 C33.5512195,12.7902439 33.1804878,14.7317073 32.8585366,16.0195122 C30.2439024,28.5268293 27.502439,41.004878 24.9463415,53.5121951 C24.6829268,54.6731707 24.2926829,55.7853659 23.8536585,56.8878049 C21.2292683,42.1463415 18.7414634,27.3658537 16.4780488,12.5658537 C12.9073171,12.5560976 9.33658537,12.5756098 5.76585366,12.5560976 Z" id="Shape"></path>
                    <path d="M155.853659,0 L234.146341,0 C234.146341,26.6634146 234.146341,53.3365854 234.146341,80 L155.853659,80 C155.853659,53.3365854 155.853659,26.6634146 155.853659,0 Z M173.541463,12.5658537 C173.541463,30.8585366 173.541463,49.1414634 173.541463,67.4341463 C177.15122,67.4341463 180.770732,67.4341463 184.390244,67.4341463 C184.390244,60.2829268 184.390244,53.1219512 184.390244,45.9707317 C190.273171,45.9902439 196.156098,45.9414634 202.039024,45.9804878 C204.185366,45.7756098 206.741463,47.3073171 206.692683,49.6682927 C206.965854,55.6 207.473171,61.5121951 207.843902,67.4341463 C211.287805,67.4341463 214.721951,67.4341463 218.165854,67.4439024 C217.190244,60.7317073 218.390244,53.795122 216.497561,47.2195122 C215.521951,43.7756098 211.717073,43.004878 208.75122,42.1463415 C210.956098,40.9756098 213.785366,40.8682927 215.385366,38.7219512 C217.707317,35.7756098 217.873171,31.8439024 217.882927,28.2536585 C217.843902,24.0585366 217.941463,19.4439024 215.278049,15.9219512 C213.15122,12.995122 209.170732,12.5658537 205.834146,12.5658537 C195.073171,12.5560976 184.302439,12.5658537 173.541463,12.5658537 Z" id="Shape"></path>
                    <path d="M311.95122,0 L391.219512,0 L391.219512,80 L311.95122,80 C311.95122,53.3365854 311.95122,26.6634146 311.95122,0 Z M329.639024,12.5658537 C329.639024,30.8585366 329.639024,49.1414634 329.639024,67.4341463 C338.760976,67.4146341 347.873171,67.4731707 356.995122,67.404878 C362.614634,67.297561 369.160976,66.2536585 372.546341,61.2195122 C376.497561,54.897561 375.902439,47.1609756 376.595122,40.0292683 C375.892683,32.8878049 376.517073,25.1219512 372.546341,18.7804878 C369.395122,14.0682927 363.365854,12.8292683 358.068293,12.6341463 C348.595122,12.4780488 339.112195,12.604878 329.639024,12.5658537 Z" id="Shape"></path>
                    <path d="M98.1560976,12.0292683 C110.770732,12 123.37561,12 135.980488,12.0292683 C136.029268,15.297561 136.029268,18.5756098 135.990244,21.8536585 C131.531707,21.8829268 127.073171,21.8634146 122.614634,21.8634146 C122.634146,33.9512195 122.634146,46.0487805 122.614634,58.1365854 C127.073171,58.1365854 131.531707,58.1170732 136,58.1560976 C136.019512,61.4243902 136.029268,64.702439 135.980488,67.9707317 C123.37561,68 110.770732,68 98.1658537,67.9707317 C98.1170732,64.6926829 98.1170732,61.4243902 98.1560976,58.1463415 C102.614634,58.1170732 107.073171,58.1365854 111.531707,58.1365854 C111.512195,46.0487805 111.512195,33.9512195 111.531707,21.8634146 C107.073171,21.8634146 102.614634,21.8829268 98.1560976,21.8536585 C98.1170732,18.5756098 98.1170732,15.3073171 98.1560976,12.0292683 Z" id="Shape"></path>
                    <path d="M248.136585,12.0390244 C263.590244,11.9902439 279.043902,11.9902439 294.507317,12.0390244 C294.526829,18.1073171 294.507317,24.1756098 294.517073,30.2439024 C291.170732,30.2439024 287.82439,30.2439024 284.478049,30.2439024 C284.468293,27.4439024 284.468293,24.6536585 284.487805,21.8634146 C278.439024,21.8731707 272.4,21.8731707 266.35122,21.8634146 C266.331707,26.0585366 266.341463,30.2536585 266.341463,34.4487805 C271.219512,34.4487805 276.097561,34.4487805 280.97561,34.4487805 C280.97561,37.5609756 280.97561,40.6731707 280.97561,43.7853659 C276.097561,43.7853659 271.219512,43.7853659 266.341463,43.7853659 C266.360976,48.5756098 266.292683,53.3756098 266.390244,58.1658537 C272.595122,58.097561 278.8,58.1463415 285.004878,58.1365854 C284.995122,54.9463415 284.995122,51.7560976 285.004878,48.5658537 C288.409756,48.5268293 291.814634,48.5268293 295.219512,48.5560976 C295.219512,55.0243902 295.268293,61.4926829 295.190244,67.9609756 C279.502439,68.0097561 263.82439,68.0097561 248.136585,67.9609756 C248.087805,64.6926829 248.097561,61.4243902 248.126829,58.1560976 C250.614634,58.1268293 253.092683,58.1268293 255.580488,58.1463415 C255.629268,46.0487805 255.629268,33.9512195 255.580488,21.8536585 C253.092683,21.8731707 250.604878,21.8731707 248.117073,21.8243902 C248.097561,18.5658537 248.097561,15.297561 248.136585,12.0390244 Z" id="Shape"></path>
                    <path d="M184.390244,21.5804878 C191.356098,21.6878049 198.331707,21.3658537 205.278049,21.7268293 C207.960976,23.6292683 207.42439,27.4536585 207.531707,30.3317073 C207.395122,32.9463415 207.346341,37.1317073 203.863415,37.3365854 C197.385366,37.6682927 190.878049,37.3853659 184.390244,37.4731707 C184.390244,32.1756098 184.390244,26.8780488 184.390244,21.5804878 Z" id="Shape"></path>
                    <path d="M340.487805,21.5804878 C346.370732,21.6097561 352.253659,21.5414634 358.136585,21.6 C360.760976,21.5707317 363.756098,22.8487805 364.585366,25.5414634 C366.429268,30.8097561 365.64878,36.5268293 365.853659,42.0097561 C365.697561,46.3902439 366.156098,51.0146341 364.292683,55.1219512 C363.043902,57.7756098 359.814634,58.4780488 357.15122,58.4292683 C351.590244,58.4292683 346.039024,58.4097561 340.487805,58.4195122 C340.487805,46.1365854 340.487805,33.8634146 340.487805,21.5804878 Z" id="Shape"></path>
                </g>
            </g>
        </g>
    </g>
</svg>