<?xml version="1.0" encoding="UTF-8"?>
<svg width="147px" height="30px" viewBox="0 0 147 30" version="1.1" xmlns="http://www.w3.org/2000/svg" xmlns:xlink="http://www.w3.org/1999/xlink">
    <!-- Generator: Sketch 48.2 (47327) - http://www.bohemiancoding.com/sketch -->
    <title>press_wired</title>
    <desc>Created with Sketch.</desc>
    <defs></defs>
    <g id="Store-Mobile:-Above-the-Fold" stroke="none" stroke-width="1" fill="none" fill-rule="evenodd" transform="translate(-42.000000, -3551.000000)">
        <g id="press_wired" transform="translate(42.000000, 3551.000000)" fill-rule="nonzero">
            <path d="M0,0 L29,0 C29,9.99878049 29,20.0012195 29,30 L0,30 L0,0 Z M2.13570093,4.70853659 C3.4294081,10.8073171 4.5894081,16.9390244 5.83613707,23.0487805 C6.06380062,23.7804878 5.92286604,24.7463415 6.62392523,25.2365854 C7.88872274,25.4414634 9.18604361,25.3902439 10.4616822,25.302439 C11.155514,25.3243902 11.3217445,24.497561 11.4482243,23.9670732 C12.3191277,19.6170732 13.265919,15.2817073 14.1332087,10.9317073 C14.2018692,10.5292683 14.3247352,10.1378049 14.512648,9.77560976 C15.5931464,14.4439024 16.4857321,19.152439 17.4903427,23.8353659 C17.6276636,24.3329268 17.6565732,24.947561 18.14081,25.2512195 C19.5212461,25.4195122 20.9378193,25.4341463 22.3146417,25.2402439 C22.8097196,24.9439024 22.8350156,24.3329268 22.9614953,23.8280488 C24.237134,17.4585366 25.4260436,11.0634146 26.7739564,4.70853659 C25.5561371,4.71585366 24.3419315,4.71219512 23.1277259,4.71219512 C22.1592523,10.254878 21.3823053,15.8341463 20.312648,21.3585366 C19.1092835,16.6719512 18.3034268,11.8719512 17.2554517,7.14146341 C17.016947,6.33292683 17.1253583,5.15487805 16.2508411,4.74512195 C15.1811838,4.67926829 14.1042991,4.67560976 13.0346417,4.74512195 C12.4275389,4.79634146 12.2902181,5.52439024 12.1709657,6.00731707 C11.2024922,10.697561 10.1870405,15.3768293 9.24024922,20.0670732 C9.14267913,20.502439 8.99813084,20.9195122 8.83551402,21.3329268 C7.86342679,15.804878 6.94193146,10.2621951 6.1035514,4.71219512 C4.78093458,4.70853659 3.45831776,4.71585366 2.13570093,4.70853659 Z" id="Shape" fill="#5F5F5F"></path>
            <path d="M29,0 L58,0 C58,9.99878049 58,20.0012195 58,30 L29,30 C29,20.0012195 29,9.99878049 29,0 Z M36.4269182,4.51097561 C36.412327,5.7402439 36.412327,6.96585366 36.4269182,8.19512195 C38.0939623,8.20609756 39.7610063,8.19878049 41.4280503,8.19878049 C41.4207547,12.7317073 41.4207547,17.2682927 41.4280503,21.8012195 C39.7610063,21.8012195 38.0939623,21.7939024 36.4269182,21.804878 C36.412327,23.0341463 36.412327,24.2597561 36.430566,25.4890244 C41.143522,25.5 45.856478,25.5 50.569434,25.4890244 C50.587673,24.2634146 50.5840252,23.0341463 50.5767296,21.8085366 C48.9060377,21.7939024 47.2389937,21.8012195 45.5719497,21.8012195 C45.5792453,17.2682927 45.5792453,12.7317073 45.5719497,8.19878049 C47.2389937,8.19878049 48.9060377,8.20609756 50.5730818,8.19512195 C50.587673,6.96585366 50.587673,5.73658537 50.569434,4.51097561 C45.856478,4.5 41.143522,4.5 36.4269182,4.51097561 Z" id="Shape" fill="#FFFFFF"></path>
            <path d="M58,0 L87,0 C87,9.99878049 87,20.0012195 87,30 L58,30 C58,20.0012195 58,9.99878049 58,0 Z M64.5516511,4.71219512 C64.5516511,11.5719512 64.5516511,18.4280488 64.5516511,25.2878049 C65.8887227,25.2878049 67.2294081,25.2878049 68.5700935,25.2878049 C68.5700935,22.6060976 68.5700935,19.9207317 68.5700935,17.2390244 C70.7491589,17.2463415 72.9282243,17.2280488 75.1072897,17.2426829 C75.9023053,17.1658537 76.8490966,17.7402439 76.831028,18.6256098 C76.9322118,20.85 77.1201246,23.0670732 77.2574455,25.2878049 C78.5330841,25.2878049 79.805109,25.2878049 81.0807477,25.2914634 C80.7193769,22.7743902 81.1638629,20.1731707 80.4628037,17.7073171 C80.101433,16.4158537 78.6920872,16.1268293 77.5935202,15.804878 C78.4102181,15.3658537 79.4581931,15.3256098 80.0508411,14.5207317 C80.9109034,13.4158537 80.9723364,11.9414634 80.9759502,10.595122 C80.9614953,9.02195122 80.9976324,7.29146341 80.0110903,5.97073171 C79.2233022,4.87317073 77.7489097,4.71219512 76.5130218,4.71219512 C72.5271028,4.70853659 68.5375701,4.71219512 64.5516511,4.71219512 Z" id="Shape" fill="#5F5F5F"></path>
            <path d="M88,0 L117,0 C117,9.99878049 117,20.0012195 117,30 L88,30 C88,20.0012195 88,9.99878049 88,0 Z M93.2145455,4.51463415 C93.2,5.73658537 93.2,6.96219512 93.2072727,8.18414634 C94.1345455,8.20243902 95.0618182,8.20243902 95.9890909,8.19512195 C96.0072727,12.7317073 96.0072727,17.2682927 95.9890909,21.804878 C95.0618182,21.797561 94.1381818,21.797561 93.2109091,21.8085366 C93.2,23.0341463 93.1963636,24.2597561 93.2145455,25.4853659 C99.0618182,25.5036585 104.905455,25.5036585 110.752727,25.4853659 C110.781818,23.0597561 110.763636,20.6341463 110.763636,18.2085366 C109.494545,18.197561 108.225455,18.197561 106.956364,18.2121951 C106.952727,19.4085366 106.952727,20.604878 106.956364,21.8012195 C104.643636,21.804878 102.330909,21.7865854 100.018182,21.8121951 C99.9818182,20.0158537 100.007273,18.2158537 100,16.4195122 C101.818182,16.4195122 103.636364,16.4195122 105.454545,16.4195122 C105.454545,15.252439 105.454545,14.0853659 105.454545,12.9182927 C103.636364,12.9182927 101.818182,12.9182927 100,12.9182927 C100,11.345122 99.9963636,9.77195122 100.003636,8.19878049 C102.258182,8.20243902 104.509091,8.20243902 106.763636,8.19878049 C106.756364,9.24512195 106.756364,10.2914634 106.76,11.3414634 C108.007273,11.3414634 109.254545,11.3414634 110.501818,11.3414634 C110.498182,9.06585366 110.505455,6.7902439 110.498182,4.51463415 C104.734545,4.49634146 98.9745455,4.49634146 93.2145455,4.51463415 Z" id="Shape" fill="#FFFFFF"></path>
            <path d="M117,0 L147,0 L147,30 L117,30 C117,20.0012195 117,9.99878049 117,0 Z M123.694154,4.71219512 C123.694154,11.5719512 123.694154,18.4280488 123.694154,25.2878049 C127.146462,25.2804878 130.595077,25.302439 134.047385,25.2768293 C136.174154,25.2365854 138.651692,24.845122 139.932923,22.9573171 C141.428308,20.5865854 141.203077,17.6853659 141.465231,15.0109756 C141.199385,12.3329268 141.435692,9.42073171 139.932923,7.04268293 C138.740308,5.27560976 136.458462,4.81097561 134.453538,4.73780488 C130.868308,4.67926829 127.279385,4.72682927 123.694154,4.71219512 Z" id="Shape" fill="#5F5F5F"></path>
            <path d="M37.0108139,5.00823386 C41.6716105,4.99725538 46.3288025,4.99725538 50.9859944,5.00823386 C51.0040176,6.23416398 51.0040176,7.46375359 50.989599,8.69334321 C49.3422796,8.70432169 47.6949602,8.6970027 46.0476407,8.6970027 C46.05485,13.2311144 46.05485,17.7688856 46.0476407,22.3029973 C47.6949602,22.3029973 49.3422796,22.2956783 50.9932037,22.3103163 C51.000413,23.5362464 51.0040176,24.765836 50.9859944,25.9917661 C46.3288025,26.0027446 41.6716105,26.0027446 37.0144186,25.9917661 C36.9963954,24.7621765 36.9963954,23.5362464 37.0108139,22.3066568 C38.6581334,22.2956783 40.3054528,22.3029973 41.9527722,22.3029973 C41.945563,17.7688856 41.945563,13.2311144 41.9527722,8.6970027 C40.3054528,8.6970027 38.6581334,8.70432169 37.0108139,8.69334321 C36.9963954,7.46375359 36.9963954,6.23782347 37.0108139,5.00823386 Z" id="Shape" fill="#5F5F5F"></path>
            <path d="M93.0130407,5.01372071 C98.9148715,4.99542643 104.816702,4.99542643 110.722259,5.01372071 C110.729711,7.2895287 110.722259,9.5653367 110.725985,11.8411447 C109.448,11.8411447 108.170015,11.8411447 106.892031,11.8411447 C106.888305,10.7910532 106.888305,9.74462061 106.895756,8.698188 C104.585696,8.70184685 102.279362,8.70184685 99.9693022,8.698188 C99.9618504,10.2714958 99.9655763,11.8448036 99.9655763,13.4181113 C101.828528,13.4181113 103.69148,13.4181113 105.554431,13.4181113 C105.554431,14.5852862 105.554431,15.752461 105.554431,16.9196359 C103.69148,16.9196359 101.828528,16.9196359 99.9655763,16.9196359 C99.9730281,18.7161338 99.9469468,20.5162906 99.9842058,22.3127886 C102.35388,22.2871766 104.723555,22.3054709 107.093229,22.301812 C107.089503,21.1053663 107.089503,19.9089206 107.093229,18.712475 C108.39357,18.6978395 109.69391,18.6978395 110.99425,18.7088161 C110.99425,21.1346372 111.01288,23.5604582 110.983072,25.9862793 C104.99182,26.0045736 99.0042932,26.0045736 93.0130407,25.9862793 C92.9944111,24.7605628 92.998137,23.5348462 93.0093148,22.3091297 C93.9594201,22.2981531 94.9057996,22.2981531 95.8559049,22.3054709 C95.8745344,17.7684903 95.8745344,13.2315097 95.8559049,8.69452914 C94.9057996,8.70184685 93.9556942,8.70184685 93.0055889,8.68355257 C92.998137,7.4614949 92.998137,6.23577838 93.0130407,5.01372071 Z" id="Shape" fill="#5F5F5F"></path>
            <path d="M2,5.01440059 C3.34203579,5.0218283 4.68407158,5.01440059 6.02610736,5.01811444 C6.87679671,10.6520309 7.81182165,16.2785196 8.79818128,21.8901529 C8.96318568,21.4704874 9.10985626,21.047108 9.2088589,20.6051594 C10.1695512,15.8439987 11.199912,11.0939795 12.1826049,6.33281874 C12.3036081,5.84259002 12.4429451,5.10353309 13.0589616,5.05153913 C14.1443238,4.98097591 15.2370197,4.98468976 16.3223819,5.05153913 C17.2097389,5.46749077 17.099736,6.66335174 17.3417424,7.48411346 C18.4051041,12.2861266 19.2227926,17.158703 20.4438252,21.9161499 C21.5291874,16.3082304 22.3175418,10.6446032 23.3002347,5.01811444 C24.5322675,5.01811444 25.7643004,5.0218283 27,5.01440059 C25.6322969,11.4653649 24.4259314,17.9571816 23.1315635,24.4230013 C23.0032268,24.9355131 22.9775594,25.5557267 22.4752127,25.8565489 C21.0781754,26.0533831 19.6408038,26.0385277 18.2400997,25.8676904 C17.7487533,25.5594406 17.7194192,24.9355131 17.5800821,24.430429 C16.5607216,19.6766959 15.6550308,14.8969659 14.5586682,10.1580883 C14.3679965,10.5257598 14.2433265,10.9231422 14.173658,11.3316661 C13.2936345,15.7474385 12.3329422,20.1483554 11.449252,24.5641277 C11.3209152,25.1026365 11.1522441,25.9419675 10.4482253,25.9196844 C9.15385744,26.0088169 7.837489,26.0608108 6.55412144,25.852835 C5.84276914,25.3551786 5.98577295,24.3747212 5.75476679,23.6319504 C4.48973306,17.4298143 3.31270167,11.2053951 2,5.01440059 Z" id="Shape" fill="#FFFFFF"></path>
            <path d="M69.1329252,8.45098659 C69.1329252,10.4780264 69.1329252,12.5050663 69.1329252,14.5321061 C71.6045037,14.4985088 74.0835155,14.6067669 76.5513774,14.4798436 C77.8782247,14.4014498 77.896808,12.7999763 77.9488413,11.799522 C77.907958,10.6982757 78.1123743,9.23492465 77.090293,8.50698216 C74.4440315,8.36885974 71.78662,8.49205001 69.1329252,8.45098659 Z" id="Shape" fill="#FFFFFF"></path>
            <path d="M69,8.01142415 C71.7091062,8.05178768 74.4220067,7.93069708 77.1235245,8.06646533 C78.1669477,8.78200072 77.9582631,10.2204103 78,11.302887 C77.9468803,12.2862894 77.9279089,13.8604673 76.5733558,13.937525 C74.0539629,14.062285 71.5231872,13.955872 69,13.9888967 C69,11.9964059 69,10.003915 69,8.01142415 Z" id="Shape" fill="#5F5F5F"></path>
            <path d="M128,8.00192792 C130.319231,8.01304562 132.638462,7.98710432 134.957692,8.00933972 C135.992308,7.99822202 137.173077,8.48369493 137.5,9.50652336 C138.226923,11.5077094 137.919231,13.6793669 138,15.7620827 C137.938462,17.4260319 138.119231,19.1826285 137.384615,20.7428125 C136.892308,21.7508173 135.619231,22.0176421 134.569231,21.9991126 C132.376923,21.9991126 130.188462,21.9917008 128,21.9954067 C128,17.3296785 128,12.6676561 128,8.00192792 Z" id="Shape" fill="#5F5F5F"></path>
        </g>
    </g>
</svg>